M48
;GenerationSoftware,Autodesk,EAGLE,9.1.1*%
;CreationDate,2018-07-18T08:58:13Z*%
FMAT,2
ICI,OFF
METRIC,TZ,000.000
T9C0.400
T8C0.800
T7C0.914
T6C1.000
T5C1.016
T4C1.100
T3C1.270
T2C2.750
%
G90
M71
T2
X81590Y3634
X23590Y3634
X23590Y52634
X81590Y52634
T3
X76962Y44323
X76962Y40513
T4
X80364Y10737
X80364Y35237
X80364Y28237
X80364Y24737
X80364Y21237
X80364Y17737
X80364Y14237
X80364Y31737
T5
X56400Y4904
X53860Y4904
X51320Y4904
X48780Y4904
X46240Y4904
X58940Y2364
X56400Y2364
X53860Y2364
X51320Y2364
X48780Y2364
X46240Y2364
X43700Y4904
X43700Y2364
X24638Y47371
X41160Y4904
X58940Y4904
X61480Y2364
X61480Y4904
X64020Y2364
X66560Y2364
X69100Y2364
X71640Y2364
X74180Y2364
X76720Y2364
X64020Y4904
X66560Y4904
X69100Y4904
X71640Y4904
X74180Y4904
X76720Y4904
X28460Y2364
X22098Y47371
X38620Y4904
X31000Y2364
X33540Y2364
X36080Y2364
X38620Y2364
X41160Y2364
X28460Y4904
X31000Y4904
X33540Y4904
X36080Y4904
T6
X10160Y50546
X7620Y53086
X7620Y50546
X10160Y53086
X12700Y50546
X12700Y53086
X15240Y50546
X15240Y53086
X32004Y50546
X32004Y53086
X34544Y50546
X34544Y53086
X37084Y50546
X37084Y53086
X39624Y50546
X39624Y53086
X42164Y50546
X42164Y53086
T7
X10668Y41148
X8128Y43688
X8128Y41148
X5588Y43688
X5588Y41148
X10668Y43688
T8
X49748Y23124
X32272Y26376
X30872Y26376
X17802Y26376
X19202Y26376
X17802Y45376
X19202Y45376
X32272Y45376
X30872Y45376
X49848Y26364
X48448Y26364
X49748Y21724
X35378Y26364
X35378Y45364
X36778Y26364
X30748Y21724
X30748Y23124
X30748Y10054
X49748Y8654
X49748Y10054
X30748Y8654
X48448Y45364
X49848Y45364
X36778Y45364
T9
X12700Y22352
X18669Y22733
X14209Y22987
X19431Y22098
X10516Y16916
X19431Y20955
X11984Y18161
X18799Y20231
X11938Y19120
X57150Y14173
X48006Y27584
X50749Y35966
X25298Y37948
X23774Y36424
X14326Y36424
X59284Y13716
X47092Y21793
X39929Y21793
X17853Y38157
X35662Y30632
X2134Y11125
X15923Y40075
X14557Y40075
X30988Y54102
X14557Y39116
X17853Y39116
X28140Y48060
X14557Y38157
X69088Y44450
X29099Y48060
X68326Y15748
X68326Y14478
X68326Y23114
X68326Y22098
X67564Y41402
X66548Y40386
X70104Y45466
X66294Y37643
X7874Y8890
X13564Y25451
X10363Y14173
X14935Y14630
X7010Y16154
X7010Y19660
X3962Y29870
X63703Y37948
X6731Y11430
X5182Y34747
X21031Y39167
X22860Y40996
X74981Y42977
X21971Y8382
X25400Y8636
X11659Y26238
X9855Y46253
X41605Y36881
X51359Y12040
X8382Y28499
X7468Y27584
X6553Y18288
X24841Y15545
X30632Y12497
X12040Y47244
X8077Y16459
X13818Y41910
X41758Y48616
X63500Y17018
X44196Y15748
X68072Y17018
X28702Y15748
X57404Y10668
X54610Y30734
X3505Y9601
X43383Y28092
X47193Y31318
X37719Y32004
X45364Y45212
X55169Y44374
X57175Y46711
X49784Y33858
X13868Y26518
X57099Y19634
X14326Y20117
X69342Y32004
X62230Y52832
X61976Y8890
X57912Y32004
X61976Y32004
X19304Y41402
X18234Y3356
X69215Y8001
X26594Y36678
X47269Y36805
X44856Y35966
X56515Y40691
X53848Y51714
X52959Y51689
X51232Y51664
X52095Y51689
X52578Y13259
X12344Y1651
X1803Y40716
X9119Y27000
X25400Y27229
X33401Y11608
X41478Y9144
X46914Y10770
X24536Y20269
X27889Y35966
X59131Y37643
X47701Y35204
X42062Y35204
X24994Y21336
X32156Y29870
X21946Y20879
X41453Y27584
X57302Y37643
X51511Y14783
X29566Y18136
X48463Y17831
X27889Y18898
X47396Y17069
X29718Y17069
X53035Y44653
X27889Y39472
X38252Y26060
X31090Y29870
X24384Y31547
X20422Y30937
X17831Y30937
X17831Y29108
X12192Y28499
X58369Y24384
X50292Y25146
X21946Y32004
X26365Y33680
X24689Y35357
X14478Y35357
X53797Y27280
X43282Y32156
X39929Y34595
X13868Y34595
X20269Y27889
X29566Y13259
X16104Y10643
X5944Y19660
X22098Y37490
X23317Y38710
X63246Y38862
X60655Y7468
X7010Y22708
X36271Y21031
X27584Y33376
X39014Y24841
X43282Y24384
X53645Y14021
X56998Y7925
X9144Y14021
X6096Y17374
X14478Y44196
X63246Y24384
X21946Y22708
X12954Y13564
X57302Y6706
X10668Y17983
X10668Y33680
X12802Y35814
X30480Y29108
X43739Y30785
X3234Y3302
X28284Y11011
X55626Y27280
X50292Y20422
X37490Y13716
X63703Y48158
X47854Y41300
X40996Y35204
M30