G04 EAGLE Gerber RS-274X export*
G75*
%MOMM*%
%FSLAX34Y34*%
%LPD*%
%AMOC8*
5,1,8,0,0,1.08239X$1,22.5*%
G01*
%ADD10C,0.254000*%


D10*
X900Y31340D02*
X1014Y28725D01*
X1356Y26131D01*
X1922Y23575D01*
X2709Y21079D01*
X3711Y18661D01*
X4919Y16340D01*
X6325Y14133D01*
X7919Y12056D01*
X9687Y10127D01*
X11616Y8359D01*
X13693Y6765D01*
X15900Y5359D01*
X18221Y4151D01*
X20639Y3149D01*
X23135Y2362D01*
X25691Y1796D01*
X28285Y1454D01*
X30900Y1340D01*
X820900Y1340D01*
X823515Y1454D01*
X826109Y1796D01*
X828665Y2362D01*
X831161Y3149D01*
X833579Y4151D01*
X835900Y5359D01*
X838107Y6765D01*
X840184Y8359D01*
X842113Y10127D01*
X843881Y12056D01*
X845475Y14133D01*
X846881Y16340D01*
X848089Y18661D01*
X849091Y21079D01*
X849878Y23575D01*
X850444Y26131D01*
X850786Y28725D01*
X850900Y31340D01*
X850900Y531340D01*
X850786Y533955D01*
X850444Y536549D01*
X849878Y539105D01*
X849091Y541601D01*
X848089Y544019D01*
X846881Y546340D01*
X845475Y548547D01*
X843881Y550624D01*
X842113Y552553D01*
X840184Y554321D01*
X838107Y555915D01*
X835900Y557321D01*
X833579Y558529D01*
X831161Y559531D01*
X828665Y560318D01*
X826109Y560884D01*
X823515Y561226D01*
X820900Y561340D01*
X30900Y561340D01*
X28285Y561226D01*
X25691Y560884D01*
X23135Y560318D01*
X20639Y559531D01*
X18221Y558529D01*
X15900Y557321D01*
X13693Y555915D01*
X11616Y554321D01*
X9687Y552553D01*
X7919Y550624D01*
X6325Y548547D01*
X4919Y546340D01*
X3711Y544019D01*
X2709Y541601D01*
X1922Y539105D01*
X1356Y536549D01*
X1014Y533955D01*
X900Y531340D01*
X900Y157340D01*
X900Y31340D01*
M02*
