G04 EAGLE Gerber RS-274X export*
G75*
%MOMM*%
%FSLAX34Y34*%
%LPD*%
%AMOC8*
5,1,8,0,0,1.08239X$1,22.5*%
G01*
%ADD10R,0.010156X0.091438*%
%ADD11R,0.010162X0.152400*%
%ADD12R,0.010156X0.193038*%
%ADD13R,0.010156X0.233681*%
%ADD14R,0.010156X0.254000*%
%ADD15R,0.010156X0.284481*%
%ADD16R,0.010162X0.304800*%
%ADD17R,0.010156X0.325119*%
%ADD18R,0.010156X0.345438*%
%ADD19R,0.010156X0.365756*%
%ADD20R,0.010156X0.386081*%
%ADD21R,0.010162X0.396238*%
%ADD22R,0.010156X0.416556*%
%ADD23R,0.010156X0.426719*%
%ADD24R,0.010156X0.447038*%
%ADD25R,0.010156X0.457200*%
%ADD26R,0.010162X0.467356*%
%ADD27R,0.010156X0.477519*%
%ADD28R,0.010156X0.487681*%
%ADD29R,0.010156X0.497838*%
%ADD30R,0.010156X0.518156*%
%ADD31R,0.010162X0.528319*%
%ADD32R,0.010156X0.528319*%
%ADD33R,0.010156X0.538481*%
%ADD34R,0.010156X0.548638*%
%ADD35R,0.010156X0.558800*%
%ADD36R,0.010162X0.568956*%
%ADD37R,0.010156X0.579119*%
%ADD38R,0.010156X0.589281*%
%ADD39R,0.010162X0.457200*%
%ADD40R,0.010156X0.436875*%
%ADD41R,0.010156X0.416563*%
%ADD42R,0.010156X0.396238*%
%ADD43R,0.010162X0.386081*%
%ADD44R,0.010156X0.375919*%
%ADD45R,0.010156X0.355600*%
%ADD46R,0.010162X0.345438*%
%ADD47R,0.010156X0.335281*%
%ADD48R,0.010162X0.325119*%
%ADD49R,0.010162X0.314956*%
%ADD50R,0.010156X0.304800*%
%ADD51R,0.010156X0.314956*%
%ADD52R,0.010156X0.294637*%
%ADD53R,0.010162X0.294637*%
%ADD54R,0.010162X0.233681*%
%ADD55R,0.010162X0.233675*%
%ADD56R,0.010162X2.895600*%
%ADD57R,0.010156X2.905756*%
%ADD58R,0.010156X2.895600*%
%ADD59R,0.010156X0.518162*%
%ADD60R,0.010162X0.640081*%
%ADD61R,0.010162X0.640075*%
%ADD62R,0.010162X2.885438*%
%ADD63R,0.010156X0.701037*%
%ADD64R,0.010156X0.690875*%
%ADD65R,0.010156X2.885438*%
%ADD66R,0.010156X0.741681*%
%ADD67R,0.010156X0.741675*%
%ADD68R,0.010156X0.782319*%
%ADD69R,0.010156X0.822956*%
%ADD70R,0.010156X0.822963*%
%ADD71R,0.010156X2.875275*%
%ADD72R,0.010162X0.863600*%
%ADD73R,0.010162X2.875275*%
%ADD74R,0.010156X0.904238*%
%ADD75R,0.010156X2.865119*%
%ADD76R,0.010156X0.934719*%
%ADD77R,0.010156X0.924556*%
%ADD78R,0.010156X0.965200*%
%ADD79R,0.010156X0.995681*%
%ADD80R,0.010156X1.005837*%
%ADD81R,0.010162X1.026156*%
%ADD82R,0.010162X1.026163*%
%ADD83R,0.010162X2.854956*%
%ADD84R,0.010156X1.056638*%
%ADD85R,0.010156X1.046475*%
%ADD86R,0.010156X2.844800*%
%ADD87R,0.010156X1.087119*%
%ADD88R,0.010156X1.107438*%
%ADD89R,0.010156X1.137919*%
%ADD90R,0.010156X1.127756*%
%ADD91R,0.010156X2.834637*%
%ADD92R,0.010162X1.158238*%
%ADD93R,0.010162X1.168400*%
%ADD94R,0.010162X2.824481*%
%ADD95R,0.010156X1.178556*%
%ADD96R,0.010156X1.188719*%
%ADD97R,0.010156X2.824481*%
%ADD98R,0.010156X1.209037*%
%ADD99R,0.010156X1.229356*%
%ADD100R,0.010156X1.229363*%
%ADD101R,0.010156X2.814319*%
%ADD102R,0.010156X1.249681*%
%ADD103R,0.010156X1.249675*%
%ADD104R,0.010156X2.804156*%
%ADD105R,0.010162X1.270000*%
%ADD106R,0.010162X2.804156*%
%ADD107R,0.010156X1.290319*%
%ADD108R,0.010156X1.310638*%
%ADD109R,0.010156X2.794000*%
%ADD110R,0.010156X1.330956*%
%ADD111R,0.010156X1.330963*%
%ADD112R,0.010156X2.783838*%
%ADD113R,0.010156X0.568956*%
%ADD114R,0.010162X0.518162*%
%ADD115R,0.010162X0.518156*%
%ADD116R,0.010156X0.508000*%
%ADD117R,0.010156X0.487675*%
%ADD118R,0.010156X0.467363*%
%ADD119R,0.010156X0.467356*%
%ADD120R,0.010162X0.436881*%
%ADD121R,0.010162X0.426719*%
%ADD122R,0.010162X0.447038*%
%ADD123R,0.010162X0.436875*%
%ADD124R,0.010156X0.436881*%
%ADD125R,0.010156X0.314963*%
%ADD126R,0.010156X0.406400*%
%ADD127R,0.010156X0.386075*%
%ADD128R,0.010156X0.335275*%
%ADD129R,0.010156X0.365762*%
%ADD130R,0.010162X0.365756*%
%ADD131R,0.010162X0.375919*%
%ADD132R,0.010162X0.365762*%
%ADD133R,0.010162X0.335281*%
%ADD134R,0.010162X0.335275*%
%ADD135R,0.010162X0.355600*%
%ADD136R,0.010162X0.314963*%
%ADD137R,0.010162X0.416563*%
%ADD138R,0.010162X0.406400*%
%ADD139R,0.010162X0.477519*%
%ADD140R,0.010162X0.386075*%
%ADD141R,0.010162X0.599438*%
%ADD142R,0.010156X0.619756*%
%ADD143R,0.010156X0.650238*%
%ADD144R,0.010156X0.690881*%
%ADD145R,0.010156X0.731519*%
%ADD146R,0.010162X0.873762*%
%ADD147R,0.010162X0.538481*%
%ADD148R,0.010162X0.873756*%
%ADD149R,0.010162X1.747519*%
%ADD150R,0.010156X0.873762*%
%ADD151R,0.010156X0.873756*%
%ADD152R,0.010156X1.727200*%
%ADD153R,0.010156X1.696719*%
%ADD154R,0.010156X0.640075*%
%ADD155R,0.010156X1.666238*%
%ADD156R,0.010156X0.629919*%
%ADD157R,0.010156X1.635756*%
%ADD158R,0.010162X0.619756*%
%ADD159R,0.010162X1.605281*%
%ADD160R,0.010156X0.609600*%
%ADD161R,0.010156X1.574800*%
%ADD162R,0.010156X0.599438*%
%ADD163R,0.010156X1.544319*%
%ADD164R,0.010156X0.589275*%
%ADD165R,0.010156X1.513838*%
%ADD166R,0.010156X1.483356*%
%ADD167R,0.010162X1.442719*%
%ADD168R,0.010156X1.402081*%
%ADD169R,0.010156X0.538475*%
%ADD170R,0.010156X1.361438*%
%ADD171R,0.010162X0.497838*%
%ADD172R,0.010162X1.249675*%
%ADD173R,0.010156X1.198881*%
%ADD174R,0.010156X1.158238*%
%ADD175R,0.010162X0.416556*%
%ADD176R,0.010162X1.005837*%
%ADD177R,0.010156X0.944875*%
%ADD178R,0.010156X0.883919*%
%ADD179R,0.010156X0.751838*%
%ADD180R,0.010162X0.670556*%
%ADD181R,0.010156X0.274319*%
%ADD182R,0.010156X0.233675*%
%ADD183R,0.010156X0.152400*%
%ADD184R,0.010162X0.071119*%
%ADD185C,0.050800*%
%ADD186C,0.076200*%
%ADD187C,0.127000*%
%ADD188C,0.152400*%
%ADD189C,0.101600*%
%ADD190C,0.000000*%
%ADD191C,0.203200*%

G36*
X4725Y312420D02*
X4725Y312420D01*
X4727Y312422D01*
X4728Y312421D01*
X5399Y312656D01*
X5400Y312657D01*
X5401Y312657D01*
X6003Y313035D01*
X6004Y313037D01*
X6006Y313037D01*
X6508Y313539D01*
X6508Y313541D01*
X6510Y313542D01*
X6888Y314144D01*
X6888Y314145D01*
X6889Y314146D01*
X7124Y314817D01*
X7124Y314819D01*
X7125Y314820D01*
X7204Y315526D01*
X7204Y315527D01*
X7203Y315528D01*
X7204Y315529D01*
X7125Y316235D01*
X7123Y316237D01*
X7124Y316238D01*
X6889Y316909D01*
X6888Y316910D01*
X6888Y316911D01*
X6510Y317513D01*
X6508Y317514D01*
X6508Y317516D01*
X6006Y318018D01*
X6004Y318018D01*
X6003Y318020D01*
X5401Y318398D01*
X5400Y318398D01*
X5399Y318399D01*
X4728Y318634D01*
X4726Y318634D01*
X4725Y318635D01*
X4019Y318714D01*
X4017Y318713D01*
X4016Y318714D01*
X3310Y318635D01*
X3308Y318633D01*
X3307Y318634D01*
X2636Y318399D01*
X2635Y318398D01*
X2634Y318398D01*
X2032Y318020D01*
X2031Y318018D01*
X2029Y318018D01*
X1527Y317516D01*
X1527Y317514D01*
X1525Y317513D01*
X1147Y316911D01*
X1147Y316910D01*
X1146Y316909D01*
X911Y316238D01*
X912Y316236D01*
X910Y316235D01*
X831Y315529D01*
X832Y315527D01*
X831Y315526D01*
X910Y314820D01*
X912Y314818D01*
X911Y314817D01*
X1146Y314146D01*
X1147Y314145D01*
X1147Y314144D01*
X1525Y313542D01*
X1527Y313541D01*
X1527Y313539D01*
X2029Y313037D01*
X2031Y313037D01*
X2032Y313035D01*
X2634Y312657D01*
X2635Y312657D01*
X2636Y312656D01*
X3307Y312421D01*
X3309Y312422D01*
X3310Y312420D01*
X4016Y312341D01*
X4018Y312342D01*
X4019Y312341D01*
X4725Y312420D01*
G37*
G36*
X824897Y89668D02*
X824897Y89668D01*
X824919Y89666D01*
X825018Y89695D01*
X825071Y89706D01*
X825080Y89713D01*
X825092Y89716D01*
X831442Y92891D01*
X831495Y92933D01*
X831553Y92967D01*
X831573Y92994D01*
X831600Y93015D01*
X831633Y93073D01*
X831673Y93127D01*
X831681Y93160D01*
X831698Y93190D01*
X831705Y93257D01*
X831722Y93322D01*
X831717Y93355D01*
X831720Y93389D01*
X831701Y93454D01*
X831691Y93520D01*
X831673Y93549D01*
X831664Y93581D01*
X831621Y93633D01*
X831586Y93691D01*
X831557Y93713D01*
X831538Y93737D01*
X831494Y93760D01*
X831442Y93799D01*
X825092Y96974D01*
X825070Y96979D01*
X825052Y96992D01*
X824974Y97006D01*
X824898Y97026D01*
X824876Y97023D01*
X824855Y97027D01*
X824778Y97010D01*
X824700Y97000D01*
X824681Y96988D01*
X824659Y96984D01*
X824595Y96938D01*
X824527Y96898D01*
X824514Y96880D01*
X824496Y96868D01*
X824454Y96801D01*
X824407Y96738D01*
X824401Y96716D01*
X824390Y96697D01*
X824371Y96596D01*
X824358Y96543D01*
X824360Y96532D01*
X824358Y96520D01*
X824358Y90170D01*
X824362Y90148D01*
X824360Y90126D01*
X824382Y90051D01*
X824397Y89974D01*
X824410Y89955D01*
X824416Y89934D01*
X824466Y89873D01*
X824510Y89808D01*
X824529Y89796D01*
X824543Y89778D01*
X824612Y89741D01*
X824678Y89698D01*
X824700Y89695D01*
X824719Y89684D01*
X824798Y89677D01*
X824875Y89663D01*
X824897Y89668D01*
G37*
D10*
X680568Y336601D03*
D11*
X680466Y336296D03*
D12*
X680364Y336093D03*
D13*
X680263Y335890D03*
D14*
X680161Y335788D03*
D15*
X680060Y335636D03*
D16*
X679958Y335534D03*
D17*
X679856Y335432D03*
D18*
X679755Y335331D03*
D19*
X679653Y335229D03*
D20*
X679552Y335128D03*
D21*
X679450Y335077D03*
D22*
X679348Y334975D03*
D23*
X679247Y334924D03*
D24*
X679145Y334823D03*
D25*
X679044Y334772D03*
D26*
X678942Y334721D03*
D27*
X678840Y334670D03*
D28*
X678739Y334620D03*
D29*
X678637Y334569D03*
D30*
X678536Y334467D03*
D31*
X678434Y334416D03*
D32*
X678332Y334416D03*
D33*
X678231Y334366D03*
D34*
X678129Y334315D03*
D35*
X678028Y334264D03*
D36*
X677926Y334213D03*
D37*
X677824Y334162D03*
D38*
X677723Y334112D03*
D30*
X677621Y333756D03*
D27*
X677520Y333451D03*
D39*
X677418Y333248D03*
D40*
X677316Y333146D03*
D23*
X677215Y332994D03*
D41*
X677113Y332842D03*
D42*
X677012Y332740D03*
D43*
X676910Y332588D03*
D44*
X676808Y332537D03*
X676707Y332435D03*
D19*
X676605Y332384D03*
D45*
X676504Y332232D03*
D46*
X676402Y332181D03*
D18*
X676300Y332080D03*
X676199Y332080D03*
X676097Y331978D03*
D47*
X675996Y331927D03*
D48*
X675894Y331876D03*
D17*
X675792Y331775D03*
X675691Y331775D03*
X675589Y331673D03*
X675488Y331673D03*
D49*
X675386Y331622D03*
D50*
X675284Y331572D03*
D51*
X675183Y331521D03*
X675081Y331521D03*
D50*
X674980Y331470D03*
D16*
X674878Y331470D03*
D50*
X674776Y331368D03*
X674675Y331368D03*
X674573Y331368D03*
D52*
X674472Y331318D03*
D53*
X674370Y331318D03*
D54*
X672338Y266192D03*
X672338Y284582D03*
D55*
X672338Y314858D03*
D53*
X672338Y326136D03*
D56*
X672338Y344221D03*
D45*
X672236Y266192D03*
X672236Y284582D03*
D52*
X672236Y296469D03*
D19*
X672236Y314909D03*
D52*
X672236Y326136D03*
D57*
X672236Y344170D03*
D25*
X672135Y266192D03*
D24*
X672135Y284632D03*
D52*
X672135Y296469D03*
D24*
X672135Y314909D03*
D52*
X672135Y326136D03*
D58*
X672135Y344221D03*
D30*
X672033Y266192D03*
D59*
X672033Y284582D03*
D52*
X672033Y296469D03*
D32*
X672033Y314909D03*
D52*
X672033Y326136D03*
D58*
X672033Y344221D03*
D37*
X671932Y266192D03*
X671932Y284582D03*
D52*
X671932Y296469D03*
D38*
X671932Y314909D03*
D52*
X671932Y326136D03*
D58*
X671932Y344221D03*
D60*
X671830Y266192D03*
X671830Y284582D03*
D53*
X671830Y296469D03*
D61*
X671830Y314858D03*
D53*
X671830Y326136D03*
D62*
X671830Y344170D03*
D63*
X671728Y266192D03*
D64*
X671728Y284632D03*
D52*
X671728Y296469D03*
D63*
X671728Y314858D03*
D52*
X671728Y326136D03*
D65*
X671728Y344170D03*
D66*
X671627Y266192D03*
X671627Y284582D03*
D52*
X671627Y296469D03*
D67*
X671627Y314858D03*
D52*
X671627Y326136D03*
D65*
X671627Y344170D03*
D68*
X671525Y266192D03*
X671525Y284582D03*
D52*
X671525Y296469D03*
D68*
X671525Y314858D03*
D52*
X671525Y326136D03*
D65*
X671525Y344170D03*
D69*
X671424Y266192D03*
D70*
X671424Y284582D03*
D52*
X671424Y296469D03*
D69*
X671424Y314858D03*
D52*
X671424Y326136D03*
D71*
X671424Y344221D03*
D72*
X671322Y266192D03*
X671322Y284582D03*
D53*
X671322Y296469D03*
D72*
X671322Y314858D03*
D53*
X671322Y326136D03*
D73*
X671322Y344221D03*
D74*
X671220Y266192D03*
X671220Y284582D03*
D52*
X671220Y296469D03*
D74*
X671220Y314858D03*
D52*
X671220Y326136D03*
D75*
X671220Y344170D03*
D76*
X671119Y266141D03*
X671119Y284632D03*
D52*
X671119Y296469D03*
D77*
X671119Y314858D03*
D52*
X671119Y326136D03*
D75*
X671119Y344170D03*
D78*
X671017Y266192D03*
X671017Y284582D03*
D52*
X671017Y296469D03*
D78*
X671017Y314858D03*
D52*
X671017Y326136D03*
D75*
X671017Y344170D03*
D79*
X670916Y266141D03*
D80*
X670916Y284582D03*
D52*
X670916Y296469D03*
D80*
X670916Y314858D03*
D52*
X670916Y326136D03*
D75*
X670916Y344170D03*
D81*
X670814Y266192D03*
D82*
X670814Y284582D03*
D53*
X670814Y296469D03*
D81*
X670814Y314858D03*
D53*
X670814Y326136D03*
D83*
X670814Y344221D03*
D84*
X670712Y266141D03*
X670712Y284632D03*
D52*
X670712Y296469D03*
D85*
X670712Y314858D03*
D52*
X670712Y326136D03*
D86*
X670712Y344170D03*
D87*
X670611Y266192D03*
X670611Y284582D03*
D52*
X670611Y296469D03*
D87*
X670611Y314858D03*
D52*
X670611Y326136D03*
D86*
X670611Y344170D03*
D88*
X670509Y266192D03*
X670509Y284582D03*
D52*
X670509Y296469D03*
D88*
X670509Y314858D03*
D52*
X670509Y326136D03*
D86*
X670509Y344170D03*
D89*
X670408Y266141D03*
X670408Y284632D03*
D52*
X670408Y296469D03*
D90*
X670408Y314858D03*
D52*
X670408Y326136D03*
D91*
X670408Y344221D03*
D92*
X670306Y266141D03*
D93*
X670306Y284582D03*
D53*
X670306Y296469D03*
D92*
X670306Y314808D03*
D53*
X670306Y326136D03*
D94*
X670306Y344170D03*
D95*
X670204Y266141D03*
D96*
X670204Y284582D03*
D52*
X670204Y296469D03*
D96*
X670204Y314858D03*
D52*
X670204Y326136D03*
D97*
X670204Y344170D03*
D98*
X670103Y266192D03*
X670103Y284582D03*
D52*
X670103Y296469D03*
D98*
X670103Y314858D03*
D52*
X670103Y326136D03*
D97*
X670103Y344170D03*
D99*
X670001Y266192D03*
D100*
X670001Y284582D03*
D52*
X670001Y296469D03*
D99*
X670001Y314858D03*
D52*
X670001Y326136D03*
D101*
X670001Y344221D03*
D102*
X669900Y266192D03*
X669900Y284582D03*
D52*
X669900Y296469D03*
D103*
X669900Y314858D03*
D52*
X669900Y326136D03*
D104*
X669900Y344170D03*
D105*
X669798Y266192D03*
X669798Y284582D03*
D53*
X669798Y296469D03*
D105*
X669798Y314858D03*
D53*
X669798Y326136D03*
D106*
X669798Y344170D03*
D107*
X669696Y266192D03*
X669696Y284582D03*
D52*
X669696Y296469D03*
D107*
X669696Y314858D03*
D52*
X669696Y326136D03*
D104*
X669696Y344170D03*
D108*
X669595Y266192D03*
X669595Y284582D03*
D52*
X669595Y296469D03*
D108*
X669595Y314858D03*
D52*
X669595Y326136D03*
D109*
X669595Y344221D03*
D110*
X669493Y266192D03*
D111*
X669493Y284582D03*
D52*
X669493Y296469D03*
D110*
X669493Y314858D03*
D52*
X669493Y326136D03*
D112*
X669493Y344170D03*
D113*
X669392Y262280D03*
D35*
X669392Y270053D03*
D113*
X669392Y280670D03*
X669392Y288493D03*
D52*
X669392Y296469D03*
D113*
X669392Y310947D03*
X669392Y318770D03*
D52*
X669392Y326136D03*
D17*
X669392Y331876D03*
D51*
X669392Y356514D03*
D31*
X669290Y261976D03*
D114*
X669290Y270358D03*
D31*
X669290Y280365D03*
X669290Y288798D03*
D53*
X669290Y296469D03*
D31*
X669290Y310642D03*
D115*
X669290Y319024D03*
D53*
X669290Y326136D03*
D16*
X669290Y331876D03*
D49*
X669290Y356514D03*
D116*
X669188Y261772D03*
D29*
X669188Y270561D03*
D116*
X669188Y280162D03*
X669188Y289001D03*
D52*
X669188Y296469D03*
D116*
X669188Y310439D03*
D29*
X669188Y319227D03*
D52*
X669188Y326136D03*
D51*
X669188Y331927D03*
X669188Y356413D03*
D28*
X669087Y261569D03*
D27*
X669087Y270764D03*
D117*
X669087Y279959D03*
X669087Y289204D03*
D52*
X669087Y296469D03*
D28*
X669087Y310236D03*
D27*
X669087Y319430D03*
D52*
X669087Y326136D03*
D51*
X669087Y331927D03*
X669087Y356413D03*
D118*
X668985Y261468D03*
D25*
X668985Y270967D03*
D119*
X668985Y279857D03*
X668985Y289306D03*
D52*
X668985Y296469D03*
D119*
X668985Y310134D03*
D25*
X668985Y319634D03*
D52*
X668985Y326136D03*
D51*
X668985Y332029D03*
X668985Y356413D03*
D24*
X668884Y261264D03*
X668884Y271120D03*
D25*
X668884Y279705D03*
D24*
X668884Y289509D03*
D52*
X668884Y296469D03*
D24*
X668884Y309931D03*
X668884Y319786D03*
D52*
X668884Y326136D03*
D51*
X668884Y332029D03*
X668884Y356311D03*
D120*
X668782Y261112D03*
D121*
X668782Y271221D03*
D122*
X668782Y279552D03*
D120*
X668782Y289662D03*
D53*
X668782Y296469D03*
D123*
X668782Y309778D03*
D121*
X668782Y319888D03*
D53*
X668782Y326136D03*
D48*
X668782Y332080D03*
D49*
X668782Y356311D03*
D40*
X668680Y261010D03*
D23*
X668680Y271323D03*
D124*
X668680Y279400D03*
X668680Y289763D03*
D52*
X668680Y296469D03*
D40*
X668680Y309677D03*
D23*
X668680Y319989D03*
D52*
X668680Y326136D03*
D51*
X668680Y332130D03*
D125*
X668680Y356210D03*
D22*
X668579Y260909D03*
X668579Y271475D03*
X668579Y279298D03*
X668579Y289865D03*
D52*
X668579Y296469D03*
D22*
X668579Y309575D03*
D41*
X668579Y320142D03*
D52*
X668579Y326136D03*
D17*
X668579Y332181D03*
D125*
X668579Y356210D03*
D126*
X668477Y260756D03*
X668477Y271628D03*
X668477Y279146D03*
X668477Y290017D03*
D52*
X668477Y296469D03*
D126*
X668477Y309423D03*
X668477Y320294D03*
D52*
X668477Y326136D03*
D51*
X668477Y332232D03*
D17*
X668477Y356159D03*
D126*
X668376Y260655D03*
D42*
X668376Y271678D03*
D126*
X668376Y279044D03*
X668376Y290119D03*
D52*
X668376Y296469D03*
D126*
X668376Y309321D03*
D42*
X668376Y320345D03*
D52*
X668376Y326136D03*
D17*
X668376Y332283D03*
D51*
X668376Y356108D03*
D21*
X668274Y260502D03*
X668274Y271780D03*
X668274Y278994D03*
X668274Y290271D03*
D53*
X668274Y296469D03*
D43*
X668274Y309220D03*
D21*
X668274Y320446D03*
D53*
X668274Y326136D03*
D48*
X668274Y332283D03*
X668274Y356057D03*
D20*
X668172Y260452D03*
D127*
X668172Y271932D03*
D20*
X668172Y278841D03*
X668172Y290322D03*
D52*
X668172Y296469D03*
D20*
X668172Y309118D03*
D127*
X668172Y320599D03*
D52*
X668172Y326136D03*
D17*
X668172Y332384D03*
X668172Y355956D03*
D20*
X668071Y260350D03*
D44*
X668071Y271983D03*
D20*
X668071Y278740D03*
X668071Y290424D03*
D52*
X668071Y296469D03*
D127*
X668071Y309016D03*
D44*
X668071Y320650D03*
D52*
X668071Y326136D03*
D17*
X668071Y332384D03*
X668071Y355956D03*
D44*
X667969Y260299D03*
X667969Y272085D03*
X667969Y278689D03*
X667969Y290474D03*
D52*
X667969Y296469D03*
D44*
X667969Y308966D03*
X667969Y320751D03*
D52*
X667969Y326136D03*
D17*
X667969Y332486D03*
D128*
X667969Y355905D03*
D44*
X667868Y260198D03*
D129*
X667868Y272136D03*
D44*
X667868Y278587D03*
X667868Y290576D03*
D52*
X667868Y296469D03*
D44*
X667868Y308864D03*
X667868Y320853D03*
D52*
X667868Y326136D03*
D128*
X667868Y332537D03*
D17*
X667868Y355854D03*
D130*
X667766Y260045D03*
X667766Y272237D03*
X667766Y278536D03*
D131*
X667766Y290678D03*
D53*
X667766Y296469D03*
D130*
X667766Y308813D03*
D132*
X667766Y320904D03*
D53*
X667766Y326136D03*
D48*
X667766Y332588D03*
D133*
X667766Y355803D03*
D45*
X667664Y259994D03*
D19*
X667664Y272339D03*
X667664Y278435D03*
D45*
X667664Y290779D03*
D52*
X667664Y296469D03*
D129*
X667664Y308712D03*
D19*
X667664Y321005D03*
D52*
X667664Y326136D03*
D128*
X667664Y332638D03*
D47*
X667664Y355702D03*
D45*
X667563Y259893D03*
X667563Y272390D03*
D19*
X667563Y278333D03*
X667563Y290830D03*
D52*
X667563Y296469D03*
D19*
X667563Y308610D03*
D45*
X667563Y321056D03*
D52*
X667563Y326136D03*
D17*
X667563Y332689D03*
D47*
X667563Y355702D03*
D45*
X667461Y259893D03*
X667461Y272491D03*
X667461Y278282D03*
X667461Y290881D03*
D52*
X667461Y296469D03*
D45*
X667461Y308559D03*
X667461Y321158D03*
D52*
X667461Y326136D03*
D47*
X667461Y332740D03*
X667461Y355600D03*
D45*
X667360Y259791D03*
D18*
X667360Y272542D03*
D45*
X667360Y278181D03*
X667360Y290982D03*
D52*
X667360Y296469D03*
D45*
X667360Y308458D03*
D18*
X667360Y321208D03*
D52*
X667360Y326136D03*
D47*
X667360Y332842D03*
X667360Y355600D03*
D46*
X667258Y259740D03*
X667258Y272644D03*
X667258Y278130D03*
X667258Y291033D03*
D53*
X667258Y296469D03*
D46*
X667258Y308407D03*
X667258Y321310D03*
D53*
X667258Y326136D03*
D133*
X667258Y332842D03*
D134*
X667258Y355498D03*
D18*
X667156Y259639D03*
X667156Y272644D03*
D47*
X667156Y278079D03*
D18*
X667156Y291135D03*
D52*
X667156Y296469D03*
D18*
X667156Y308305D03*
X667156Y321310D03*
D52*
X667156Y326136D03*
D47*
X667156Y332943D03*
D18*
X667156Y355448D03*
D47*
X667055Y259588D03*
D18*
X667055Y272745D03*
D47*
X667055Y277978D03*
X667055Y291186D03*
D52*
X667055Y296570D03*
D128*
X667055Y308254D03*
D18*
X667055Y321412D03*
D52*
X667055Y326136D03*
D18*
X667055Y332994D03*
X667055Y355346D03*
D128*
X666953Y259486D03*
D47*
X666953Y272796D03*
X666953Y277978D03*
X666953Y291287D03*
D52*
X666953Y296570D03*
D128*
X666953Y308254D03*
X666953Y321462D03*
D52*
X666953Y326136D03*
D18*
X666953Y333096D03*
X666953Y355346D03*
D128*
X666852Y259486D03*
D47*
X666852Y272898D03*
X666852Y277876D03*
X666852Y291287D03*
D52*
X666852Y296570D03*
D128*
X666852Y308153D03*
D47*
X666852Y321564D03*
D52*
X666852Y326136D03*
D18*
X666852Y333096D03*
X666852Y355244D03*
D48*
X666750Y259436D03*
D133*
X666750Y272898D03*
D48*
X666750Y277825D03*
X666750Y291338D03*
D53*
X666750Y296570D03*
D48*
X666750Y308102D03*
D133*
X666750Y321564D03*
D53*
X666750Y326136D03*
D46*
X666750Y333197D03*
D135*
X666750Y355194D03*
D17*
X666648Y259334D03*
X666648Y272948D03*
D128*
X666648Y277774D03*
D17*
X666648Y291440D03*
D52*
X666648Y296570D03*
D47*
X666648Y308051D03*
D17*
X666648Y321615D03*
D52*
X666648Y326136D03*
D45*
X666648Y333248D03*
X666648Y355092D03*
D17*
X666547Y259334D03*
X666547Y273050D03*
X666547Y277724D03*
X666547Y291440D03*
D50*
X666547Y296621D03*
D17*
X666547Y308000D03*
X666547Y321716D03*
D52*
X666547Y326136D03*
D45*
X666547Y333350D03*
D18*
X666547Y355041D03*
D17*
X666445Y259232D03*
X666445Y273050D03*
D51*
X666445Y277673D03*
D17*
X666445Y291541D03*
D50*
X666445Y296621D03*
D125*
X666445Y307950D03*
D17*
X666445Y321716D03*
D52*
X666445Y326136D03*
D45*
X666445Y333350D03*
X666445Y354990D03*
D17*
X666344Y259232D03*
X666344Y273152D03*
X666344Y277622D03*
X666344Y291541D03*
D52*
X666344Y296672D03*
D17*
X666344Y307899D03*
X666344Y321818D03*
D52*
X666344Y326136D03*
D45*
X666344Y333451D03*
X666344Y354889D03*
D136*
X666242Y259182D03*
D49*
X666242Y277571D03*
X666242Y291592D03*
D53*
X666242Y296672D03*
D49*
X666242Y307848D03*
D53*
X666242Y326136D03*
D135*
X666242Y333553D03*
D130*
X666242Y354838D03*
D17*
X666140Y259131D03*
D51*
X666140Y277571D03*
D17*
X666140Y291643D03*
D50*
X666140Y296723D03*
D17*
X666140Y307797D03*
D52*
X666140Y326136D03*
D129*
X666140Y333604D03*
D19*
X666140Y354736D03*
D51*
X666039Y259080D03*
D125*
X666039Y277470D03*
X666039Y291694D03*
D50*
X666039Y296723D03*
D51*
X666039Y307746D03*
D52*
X666039Y326136D03*
D19*
X666039Y333705D03*
X666039Y354635D03*
D51*
X665937Y259080D03*
D125*
X665937Y277470D03*
X665937Y291694D03*
D50*
X665937Y296723D03*
D51*
X665937Y307746D03*
D52*
X665937Y326136D03*
D19*
X665937Y333807D03*
D44*
X665937Y354584D03*
D51*
X665836Y258978D03*
D50*
X665836Y277419D03*
D51*
X665836Y291795D03*
D50*
X665836Y296824D03*
X665836Y307696D03*
D52*
X665836Y326136D03*
D44*
X665836Y333858D03*
D19*
X665836Y354533D03*
D49*
X665734Y258978D03*
X665734Y277368D03*
X665734Y291795D03*
D16*
X665734Y296824D03*
D49*
X665734Y307645D03*
D53*
X665734Y326136D03*
D131*
X665734Y333959D03*
D132*
X665734Y354432D03*
D50*
X665632Y258928D03*
X665632Y277317D03*
X665632Y291846D03*
D51*
X665632Y296875D03*
D50*
X665632Y307594D03*
D52*
X665632Y326136D03*
D44*
X665632Y334061D03*
X665632Y354381D03*
D50*
X665531Y258928D03*
X665531Y277317D03*
X665531Y291846D03*
D51*
X665531Y296875D03*
D50*
X665531Y307594D03*
D52*
X665531Y326136D03*
D20*
X665531Y334112D03*
D44*
X665531Y354279D03*
D50*
X665429Y258826D03*
X665429Y277317D03*
X665429Y291948D03*
D51*
X665429Y296977D03*
D50*
X665429Y307594D03*
D52*
X665429Y326136D03*
D20*
X665429Y334213D03*
D44*
X665429Y354178D03*
D50*
X665328Y258826D03*
X665328Y277216D03*
X665328Y291948D03*
D51*
X665328Y296977D03*
D50*
X665328Y307492D03*
D52*
X665328Y326136D03*
D127*
X665328Y334315D03*
D42*
X665328Y354076D03*
D16*
X665226Y258826D03*
X665226Y277216D03*
X665226Y291948D03*
D48*
X665226Y297028D03*
D16*
X665226Y307492D03*
D53*
X665226Y326136D03*
D21*
X665226Y334366D03*
X665226Y353974D03*
D52*
X665124Y258775D03*
D50*
X665124Y277216D03*
D52*
X665124Y291998D03*
D17*
X665124Y297028D03*
D50*
X665124Y307492D03*
D52*
X665124Y326136D03*
D42*
X665124Y334467D03*
X665124Y353873D03*
D52*
X665023Y258775D03*
X665023Y277165D03*
X665023Y291998D03*
D17*
X665023Y297129D03*
D52*
X665023Y307442D03*
X665023Y326136D03*
D42*
X665023Y334569D03*
X665023Y353771D03*
D50*
X664921Y258724D03*
D52*
X664921Y277165D03*
D50*
X664921Y292049D03*
D17*
X664921Y297129D03*
D50*
X664921Y307391D03*
D52*
X664921Y326136D03*
D42*
X664921Y334670D03*
D126*
X664921Y353720D03*
D50*
X664820Y258724D03*
X664820Y277114D03*
X664820Y292049D03*
D17*
X664820Y297231D03*
D50*
X664820Y307391D03*
D52*
X664820Y326136D03*
D22*
X664820Y334772D03*
D126*
X664820Y353619D03*
D53*
X664718Y258674D03*
D16*
X664718Y277114D03*
D53*
X664718Y292100D03*
D48*
X664718Y297231D03*
D53*
X664718Y307340D03*
X664718Y326136D03*
D137*
X664718Y334874D03*
D138*
X664718Y353517D03*
D52*
X664616Y258674D03*
X664616Y277063D03*
X664616Y292100D03*
D47*
X664616Y297282D03*
D52*
X664616Y307340D03*
X664616Y326136D03*
D22*
X664616Y334975D03*
X664616Y353365D03*
D52*
X664515Y258674D03*
X664515Y277063D03*
X664515Y292100D03*
D47*
X664515Y297383D03*
D52*
X664515Y307340D03*
X664515Y326136D03*
D22*
X664515Y335077D03*
D23*
X664515Y353314D03*
D52*
X664413Y258674D03*
X664413Y277063D03*
X664413Y292100D03*
D18*
X664413Y297434D03*
D52*
X664413Y307340D03*
X664413Y326136D03*
D23*
X664413Y335229D03*
X664413Y353212D03*
D52*
X664312Y258674D03*
X664312Y277063D03*
X664312Y292100D03*
D128*
X664312Y297485D03*
D52*
X664312Y307340D03*
X664312Y326136D03*
D23*
X664312Y335331D03*
D124*
X664312Y353060D03*
D53*
X664210Y258572D03*
X664210Y277063D03*
X664210Y292202D03*
D46*
X664210Y297536D03*
D53*
X664210Y307238D03*
X664210Y326136D03*
D122*
X664210Y335432D03*
D123*
X664210Y352958D03*
D52*
X664108Y258572D03*
X664108Y276962D03*
X664108Y292202D03*
D18*
X664108Y297637D03*
D52*
X664108Y307238D03*
X664108Y326136D03*
D24*
X664108Y335534D03*
X664108Y352806D03*
D52*
X664007Y258572D03*
X664007Y276962D03*
X664007Y292202D03*
D45*
X664007Y297688D03*
D52*
X664007Y307238D03*
X664007Y326136D03*
D25*
X664007Y335686D03*
D24*
X664007Y352704D03*
D52*
X663905Y258572D03*
X663905Y276962D03*
X663905Y292202D03*
D19*
X663905Y297739D03*
D52*
X663905Y307238D03*
X663905Y326136D03*
D25*
X663905Y335788D03*
X663905Y352552D03*
D52*
X663804Y258572D03*
X663804Y276962D03*
X663804Y292202D03*
D19*
X663804Y297840D03*
D52*
X663804Y307238D03*
X663804Y326136D03*
D119*
X663804Y335940D03*
D118*
X663804Y352400D03*
D53*
X663702Y258572D03*
X663702Y276962D03*
X663702Y292202D03*
D130*
X663702Y297942D03*
D53*
X663702Y307238D03*
X663702Y326136D03*
D139*
X663702Y336093D03*
D26*
X663702Y352298D03*
D52*
X663600Y258572D03*
X663600Y276962D03*
X663600Y292202D03*
D44*
X663600Y297993D03*
D52*
X663600Y307238D03*
X663600Y326136D03*
D27*
X663600Y336194D03*
X663600Y352146D03*
D52*
X663499Y258572D03*
X663499Y276962D03*
X663499Y292202D03*
D44*
X663499Y298094D03*
D52*
X663499Y307238D03*
X663499Y326136D03*
D117*
X663499Y336347D03*
D28*
X663499Y351993D03*
D52*
X663397Y258572D03*
X663397Y276962D03*
X663397Y292202D03*
D20*
X663397Y298145D03*
D52*
X663397Y307238D03*
X663397Y326136D03*
D29*
X663397Y336499D03*
X663397Y351841D03*
D52*
X663296Y258572D03*
X663296Y276962D03*
X663296Y292202D03*
D127*
X663296Y298247D03*
D52*
X663296Y307238D03*
X663296Y326136D03*
D116*
X663296Y336652D03*
X663296Y351688D03*
D53*
X663194Y258572D03*
X663194Y276962D03*
X663194Y292202D03*
D140*
X663194Y298348D03*
D53*
X663194Y307238D03*
X663194Y326136D03*
D115*
X663194Y336804D03*
X663194Y351536D03*
D52*
X663092Y258572D03*
X663092Y276962D03*
X663092Y292202D03*
D126*
X663092Y298450D03*
D52*
X663092Y307238D03*
X663092Y326136D03*
D33*
X663092Y337007D03*
D32*
X663092Y351384D03*
D52*
X662991Y258572D03*
X662991Y276962D03*
X662991Y292202D03*
D126*
X662991Y298552D03*
D52*
X662991Y307238D03*
X662991Y326136D03*
D34*
X662991Y337160D03*
X662991Y351180D03*
D52*
X662889Y258572D03*
X662889Y276962D03*
X662889Y292202D03*
D22*
X662889Y298704D03*
D52*
X662889Y307238D03*
X662889Y326136D03*
D113*
X662889Y337363D03*
X662889Y350977D03*
D52*
X662788Y258572D03*
X662788Y276962D03*
X662788Y292202D03*
D23*
X662788Y298755D03*
D52*
X662788Y307238D03*
X662788Y326136D03*
D37*
X662788Y337617D03*
X662788Y350825D03*
D53*
X662686Y258572D03*
X662686Y276962D03*
X662686Y292202D03*
D120*
X662686Y298907D03*
D53*
X662686Y307238D03*
X662686Y326136D03*
D141*
X662686Y337820D03*
X662686Y350622D03*
D52*
X662584Y258572D03*
X662584Y276962D03*
X662584Y292202D03*
D24*
X662584Y299060D03*
D52*
X662584Y307238D03*
X662584Y326136D03*
D142*
X662584Y338023D03*
X662584Y350317D03*
D52*
X662483Y258572D03*
X662483Y276962D03*
X662483Y292202D03*
D27*
X662483Y299212D03*
D52*
X662483Y307238D03*
X662483Y326136D03*
D143*
X662483Y338277D03*
X662483Y350063D03*
D52*
X662381Y258572D03*
X662381Y276962D03*
X662381Y292202D03*
D117*
X662381Y299364D03*
D52*
X662381Y307238D03*
X662381Y326136D03*
D144*
X662381Y338582D03*
X662381Y349758D03*
D52*
X662280Y258572D03*
X662280Y276962D03*
X662280Y292202D03*
D116*
X662280Y299568D03*
D52*
X662280Y307238D03*
X662280Y326136D03*
D145*
X662280Y338988D03*
D67*
X662280Y349402D03*
D146*
X662178Y261468D03*
D53*
X662178Y276962D03*
X662178Y292202D03*
D147*
X662178Y299822D03*
D148*
X662178Y310134D03*
D53*
X662178Y326136D03*
D149*
X662178Y344170D03*
D150*
X662076Y261468D03*
D52*
X662076Y276962D03*
X662076Y292202D03*
D38*
X662076Y300177D03*
D151*
X662076Y310134D03*
D52*
X662076Y326136D03*
D152*
X662076Y344170D03*
D150*
X661975Y261468D03*
D52*
X661975Y276962D03*
X661975Y292202D03*
D143*
X661975Y300584D03*
D151*
X661975Y310134D03*
D52*
X661975Y326136D03*
D153*
X661975Y344221D03*
D150*
X661873Y261468D03*
D52*
X661873Y276962D03*
X661873Y292202D03*
D154*
X661873Y300634D03*
D151*
X661873Y310134D03*
D52*
X661873Y326136D03*
D155*
X661873Y344170D03*
D150*
X661772Y261468D03*
D52*
X661772Y276962D03*
X661772Y292202D03*
D156*
X661772Y300685D03*
D151*
X661772Y310134D03*
D52*
X661772Y326136D03*
D157*
X661772Y344221D03*
D146*
X661670Y261468D03*
D53*
X661670Y276962D03*
X661670Y292202D03*
D158*
X661670Y300736D03*
D148*
X661670Y310134D03*
D53*
X661670Y326136D03*
D159*
X661670Y344170D03*
D150*
X661568Y261468D03*
D52*
X661568Y276962D03*
X661568Y292202D03*
D160*
X661568Y300787D03*
D151*
X661568Y310134D03*
D52*
X661568Y326136D03*
D161*
X661568Y344221D03*
D150*
X661467Y261468D03*
D52*
X661467Y276962D03*
X661467Y292202D03*
D162*
X661467Y300838D03*
D151*
X661467Y310134D03*
D52*
X661467Y326136D03*
D163*
X661467Y344170D03*
D150*
X661365Y261468D03*
D52*
X661365Y276962D03*
X661365Y292202D03*
D164*
X661365Y300888D03*
D151*
X661365Y310134D03*
D52*
X661365Y326136D03*
D165*
X661365Y344221D03*
D150*
X661264Y261468D03*
D52*
X661264Y276962D03*
X661264Y292202D03*
D37*
X661264Y300939D03*
D151*
X661264Y310134D03*
D52*
X661264Y326136D03*
D166*
X661264Y344170D03*
D146*
X661162Y261468D03*
D53*
X661162Y276962D03*
X661162Y292202D03*
D36*
X661162Y300990D03*
D148*
X661162Y310134D03*
D53*
X661162Y326136D03*
D167*
X661162Y344170D03*
D150*
X661060Y261468D03*
D52*
X661060Y276962D03*
X661060Y292202D03*
D34*
X661060Y301092D03*
D151*
X661060Y310134D03*
D52*
X661060Y326136D03*
D168*
X661060Y344170D03*
D150*
X660959Y261468D03*
D52*
X660959Y276962D03*
X660959Y292202D03*
D169*
X660959Y301142D03*
D151*
X660959Y310134D03*
D52*
X660959Y326136D03*
D170*
X660959Y344170D03*
D150*
X660857Y261468D03*
D52*
X660857Y276962D03*
X660857Y292202D03*
D32*
X660857Y301193D03*
D151*
X660857Y310134D03*
D52*
X660857Y326136D03*
D110*
X660857Y344221D03*
D150*
X660756Y261468D03*
D52*
X660756Y276962D03*
X660756Y292202D03*
D116*
X660756Y301295D03*
D151*
X660756Y310134D03*
D52*
X660756Y326136D03*
D107*
X660756Y344221D03*
D146*
X660654Y261468D03*
D53*
X660654Y276962D03*
X660654Y292202D03*
D171*
X660654Y301346D03*
D148*
X660654Y310134D03*
D53*
X660654Y326136D03*
D172*
X660654Y344221D03*
D150*
X660552Y261468D03*
D52*
X660552Y276962D03*
X660552Y292202D03*
D117*
X660552Y301396D03*
D151*
X660552Y310134D03*
D52*
X660552Y326136D03*
D173*
X660552Y344170D03*
D150*
X660451Y261468D03*
D52*
X660451Y276962D03*
X660451Y292202D03*
D119*
X660451Y301498D03*
D151*
X660451Y310134D03*
D52*
X660451Y326136D03*
D174*
X660451Y344170D03*
D150*
X660349Y261468D03*
D52*
X660349Y276962D03*
X660349Y292202D03*
D24*
X660349Y301600D03*
D151*
X660349Y310134D03*
D52*
X660349Y326136D03*
D88*
X660349Y344221D03*
D150*
X660248Y261468D03*
D52*
X660248Y276962D03*
X660248Y292202D03*
D40*
X660248Y301650D03*
D151*
X660248Y310134D03*
D52*
X660248Y326136D03*
D84*
X660248Y344170D03*
D146*
X660146Y261468D03*
D53*
X660146Y276962D03*
X660146Y292202D03*
D175*
X660146Y301752D03*
D148*
X660146Y310134D03*
D53*
X660146Y326136D03*
D176*
X660146Y344221D03*
D150*
X660044Y261468D03*
D52*
X660044Y276962D03*
X660044Y292202D03*
D42*
X660044Y301854D03*
D151*
X660044Y310134D03*
D52*
X660044Y326136D03*
D177*
X660044Y344221D03*
D150*
X659943Y261468D03*
D52*
X659943Y276962D03*
X659943Y292202D03*
D44*
X659943Y301955D03*
D151*
X659943Y310134D03*
D52*
X659943Y326136D03*
D178*
X659943Y344221D03*
D150*
X659841Y261468D03*
D52*
X659841Y276962D03*
X659841Y292202D03*
D18*
X659841Y302108D03*
D151*
X659841Y310134D03*
D52*
X659841Y326136D03*
D69*
X659841Y344221D03*
D150*
X659740Y261468D03*
D17*
X659740Y302209D03*
D151*
X659740Y310134D03*
D52*
X659740Y326136D03*
D179*
X659740Y344170D03*
D146*
X659638Y261468D03*
D53*
X659638Y302362D03*
D148*
X659638Y310134D03*
D53*
X659638Y326136D03*
D180*
X659638Y344170D03*
D150*
X659536Y261468D03*
D181*
X659536Y302463D03*
D151*
X659536Y310134D03*
D52*
X659536Y326136D03*
D113*
X659536Y344170D03*
D150*
X659435Y261468D03*
D182*
X659435Y302666D03*
D151*
X659435Y310134D03*
D52*
X659435Y326136D03*
D25*
X659435Y344221D03*
D150*
X659333Y261468D03*
D12*
X659333Y302870D03*
D151*
X659333Y310134D03*
D52*
X659333Y326136D03*
X659333Y344221D03*
X659232Y258572D03*
D183*
X659232Y303073D03*
D52*
X659232Y307238D03*
X659232Y326136D03*
D53*
X659130Y258572D03*
D184*
X659130Y303479D03*
D53*
X659130Y307238D03*
X659130Y326136D03*
D52*
X659028Y258572D03*
X659028Y307238D03*
X659028Y326136D03*
X658927Y258572D03*
X658927Y307238D03*
X658927Y326136D03*
X658825Y258572D03*
X658825Y307238D03*
X658825Y326136D03*
X658724Y258572D03*
X658724Y307238D03*
X658724Y326136D03*
D53*
X658622Y258572D03*
X658622Y307238D03*
X658622Y326136D03*
D52*
X658520Y258572D03*
X658520Y307238D03*
X658520Y326136D03*
X658419Y258572D03*
X658419Y307238D03*
X658419Y326136D03*
X658317Y258572D03*
X658317Y307238D03*
X658317Y326136D03*
X658216Y258572D03*
X658216Y307238D03*
X658216Y326136D03*
D53*
X658114Y258572D03*
X658114Y307238D03*
X658114Y326136D03*
D52*
X658012Y258572D03*
X658012Y307238D03*
X658012Y326136D03*
X657911Y258572D03*
X657911Y307238D03*
X657911Y326136D03*
X657809Y258572D03*
X657809Y307238D03*
X657809Y326136D03*
X657708Y258572D03*
X657708Y307238D03*
X657708Y326136D03*
D53*
X657606Y258572D03*
X657606Y307238D03*
X657606Y326136D03*
D52*
X657504Y258572D03*
X657504Y307238D03*
X657504Y326136D03*
X657403Y258572D03*
X657403Y307238D03*
X657403Y326136D03*
X657301Y258572D03*
X657301Y307238D03*
X657301Y326136D03*
X657200Y258572D03*
X657200Y307238D03*
X657200Y326136D03*
D53*
X657098Y258572D03*
X657098Y307238D03*
X657098Y326136D03*
D52*
X656996Y258572D03*
X656996Y307238D03*
X656996Y326136D03*
X656895Y258572D03*
X656895Y307238D03*
X656895Y326136D03*
X656793Y258572D03*
X656793Y307238D03*
X656793Y326136D03*
X656692Y258572D03*
X656692Y307238D03*
X656692Y326136D03*
D53*
X656590Y258572D03*
X656590Y307238D03*
X656590Y326136D03*
D52*
X656488Y258572D03*
X656488Y307238D03*
X656488Y326136D03*
X656387Y258572D03*
X656387Y307238D03*
X656387Y326136D03*
X656285Y258572D03*
X656285Y307238D03*
X656285Y326136D03*
X656184Y258572D03*
X656184Y307238D03*
X656184Y326136D03*
D53*
X656082Y258572D03*
X656082Y307238D03*
X656082Y326136D03*
D52*
X655980Y258572D03*
X655980Y307238D03*
X655980Y326136D03*
X655879Y258572D03*
X655879Y307238D03*
X655879Y326136D03*
X655777Y258572D03*
X655777Y307238D03*
X655777Y326136D03*
X655676Y258572D03*
X655676Y307238D03*
X655676Y326136D03*
D53*
X655574Y258572D03*
X655574Y307238D03*
X655574Y326136D03*
D52*
X655472Y258572D03*
X655472Y307238D03*
X655472Y326136D03*
X655371Y258572D03*
X655371Y307238D03*
X655371Y326136D03*
X655269Y258572D03*
X655269Y307238D03*
X655269Y326136D03*
X655168Y258572D03*
X655168Y307238D03*
X655168Y326136D03*
D53*
X655066Y258572D03*
X655066Y307238D03*
X655066Y326136D03*
D52*
X654964Y258572D03*
X654964Y307238D03*
X654964Y326136D03*
X654863Y258572D03*
X654863Y307238D03*
X654863Y326136D03*
X654761Y258572D03*
X654761Y307238D03*
X654761Y326136D03*
X654660Y258572D03*
X654660Y307238D03*
X654660Y326136D03*
D53*
X654558Y258572D03*
X654558Y307238D03*
X654558Y326136D03*
D52*
X654456Y258572D03*
X654456Y307238D03*
X654456Y326136D03*
X654355Y258572D03*
X654355Y307238D03*
X654355Y326136D03*
X654253Y258572D03*
X654253Y307238D03*
X654253Y326136D03*
X654152Y258572D03*
X654152Y307238D03*
X654152Y326136D03*
D53*
X654050Y258572D03*
X654050Y307238D03*
X654050Y326136D03*
D52*
X653948Y258572D03*
X653948Y307238D03*
X653948Y326136D03*
D185*
X86533Y120485D02*
X85600Y121417D01*
X83736Y121417D01*
X82804Y120485D01*
X82804Y119553D01*
X83736Y118620D01*
X85600Y118620D01*
X86533Y117688D01*
X86533Y116756D01*
X85600Y115824D01*
X83736Y115824D01*
X82804Y116756D01*
X90281Y115824D02*
X90281Y121417D01*
X88417Y121417D02*
X92146Y121417D01*
X94030Y121417D02*
X94030Y115824D01*
X95894Y119553D02*
X94030Y121417D01*
X95894Y119553D02*
X97759Y121417D01*
X97759Y115824D01*
X99643Y120485D02*
X100575Y121417D01*
X102440Y121417D01*
X103372Y120485D01*
X103372Y119553D01*
X102440Y118620D01*
X101508Y118620D01*
X102440Y118620D02*
X103372Y117688D01*
X103372Y116756D01*
X102440Y115824D01*
X100575Y115824D01*
X99643Y116756D01*
X105256Y115824D02*
X108985Y115824D01*
X105256Y115824D02*
X108985Y119553D01*
X108985Y120485D01*
X108053Y121417D01*
X106189Y121417D01*
X105256Y120485D01*
X110869Y121417D02*
X110869Y115824D01*
X110869Y121417D02*
X114598Y121417D01*
X112734Y118620D02*
X110869Y118620D01*
X116483Y116756D02*
X116483Y120485D01*
X117415Y121417D01*
X119279Y121417D01*
X120211Y120485D01*
X120211Y116756D01*
X119279Y115824D01*
X117415Y115824D01*
X116483Y116756D01*
X120211Y120485D01*
X122096Y120485D02*
X123028Y121417D01*
X124892Y121417D01*
X125824Y120485D01*
X125824Y119553D01*
X124892Y118620D01*
X123960Y118620D01*
X124892Y118620D02*
X125824Y117688D01*
X125824Y116756D01*
X124892Y115824D01*
X123028Y115824D01*
X122096Y116756D01*
X127709Y116756D02*
X127709Y120485D01*
X128641Y121417D01*
X130505Y121417D01*
X131437Y120485D01*
X131437Y116756D01*
X130505Y115824D01*
X128641Y115824D01*
X127709Y116756D01*
X131437Y120485D01*
X136118Y121417D02*
X137050Y120485D01*
X136118Y121417D02*
X134254Y121417D01*
X133322Y120485D01*
X133322Y116756D01*
X134254Y115824D01*
X136118Y115824D01*
X137050Y116756D01*
X138935Y120485D02*
X139867Y121417D01*
X141731Y121417D01*
X142663Y120485D01*
X142663Y119553D01*
X141731Y118620D01*
X142663Y117688D01*
X142663Y116756D01*
X141731Y115824D01*
X139867Y115824D01*
X138935Y116756D01*
X138935Y117688D01*
X139867Y118620D01*
X138935Y119553D01*
X138935Y120485D01*
X139867Y118620D02*
X141731Y118620D01*
X146412Y115824D02*
X146412Y121417D01*
X144548Y121417D02*
X148277Y121417D01*
X152025Y120485D02*
X153890Y121417D01*
X152025Y120485D02*
X150161Y118620D01*
X150161Y116756D01*
X151093Y115824D01*
X152958Y115824D01*
X153890Y116756D01*
X153890Y117688D01*
X152958Y118620D01*
X150161Y118620D01*
D186*
X296285Y309849D02*
X303657Y309849D01*
X296285Y309849D02*
X296285Y313535D01*
X297513Y314764D01*
X298742Y314764D01*
X299971Y313535D01*
X301200Y314764D01*
X302428Y314764D01*
X303657Y313535D01*
X303657Y309849D01*
X299971Y309849D02*
X299971Y313535D01*
X296285Y317333D02*
X296285Y322248D01*
X296285Y317333D02*
X303657Y317333D01*
X303657Y322248D01*
X299971Y319791D02*
X299971Y317333D01*
X303657Y324818D02*
X296285Y324818D01*
X296285Y329732D01*
X299971Y327275D02*
X299971Y324818D01*
X296285Y333530D02*
X296285Y335988D01*
X296285Y333530D02*
X297513Y332302D01*
X302428Y332302D01*
X303657Y333530D01*
X303657Y335988D01*
X302428Y337217D01*
X297513Y337217D01*
X296285Y335988D01*
X296285Y339786D02*
X303657Y339786D01*
X296285Y339786D02*
X296285Y343472D01*
X297513Y344701D01*
X299971Y344701D01*
X301200Y343472D01*
X301200Y339786D01*
X301200Y342243D02*
X303657Y344701D01*
X296285Y347270D02*
X296285Y352185D01*
X296285Y347270D02*
X303657Y347270D01*
X303657Y352185D01*
X299971Y349727D02*
X299971Y347270D01*
X296285Y365924D02*
X297513Y367153D01*
X296285Y365924D02*
X296285Y363467D01*
X297513Y362238D01*
X298742Y362238D01*
X299971Y363467D01*
X299971Y365924D01*
X301200Y367153D01*
X302428Y367153D01*
X303657Y365924D01*
X303657Y363467D01*
X302428Y362238D01*
X296285Y370951D02*
X296285Y373409D01*
X296285Y370951D02*
X297513Y369722D01*
X302428Y369722D01*
X303657Y370951D01*
X303657Y373409D01*
X302428Y374637D01*
X297513Y374637D01*
X296285Y373409D01*
X296285Y377207D02*
X303657Y377207D01*
X303657Y382121D01*
X303657Y384691D02*
X296285Y384691D01*
X303657Y384691D02*
X303657Y388377D01*
X302428Y389606D01*
X297513Y389606D01*
X296285Y388377D01*
X296285Y384691D01*
X296285Y392175D02*
X296285Y397090D01*
X296285Y392175D02*
X303657Y392175D01*
X303657Y397090D01*
X299971Y394632D02*
X299971Y392175D01*
X303657Y399659D02*
X296285Y399659D01*
X296285Y403345D01*
X297513Y404574D01*
X299971Y404574D01*
X301200Y403345D01*
X301200Y399659D01*
X301200Y402117D02*
X303657Y404574D01*
X303657Y407143D02*
X303657Y409601D01*
X303657Y408372D02*
X296285Y408372D01*
X296285Y407143D02*
X296285Y409601D01*
X296285Y412133D02*
X303657Y412133D01*
X303657Y417048D02*
X296285Y412133D01*
X296285Y417048D02*
X303657Y417048D01*
X296285Y423303D02*
X297513Y424532D01*
X296285Y423303D02*
X296285Y420846D01*
X297513Y419617D01*
X302428Y419617D01*
X303657Y420846D01*
X303657Y423303D01*
X302428Y424532D01*
X299971Y424532D01*
X299971Y422074D01*
X309705Y314764D02*
X308477Y313535D01*
X308477Y311078D01*
X309705Y309849D01*
X310934Y309849D01*
X312163Y311078D01*
X312163Y313535D01*
X313392Y314764D01*
X314620Y314764D01*
X315849Y313535D01*
X315849Y311078D01*
X314620Y309849D01*
X308477Y317333D02*
X308477Y322248D01*
X308477Y317333D02*
X315849Y317333D01*
X315849Y322248D01*
X312163Y319791D02*
X312163Y317333D01*
X315849Y327275D02*
X308477Y327275D01*
X308477Y324818D02*
X308477Y329732D01*
X308477Y342243D02*
X315849Y342243D01*
X308477Y339786D02*
X308477Y344701D01*
X308477Y348499D02*
X308477Y350956D01*
X308477Y348499D02*
X309705Y347270D01*
X314620Y347270D01*
X315849Y348499D01*
X315849Y350956D01*
X314620Y352185D01*
X309705Y352185D01*
X308477Y350956D01*
X309705Y364696D02*
X308477Y367153D01*
X309705Y364696D02*
X312163Y362238D01*
X314620Y362238D01*
X315849Y363467D01*
X315849Y365924D01*
X314620Y367153D01*
X313392Y367153D01*
X312163Y365924D01*
X312163Y362238D01*
X313392Y369722D02*
X308477Y369722D01*
X313392Y369722D02*
X315849Y372180D01*
X313392Y374637D01*
X308477Y374637D01*
X379699Y199015D02*
X379699Y191643D01*
X379699Y199015D02*
X383385Y199015D01*
X384614Y197787D01*
X384614Y196558D01*
X383385Y195329D01*
X384614Y194100D01*
X384614Y192872D01*
X383385Y191643D01*
X379699Y191643D01*
X379699Y195329D02*
X383385Y195329D01*
X387183Y199015D02*
X392098Y199015D01*
X387183Y199015D02*
X387183Y191643D01*
X392098Y191643D01*
X389641Y195329D02*
X387183Y195329D01*
X394668Y191643D02*
X394668Y199015D01*
X399582Y199015D01*
X397125Y195329D02*
X394668Y195329D01*
X403380Y199015D02*
X405838Y199015D01*
X403380Y199015D02*
X402152Y197787D01*
X402152Y192872D01*
X403380Y191643D01*
X405838Y191643D01*
X407067Y192872D01*
X407067Y197787D01*
X405838Y199015D01*
X409636Y199015D02*
X409636Y191643D01*
X409636Y199015D02*
X413322Y199015D01*
X414551Y197787D01*
X414551Y195329D01*
X413322Y194100D01*
X409636Y194100D01*
X412093Y194100D02*
X414551Y191643D01*
X417120Y199015D02*
X422035Y199015D01*
X417120Y199015D02*
X417120Y191643D01*
X422035Y191643D01*
X419577Y195329D02*
X417120Y195329D01*
X435774Y199015D02*
X437003Y197787D01*
X435774Y199015D02*
X433317Y199015D01*
X432088Y197787D01*
X432088Y196558D01*
X433317Y195329D01*
X435774Y195329D01*
X437003Y194100D01*
X437003Y192872D01*
X435774Y191643D01*
X433317Y191643D01*
X432088Y192872D01*
X440801Y199015D02*
X443259Y199015D01*
X440801Y199015D02*
X439572Y197787D01*
X439572Y192872D01*
X440801Y191643D01*
X443259Y191643D01*
X444487Y192872D01*
X444487Y197787D01*
X443259Y199015D01*
X447057Y199015D02*
X447057Y191643D01*
X451971Y191643D01*
X454541Y191643D02*
X454541Y199015D01*
X454541Y191643D02*
X458227Y191643D01*
X459456Y192872D01*
X459456Y197787D01*
X458227Y199015D01*
X454541Y199015D01*
X462025Y199015D02*
X466940Y199015D01*
X462025Y199015D02*
X462025Y191643D01*
X466940Y191643D01*
X464482Y195329D02*
X462025Y195329D01*
X469509Y191643D02*
X469509Y199015D01*
X473195Y199015D01*
X474424Y197787D01*
X474424Y195329D01*
X473195Y194100D01*
X469509Y194100D01*
X471967Y194100D02*
X474424Y191643D01*
X476993Y191643D02*
X479451Y191643D01*
X478222Y191643D02*
X478222Y199015D01*
X476993Y199015D02*
X479451Y199015D01*
X481983Y199015D02*
X481983Y191643D01*
X486898Y191643D02*
X481983Y199015D01*
X486898Y199015D02*
X486898Y191643D01*
X493153Y199015D02*
X494382Y197787D01*
X493153Y199015D02*
X490696Y199015D01*
X489467Y197787D01*
X489467Y192872D01*
X490696Y191643D01*
X493153Y191643D01*
X494382Y192872D01*
X494382Y195329D01*
X491924Y195329D01*
X384614Y185595D02*
X383385Y186823D01*
X380928Y186823D01*
X379699Y185595D01*
X379699Y184366D01*
X380928Y183137D01*
X383385Y183137D01*
X384614Y181908D01*
X384614Y180680D01*
X383385Y179451D01*
X380928Y179451D01*
X379699Y180680D01*
X387183Y186823D02*
X392098Y186823D01*
X387183Y186823D02*
X387183Y179451D01*
X392098Y179451D01*
X389641Y183137D02*
X387183Y183137D01*
X397125Y179451D02*
X397125Y186823D01*
X394668Y186823D02*
X399582Y186823D01*
X412093Y186823D02*
X412093Y179451D01*
X409636Y186823D02*
X414551Y186823D01*
X418349Y186823D02*
X420806Y186823D01*
X418349Y186823D02*
X417120Y185595D01*
X417120Y180680D01*
X418349Y179451D01*
X420806Y179451D01*
X422035Y180680D01*
X422035Y185595D01*
X420806Y186823D01*
X432088Y186823D02*
X437003Y186823D01*
X432088Y186823D02*
X432088Y183137D01*
X434546Y184366D01*
X435774Y184366D01*
X437003Y183137D01*
X437003Y180680D01*
X435774Y179451D01*
X433317Y179451D01*
X432088Y180680D01*
X439572Y181908D02*
X439572Y186823D01*
X439572Y181908D02*
X442030Y179451D01*
X444487Y181908D01*
X444487Y186823D01*
D187*
X142240Y107950D02*
X130810Y107950D01*
X142240Y107950D02*
X153670Y107950D01*
X165100Y107950D01*
X165100Y85090D01*
X153670Y85090D01*
D188*
X142240Y85090D01*
D187*
X130810Y85090D01*
X130810Y107950D01*
X142240Y107950D02*
X142240Y85090D01*
X153670Y85090D02*
X153670Y107950D01*
D189*
X729480Y432308D02*
X735581Y432308D01*
X738632Y435359D01*
X735581Y438409D01*
X729480Y438409D01*
X729480Y446239D02*
X731006Y447764D01*
X729480Y446239D02*
X729480Y443188D01*
X731006Y441663D01*
X737107Y441663D01*
X738632Y443188D01*
X738632Y446239D01*
X737107Y447764D01*
X729480Y455594D02*
X731006Y457120D01*
X729480Y455594D02*
X729480Y452544D01*
X731006Y451018D01*
X737107Y451018D01*
X738632Y452544D01*
X738632Y455594D01*
X737107Y457120D01*
X731006Y400309D02*
X729480Y398784D01*
X729480Y395733D01*
X731006Y394208D01*
X737107Y394208D01*
X738632Y395733D01*
X738632Y398784D01*
X737107Y400309D01*
X734056Y400309D01*
X734056Y397259D01*
X738632Y403563D02*
X729480Y403563D01*
X738632Y409664D01*
X729480Y409664D01*
X729480Y412918D02*
X738632Y412918D01*
X738632Y417494D01*
X737107Y419020D01*
X731006Y419020D01*
X729480Y417494D01*
X729480Y412918D01*
D185*
X141732Y93168D02*
X136139Y93168D01*
X136139Y95964D01*
X137071Y96896D01*
X138936Y96896D01*
X139868Y95964D01*
X139868Y93168D01*
X139868Y95032D02*
X141732Y96896D01*
X138004Y98781D02*
X136139Y100645D01*
X141732Y100645D01*
X141732Y98781D02*
X141732Y102509D01*
X14986Y150114D02*
X9393Y150114D01*
X9393Y152910D01*
X10325Y153843D01*
X12190Y153843D01*
X13122Y152910D01*
X13122Y150114D01*
X13122Y151978D02*
X14986Y153843D01*
X14986Y155727D02*
X14986Y159456D01*
X11258Y159456D02*
X14986Y155727D01*
X11258Y159456D02*
X10325Y159456D01*
X9393Y158523D01*
X9393Y156659D01*
X10325Y155727D01*
D188*
X369960Y164700D02*
X412360Y164700D01*
X412360Y114700D02*
X369960Y114700D01*
D185*
X354914Y170454D02*
X354914Y176047D01*
X358643Y176047D01*
X356778Y173250D02*
X354914Y173250D01*
X360527Y174183D02*
X362391Y176047D01*
X362391Y170454D01*
X360527Y170454D02*
X364256Y170454D01*
X349603Y186820D02*
X350535Y187753D01*
X349603Y186820D02*
X349603Y184956D01*
X350535Y184024D01*
X354264Y184024D01*
X355196Y184956D01*
X355196Y186820D01*
X354264Y187753D01*
X350535Y189637D02*
X349603Y190569D01*
X349603Y192433D01*
X350535Y193366D01*
X351468Y193366D01*
X352400Y192433D01*
X353332Y193366D01*
X354264Y193366D01*
X355196Y192433D01*
X355196Y190569D01*
X354264Y189637D01*
X353332Y189637D01*
X352400Y190569D01*
X351468Y189637D01*
X350535Y189637D01*
X352400Y190569D02*
X352400Y192433D01*
D189*
X285900Y210360D02*
X285900Y165560D01*
X247500Y165560D02*
X247500Y210360D01*
D185*
X263144Y223774D02*
X263144Y229367D01*
X263144Y223774D02*
X265940Y223774D01*
X266873Y224706D01*
X266873Y228435D01*
X265940Y229367D01*
X263144Y229367D01*
X268757Y227503D02*
X270621Y229367D01*
X270621Y223774D01*
X268757Y223774D02*
X272486Y223774D01*
D188*
X336940Y378860D02*
X379340Y378860D01*
X379340Y428860D02*
X336940Y428860D01*
D185*
X383668Y373111D02*
X383668Y367518D01*
X383668Y373111D02*
X387396Y373111D01*
X385532Y370314D02*
X383668Y370314D01*
X389281Y367518D02*
X393009Y367518D01*
X389281Y367518D02*
X393009Y371247D01*
X393009Y372179D01*
X392077Y373111D01*
X390213Y373111D01*
X389281Y372179D01*
X476753Y530100D02*
X477685Y531033D01*
X476753Y530100D02*
X476753Y528236D01*
X477685Y527304D01*
X481414Y527304D01*
X482346Y528236D01*
X482346Y530100D01*
X481414Y531033D01*
X481414Y532917D02*
X482346Y533849D01*
X482346Y535713D01*
X481414Y536646D01*
X477685Y536646D01*
X476753Y535713D01*
X476753Y533849D01*
X477685Y532917D01*
X478618Y532917D01*
X479550Y533849D01*
X479550Y536646D01*
D188*
X483480Y378860D02*
X441080Y378860D01*
X441080Y428860D02*
X483480Y428860D01*
D185*
X487808Y373111D02*
X487808Y367518D01*
X487808Y373111D02*
X491536Y373111D01*
X489672Y370314D02*
X487808Y370314D01*
X493421Y372179D02*
X494353Y373111D01*
X496217Y373111D01*
X497149Y372179D01*
X497149Y371247D01*
X496217Y370314D01*
X495285Y370314D01*
X496217Y370314D02*
X497149Y369382D01*
X497149Y368450D01*
X496217Y367518D01*
X494353Y367518D01*
X493421Y368450D01*
X491993Y531370D02*
X492925Y532303D01*
X491993Y531370D02*
X491993Y529506D01*
X492925Y528574D01*
X496654Y528574D01*
X497586Y529506D01*
X497586Y531370D01*
X496654Y532303D01*
X493858Y534187D02*
X491993Y536051D01*
X497586Y536051D01*
X497586Y534187D02*
X497586Y537916D01*
X496654Y539800D02*
X492925Y539800D01*
X491993Y540732D01*
X491993Y542597D01*
X492925Y543529D01*
X496654Y543529D01*
X497586Y542597D01*
X497586Y540732D01*
X496654Y539800D01*
X492925Y543529D01*
X573019Y524968D02*
X578612Y524968D01*
X573019Y524968D02*
X573019Y527764D01*
X573951Y528696D01*
X575816Y528696D01*
X576748Y527764D01*
X576748Y524968D01*
X576748Y526832D02*
X578612Y528696D01*
X573951Y532445D02*
X573019Y534309D01*
X573951Y532445D02*
X575816Y530581D01*
X577680Y530581D01*
X578612Y531513D01*
X578612Y533377D01*
X577680Y534309D01*
X576748Y534309D01*
X575816Y533377D01*
X575816Y530581D01*
X556006Y305054D02*
X550413Y305054D01*
X550413Y307850D01*
X551345Y308783D01*
X553210Y308783D01*
X554142Y307850D01*
X554142Y305054D01*
X554142Y306918D02*
X556006Y308783D01*
X550413Y310667D02*
X550413Y314396D01*
X550413Y310667D02*
X553210Y310667D01*
X552278Y312531D01*
X552278Y313463D01*
X553210Y314396D01*
X555074Y314396D01*
X556006Y313463D01*
X556006Y311599D01*
X555074Y310667D01*
X569214Y74427D02*
X569214Y68834D01*
X569214Y74427D02*
X572010Y74427D01*
X572943Y73495D01*
X572943Y71630D01*
X572010Y70698D01*
X569214Y70698D01*
X571078Y70698D02*
X572943Y68834D01*
X574827Y74427D02*
X578556Y74427D01*
X578556Y73495D01*
X574827Y69766D01*
X574827Y68834D01*
X641853Y305054D02*
X647446Y305054D01*
X641853Y305054D02*
X641853Y307850D01*
X642785Y308783D01*
X644650Y308783D01*
X645582Y307850D01*
X645582Y305054D01*
X645582Y306918D02*
X647446Y308783D01*
X642785Y310667D02*
X641853Y311599D01*
X641853Y313463D01*
X642785Y314396D01*
X643718Y314396D01*
X644650Y313463D01*
X645582Y314396D01*
X646514Y314396D01*
X647446Y313463D01*
X647446Y311599D01*
X646514Y310667D01*
X645582Y310667D01*
X644650Y311599D01*
X643718Y310667D01*
X642785Y310667D01*
X644650Y311599D02*
X644650Y313463D01*
X171361Y76043D02*
X170429Y75111D01*
X170429Y73247D01*
X171361Y72315D01*
X175090Y72315D01*
X176022Y73247D01*
X176022Y75111D01*
X175090Y76043D01*
X172294Y77928D02*
X170429Y79792D01*
X176022Y79792D01*
X176022Y77928D02*
X176022Y81656D01*
X172294Y83541D02*
X170429Y85405D01*
X176022Y85405D01*
X176022Y83541D02*
X176022Y87269D01*
X186601Y76043D02*
X185669Y75111D01*
X185669Y73247D01*
X186601Y72315D01*
X190330Y72315D01*
X191262Y73247D01*
X191262Y75111D01*
X190330Y76043D01*
X187534Y77928D02*
X185669Y79792D01*
X191262Y79792D01*
X191262Y77928D02*
X191262Y81656D01*
X191262Y83541D02*
X191262Y87269D01*
X191262Y83541D02*
X187534Y87269D01*
X186601Y87269D01*
X185669Y86337D01*
X185669Y84473D01*
X186601Y83541D01*
X200909Y75111D02*
X201841Y76043D01*
X200909Y75111D02*
X200909Y73247D01*
X201841Y72315D01*
X205570Y72315D01*
X206502Y73247D01*
X206502Y75111D01*
X205570Y76043D01*
X202774Y77928D02*
X200909Y79792D01*
X206502Y79792D01*
X206502Y77928D02*
X206502Y81656D01*
X201841Y83541D02*
X200909Y84473D01*
X200909Y86337D01*
X201841Y87269D01*
X202774Y87269D01*
X203706Y86337D01*
X203706Y85405D01*
X203706Y86337D02*
X204638Y87269D01*
X205570Y87269D01*
X206502Y86337D01*
X206502Y84473D01*
X205570Y83541D01*
X217569Y75491D02*
X218501Y76423D01*
X217569Y75491D02*
X217569Y73627D01*
X218501Y72695D01*
X222230Y72695D01*
X223162Y73627D01*
X223162Y75491D01*
X222230Y76423D01*
X219434Y78308D02*
X217569Y80172D01*
X223162Y80172D01*
X223162Y78308D02*
X223162Y82036D01*
X223162Y86717D02*
X217569Y86717D01*
X220366Y83921D01*
X220366Y87649D01*
X282189Y133531D02*
X283121Y134463D01*
X282189Y133531D02*
X282189Y131667D01*
X283121Y130735D01*
X286850Y130735D01*
X287782Y131667D01*
X287782Y133531D01*
X286850Y134463D01*
X284054Y136348D02*
X282189Y138212D01*
X287782Y138212D01*
X287782Y136348D02*
X287782Y140076D01*
X282189Y141961D02*
X282189Y145689D01*
X282189Y141961D02*
X284986Y141961D01*
X284054Y143825D01*
X284054Y144757D01*
X284986Y145689D01*
X286850Y145689D01*
X287782Y144757D01*
X287782Y142893D01*
X286850Y141961D01*
X532379Y327841D02*
X533311Y328773D01*
X532379Y327841D02*
X532379Y325977D01*
X533311Y325045D01*
X537040Y325045D01*
X537972Y325977D01*
X537972Y327841D01*
X537040Y328773D01*
X534244Y330658D02*
X532379Y332522D01*
X537972Y332522D01*
X537972Y330658D02*
X537972Y334386D01*
X533311Y336271D02*
X532379Y337203D01*
X532379Y339067D01*
X533311Y339999D01*
X534244Y339999D01*
X535176Y339067D01*
X536108Y339999D01*
X537040Y339999D01*
X537972Y339067D01*
X537972Y337203D01*
X537040Y336271D01*
X536108Y336271D01*
X535176Y337203D01*
X534244Y336271D01*
X533311Y336271D01*
X535176Y337203D02*
X535176Y339067D01*
X552960Y88397D02*
X553893Y87465D01*
X552960Y88397D02*
X551096Y88397D01*
X550164Y87465D01*
X550164Y83736D01*
X551096Y82804D01*
X552960Y82804D01*
X553893Y83736D01*
X555777Y86533D02*
X557641Y88397D01*
X557641Y82804D01*
X555777Y82804D02*
X559506Y82804D01*
X561390Y83736D02*
X562322Y82804D01*
X564187Y82804D01*
X565119Y83736D01*
X565119Y87465D01*
X564187Y88397D01*
X562322Y88397D01*
X561390Y87465D01*
X561390Y86533D01*
X562322Y85600D01*
X565119Y85600D01*
X239522Y72315D02*
X233929Y72315D01*
X233929Y75111D01*
X234861Y76043D01*
X236726Y76043D01*
X237658Y75111D01*
X237658Y72315D01*
X237658Y74179D02*
X239522Y76043D01*
X239522Y80724D02*
X233929Y80724D01*
X236726Y77928D01*
X236726Y81656D01*
X233929Y83541D02*
X233929Y87269D01*
X233929Y83541D02*
X236726Y83541D01*
X235794Y85405D01*
X235794Y86337D01*
X236726Y87269D01*
X238590Y87269D01*
X239522Y86337D01*
X239522Y84473D01*
X238590Y83541D01*
X269489Y72315D02*
X275082Y72315D01*
X269489Y72315D02*
X269489Y75111D01*
X270421Y76043D01*
X272286Y76043D01*
X273218Y75111D01*
X273218Y72315D01*
X273218Y74179D02*
X275082Y76043D01*
X275082Y80724D02*
X269489Y80724D01*
X272286Y77928D01*
X272286Y81656D01*
X270421Y85405D02*
X269489Y87269D01*
X270421Y85405D02*
X272286Y83541D01*
X274150Y83541D01*
X275082Y84473D01*
X275082Y86337D01*
X274150Y87269D01*
X273218Y87269D01*
X272286Y86337D01*
X272286Y83541D01*
X252641Y76043D02*
X251709Y75111D01*
X251709Y73247D01*
X252641Y72315D01*
X256370Y72315D01*
X257302Y73247D01*
X257302Y75111D01*
X256370Y76043D01*
X257302Y77928D02*
X257302Y81656D01*
X257302Y77928D02*
X253574Y81656D01*
X252641Y81656D01*
X251709Y80724D01*
X251709Y78860D01*
X252641Y77928D01*
X252641Y83541D02*
X256370Y83541D01*
X252641Y83541D02*
X251709Y84473D01*
X251709Y86337D01*
X252641Y87269D01*
X256370Y87269D01*
X257302Y86337D01*
X257302Y84473D01*
X256370Y83541D01*
X252641Y87269D01*
X692653Y330454D02*
X698246Y330454D01*
X698246Y333250D01*
X697314Y334183D01*
X693585Y334183D01*
X692653Y333250D01*
X692653Y330454D01*
X698246Y336067D02*
X698246Y339796D01*
X694518Y339796D02*
X698246Y336067D01*
X694518Y339796D02*
X693585Y339796D01*
X692653Y338863D01*
X692653Y336999D01*
X693585Y336067D01*
X692653Y366014D02*
X698246Y366014D01*
X698246Y368810D01*
X697314Y369743D01*
X693585Y369743D01*
X692653Y368810D01*
X692653Y366014D01*
X693585Y371627D02*
X692653Y372559D01*
X692653Y374423D01*
X693585Y375356D01*
X694518Y375356D01*
X695450Y374423D01*
X695450Y373491D01*
X695450Y374423D02*
X696382Y375356D01*
X697314Y375356D01*
X698246Y374423D01*
X698246Y372559D01*
X697314Y371627D01*
X698246Y259334D02*
X692653Y259334D01*
X698246Y259334D02*
X698246Y262130D01*
X697314Y263063D01*
X693585Y263063D01*
X692653Y262130D01*
X692653Y259334D01*
X692653Y267743D02*
X698246Y267743D01*
X695450Y264947D02*
X692653Y267743D01*
X695450Y268676D02*
X695450Y264947D01*
X692653Y294894D02*
X698246Y294894D01*
X698246Y297690D01*
X697314Y298623D01*
X693585Y298623D01*
X692653Y297690D01*
X692653Y294894D01*
X692653Y300507D02*
X692653Y304236D01*
X692653Y300507D02*
X695450Y300507D01*
X694518Y302371D01*
X694518Y303303D01*
X695450Y304236D01*
X697314Y304236D01*
X698246Y303303D01*
X698246Y301439D01*
X697314Y300507D01*
X710433Y312674D02*
X716026Y312674D01*
X716026Y315470D01*
X715094Y316403D01*
X711365Y316403D01*
X710433Y315470D01*
X710433Y312674D01*
X711365Y320151D02*
X710433Y322016D01*
X711365Y320151D02*
X713230Y318287D01*
X715094Y318287D01*
X716026Y319219D01*
X716026Y321083D01*
X715094Y322016D01*
X714162Y322016D01*
X713230Y321083D01*
X713230Y318287D01*
X710433Y348234D02*
X716026Y348234D01*
X716026Y351030D01*
X715094Y351963D01*
X711365Y351963D01*
X710433Y351030D01*
X710433Y348234D01*
X710433Y353847D02*
X710433Y357576D01*
X711365Y357576D01*
X715094Y353847D01*
X716026Y353847D01*
X716026Y241554D02*
X710433Y241554D01*
X716026Y241554D02*
X716026Y244350D01*
X715094Y245283D01*
X711365Y245283D01*
X710433Y244350D01*
X710433Y241554D01*
X711365Y247167D02*
X710433Y248099D01*
X710433Y249963D01*
X711365Y250896D01*
X712298Y250896D01*
X713230Y249963D01*
X714162Y250896D01*
X715094Y250896D01*
X716026Y249963D01*
X716026Y248099D01*
X715094Y247167D01*
X714162Y247167D01*
X713230Y248099D01*
X712298Y247167D01*
X711365Y247167D01*
X713230Y248099D02*
X713230Y249963D01*
X710433Y277114D02*
X716026Y277114D01*
X716026Y279910D01*
X715094Y280843D01*
X711365Y280843D01*
X710433Y279910D01*
X710433Y277114D01*
X715094Y282727D02*
X716026Y283659D01*
X716026Y285523D01*
X715094Y286456D01*
X711365Y286456D01*
X710433Y285523D01*
X710433Y283659D01*
X711365Y282727D01*
X712298Y282727D01*
X713230Y283659D01*
X713230Y286456D01*
X698246Y185674D02*
X692653Y185674D01*
X698246Y185674D02*
X698246Y188470D01*
X697314Y189403D01*
X693585Y189403D01*
X692653Y188470D01*
X692653Y185674D01*
X694518Y191287D02*
X692653Y193151D01*
X698246Y193151D01*
X698246Y191287D02*
X698246Y195016D01*
X697314Y196900D02*
X693585Y196900D01*
X692653Y197832D01*
X692653Y199697D01*
X693585Y200629D01*
X697314Y200629D01*
X698246Y199697D01*
X698246Y197832D01*
X697314Y196900D01*
X693585Y200629D01*
X692653Y221234D02*
X698246Y221234D01*
X698246Y224030D01*
X697314Y224963D01*
X693585Y224963D01*
X692653Y224030D01*
X692653Y221234D01*
X694518Y226847D02*
X692653Y228711D01*
X698246Y228711D01*
X698246Y226847D02*
X698246Y230576D01*
X694518Y232460D02*
X692653Y234324D01*
X698246Y234324D01*
X698246Y232460D02*
X698246Y236189D01*
X698246Y114554D02*
X692653Y114554D01*
X698246Y114554D02*
X698246Y117350D01*
X697314Y118283D01*
X693585Y118283D01*
X692653Y117350D01*
X692653Y114554D01*
X694518Y120167D02*
X692653Y122031D01*
X698246Y122031D01*
X698246Y120167D02*
X698246Y123896D01*
X698246Y125780D02*
X698246Y129509D01*
X694518Y129509D02*
X698246Y125780D01*
X694518Y129509D02*
X693585Y129509D01*
X692653Y128577D01*
X692653Y126712D01*
X693585Y125780D01*
X692653Y150114D02*
X698246Y150114D01*
X698246Y152910D01*
X697314Y153843D01*
X693585Y153843D01*
X692653Y152910D01*
X692653Y150114D01*
X694518Y155727D02*
X692653Y157591D01*
X698246Y157591D01*
X698246Y155727D02*
X698246Y159456D01*
X693585Y161340D02*
X692653Y162272D01*
X692653Y164137D01*
X693585Y165069D01*
X694518Y165069D01*
X695450Y164137D01*
X695450Y163204D01*
X695450Y164137D02*
X696382Y165069D01*
X697314Y165069D01*
X698246Y164137D01*
X698246Y162272D01*
X697314Y161340D01*
X710433Y167894D02*
X716026Y167894D01*
X716026Y170690D01*
X715094Y171623D01*
X711365Y171623D01*
X710433Y170690D01*
X710433Y167894D01*
X712298Y173507D02*
X710433Y175371D01*
X716026Y175371D01*
X716026Y173507D02*
X716026Y177236D01*
X716026Y181917D02*
X710433Y181917D01*
X713230Y179120D01*
X713230Y182849D01*
X710433Y203454D02*
X716026Y203454D01*
X716026Y206250D01*
X715094Y207183D01*
X711365Y207183D01*
X710433Y206250D01*
X710433Y203454D01*
X712298Y209067D02*
X710433Y210931D01*
X716026Y210931D01*
X716026Y209067D02*
X716026Y212796D01*
X710433Y214680D02*
X710433Y218409D01*
X710433Y214680D02*
X713230Y214680D01*
X712298Y216544D01*
X712298Y217477D01*
X713230Y218409D01*
X715094Y218409D01*
X716026Y217477D01*
X716026Y215612D01*
X715094Y214680D01*
X703834Y107447D02*
X703834Y101854D01*
X706630Y101854D01*
X707563Y102786D01*
X707563Y106515D01*
X706630Y107447D01*
X703834Y107447D01*
X709447Y105583D02*
X711311Y107447D01*
X711311Y101854D01*
X709447Y101854D02*
X713176Y101854D01*
X716924Y106515D02*
X718789Y107447D01*
X716924Y106515D02*
X715060Y104650D01*
X715060Y102786D01*
X715992Y101854D01*
X717857Y101854D01*
X718789Y102786D01*
X718789Y103718D01*
X717857Y104650D01*
X715060Y104650D01*
X716026Y132334D02*
X710433Y132334D01*
X716026Y132334D02*
X716026Y135130D01*
X715094Y136063D01*
X711365Y136063D01*
X710433Y135130D01*
X710433Y132334D01*
X712298Y137947D02*
X710433Y139811D01*
X716026Y139811D01*
X716026Y137947D02*
X716026Y141676D01*
X710433Y143560D02*
X710433Y147289D01*
X711365Y147289D01*
X715094Y143560D01*
X716026Y143560D01*
D188*
X57900Y205180D02*
X53900Y201180D01*
X57900Y205180D02*
X119900Y205180D01*
X123900Y201180D01*
X123900Y139180D01*
X119900Y135180D01*
X57900Y135180D01*
X53900Y139180D01*
X53900Y201180D01*
X59900Y145180D02*
X59902Y145306D01*
X59908Y145432D01*
X59918Y145558D01*
X59932Y145684D01*
X59950Y145809D01*
X59972Y145933D01*
X59997Y146057D01*
X60027Y146180D01*
X60060Y146301D01*
X60098Y146422D01*
X60139Y146541D01*
X60184Y146660D01*
X60232Y146776D01*
X60284Y146891D01*
X60340Y147004D01*
X60400Y147116D01*
X60463Y147225D01*
X60529Y147333D01*
X60598Y147438D01*
X60671Y147541D01*
X60748Y147642D01*
X60827Y147740D01*
X60909Y147836D01*
X60995Y147929D01*
X61083Y148020D01*
X61174Y148107D01*
X61268Y148192D01*
X61364Y148273D01*
X61463Y148352D01*
X61564Y148427D01*
X61668Y148499D01*
X61774Y148568D01*
X61882Y148634D01*
X61992Y148696D01*
X62104Y148754D01*
X62217Y148809D01*
X62333Y148860D01*
X62450Y148908D01*
X62568Y148952D01*
X62688Y148992D01*
X62809Y149028D01*
X62931Y149061D01*
X63054Y149090D01*
X63178Y149114D01*
X63302Y149135D01*
X63427Y149152D01*
X63553Y149165D01*
X63679Y149174D01*
X63805Y149179D01*
X63932Y149180D01*
X64058Y149177D01*
X64184Y149170D01*
X64310Y149159D01*
X64435Y149144D01*
X64560Y149125D01*
X64684Y149102D01*
X64808Y149076D01*
X64930Y149045D01*
X65052Y149011D01*
X65172Y148972D01*
X65291Y148930D01*
X65409Y148885D01*
X65525Y148835D01*
X65640Y148782D01*
X65752Y148725D01*
X65863Y148665D01*
X65972Y148601D01*
X66079Y148534D01*
X66184Y148464D01*
X66287Y148390D01*
X66387Y148313D01*
X66485Y148233D01*
X66580Y148150D01*
X66672Y148064D01*
X66762Y147975D01*
X66849Y147883D01*
X66932Y147789D01*
X67013Y147692D01*
X67091Y147592D01*
X67166Y147490D01*
X67237Y147386D01*
X67305Y147279D01*
X67369Y147171D01*
X67430Y147060D01*
X67488Y146948D01*
X67542Y146834D01*
X67592Y146718D01*
X67639Y146601D01*
X67682Y146482D01*
X67721Y146362D01*
X67757Y146241D01*
X67788Y146118D01*
X67816Y145995D01*
X67840Y145871D01*
X67860Y145746D01*
X67876Y145621D01*
X67888Y145495D01*
X67896Y145369D01*
X67900Y145243D01*
X67900Y145117D01*
X67896Y144991D01*
X67888Y144865D01*
X67876Y144739D01*
X67860Y144614D01*
X67840Y144489D01*
X67816Y144365D01*
X67788Y144242D01*
X67757Y144119D01*
X67721Y143998D01*
X67682Y143878D01*
X67639Y143759D01*
X67592Y143642D01*
X67542Y143526D01*
X67488Y143412D01*
X67430Y143300D01*
X67369Y143189D01*
X67305Y143081D01*
X67237Y142974D01*
X67166Y142870D01*
X67091Y142768D01*
X67013Y142668D01*
X66932Y142571D01*
X66849Y142477D01*
X66762Y142385D01*
X66672Y142296D01*
X66580Y142210D01*
X66485Y142127D01*
X66387Y142047D01*
X66287Y141970D01*
X66184Y141896D01*
X66079Y141826D01*
X65972Y141759D01*
X65863Y141695D01*
X65752Y141635D01*
X65640Y141578D01*
X65525Y141525D01*
X65409Y141475D01*
X65291Y141430D01*
X65172Y141388D01*
X65052Y141349D01*
X64930Y141315D01*
X64808Y141284D01*
X64684Y141258D01*
X64560Y141235D01*
X64435Y141216D01*
X64310Y141201D01*
X64184Y141190D01*
X64058Y141183D01*
X63932Y141180D01*
X63805Y141181D01*
X63679Y141186D01*
X63553Y141195D01*
X63427Y141208D01*
X63302Y141225D01*
X63178Y141246D01*
X63054Y141270D01*
X62931Y141299D01*
X62809Y141332D01*
X62688Y141368D01*
X62568Y141408D01*
X62450Y141452D01*
X62333Y141500D01*
X62217Y141551D01*
X62104Y141606D01*
X61992Y141664D01*
X61882Y141726D01*
X61774Y141792D01*
X61668Y141861D01*
X61564Y141933D01*
X61463Y142008D01*
X61364Y142087D01*
X61268Y142168D01*
X61174Y142253D01*
X61083Y142340D01*
X60995Y142431D01*
X60909Y142524D01*
X60827Y142620D01*
X60748Y142718D01*
X60671Y142819D01*
X60598Y142922D01*
X60529Y143027D01*
X60463Y143135D01*
X60400Y143244D01*
X60340Y143356D01*
X60284Y143469D01*
X60232Y143584D01*
X60184Y143700D01*
X60139Y143819D01*
X60098Y143938D01*
X60060Y144059D01*
X60027Y144180D01*
X59997Y144303D01*
X59972Y144427D01*
X59950Y144551D01*
X59932Y144676D01*
X59918Y144802D01*
X59908Y144928D01*
X59902Y145054D01*
X59900Y145180D01*
D185*
X134874Y130307D02*
X134874Y125646D01*
X135806Y124714D01*
X137670Y124714D01*
X138603Y125646D01*
X138603Y130307D01*
X140487Y128443D02*
X142351Y130307D01*
X142351Y124714D01*
X140487Y124714D02*
X144216Y124714D01*
X157391Y92553D02*
X156459Y91621D01*
X156459Y89757D01*
X157391Y88825D01*
X161120Y88825D01*
X162052Y89757D01*
X162052Y91621D01*
X161120Y92553D01*
X162052Y94438D02*
X162052Y98166D01*
X162052Y94438D02*
X158324Y98166D01*
X157391Y98166D01*
X156459Y97234D01*
X156459Y95370D01*
X157391Y94438D01*
X158324Y100051D02*
X156459Y101915D01*
X162052Y101915D01*
X162052Y100051D02*
X162052Y103779D01*
X145961Y92553D02*
X145029Y91621D01*
X145029Y89757D01*
X145961Y88825D01*
X149690Y88825D01*
X150622Y89757D01*
X150622Y91621D01*
X149690Y92553D01*
X150622Y94438D02*
X150622Y98166D01*
X150622Y94438D02*
X146894Y98166D01*
X145961Y98166D01*
X145029Y97234D01*
X145029Y95370D01*
X145961Y94438D01*
X150622Y100051D02*
X150622Y103779D01*
X150622Y100051D02*
X146894Y103779D01*
X145961Y103779D01*
X145029Y102847D01*
X145029Y100983D01*
X145961Y100051D01*
X46901Y88743D02*
X45969Y87811D01*
X45969Y85947D01*
X46901Y85015D01*
X50630Y85015D01*
X51562Y85947D01*
X51562Y87811D01*
X50630Y88743D01*
X51562Y90628D02*
X51562Y94356D01*
X51562Y90628D02*
X47834Y94356D01*
X46901Y94356D01*
X45969Y93424D01*
X45969Y91560D01*
X46901Y90628D01*
X46901Y96241D02*
X45969Y97173D01*
X45969Y99037D01*
X46901Y99969D01*
X47834Y99969D01*
X48766Y99037D01*
X48766Y98105D01*
X48766Y99037D02*
X49698Y99969D01*
X50630Y99969D01*
X51562Y99037D01*
X51562Y97173D01*
X50630Y96241D01*
X157475Y207774D02*
X158407Y208707D01*
X157475Y207774D02*
X157475Y205910D01*
X158407Y204978D01*
X162136Y204978D01*
X163068Y205910D01*
X163068Y207774D01*
X162136Y208707D01*
X163068Y210591D02*
X163068Y214320D01*
X159340Y214320D02*
X163068Y210591D01*
X159340Y214320D02*
X158407Y214320D01*
X157475Y213387D01*
X157475Y211523D01*
X158407Y210591D01*
X157475Y216204D02*
X157475Y219933D01*
X157475Y216204D02*
X160272Y216204D01*
X159340Y218068D01*
X159340Y219001D01*
X160272Y219933D01*
X162136Y219933D01*
X163068Y219001D01*
X163068Y217136D01*
X162136Y216204D01*
X34201Y88743D02*
X33269Y87811D01*
X33269Y85947D01*
X34201Y85015D01*
X37930Y85015D01*
X38862Y85947D01*
X38862Y87811D01*
X37930Y88743D01*
X38862Y90628D02*
X38862Y94356D01*
X38862Y90628D02*
X35134Y94356D01*
X34201Y94356D01*
X33269Y93424D01*
X33269Y91560D01*
X34201Y90628D01*
X34201Y98105D02*
X33269Y99969D01*
X34201Y98105D02*
X36066Y96241D01*
X37930Y96241D01*
X38862Y97173D01*
X38862Y99037D01*
X37930Y99969D01*
X36998Y99969D01*
X36066Y99037D01*
X36066Y96241D01*
X136700Y30379D02*
X137194Y30385D01*
X137688Y30403D01*
X138182Y30433D01*
X138675Y30475D01*
X139166Y30529D01*
X139656Y30595D01*
X140145Y30673D01*
X140631Y30763D01*
X141115Y30865D01*
X141596Y30978D01*
X142075Y31103D01*
X142550Y31239D01*
X143022Y31388D01*
X143490Y31547D01*
X143954Y31718D01*
X144413Y31900D01*
X144869Y32093D01*
X145319Y32298D01*
X145764Y32513D01*
X146204Y32739D01*
X146638Y32976D01*
X147066Y33223D01*
X147489Y33480D01*
X147904Y33748D01*
X148314Y34025D01*
X148716Y34313D01*
X149111Y34610D01*
X149499Y34917D01*
X149879Y35233D01*
X150252Y35558D01*
X150616Y35893D01*
X150972Y36236D01*
X151320Y36587D01*
X151659Y36947D01*
X151989Y37315D01*
X152310Y37691D01*
X152622Y38075D01*
X152925Y38466D01*
X153218Y38865D01*
X153501Y39270D01*
D188*
X159560Y39270D02*
X159560Y29110D01*
D185*
X68120Y30380D02*
X67626Y30386D01*
X67132Y30404D01*
X66638Y30434D01*
X66146Y30476D01*
X65654Y30530D01*
X65164Y30596D01*
X64676Y30674D01*
X64189Y30764D01*
X63706Y30865D01*
X63224Y30979D01*
X62746Y31104D01*
X62271Y31240D01*
X61799Y31388D01*
X61331Y31548D01*
X60867Y31719D01*
X60407Y31901D01*
X59952Y32094D01*
X59501Y32298D01*
X59056Y32513D01*
X58616Y32739D01*
X58182Y32976D01*
X57754Y33223D01*
X57332Y33480D01*
X56916Y33748D01*
X56507Y34026D01*
X56104Y34313D01*
X55709Y34610D01*
X55321Y34917D01*
X54941Y35233D01*
X54569Y35559D01*
X54204Y35893D01*
X53848Y36236D01*
X53500Y36587D01*
X53161Y36947D01*
X52831Y37315D01*
X52510Y37691D01*
X52198Y38075D01*
X51895Y38466D01*
X51603Y38865D01*
X51319Y39270D01*
D188*
X45260Y39270D02*
X45260Y29110D01*
D185*
X68120Y63400D02*
X136700Y63400D01*
X136700Y71020D02*
X68120Y71020D01*
X68120Y38000D02*
X136700Y38000D01*
D188*
X157020Y74830D02*
X47800Y74830D01*
X47700Y74828D01*
X47601Y74822D01*
X47501Y74812D01*
X47403Y74799D01*
X47304Y74781D01*
X47207Y74760D01*
X47111Y74735D01*
X47015Y74706D01*
X46921Y74673D01*
X46828Y74637D01*
X46737Y74597D01*
X46647Y74553D01*
X46559Y74506D01*
X46473Y74456D01*
X46389Y74402D01*
X46307Y74345D01*
X46228Y74285D01*
X46150Y74221D01*
X46076Y74155D01*
X46004Y74086D01*
X45935Y74014D01*
X45869Y73940D01*
X45805Y73862D01*
X45745Y73783D01*
X45688Y73701D01*
X45634Y73617D01*
X45584Y73531D01*
X45537Y73443D01*
X45493Y73353D01*
X45453Y73262D01*
X45417Y73169D01*
X45384Y73075D01*
X45355Y72979D01*
X45330Y72883D01*
X45309Y72786D01*
X45291Y72687D01*
X45278Y72589D01*
X45268Y72489D01*
X45262Y72390D01*
X45260Y72290D01*
X45260Y62130D01*
D185*
X62584Y62130D02*
X62857Y62258D01*
X63133Y62380D01*
X63412Y62495D01*
X63693Y62603D01*
X63977Y62705D01*
X64263Y62800D01*
X64551Y62888D01*
X64841Y62970D01*
X65134Y63044D01*
X65427Y63111D01*
X65723Y63172D01*
X66019Y63225D01*
X66317Y63271D01*
X66616Y63311D01*
X66916Y63343D01*
X67217Y63368D01*
X67517Y63386D01*
X67819Y63396D01*
X68120Y63400D01*
X62584Y39270D02*
X62857Y39142D01*
X63133Y39020D01*
X63412Y38905D01*
X63693Y38797D01*
X63977Y38695D01*
X64263Y38600D01*
X64551Y38512D01*
X64841Y38430D01*
X65134Y38356D01*
X65427Y38289D01*
X65723Y38228D01*
X66019Y38175D01*
X66317Y38129D01*
X66616Y38089D01*
X66916Y38057D01*
X67217Y38032D01*
X67517Y38014D01*
X67819Y38004D01*
X68120Y38000D01*
X51320Y62129D02*
X51603Y62534D01*
X51896Y62933D01*
X52198Y63324D01*
X52510Y63708D01*
X52831Y64084D01*
X53161Y64452D01*
X53500Y64812D01*
X53848Y65163D01*
X54204Y65506D01*
X54569Y65841D01*
X54941Y66166D01*
X55321Y66482D01*
X55709Y66789D01*
X56104Y67086D01*
X56507Y67374D01*
X56916Y67651D01*
X57331Y67919D01*
X57754Y68176D01*
X58182Y68423D01*
X58616Y68660D01*
X59056Y68886D01*
X59501Y69101D01*
X59951Y69305D01*
X60407Y69499D01*
X60866Y69681D01*
X61330Y69852D01*
X61798Y70011D01*
X62270Y70159D01*
X62745Y70296D01*
X63224Y70421D01*
X63705Y70534D01*
X64189Y70636D01*
X64675Y70726D01*
X65163Y70804D01*
X65653Y70870D01*
X66145Y70924D01*
X66638Y70966D01*
X67131Y70996D01*
X67625Y71014D01*
X68120Y71020D01*
X136700Y71020D02*
X137194Y71014D01*
X137688Y70996D01*
X138182Y70966D01*
X138674Y70924D01*
X139166Y70870D01*
X139656Y70804D01*
X140144Y70726D01*
X140631Y70636D01*
X141114Y70535D01*
X141596Y70421D01*
X142074Y70296D01*
X142549Y70160D01*
X143021Y70012D01*
X143489Y69852D01*
X143953Y69681D01*
X144413Y69499D01*
X144868Y69306D01*
X145319Y69102D01*
X145764Y68887D01*
X146204Y68661D01*
X146638Y68424D01*
X147066Y68177D01*
X147488Y67920D01*
X147904Y67652D01*
X148313Y67374D01*
X148716Y67087D01*
X149111Y66790D01*
X149499Y66483D01*
X149879Y66167D01*
X150251Y65841D01*
X150616Y65507D01*
X150972Y65164D01*
X151320Y64813D01*
X151659Y64453D01*
X151989Y64085D01*
X152310Y63709D01*
X152622Y63325D01*
X152925Y62934D01*
X153217Y62535D01*
X153501Y62130D01*
X142236Y62130D02*
X141963Y62258D01*
X141687Y62380D01*
X141408Y62495D01*
X141127Y62603D01*
X140843Y62705D01*
X140557Y62800D01*
X140269Y62888D01*
X139979Y62970D01*
X139686Y63044D01*
X139393Y63111D01*
X139097Y63172D01*
X138801Y63225D01*
X138503Y63271D01*
X138204Y63311D01*
X137904Y63343D01*
X137603Y63368D01*
X137303Y63386D01*
X137001Y63396D01*
X136700Y63400D01*
X142236Y39270D02*
X141963Y39142D01*
X141687Y39020D01*
X141408Y38905D01*
X141127Y38797D01*
X140843Y38695D01*
X140557Y38600D01*
X140269Y38512D01*
X139979Y38430D01*
X139686Y38356D01*
X139393Y38289D01*
X139097Y38228D01*
X138801Y38175D01*
X138503Y38129D01*
X138204Y38089D01*
X137904Y38057D01*
X137603Y38032D01*
X137303Y38014D01*
X137001Y38004D01*
X136700Y38000D01*
D188*
X159560Y62130D02*
X159560Y72290D01*
X159558Y72390D01*
X159552Y72489D01*
X159542Y72589D01*
X159529Y72687D01*
X159511Y72786D01*
X159490Y72883D01*
X159465Y72979D01*
X159436Y73075D01*
X159403Y73169D01*
X159367Y73262D01*
X159327Y73353D01*
X159283Y73443D01*
X159236Y73531D01*
X159186Y73617D01*
X159132Y73701D01*
X159075Y73783D01*
X159015Y73862D01*
X158951Y73940D01*
X158885Y74014D01*
X158816Y74086D01*
X158744Y74155D01*
X158670Y74221D01*
X158592Y74285D01*
X158513Y74345D01*
X158431Y74402D01*
X158347Y74456D01*
X158261Y74506D01*
X158173Y74553D01*
X158083Y74597D01*
X157992Y74637D01*
X157899Y74673D01*
X157805Y74706D01*
X157709Y74735D01*
X157613Y74760D01*
X157516Y74781D01*
X157417Y74799D01*
X157319Y74812D01*
X157219Y74822D01*
X157120Y74828D01*
X157020Y74830D01*
D185*
X136700Y30380D02*
X68120Y30380D01*
D188*
X47800Y26570D02*
X157020Y26570D01*
X47800Y26570D02*
X47700Y26572D01*
X47601Y26578D01*
X47501Y26588D01*
X47403Y26601D01*
X47304Y26619D01*
X47207Y26640D01*
X47111Y26665D01*
X47015Y26694D01*
X46921Y26727D01*
X46828Y26763D01*
X46737Y26803D01*
X46647Y26847D01*
X46559Y26894D01*
X46473Y26944D01*
X46389Y26998D01*
X46307Y27055D01*
X46228Y27115D01*
X46150Y27179D01*
X46076Y27245D01*
X46004Y27314D01*
X45935Y27386D01*
X45869Y27460D01*
X45805Y27538D01*
X45745Y27617D01*
X45688Y27699D01*
X45634Y27783D01*
X45584Y27869D01*
X45537Y27957D01*
X45493Y28047D01*
X45453Y28138D01*
X45417Y28231D01*
X45384Y28325D01*
X45355Y28421D01*
X45330Y28517D01*
X45309Y28614D01*
X45291Y28713D01*
X45278Y28811D01*
X45268Y28911D01*
X45262Y29010D01*
X45260Y29110D01*
X157020Y26570D02*
X157120Y26572D01*
X157219Y26578D01*
X157319Y26588D01*
X157417Y26601D01*
X157516Y26619D01*
X157613Y26640D01*
X157709Y26665D01*
X157805Y26694D01*
X157899Y26727D01*
X157992Y26763D01*
X158083Y26803D01*
X158173Y26847D01*
X158261Y26894D01*
X158347Y26944D01*
X158431Y26998D01*
X158513Y27055D01*
X158592Y27115D01*
X158670Y27179D01*
X158744Y27245D01*
X158816Y27314D01*
X158885Y27386D01*
X158951Y27460D01*
X159015Y27538D01*
X159075Y27617D01*
X159132Y27699D01*
X159186Y27783D01*
X159236Y27869D01*
X159283Y27957D01*
X159327Y28047D01*
X159367Y28138D01*
X159403Y28231D01*
X159436Y28325D01*
X159465Y28421D01*
X159490Y28517D01*
X159511Y28614D01*
X159529Y28713D01*
X159542Y28811D01*
X159552Y28911D01*
X159558Y29010D01*
X159560Y29110D01*
X104950Y44350D02*
X104950Y57050D01*
X99870Y57050D01*
X99870Y44350D01*
X104950Y44350D01*
X108760Y44350D02*
X108760Y50700D01*
X108760Y57050D01*
D185*
X108760Y50700D02*
X112570Y50700D01*
D188*
X96060Y50700D02*
X96060Y44350D01*
X96060Y50700D02*
X96060Y57050D01*
D185*
X96060Y50700D02*
X92250Y50700D01*
X95708Y21679D02*
X95708Y17950D01*
X95708Y21679D02*
X96640Y22611D01*
X98504Y22611D01*
X99436Y21679D01*
X99436Y17950D01*
X98504Y17018D01*
X96640Y17018D01*
X95708Y17950D01*
X97572Y18882D02*
X99436Y17018D01*
X101321Y17018D02*
X105049Y17018D01*
X101321Y17018D02*
X105049Y20747D01*
X105049Y21679D01*
X104117Y22611D01*
X102253Y22611D01*
X101321Y21679D01*
X64943Y20155D02*
X64010Y21087D01*
X62146Y21087D01*
X61214Y20155D01*
X61214Y16426D01*
X62146Y15494D01*
X64010Y15494D01*
X64943Y16426D01*
X66827Y15494D02*
X70556Y15494D01*
X66827Y15494D02*
X70556Y19223D01*
X70556Y20155D01*
X69623Y21087D01*
X67759Y21087D01*
X66827Y20155D01*
X72440Y21087D02*
X76169Y21087D01*
X76169Y20155D01*
X72440Y16426D01*
X72440Y15494D01*
X175770Y21087D02*
X176703Y20155D01*
X175770Y21087D02*
X173906Y21087D01*
X172974Y20155D01*
X172974Y16426D01*
X173906Y15494D01*
X175770Y15494D01*
X176703Y16426D01*
X178587Y15494D02*
X182316Y15494D01*
X178587Y15494D02*
X182316Y19223D01*
X182316Y20155D01*
X181383Y21087D01*
X179519Y21087D01*
X178587Y20155D01*
X184200Y20155D02*
X185132Y21087D01*
X186997Y21087D01*
X187929Y20155D01*
X187929Y19223D01*
X186997Y18290D01*
X187929Y17358D01*
X187929Y16426D01*
X186997Y15494D01*
X185132Y15494D01*
X184200Y16426D01*
X184200Y17358D01*
X185132Y18290D01*
X184200Y19223D01*
X184200Y20155D01*
X185132Y18290D02*
X186997Y18290D01*
X14986Y208534D02*
X9393Y208534D01*
X9393Y211330D01*
X10325Y212263D01*
X12190Y212263D01*
X13122Y211330D01*
X13122Y208534D01*
X13122Y210398D02*
X14986Y212263D01*
X9393Y214147D02*
X9393Y217876D01*
X9393Y214147D02*
X12190Y214147D01*
X11258Y216011D01*
X11258Y216943D01*
X12190Y217876D01*
X14054Y217876D01*
X14986Y216943D01*
X14986Y215079D01*
X14054Y214147D01*
X14054Y219760D02*
X14986Y220692D01*
X14986Y222557D01*
X14054Y223489D01*
X10325Y223489D01*
X9393Y222557D01*
X9393Y220692D01*
X10325Y219760D01*
X11258Y219760D01*
X12190Y220692D01*
X12190Y223489D01*
X14986Y228854D02*
X9393Y228854D01*
X9393Y231650D01*
X10325Y232583D01*
X12190Y232583D01*
X13122Y231650D01*
X13122Y228854D01*
X13122Y230718D02*
X14986Y232583D01*
X10325Y236331D02*
X9393Y238196D01*
X10325Y236331D02*
X12190Y234467D01*
X14054Y234467D01*
X14986Y235399D01*
X14986Y237263D01*
X14054Y238196D01*
X13122Y238196D01*
X12190Y237263D01*
X12190Y234467D01*
X14054Y240080D02*
X10325Y240080D01*
X9393Y241012D01*
X9393Y242877D01*
X10325Y243809D01*
X14054Y243809D01*
X14986Y242877D01*
X14986Y241012D01*
X14054Y240080D01*
X10325Y243809D01*
X9393Y180594D02*
X14986Y180594D01*
X9393Y180594D02*
X9393Y183390D01*
X10325Y184323D01*
X12190Y184323D01*
X13122Y183390D01*
X13122Y180594D01*
X13122Y182458D02*
X14986Y184323D01*
X10325Y188071D02*
X9393Y189936D01*
X10325Y188071D02*
X12190Y186207D01*
X14054Y186207D01*
X14986Y187139D01*
X14986Y189003D01*
X14054Y189936D01*
X13122Y189936D01*
X12190Y189003D01*
X12190Y186207D01*
X11258Y191820D02*
X9393Y193684D01*
X14986Y193684D01*
X14986Y191820D02*
X14986Y195549D01*
D188*
X183896Y237744D02*
X222504Y237744D01*
X200152Y158496D02*
X183896Y158496D01*
X200152Y158496D02*
X206248Y158496D01*
X222504Y158496D01*
D190*
X206248Y158496D02*
X206246Y158605D01*
X206240Y158713D01*
X206231Y158822D01*
X206217Y158930D01*
X206200Y159037D01*
X206178Y159144D01*
X206153Y159250D01*
X206125Y159355D01*
X206092Y159459D01*
X206056Y159561D01*
X206016Y159662D01*
X205973Y159762D01*
X205926Y159860D01*
X205875Y159957D01*
X205821Y160051D01*
X205764Y160144D01*
X205704Y160234D01*
X205640Y160323D01*
X205573Y160409D01*
X205504Y160492D01*
X205431Y160573D01*
X205355Y160651D01*
X205277Y160727D01*
X205196Y160800D01*
X205113Y160869D01*
X205027Y160936D01*
X204938Y161000D01*
X204848Y161060D01*
X204755Y161117D01*
X204661Y161171D01*
X204564Y161222D01*
X204466Y161269D01*
X204366Y161312D01*
X204265Y161352D01*
X204163Y161388D01*
X204059Y161421D01*
X203954Y161449D01*
X203848Y161474D01*
X203741Y161496D01*
X203634Y161513D01*
X203526Y161527D01*
X203417Y161536D01*
X203309Y161542D01*
X203200Y161544D01*
X203091Y161542D01*
X202983Y161536D01*
X202874Y161527D01*
X202766Y161513D01*
X202659Y161496D01*
X202552Y161474D01*
X202446Y161449D01*
X202341Y161421D01*
X202237Y161388D01*
X202135Y161352D01*
X202034Y161312D01*
X201934Y161269D01*
X201836Y161222D01*
X201739Y161171D01*
X201645Y161117D01*
X201552Y161060D01*
X201462Y161000D01*
X201373Y160936D01*
X201287Y160869D01*
X201204Y160800D01*
X201123Y160727D01*
X201045Y160651D01*
X200969Y160573D01*
X200896Y160492D01*
X200827Y160409D01*
X200760Y160323D01*
X200696Y160234D01*
X200636Y160144D01*
X200579Y160051D01*
X200525Y159957D01*
X200474Y159860D01*
X200427Y159762D01*
X200384Y159662D01*
X200344Y159561D01*
X200308Y159459D01*
X200275Y159355D01*
X200247Y159250D01*
X200222Y159144D01*
X200200Y159037D01*
X200183Y158930D01*
X200169Y158822D01*
X200160Y158713D01*
X200154Y158605D01*
X200152Y158496D01*
D185*
X197434Y241808D02*
X197434Y246469D01*
X197434Y241808D02*
X198366Y240876D01*
X200230Y240876D01*
X201163Y241808D01*
X201163Y246469D01*
X203047Y240876D02*
X206776Y240876D01*
X203047Y240876D02*
X206776Y244605D01*
X206776Y245537D01*
X205843Y246469D01*
X203979Y246469D01*
X203047Y245537D01*
X210060Y135387D02*
X210993Y134455D01*
X210060Y135387D02*
X208196Y135387D01*
X207264Y134455D01*
X207264Y130726D01*
X208196Y129794D01*
X210060Y129794D01*
X210993Y130726D01*
X212877Y133523D02*
X214741Y135387D01*
X214741Y129794D01*
X212877Y129794D02*
X216606Y129794D01*
X180716Y138519D02*
X179784Y139451D01*
X177920Y139451D01*
X176988Y138519D01*
X176988Y134790D01*
X177920Y133858D01*
X179784Y133858D01*
X180716Y134790D01*
X182601Y133858D02*
X186329Y133858D01*
X182601Y133858D02*
X186329Y137587D01*
X186329Y138519D01*
X185397Y139451D01*
X183533Y139451D01*
X182601Y138519D01*
X233934Y145034D02*
X233934Y150627D01*
X236730Y150627D01*
X237663Y149695D01*
X237663Y147830D01*
X236730Y146898D01*
X233934Y146898D01*
X235798Y146898D02*
X237663Y145034D01*
X241411Y149695D02*
X243276Y150627D01*
X241411Y149695D02*
X239547Y147830D01*
X239547Y145966D01*
X240479Y145034D01*
X242343Y145034D01*
X243276Y145966D01*
X243276Y146898D01*
X242343Y147830D01*
X239547Y147830D01*
X245160Y145034D02*
X248889Y145034D01*
X245160Y145034D02*
X248889Y148763D01*
X248889Y149695D01*
X247957Y150627D01*
X246092Y150627D01*
X245160Y149695D01*
D188*
X59436Y249936D02*
X59436Y288544D01*
X138684Y266192D02*
X138684Y249936D01*
X138684Y266192D02*
X138684Y272288D01*
X138684Y288544D01*
D190*
X138684Y272288D02*
X138575Y272286D01*
X138467Y272280D01*
X138358Y272271D01*
X138250Y272257D01*
X138143Y272240D01*
X138036Y272218D01*
X137930Y272193D01*
X137825Y272165D01*
X137721Y272132D01*
X137619Y272096D01*
X137518Y272056D01*
X137418Y272013D01*
X137320Y271966D01*
X137223Y271915D01*
X137129Y271861D01*
X137036Y271804D01*
X136946Y271744D01*
X136857Y271680D01*
X136771Y271613D01*
X136688Y271544D01*
X136607Y271471D01*
X136529Y271395D01*
X136453Y271317D01*
X136380Y271236D01*
X136311Y271153D01*
X136244Y271067D01*
X136180Y270978D01*
X136120Y270888D01*
X136063Y270795D01*
X136009Y270701D01*
X135958Y270604D01*
X135911Y270506D01*
X135868Y270406D01*
X135828Y270305D01*
X135792Y270203D01*
X135759Y270099D01*
X135731Y269994D01*
X135706Y269888D01*
X135684Y269781D01*
X135667Y269674D01*
X135653Y269566D01*
X135644Y269457D01*
X135638Y269349D01*
X135636Y269240D01*
X135638Y269131D01*
X135644Y269023D01*
X135653Y268914D01*
X135667Y268806D01*
X135684Y268699D01*
X135706Y268592D01*
X135731Y268486D01*
X135759Y268381D01*
X135792Y268277D01*
X135828Y268175D01*
X135868Y268074D01*
X135911Y267974D01*
X135958Y267876D01*
X136009Y267779D01*
X136063Y267685D01*
X136120Y267592D01*
X136180Y267502D01*
X136244Y267413D01*
X136311Y267327D01*
X136380Y267244D01*
X136453Y267163D01*
X136529Y267085D01*
X136607Y267009D01*
X136688Y266936D01*
X136771Y266867D01*
X136857Y266800D01*
X136946Y266736D01*
X137036Y266676D01*
X137129Y266619D01*
X137223Y266565D01*
X137320Y266514D01*
X137418Y266467D01*
X137518Y266424D01*
X137619Y266384D01*
X137721Y266348D01*
X137825Y266315D01*
X137930Y266287D01*
X138036Y266262D01*
X138143Y266240D01*
X138250Y266223D01*
X138358Y266209D01*
X138467Y266200D01*
X138575Y266194D01*
X138684Y266192D01*
D185*
X54694Y266954D02*
X50033Y266954D01*
X54694Y266954D02*
X55626Y267886D01*
X55626Y269750D01*
X54694Y270683D01*
X50033Y270683D01*
X50965Y272567D02*
X50033Y273499D01*
X50033Y275363D01*
X50965Y276296D01*
X51898Y276296D01*
X52830Y275363D01*
X52830Y274431D01*
X52830Y275363D02*
X53762Y276296D01*
X54694Y276296D01*
X55626Y275363D01*
X55626Y273499D01*
X54694Y272567D01*
X145290Y338587D02*
X146223Y337655D01*
X145290Y338587D02*
X143426Y338587D01*
X142494Y337655D01*
X142494Y333926D01*
X143426Y332994D01*
X145290Y332994D01*
X146223Y333926D01*
X148107Y337655D02*
X149039Y338587D01*
X150903Y338587D01*
X151836Y337655D01*
X151836Y336723D01*
X150903Y335790D01*
X149971Y335790D01*
X150903Y335790D02*
X151836Y334858D01*
X151836Y333926D01*
X150903Y332994D01*
X149039Y332994D01*
X148107Y333926D01*
X161201Y254376D02*
X160269Y253444D01*
X160269Y251580D01*
X161201Y250648D01*
X164930Y250648D01*
X165862Y251580D01*
X165862Y253444D01*
X164930Y254376D01*
X165862Y259057D02*
X160269Y259057D01*
X163066Y256261D01*
X163066Y259989D01*
X142494Y305054D02*
X142494Y310647D01*
X145290Y310647D01*
X146223Y309715D01*
X146223Y307850D01*
X145290Y306918D01*
X142494Y306918D01*
X144358Y306918D02*
X146223Y305054D01*
X149971Y309715D02*
X151836Y310647D01*
X149971Y309715D02*
X148107Y307850D01*
X148107Y305986D01*
X149039Y305054D01*
X150903Y305054D01*
X151836Y305986D01*
X151836Y306918D01*
X150903Y307850D01*
X148107Y307850D01*
X153720Y309715D02*
X154652Y310647D01*
X156517Y310647D01*
X157449Y309715D01*
X157449Y308783D01*
X156517Y307850D01*
X155584Y307850D01*
X156517Y307850D02*
X157449Y306918D01*
X157449Y305986D01*
X156517Y305054D01*
X154652Y305054D01*
X153720Y305986D01*
D191*
X698890Y557790D02*
X773890Y557790D01*
X773890Y526790D01*
X773890Y504790D02*
X773890Y473790D01*
X698890Y473790D01*
X689890Y482790D02*
X689890Y504790D01*
X689890Y526790D02*
X689890Y548790D01*
X698890Y557790D01*
X689890Y482790D02*
X698890Y473790D01*
X694390Y526290D02*
X694663Y527200D01*
X694959Y528104D01*
X695276Y529000D01*
X695615Y529889D01*
X695975Y530768D01*
X696357Y531639D01*
X696760Y532500D01*
X697183Y533351D01*
X697628Y534191D01*
X698092Y535021D01*
X698577Y535839D01*
X699082Y536644D01*
X699606Y537437D01*
X700149Y538218D01*
X700711Y538984D01*
X701291Y539737D01*
X701890Y540476D01*
X702507Y541199D01*
X703141Y541908D01*
X703792Y542600D01*
X704459Y543277D01*
X705143Y543937D01*
X705843Y544581D01*
X706559Y545207D01*
X707289Y545815D01*
X708034Y546406D01*
X708793Y546978D01*
X709566Y547531D01*
X710353Y548066D01*
X711151Y548581D01*
X711963Y549076D01*
X712786Y549552D01*
X713620Y550007D01*
X714466Y550442D01*
X715321Y550857D01*
X716187Y551250D01*
X717062Y551622D01*
X717945Y551972D01*
X718837Y552301D01*
X719737Y552609D01*
X720644Y552894D01*
X721557Y553157D01*
X722477Y553397D01*
X723402Y553615D01*
X724333Y553811D01*
X725267Y553984D01*
X726206Y554134D01*
X727148Y554261D01*
X728093Y554365D01*
X729041Y554446D01*
X729989Y554504D01*
X730939Y554538D01*
X731890Y554550D01*
X732841Y554538D01*
X733791Y554504D01*
X734739Y554446D01*
X735687Y554365D01*
X736632Y554261D01*
X737574Y554134D01*
X738513Y553984D01*
X739447Y553811D01*
X740378Y553615D01*
X741303Y553397D01*
X742223Y553157D01*
X743136Y552894D01*
X744043Y552609D01*
X744943Y552301D01*
X745835Y551972D01*
X746718Y551622D01*
X747593Y551250D01*
X748459Y550857D01*
X749314Y550442D01*
X750160Y550007D01*
X750994Y549552D01*
X751817Y549076D01*
X752629Y548581D01*
X753427Y548066D01*
X754214Y547531D01*
X754987Y546978D01*
X755746Y546406D01*
X756491Y545815D01*
X757221Y545207D01*
X757937Y544581D01*
X758637Y543937D01*
X759321Y543277D01*
X759988Y542600D01*
X760639Y541908D01*
X761273Y541199D01*
X761890Y540476D01*
X762489Y539737D01*
X763069Y538984D01*
X763631Y538218D01*
X764174Y537437D01*
X764698Y536644D01*
X765203Y535839D01*
X765688Y535021D01*
X766152Y534191D01*
X766597Y533351D01*
X767020Y532500D01*
X767423Y531639D01*
X767805Y530768D01*
X768165Y529889D01*
X768504Y529000D01*
X768821Y528104D01*
X769117Y527200D01*
X769390Y526290D01*
X769390Y505290D02*
X769117Y504380D01*
X768821Y503476D01*
X768504Y502580D01*
X768165Y501691D01*
X767805Y500812D01*
X767423Y499941D01*
X767020Y499080D01*
X766597Y498229D01*
X766152Y497389D01*
X765688Y496559D01*
X765203Y495741D01*
X764698Y494936D01*
X764174Y494143D01*
X763631Y493362D01*
X763069Y492596D01*
X762489Y491843D01*
X761890Y491104D01*
X761273Y490381D01*
X760639Y489672D01*
X759988Y488980D01*
X759321Y488303D01*
X758637Y487643D01*
X757937Y486999D01*
X757221Y486373D01*
X756491Y485765D01*
X755746Y485174D01*
X754987Y484602D01*
X754214Y484049D01*
X753427Y483514D01*
X752629Y482999D01*
X751817Y482504D01*
X750994Y482028D01*
X750160Y481573D01*
X749314Y481138D01*
X748459Y480723D01*
X747593Y480330D01*
X746718Y479958D01*
X745835Y479608D01*
X744943Y479279D01*
X744043Y478971D01*
X743136Y478686D01*
X742223Y478423D01*
X741303Y478183D01*
X740378Y477965D01*
X739447Y477769D01*
X738513Y477596D01*
X737574Y477446D01*
X736632Y477319D01*
X735687Y477215D01*
X734739Y477134D01*
X733791Y477076D01*
X732841Y477042D01*
X731890Y477030D01*
X730939Y477042D01*
X729989Y477076D01*
X729041Y477134D01*
X728093Y477215D01*
X727148Y477319D01*
X726206Y477446D01*
X725267Y477596D01*
X724333Y477769D01*
X723402Y477965D01*
X722477Y478183D01*
X721557Y478423D01*
X720644Y478686D01*
X719737Y478971D01*
X718837Y479279D01*
X717945Y479608D01*
X717062Y479958D01*
X716187Y480330D01*
X715321Y480723D01*
X714466Y481138D01*
X713620Y481573D01*
X712786Y482028D01*
X711963Y482504D01*
X711151Y482999D01*
X710353Y483514D01*
X709566Y484049D01*
X708793Y484602D01*
X708034Y485174D01*
X707289Y485765D01*
X706559Y486373D01*
X705843Y486999D01*
X705143Y487643D01*
X704459Y488303D01*
X703792Y488980D01*
X703141Y489672D01*
X702507Y490381D01*
X701890Y491104D01*
X701291Y491843D01*
X700711Y492596D01*
X700149Y493362D01*
X699606Y494143D01*
X699082Y494936D01*
X698577Y495741D01*
X698092Y496559D01*
X697628Y497389D01*
X697183Y498229D01*
X696760Y499080D01*
X696357Y499941D01*
X695975Y500812D01*
X695615Y501691D01*
X695276Y502580D01*
X694959Y503476D01*
X694663Y504380D01*
X694390Y505290D01*
D185*
X779439Y491024D02*
X780371Y491956D01*
X779439Y491024D02*
X779439Y489160D01*
X780371Y488228D01*
X784100Y488228D01*
X785032Y489160D01*
X785032Y491024D01*
X784100Y491956D01*
X779439Y493841D02*
X779439Y497569D01*
X779439Y493841D02*
X782236Y493841D01*
X781304Y495705D01*
X781304Y496637D01*
X782236Y497569D01*
X784100Y497569D01*
X785032Y496637D01*
X785032Y494773D01*
X784100Y493841D01*
D191*
X470840Y476160D02*
X270840Y476160D01*
X270840Y560160D01*
X311460Y560160D01*
X311460Y557160D01*
X326250Y557160D01*
X326250Y560160D01*
X352010Y560160D01*
X352010Y544660D01*
X389670Y544660D01*
X389670Y560160D01*
X352010Y560160D01*
X389670Y560160D02*
X470840Y560160D01*
X470840Y476160D01*
X459590Y485410D02*
X282090Y485410D01*
X282090Y550910D01*
X352010Y550910D01*
X389670Y550910D02*
X459590Y550910D01*
X459590Y485410D01*
D189*
X766140Y372370D02*
X766140Y87370D01*
X783517Y87370D01*
X823633Y87370D02*
X823633Y372370D01*
X818803Y372370D02*
X788273Y372370D01*
X823633Y372370D02*
X831750Y372370D01*
X823633Y372370D02*
X818803Y372370D01*
X788273Y87370D02*
X783517Y87370D01*
X783517Y372370D01*
X788273Y372370D01*
X788273Y87370D02*
X818803Y87370D01*
X788273Y87370D02*
X788273Y372370D01*
X818803Y372370D02*
X818803Y87370D01*
X783517Y372370D02*
X766140Y372370D01*
X818803Y87370D02*
X823633Y87370D01*
X831750Y87370D01*
X831750Y372370D01*
X839140Y372370D02*
X839140Y87370D01*
X839140Y372370D02*
X836140Y372370D01*
X836140Y87370D01*
X839140Y87370D01*
X836140Y87370D02*
X831750Y87370D01*
X831750Y372370D02*
X836140Y372370D01*
X796530Y119430D02*
X796590Y119370D01*
X796590Y154370D02*
X796530Y154430D01*
X796590Y189370D02*
X796530Y189430D01*
X796590Y224370D02*
X796530Y224430D01*
X796590Y259370D02*
X796530Y259430D01*
X796590Y294370D02*
X796530Y294430D01*
X796590Y329370D02*
X796530Y329430D01*
X796590Y364370D02*
X796530Y364430D01*
X789140Y107370D02*
X789144Y107726D01*
X789157Y108081D01*
X789179Y108437D01*
X789210Y108791D01*
X789249Y109145D01*
X789297Y109498D01*
X789353Y109849D01*
X789419Y110199D01*
X789492Y110547D01*
X789575Y110893D01*
X789665Y111237D01*
X789764Y111579D01*
X789872Y111918D01*
X789988Y112255D01*
X790112Y112588D01*
X790244Y112919D01*
X790384Y113246D01*
X790532Y113570D01*
X790688Y113889D01*
X790852Y114205D01*
X791024Y114517D01*
X791203Y114824D01*
X791390Y115127D01*
X791584Y115426D01*
X791785Y115719D01*
X791993Y116008D01*
X792209Y116291D01*
X792431Y116569D01*
X792660Y116841D01*
X792896Y117108D01*
X793138Y117368D01*
X793387Y117623D01*
X793642Y117872D01*
X793902Y118114D01*
X794169Y118350D01*
X794441Y118579D01*
X794719Y118801D01*
X795002Y119017D01*
X795291Y119225D01*
X795584Y119426D01*
X795883Y119620D01*
X796186Y119807D01*
X796493Y119986D01*
X796805Y120158D01*
X797121Y120322D01*
X797440Y120478D01*
X797764Y120626D01*
X798091Y120766D01*
X798422Y120898D01*
X798755Y121022D01*
X799092Y121138D01*
X799431Y121246D01*
X799773Y121345D01*
X800117Y121435D01*
X800463Y121518D01*
X800811Y121591D01*
X801161Y121657D01*
X801512Y121713D01*
X801865Y121761D01*
X802219Y121800D01*
X802573Y121831D01*
X802929Y121853D01*
X803284Y121866D01*
X803640Y121870D01*
X803996Y121866D01*
X804351Y121853D01*
X804707Y121831D01*
X805061Y121800D01*
X805415Y121761D01*
X805768Y121713D01*
X806119Y121657D01*
X806469Y121591D01*
X806817Y121518D01*
X807163Y121435D01*
X807507Y121345D01*
X807849Y121246D01*
X808188Y121138D01*
X808525Y121022D01*
X808858Y120898D01*
X809189Y120766D01*
X809516Y120626D01*
X809840Y120478D01*
X810159Y120322D01*
X810475Y120158D01*
X810787Y119986D01*
X811094Y119807D01*
X811397Y119620D01*
X811696Y119426D01*
X811989Y119225D01*
X812278Y119017D01*
X812561Y118801D01*
X812839Y118579D01*
X813111Y118350D01*
X813378Y118114D01*
X813638Y117872D01*
X813893Y117623D01*
X814142Y117368D01*
X814384Y117108D01*
X814620Y116841D01*
X814849Y116569D01*
X815071Y116291D01*
X815287Y116008D01*
X815495Y115719D01*
X815696Y115426D01*
X815890Y115127D01*
X816077Y114824D01*
X816256Y114517D01*
X816428Y114205D01*
X816592Y113889D01*
X816748Y113570D01*
X816896Y113246D01*
X817036Y112919D01*
X817168Y112588D01*
X817292Y112255D01*
X817408Y111918D01*
X817516Y111579D01*
X817615Y111237D01*
X817705Y110893D01*
X817788Y110547D01*
X817861Y110199D01*
X817927Y109849D01*
X817983Y109498D01*
X818031Y109145D01*
X818070Y108791D01*
X818101Y108437D01*
X818123Y108081D01*
X818136Y107726D01*
X818140Y107370D01*
X818136Y107014D01*
X818123Y106659D01*
X818101Y106303D01*
X818070Y105949D01*
X818031Y105595D01*
X817983Y105242D01*
X817927Y104891D01*
X817861Y104541D01*
X817788Y104193D01*
X817705Y103847D01*
X817615Y103503D01*
X817516Y103161D01*
X817408Y102822D01*
X817292Y102485D01*
X817168Y102152D01*
X817036Y101821D01*
X816896Y101494D01*
X816748Y101170D01*
X816592Y100851D01*
X816428Y100535D01*
X816256Y100223D01*
X816077Y99916D01*
X815890Y99613D01*
X815696Y99314D01*
X815495Y99021D01*
X815287Y98732D01*
X815071Y98449D01*
X814849Y98171D01*
X814620Y97899D01*
X814384Y97632D01*
X814142Y97372D01*
X813893Y97117D01*
X813638Y96868D01*
X813378Y96626D01*
X813111Y96390D01*
X812839Y96161D01*
X812561Y95939D01*
X812278Y95723D01*
X811989Y95515D01*
X811696Y95314D01*
X811397Y95120D01*
X811094Y94933D01*
X810787Y94754D01*
X810475Y94582D01*
X810159Y94418D01*
X809840Y94262D01*
X809516Y94114D01*
X809189Y93974D01*
X808858Y93842D01*
X808525Y93718D01*
X808188Y93602D01*
X807849Y93494D01*
X807507Y93395D01*
X807163Y93305D01*
X806817Y93222D01*
X806469Y93149D01*
X806119Y93083D01*
X805768Y93027D01*
X805415Y92979D01*
X805061Y92940D01*
X804707Y92909D01*
X804351Y92887D01*
X803996Y92874D01*
X803640Y92870D01*
X803284Y92874D01*
X802929Y92887D01*
X802573Y92909D01*
X802219Y92940D01*
X801865Y92979D01*
X801512Y93027D01*
X801161Y93083D01*
X800811Y93149D01*
X800463Y93222D01*
X800117Y93305D01*
X799773Y93395D01*
X799431Y93494D01*
X799092Y93602D01*
X798755Y93718D01*
X798422Y93842D01*
X798091Y93974D01*
X797764Y94114D01*
X797440Y94262D01*
X797121Y94418D01*
X796805Y94582D01*
X796493Y94754D01*
X796186Y94933D01*
X795883Y95120D01*
X795584Y95314D01*
X795291Y95515D01*
X795002Y95723D01*
X794719Y95939D01*
X794441Y96161D01*
X794169Y96390D01*
X793902Y96626D01*
X793642Y96868D01*
X793387Y97117D01*
X793138Y97372D01*
X792896Y97632D01*
X792660Y97899D01*
X792431Y98171D01*
X792209Y98449D01*
X791993Y98732D01*
X791785Y99021D01*
X791584Y99314D01*
X791390Y99613D01*
X791203Y99916D01*
X791024Y100223D01*
X790852Y100535D01*
X790688Y100851D01*
X790532Y101170D01*
X790384Y101494D01*
X790244Y101821D01*
X790112Y102152D01*
X789988Y102485D01*
X789872Y102822D01*
X789764Y103161D01*
X789665Y103503D01*
X789575Y103847D01*
X789492Y104193D01*
X789419Y104541D01*
X789353Y104891D01*
X789297Y105242D01*
X789249Y105595D01*
X789210Y105949D01*
X789179Y106303D01*
X789157Y106659D01*
X789144Y107014D01*
X789140Y107370D01*
X789140Y142370D02*
X789144Y142726D01*
X789157Y143081D01*
X789179Y143437D01*
X789210Y143791D01*
X789249Y144145D01*
X789297Y144498D01*
X789353Y144849D01*
X789419Y145199D01*
X789492Y145547D01*
X789575Y145893D01*
X789665Y146237D01*
X789764Y146579D01*
X789872Y146918D01*
X789988Y147255D01*
X790112Y147588D01*
X790244Y147919D01*
X790384Y148246D01*
X790532Y148570D01*
X790688Y148889D01*
X790852Y149205D01*
X791024Y149517D01*
X791203Y149824D01*
X791390Y150127D01*
X791584Y150426D01*
X791785Y150719D01*
X791993Y151008D01*
X792209Y151291D01*
X792431Y151569D01*
X792660Y151841D01*
X792896Y152108D01*
X793138Y152368D01*
X793387Y152623D01*
X793642Y152872D01*
X793902Y153114D01*
X794169Y153350D01*
X794441Y153579D01*
X794719Y153801D01*
X795002Y154017D01*
X795291Y154225D01*
X795584Y154426D01*
X795883Y154620D01*
X796186Y154807D01*
X796493Y154986D01*
X796805Y155158D01*
X797121Y155322D01*
X797440Y155478D01*
X797764Y155626D01*
X798091Y155766D01*
X798422Y155898D01*
X798755Y156022D01*
X799092Y156138D01*
X799431Y156246D01*
X799773Y156345D01*
X800117Y156435D01*
X800463Y156518D01*
X800811Y156591D01*
X801161Y156657D01*
X801512Y156713D01*
X801865Y156761D01*
X802219Y156800D01*
X802573Y156831D01*
X802929Y156853D01*
X803284Y156866D01*
X803640Y156870D01*
X803996Y156866D01*
X804351Y156853D01*
X804707Y156831D01*
X805061Y156800D01*
X805415Y156761D01*
X805768Y156713D01*
X806119Y156657D01*
X806469Y156591D01*
X806817Y156518D01*
X807163Y156435D01*
X807507Y156345D01*
X807849Y156246D01*
X808188Y156138D01*
X808525Y156022D01*
X808858Y155898D01*
X809189Y155766D01*
X809516Y155626D01*
X809840Y155478D01*
X810159Y155322D01*
X810475Y155158D01*
X810787Y154986D01*
X811094Y154807D01*
X811397Y154620D01*
X811696Y154426D01*
X811989Y154225D01*
X812278Y154017D01*
X812561Y153801D01*
X812839Y153579D01*
X813111Y153350D01*
X813378Y153114D01*
X813638Y152872D01*
X813893Y152623D01*
X814142Y152368D01*
X814384Y152108D01*
X814620Y151841D01*
X814849Y151569D01*
X815071Y151291D01*
X815287Y151008D01*
X815495Y150719D01*
X815696Y150426D01*
X815890Y150127D01*
X816077Y149824D01*
X816256Y149517D01*
X816428Y149205D01*
X816592Y148889D01*
X816748Y148570D01*
X816896Y148246D01*
X817036Y147919D01*
X817168Y147588D01*
X817292Y147255D01*
X817408Y146918D01*
X817516Y146579D01*
X817615Y146237D01*
X817705Y145893D01*
X817788Y145547D01*
X817861Y145199D01*
X817927Y144849D01*
X817983Y144498D01*
X818031Y144145D01*
X818070Y143791D01*
X818101Y143437D01*
X818123Y143081D01*
X818136Y142726D01*
X818140Y142370D01*
X818136Y142014D01*
X818123Y141659D01*
X818101Y141303D01*
X818070Y140949D01*
X818031Y140595D01*
X817983Y140242D01*
X817927Y139891D01*
X817861Y139541D01*
X817788Y139193D01*
X817705Y138847D01*
X817615Y138503D01*
X817516Y138161D01*
X817408Y137822D01*
X817292Y137485D01*
X817168Y137152D01*
X817036Y136821D01*
X816896Y136494D01*
X816748Y136170D01*
X816592Y135851D01*
X816428Y135535D01*
X816256Y135223D01*
X816077Y134916D01*
X815890Y134613D01*
X815696Y134314D01*
X815495Y134021D01*
X815287Y133732D01*
X815071Y133449D01*
X814849Y133171D01*
X814620Y132899D01*
X814384Y132632D01*
X814142Y132372D01*
X813893Y132117D01*
X813638Y131868D01*
X813378Y131626D01*
X813111Y131390D01*
X812839Y131161D01*
X812561Y130939D01*
X812278Y130723D01*
X811989Y130515D01*
X811696Y130314D01*
X811397Y130120D01*
X811094Y129933D01*
X810787Y129754D01*
X810475Y129582D01*
X810159Y129418D01*
X809840Y129262D01*
X809516Y129114D01*
X809189Y128974D01*
X808858Y128842D01*
X808525Y128718D01*
X808188Y128602D01*
X807849Y128494D01*
X807507Y128395D01*
X807163Y128305D01*
X806817Y128222D01*
X806469Y128149D01*
X806119Y128083D01*
X805768Y128027D01*
X805415Y127979D01*
X805061Y127940D01*
X804707Y127909D01*
X804351Y127887D01*
X803996Y127874D01*
X803640Y127870D01*
X803284Y127874D01*
X802929Y127887D01*
X802573Y127909D01*
X802219Y127940D01*
X801865Y127979D01*
X801512Y128027D01*
X801161Y128083D01*
X800811Y128149D01*
X800463Y128222D01*
X800117Y128305D01*
X799773Y128395D01*
X799431Y128494D01*
X799092Y128602D01*
X798755Y128718D01*
X798422Y128842D01*
X798091Y128974D01*
X797764Y129114D01*
X797440Y129262D01*
X797121Y129418D01*
X796805Y129582D01*
X796493Y129754D01*
X796186Y129933D01*
X795883Y130120D01*
X795584Y130314D01*
X795291Y130515D01*
X795002Y130723D01*
X794719Y130939D01*
X794441Y131161D01*
X794169Y131390D01*
X793902Y131626D01*
X793642Y131868D01*
X793387Y132117D01*
X793138Y132372D01*
X792896Y132632D01*
X792660Y132899D01*
X792431Y133171D01*
X792209Y133449D01*
X791993Y133732D01*
X791785Y134021D01*
X791584Y134314D01*
X791390Y134613D01*
X791203Y134916D01*
X791024Y135223D01*
X790852Y135535D01*
X790688Y135851D01*
X790532Y136170D01*
X790384Y136494D01*
X790244Y136821D01*
X790112Y137152D01*
X789988Y137485D01*
X789872Y137822D01*
X789764Y138161D01*
X789665Y138503D01*
X789575Y138847D01*
X789492Y139193D01*
X789419Y139541D01*
X789353Y139891D01*
X789297Y140242D01*
X789249Y140595D01*
X789210Y140949D01*
X789179Y141303D01*
X789157Y141659D01*
X789144Y142014D01*
X789140Y142370D01*
X789140Y177370D02*
X789144Y177726D01*
X789157Y178081D01*
X789179Y178437D01*
X789210Y178791D01*
X789249Y179145D01*
X789297Y179498D01*
X789353Y179849D01*
X789419Y180199D01*
X789492Y180547D01*
X789575Y180893D01*
X789665Y181237D01*
X789764Y181579D01*
X789872Y181918D01*
X789988Y182255D01*
X790112Y182588D01*
X790244Y182919D01*
X790384Y183246D01*
X790532Y183570D01*
X790688Y183889D01*
X790852Y184205D01*
X791024Y184517D01*
X791203Y184824D01*
X791390Y185127D01*
X791584Y185426D01*
X791785Y185719D01*
X791993Y186008D01*
X792209Y186291D01*
X792431Y186569D01*
X792660Y186841D01*
X792896Y187108D01*
X793138Y187368D01*
X793387Y187623D01*
X793642Y187872D01*
X793902Y188114D01*
X794169Y188350D01*
X794441Y188579D01*
X794719Y188801D01*
X795002Y189017D01*
X795291Y189225D01*
X795584Y189426D01*
X795883Y189620D01*
X796186Y189807D01*
X796493Y189986D01*
X796805Y190158D01*
X797121Y190322D01*
X797440Y190478D01*
X797764Y190626D01*
X798091Y190766D01*
X798422Y190898D01*
X798755Y191022D01*
X799092Y191138D01*
X799431Y191246D01*
X799773Y191345D01*
X800117Y191435D01*
X800463Y191518D01*
X800811Y191591D01*
X801161Y191657D01*
X801512Y191713D01*
X801865Y191761D01*
X802219Y191800D01*
X802573Y191831D01*
X802929Y191853D01*
X803284Y191866D01*
X803640Y191870D01*
X803996Y191866D01*
X804351Y191853D01*
X804707Y191831D01*
X805061Y191800D01*
X805415Y191761D01*
X805768Y191713D01*
X806119Y191657D01*
X806469Y191591D01*
X806817Y191518D01*
X807163Y191435D01*
X807507Y191345D01*
X807849Y191246D01*
X808188Y191138D01*
X808525Y191022D01*
X808858Y190898D01*
X809189Y190766D01*
X809516Y190626D01*
X809840Y190478D01*
X810159Y190322D01*
X810475Y190158D01*
X810787Y189986D01*
X811094Y189807D01*
X811397Y189620D01*
X811696Y189426D01*
X811989Y189225D01*
X812278Y189017D01*
X812561Y188801D01*
X812839Y188579D01*
X813111Y188350D01*
X813378Y188114D01*
X813638Y187872D01*
X813893Y187623D01*
X814142Y187368D01*
X814384Y187108D01*
X814620Y186841D01*
X814849Y186569D01*
X815071Y186291D01*
X815287Y186008D01*
X815495Y185719D01*
X815696Y185426D01*
X815890Y185127D01*
X816077Y184824D01*
X816256Y184517D01*
X816428Y184205D01*
X816592Y183889D01*
X816748Y183570D01*
X816896Y183246D01*
X817036Y182919D01*
X817168Y182588D01*
X817292Y182255D01*
X817408Y181918D01*
X817516Y181579D01*
X817615Y181237D01*
X817705Y180893D01*
X817788Y180547D01*
X817861Y180199D01*
X817927Y179849D01*
X817983Y179498D01*
X818031Y179145D01*
X818070Y178791D01*
X818101Y178437D01*
X818123Y178081D01*
X818136Y177726D01*
X818140Y177370D01*
X818136Y177014D01*
X818123Y176659D01*
X818101Y176303D01*
X818070Y175949D01*
X818031Y175595D01*
X817983Y175242D01*
X817927Y174891D01*
X817861Y174541D01*
X817788Y174193D01*
X817705Y173847D01*
X817615Y173503D01*
X817516Y173161D01*
X817408Y172822D01*
X817292Y172485D01*
X817168Y172152D01*
X817036Y171821D01*
X816896Y171494D01*
X816748Y171170D01*
X816592Y170851D01*
X816428Y170535D01*
X816256Y170223D01*
X816077Y169916D01*
X815890Y169613D01*
X815696Y169314D01*
X815495Y169021D01*
X815287Y168732D01*
X815071Y168449D01*
X814849Y168171D01*
X814620Y167899D01*
X814384Y167632D01*
X814142Y167372D01*
X813893Y167117D01*
X813638Y166868D01*
X813378Y166626D01*
X813111Y166390D01*
X812839Y166161D01*
X812561Y165939D01*
X812278Y165723D01*
X811989Y165515D01*
X811696Y165314D01*
X811397Y165120D01*
X811094Y164933D01*
X810787Y164754D01*
X810475Y164582D01*
X810159Y164418D01*
X809840Y164262D01*
X809516Y164114D01*
X809189Y163974D01*
X808858Y163842D01*
X808525Y163718D01*
X808188Y163602D01*
X807849Y163494D01*
X807507Y163395D01*
X807163Y163305D01*
X806817Y163222D01*
X806469Y163149D01*
X806119Y163083D01*
X805768Y163027D01*
X805415Y162979D01*
X805061Y162940D01*
X804707Y162909D01*
X804351Y162887D01*
X803996Y162874D01*
X803640Y162870D01*
X803284Y162874D01*
X802929Y162887D01*
X802573Y162909D01*
X802219Y162940D01*
X801865Y162979D01*
X801512Y163027D01*
X801161Y163083D01*
X800811Y163149D01*
X800463Y163222D01*
X800117Y163305D01*
X799773Y163395D01*
X799431Y163494D01*
X799092Y163602D01*
X798755Y163718D01*
X798422Y163842D01*
X798091Y163974D01*
X797764Y164114D01*
X797440Y164262D01*
X797121Y164418D01*
X796805Y164582D01*
X796493Y164754D01*
X796186Y164933D01*
X795883Y165120D01*
X795584Y165314D01*
X795291Y165515D01*
X795002Y165723D01*
X794719Y165939D01*
X794441Y166161D01*
X794169Y166390D01*
X793902Y166626D01*
X793642Y166868D01*
X793387Y167117D01*
X793138Y167372D01*
X792896Y167632D01*
X792660Y167899D01*
X792431Y168171D01*
X792209Y168449D01*
X791993Y168732D01*
X791785Y169021D01*
X791584Y169314D01*
X791390Y169613D01*
X791203Y169916D01*
X791024Y170223D01*
X790852Y170535D01*
X790688Y170851D01*
X790532Y171170D01*
X790384Y171494D01*
X790244Y171821D01*
X790112Y172152D01*
X789988Y172485D01*
X789872Y172822D01*
X789764Y173161D01*
X789665Y173503D01*
X789575Y173847D01*
X789492Y174193D01*
X789419Y174541D01*
X789353Y174891D01*
X789297Y175242D01*
X789249Y175595D01*
X789210Y175949D01*
X789179Y176303D01*
X789157Y176659D01*
X789144Y177014D01*
X789140Y177370D01*
X789140Y212370D02*
X789144Y212726D01*
X789157Y213081D01*
X789179Y213437D01*
X789210Y213791D01*
X789249Y214145D01*
X789297Y214498D01*
X789353Y214849D01*
X789419Y215199D01*
X789492Y215547D01*
X789575Y215893D01*
X789665Y216237D01*
X789764Y216579D01*
X789872Y216918D01*
X789988Y217255D01*
X790112Y217588D01*
X790244Y217919D01*
X790384Y218246D01*
X790532Y218570D01*
X790688Y218889D01*
X790852Y219205D01*
X791024Y219517D01*
X791203Y219824D01*
X791390Y220127D01*
X791584Y220426D01*
X791785Y220719D01*
X791993Y221008D01*
X792209Y221291D01*
X792431Y221569D01*
X792660Y221841D01*
X792896Y222108D01*
X793138Y222368D01*
X793387Y222623D01*
X793642Y222872D01*
X793902Y223114D01*
X794169Y223350D01*
X794441Y223579D01*
X794719Y223801D01*
X795002Y224017D01*
X795291Y224225D01*
X795584Y224426D01*
X795883Y224620D01*
X796186Y224807D01*
X796493Y224986D01*
X796805Y225158D01*
X797121Y225322D01*
X797440Y225478D01*
X797764Y225626D01*
X798091Y225766D01*
X798422Y225898D01*
X798755Y226022D01*
X799092Y226138D01*
X799431Y226246D01*
X799773Y226345D01*
X800117Y226435D01*
X800463Y226518D01*
X800811Y226591D01*
X801161Y226657D01*
X801512Y226713D01*
X801865Y226761D01*
X802219Y226800D01*
X802573Y226831D01*
X802929Y226853D01*
X803284Y226866D01*
X803640Y226870D01*
X803996Y226866D01*
X804351Y226853D01*
X804707Y226831D01*
X805061Y226800D01*
X805415Y226761D01*
X805768Y226713D01*
X806119Y226657D01*
X806469Y226591D01*
X806817Y226518D01*
X807163Y226435D01*
X807507Y226345D01*
X807849Y226246D01*
X808188Y226138D01*
X808525Y226022D01*
X808858Y225898D01*
X809189Y225766D01*
X809516Y225626D01*
X809840Y225478D01*
X810159Y225322D01*
X810475Y225158D01*
X810787Y224986D01*
X811094Y224807D01*
X811397Y224620D01*
X811696Y224426D01*
X811989Y224225D01*
X812278Y224017D01*
X812561Y223801D01*
X812839Y223579D01*
X813111Y223350D01*
X813378Y223114D01*
X813638Y222872D01*
X813893Y222623D01*
X814142Y222368D01*
X814384Y222108D01*
X814620Y221841D01*
X814849Y221569D01*
X815071Y221291D01*
X815287Y221008D01*
X815495Y220719D01*
X815696Y220426D01*
X815890Y220127D01*
X816077Y219824D01*
X816256Y219517D01*
X816428Y219205D01*
X816592Y218889D01*
X816748Y218570D01*
X816896Y218246D01*
X817036Y217919D01*
X817168Y217588D01*
X817292Y217255D01*
X817408Y216918D01*
X817516Y216579D01*
X817615Y216237D01*
X817705Y215893D01*
X817788Y215547D01*
X817861Y215199D01*
X817927Y214849D01*
X817983Y214498D01*
X818031Y214145D01*
X818070Y213791D01*
X818101Y213437D01*
X818123Y213081D01*
X818136Y212726D01*
X818140Y212370D01*
X818136Y212014D01*
X818123Y211659D01*
X818101Y211303D01*
X818070Y210949D01*
X818031Y210595D01*
X817983Y210242D01*
X817927Y209891D01*
X817861Y209541D01*
X817788Y209193D01*
X817705Y208847D01*
X817615Y208503D01*
X817516Y208161D01*
X817408Y207822D01*
X817292Y207485D01*
X817168Y207152D01*
X817036Y206821D01*
X816896Y206494D01*
X816748Y206170D01*
X816592Y205851D01*
X816428Y205535D01*
X816256Y205223D01*
X816077Y204916D01*
X815890Y204613D01*
X815696Y204314D01*
X815495Y204021D01*
X815287Y203732D01*
X815071Y203449D01*
X814849Y203171D01*
X814620Y202899D01*
X814384Y202632D01*
X814142Y202372D01*
X813893Y202117D01*
X813638Y201868D01*
X813378Y201626D01*
X813111Y201390D01*
X812839Y201161D01*
X812561Y200939D01*
X812278Y200723D01*
X811989Y200515D01*
X811696Y200314D01*
X811397Y200120D01*
X811094Y199933D01*
X810787Y199754D01*
X810475Y199582D01*
X810159Y199418D01*
X809840Y199262D01*
X809516Y199114D01*
X809189Y198974D01*
X808858Y198842D01*
X808525Y198718D01*
X808188Y198602D01*
X807849Y198494D01*
X807507Y198395D01*
X807163Y198305D01*
X806817Y198222D01*
X806469Y198149D01*
X806119Y198083D01*
X805768Y198027D01*
X805415Y197979D01*
X805061Y197940D01*
X804707Y197909D01*
X804351Y197887D01*
X803996Y197874D01*
X803640Y197870D01*
X803284Y197874D01*
X802929Y197887D01*
X802573Y197909D01*
X802219Y197940D01*
X801865Y197979D01*
X801512Y198027D01*
X801161Y198083D01*
X800811Y198149D01*
X800463Y198222D01*
X800117Y198305D01*
X799773Y198395D01*
X799431Y198494D01*
X799092Y198602D01*
X798755Y198718D01*
X798422Y198842D01*
X798091Y198974D01*
X797764Y199114D01*
X797440Y199262D01*
X797121Y199418D01*
X796805Y199582D01*
X796493Y199754D01*
X796186Y199933D01*
X795883Y200120D01*
X795584Y200314D01*
X795291Y200515D01*
X795002Y200723D01*
X794719Y200939D01*
X794441Y201161D01*
X794169Y201390D01*
X793902Y201626D01*
X793642Y201868D01*
X793387Y202117D01*
X793138Y202372D01*
X792896Y202632D01*
X792660Y202899D01*
X792431Y203171D01*
X792209Y203449D01*
X791993Y203732D01*
X791785Y204021D01*
X791584Y204314D01*
X791390Y204613D01*
X791203Y204916D01*
X791024Y205223D01*
X790852Y205535D01*
X790688Y205851D01*
X790532Y206170D01*
X790384Y206494D01*
X790244Y206821D01*
X790112Y207152D01*
X789988Y207485D01*
X789872Y207822D01*
X789764Y208161D01*
X789665Y208503D01*
X789575Y208847D01*
X789492Y209193D01*
X789419Y209541D01*
X789353Y209891D01*
X789297Y210242D01*
X789249Y210595D01*
X789210Y210949D01*
X789179Y211303D01*
X789157Y211659D01*
X789144Y212014D01*
X789140Y212370D01*
X789140Y247370D02*
X789144Y247726D01*
X789157Y248081D01*
X789179Y248437D01*
X789210Y248791D01*
X789249Y249145D01*
X789297Y249498D01*
X789353Y249849D01*
X789419Y250199D01*
X789492Y250547D01*
X789575Y250893D01*
X789665Y251237D01*
X789764Y251579D01*
X789872Y251918D01*
X789988Y252255D01*
X790112Y252588D01*
X790244Y252919D01*
X790384Y253246D01*
X790532Y253570D01*
X790688Y253889D01*
X790852Y254205D01*
X791024Y254517D01*
X791203Y254824D01*
X791390Y255127D01*
X791584Y255426D01*
X791785Y255719D01*
X791993Y256008D01*
X792209Y256291D01*
X792431Y256569D01*
X792660Y256841D01*
X792896Y257108D01*
X793138Y257368D01*
X793387Y257623D01*
X793642Y257872D01*
X793902Y258114D01*
X794169Y258350D01*
X794441Y258579D01*
X794719Y258801D01*
X795002Y259017D01*
X795291Y259225D01*
X795584Y259426D01*
X795883Y259620D01*
X796186Y259807D01*
X796493Y259986D01*
X796805Y260158D01*
X797121Y260322D01*
X797440Y260478D01*
X797764Y260626D01*
X798091Y260766D01*
X798422Y260898D01*
X798755Y261022D01*
X799092Y261138D01*
X799431Y261246D01*
X799773Y261345D01*
X800117Y261435D01*
X800463Y261518D01*
X800811Y261591D01*
X801161Y261657D01*
X801512Y261713D01*
X801865Y261761D01*
X802219Y261800D01*
X802573Y261831D01*
X802929Y261853D01*
X803284Y261866D01*
X803640Y261870D01*
X803996Y261866D01*
X804351Y261853D01*
X804707Y261831D01*
X805061Y261800D01*
X805415Y261761D01*
X805768Y261713D01*
X806119Y261657D01*
X806469Y261591D01*
X806817Y261518D01*
X807163Y261435D01*
X807507Y261345D01*
X807849Y261246D01*
X808188Y261138D01*
X808525Y261022D01*
X808858Y260898D01*
X809189Y260766D01*
X809516Y260626D01*
X809840Y260478D01*
X810159Y260322D01*
X810475Y260158D01*
X810787Y259986D01*
X811094Y259807D01*
X811397Y259620D01*
X811696Y259426D01*
X811989Y259225D01*
X812278Y259017D01*
X812561Y258801D01*
X812839Y258579D01*
X813111Y258350D01*
X813378Y258114D01*
X813638Y257872D01*
X813893Y257623D01*
X814142Y257368D01*
X814384Y257108D01*
X814620Y256841D01*
X814849Y256569D01*
X815071Y256291D01*
X815287Y256008D01*
X815495Y255719D01*
X815696Y255426D01*
X815890Y255127D01*
X816077Y254824D01*
X816256Y254517D01*
X816428Y254205D01*
X816592Y253889D01*
X816748Y253570D01*
X816896Y253246D01*
X817036Y252919D01*
X817168Y252588D01*
X817292Y252255D01*
X817408Y251918D01*
X817516Y251579D01*
X817615Y251237D01*
X817705Y250893D01*
X817788Y250547D01*
X817861Y250199D01*
X817927Y249849D01*
X817983Y249498D01*
X818031Y249145D01*
X818070Y248791D01*
X818101Y248437D01*
X818123Y248081D01*
X818136Y247726D01*
X818140Y247370D01*
X818136Y247014D01*
X818123Y246659D01*
X818101Y246303D01*
X818070Y245949D01*
X818031Y245595D01*
X817983Y245242D01*
X817927Y244891D01*
X817861Y244541D01*
X817788Y244193D01*
X817705Y243847D01*
X817615Y243503D01*
X817516Y243161D01*
X817408Y242822D01*
X817292Y242485D01*
X817168Y242152D01*
X817036Y241821D01*
X816896Y241494D01*
X816748Y241170D01*
X816592Y240851D01*
X816428Y240535D01*
X816256Y240223D01*
X816077Y239916D01*
X815890Y239613D01*
X815696Y239314D01*
X815495Y239021D01*
X815287Y238732D01*
X815071Y238449D01*
X814849Y238171D01*
X814620Y237899D01*
X814384Y237632D01*
X814142Y237372D01*
X813893Y237117D01*
X813638Y236868D01*
X813378Y236626D01*
X813111Y236390D01*
X812839Y236161D01*
X812561Y235939D01*
X812278Y235723D01*
X811989Y235515D01*
X811696Y235314D01*
X811397Y235120D01*
X811094Y234933D01*
X810787Y234754D01*
X810475Y234582D01*
X810159Y234418D01*
X809840Y234262D01*
X809516Y234114D01*
X809189Y233974D01*
X808858Y233842D01*
X808525Y233718D01*
X808188Y233602D01*
X807849Y233494D01*
X807507Y233395D01*
X807163Y233305D01*
X806817Y233222D01*
X806469Y233149D01*
X806119Y233083D01*
X805768Y233027D01*
X805415Y232979D01*
X805061Y232940D01*
X804707Y232909D01*
X804351Y232887D01*
X803996Y232874D01*
X803640Y232870D01*
X803284Y232874D01*
X802929Y232887D01*
X802573Y232909D01*
X802219Y232940D01*
X801865Y232979D01*
X801512Y233027D01*
X801161Y233083D01*
X800811Y233149D01*
X800463Y233222D01*
X800117Y233305D01*
X799773Y233395D01*
X799431Y233494D01*
X799092Y233602D01*
X798755Y233718D01*
X798422Y233842D01*
X798091Y233974D01*
X797764Y234114D01*
X797440Y234262D01*
X797121Y234418D01*
X796805Y234582D01*
X796493Y234754D01*
X796186Y234933D01*
X795883Y235120D01*
X795584Y235314D01*
X795291Y235515D01*
X795002Y235723D01*
X794719Y235939D01*
X794441Y236161D01*
X794169Y236390D01*
X793902Y236626D01*
X793642Y236868D01*
X793387Y237117D01*
X793138Y237372D01*
X792896Y237632D01*
X792660Y237899D01*
X792431Y238171D01*
X792209Y238449D01*
X791993Y238732D01*
X791785Y239021D01*
X791584Y239314D01*
X791390Y239613D01*
X791203Y239916D01*
X791024Y240223D01*
X790852Y240535D01*
X790688Y240851D01*
X790532Y241170D01*
X790384Y241494D01*
X790244Y241821D01*
X790112Y242152D01*
X789988Y242485D01*
X789872Y242822D01*
X789764Y243161D01*
X789665Y243503D01*
X789575Y243847D01*
X789492Y244193D01*
X789419Y244541D01*
X789353Y244891D01*
X789297Y245242D01*
X789249Y245595D01*
X789210Y245949D01*
X789179Y246303D01*
X789157Y246659D01*
X789144Y247014D01*
X789140Y247370D01*
X789140Y282370D02*
X789144Y282726D01*
X789157Y283081D01*
X789179Y283437D01*
X789210Y283791D01*
X789249Y284145D01*
X789297Y284498D01*
X789353Y284849D01*
X789419Y285199D01*
X789492Y285547D01*
X789575Y285893D01*
X789665Y286237D01*
X789764Y286579D01*
X789872Y286918D01*
X789988Y287255D01*
X790112Y287588D01*
X790244Y287919D01*
X790384Y288246D01*
X790532Y288570D01*
X790688Y288889D01*
X790852Y289205D01*
X791024Y289517D01*
X791203Y289824D01*
X791390Y290127D01*
X791584Y290426D01*
X791785Y290719D01*
X791993Y291008D01*
X792209Y291291D01*
X792431Y291569D01*
X792660Y291841D01*
X792896Y292108D01*
X793138Y292368D01*
X793387Y292623D01*
X793642Y292872D01*
X793902Y293114D01*
X794169Y293350D01*
X794441Y293579D01*
X794719Y293801D01*
X795002Y294017D01*
X795291Y294225D01*
X795584Y294426D01*
X795883Y294620D01*
X796186Y294807D01*
X796493Y294986D01*
X796805Y295158D01*
X797121Y295322D01*
X797440Y295478D01*
X797764Y295626D01*
X798091Y295766D01*
X798422Y295898D01*
X798755Y296022D01*
X799092Y296138D01*
X799431Y296246D01*
X799773Y296345D01*
X800117Y296435D01*
X800463Y296518D01*
X800811Y296591D01*
X801161Y296657D01*
X801512Y296713D01*
X801865Y296761D01*
X802219Y296800D01*
X802573Y296831D01*
X802929Y296853D01*
X803284Y296866D01*
X803640Y296870D01*
X803996Y296866D01*
X804351Y296853D01*
X804707Y296831D01*
X805061Y296800D01*
X805415Y296761D01*
X805768Y296713D01*
X806119Y296657D01*
X806469Y296591D01*
X806817Y296518D01*
X807163Y296435D01*
X807507Y296345D01*
X807849Y296246D01*
X808188Y296138D01*
X808525Y296022D01*
X808858Y295898D01*
X809189Y295766D01*
X809516Y295626D01*
X809840Y295478D01*
X810159Y295322D01*
X810475Y295158D01*
X810787Y294986D01*
X811094Y294807D01*
X811397Y294620D01*
X811696Y294426D01*
X811989Y294225D01*
X812278Y294017D01*
X812561Y293801D01*
X812839Y293579D01*
X813111Y293350D01*
X813378Y293114D01*
X813638Y292872D01*
X813893Y292623D01*
X814142Y292368D01*
X814384Y292108D01*
X814620Y291841D01*
X814849Y291569D01*
X815071Y291291D01*
X815287Y291008D01*
X815495Y290719D01*
X815696Y290426D01*
X815890Y290127D01*
X816077Y289824D01*
X816256Y289517D01*
X816428Y289205D01*
X816592Y288889D01*
X816748Y288570D01*
X816896Y288246D01*
X817036Y287919D01*
X817168Y287588D01*
X817292Y287255D01*
X817408Y286918D01*
X817516Y286579D01*
X817615Y286237D01*
X817705Y285893D01*
X817788Y285547D01*
X817861Y285199D01*
X817927Y284849D01*
X817983Y284498D01*
X818031Y284145D01*
X818070Y283791D01*
X818101Y283437D01*
X818123Y283081D01*
X818136Y282726D01*
X818140Y282370D01*
X818136Y282014D01*
X818123Y281659D01*
X818101Y281303D01*
X818070Y280949D01*
X818031Y280595D01*
X817983Y280242D01*
X817927Y279891D01*
X817861Y279541D01*
X817788Y279193D01*
X817705Y278847D01*
X817615Y278503D01*
X817516Y278161D01*
X817408Y277822D01*
X817292Y277485D01*
X817168Y277152D01*
X817036Y276821D01*
X816896Y276494D01*
X816748Y276170D01*
X816592Y275851D01*
X816428Y275535D01*
X816256Y275223D01*
X816077Y274916D01*
X815890Y274613D01*
X815696Y274314D01*
X815495Y274021D01*
X815287Y273732D01*
X815071Y273449D01*
X814849Y273171D01*
X814620Y272899D01*
X814384Y272632D01*
X814142Y272372D01*
X813893Y272117D01*
X813638Y271868D01*
X813378Y271626D01*
X813111Y271390D01*
X812839Y271161D01*
X812561Y270939D01*
X812278Y270723D01*
X811989Y270515D01*
X811696Y270314D01*
X811397Y270120D01*
X811094Y269933D01*
X810787Y269754D01*
X810475Y269582D01*
X810159Y269418D01*
X809840Y269262D01*
X809516Y269114D01*
X809189Y268974D01*
X808858Y268842D01*
X808525Y268718D01*
X808188Y268602D01*
X807849Y268494D01*
X807507Y268395D01*
X807163Y268305D01*
X806817Y268222D01*
X806469Y268149D01*
X806119Y268083D01*
X805768Y268027D01*
X805415Y267979D01*
X805061Y267940D01*
X804707Y267909D01*
X804351Y267887D01*
X803996Y267874D01*
X803640Y267870D01*
X803284Y267874D01*
X802929Y267887D01*
X802573Y267909D01*
X802219Y267940D01*
X801865Y267979D01*
X801512Y268027D01*
X801161Y268083D01*
X800811Y268149D01*
X800463Y268222D01*
X800117Y268305D01*
X799773Y268395D01*
X799431Y268494D01*
X799092Y268602D01*
X798755Y268718D01*
X798422Y268842D01*
X798091Y268974D01*
X797764Y269114D01*
X797440Y269262D01*
X797121Y269418D01*
X796805Y269582D01*
X796493Y269754D01*
X796186Y269933D01*
X795883Y270120D01*
X795584Y270314D01*
X795291Y270515D01*
X795002Y270723D01*
X794719Y270939D01*
X794441Y271161D01*
X794169Y271390D01*
X793902Y271626D01*
X793642Y271868D01*
X793387Y272117D01*
X793138Y272372D01*
X792896Y272632D01*
X792660Y272899D01*
X792431Y273171D01*
X792209Y273449D01*
X791993Y273732D01*
X791785Y274021D01*
X791584Y274314D01*
X791390Y274613D01*
X791203Y274916D01*
X791024Y275223D01*
X790852Y275535D01*
X790688Y275851D01*
X790532Y276170D01*
X790384Y276494D01*
X790244Y276821D01*
X790112Y277152D01*
X789988Y277485D01*
X789872Y277822D01*
X789764Y278161D01*
X789665Y278503D01*
X789575Y278847D01*
X789492Y279193D01*
X789419Y279541D01*
X789353Y279891D01*
X789297Y280242D01*
X789249Y280595D01*
X789210Y280949D01*
X789179Y281303D01*
X789157Y281659D01*
X789144Y282014D01*
X789140Y282370D01*
X789140Y317370D02*
X789144Y317726D01*
X789157Y318081D01*
X789179Y318437D01*
X789210Y318791D01*
X789249Y319145D01*
X789297Y319498D01*
X789353Y319849D01*
X789419Y320199D01*
X789492Y320547D01*
X789575Y320893D01*
X789665Y321237D01*
X789764Y321579D01*
X789872Y321918D01*
X789988Y322255D01*
X790112Y322588D01*
X790244Y322919D01*
X790384Y323246D01*
X790532Y323570D01*
X790688Y323889D01*
X790852Y324205D01*
X791024Y324517D01*
X791203Y324824D01*
X791390Y325127D01*
X791584Y325426D01*
X791785Y325719D01*
X791993Y326008D01*
X792209Y326291D01*
X792431Y326569D01*
X792660Y326841D01*
X792896Y327108D01*
X793138Y327368D01*
X793387Y327623D01*
X793642Y327872D01*
X793902Y328114D01*
X794169Y328350D01*
X794441Y328579D01*
X794719Y328801D01*
X795002Y329017D01*
X795291Y329225D01*
X795584Y329426D01*
X795883Y329620D01*
X796186Y329807D01*
X796493Y329986D01*
X796805Y330158D01*
X797121Y330322D01*
X797440Y330478D01*
X797764Y330626D01*
X798091Y330766D01*
X798422Y330898D01*
X798755Y331022D01*
X799092Y331138D01*
X799431Y331246D01*
X799773Y331345D01*
X800117Y331435D01*
X800463Y331518D01*
X800811Y331591D01*
X801161Y331657D01*
X801512Y331713D01*
X801865Y331761D01*
X802219Y331800D01*
X802573Y331831D01*
X802929Y331853D01*
X803284Y331866D01*
X803640Y331870D01*
X803996Y331866D01*
X804351Y331853D01*
X804707Y331831D01*
X805061Y331800D01*
X805415Y331761D01*
X805768Y331713D01*
X806119Y331657D01*
X806469Y331591D01*
X806817Y331518D01*
X807163Y331435D01*
X807507Y331345D01*
X807849Y331246D01*
X808188Y331138D01*
X808525Y331022D01*
X808858Y330898D01*
X809189Y330766D01*
X809516Y330626D01*
X809840Y330478D01*
X810159Y330322D01*
X810475Y330158D01*
X810787Y329986D01*
X811094Y329807D01*
X811397Y329620D01*
X811696Y329426D01*
X811989Y329225D01*
X812278Y329017D01*
X812561Y328801D01*
X812839Y328579D01*
X813111Y328350D01*
X813378Y328114D01*
X813638Y327872D01*
X813893Y327623D01*
X814142Y327368D01*
X814384Y327108D01*
X814620Y326841D01*
X814849Y326569D01*
X815071Y326291D01*
X815287Y326008D01*
X815495Y325719D01*
X815696Y325426D01*
X815890Y325127D01*
X816077Y324824D01*
X816256Y324517D01*
X816428Y324205D01*
X816592Y323889D01*
X816748Y323570D01*
X816896Y323246D01*
X817036Y322919D01*
X817168Y322588D01*
X817292Y322255D01*
X817408Y321918D01*
X817516Y321579D01*
X817615Y321237D01*
X817705Y320893D01*
X817788Y320547D01*
X817861Y320199D01*
X817927Y319849D01*
X817983Y319498D01*
X818031Y319145D01*
X818070Y318791D01*
X818101Y318437D01*
X818123Y318081D01*
X818136Y317726D01*
X818140Y317370D01*
X818136Y317014D01*
X818123Y316659D01*
X818101Y316303D01*
X818070Y315949D01*
X818031Y315595D01*
X817983Y315242D01*
X817927Y314891D01*
X817861Y314541D01*
X817788Y314193D01*
X817705Y313847D01*
X817615Y313503D01*
X817516Y313161D01*
X817408Y312822D01*
X817292Y312485D01*
X817168Y312152D01*
X817036Y311821D01*
X816896Y311494D01*
X816748Y311170D01*
X816592Y310851D01*
X816428Y310535D01*
X816256Y310223D01*
X816077Y309916D01*
X815890Y309613D01*
X815696Y309314D01*
X815495Y309021D01*
X815287Y308732D01*
X815071Y308449D01*
X814849Y308171D01*
X814620Y307899D01*
X814384Y307632D01*
X814142Y307372D01*
X813893Y307117D01*
X813638Y306868D01*
X813378Y306626D01*
X813111Y306390D01*
X812839Y306161D01*
X812561Y305939D01*
X812278Y305723D01*
X811989Y305515D01*
X811696Y305314D01*
X811397Y305120D01*
X811094Y304933D01*
X810787Y304754D01*
X810475Y304582D01*
X810159Y304418D01*
X809840Y304262D01*
X809516Y304114D01*
X809189Y303974D01*
X808858Y303842D01*
X808525Y303718D01*
X808188Y303602D01*
X807849Y303494D01*
X807507Y303395D01*
X807163Y303305D01*
X806817Y303222D01*
X806469Y303149D01*
X806119Y303083D01*
X805768Y303027D01*
X805415Y302979D01*
X805061Y302940D01*
X804707Y302909D01*
X804351Y302887D01*
X803996Y302874D01*
X803640Y302870D01*
X803284Y302874D01*
X802929Y302887D01*
X802573Y302909D01*
X802219Y302940D01*
X801865Y302979D01*
X801512Y303027D01*
X801161Y303083D01*
X800811Y303149D01*
X800463Y303222D01*
X800117Y303305D01*
X799773Y303395D01*
X799431Y303494D01*
X799092Y303602D01*
X798755Y303718D01*
X798422Y303842D01*
X798091Y303974D01*
X797764Y304114D01*
X797440Y304262D01*
X797121Y304418D01*
X796805Y304582D01*
X796493Y304754D01*
X796186Y304933D01*
X795883Y305120D01*
X795584Y305314D01*
X795291Y305515D01*
X795002Y305723D01*
X794719Y305939D01*
X794441Y306161D01*
X794169Y306390D01*
X793902Y306626D01*
X793642Y306868D01*
X793387Y307117D01*
X793138Y307372D01*
X792896Y307632D01*
X792660Y307899D01*
X792431Y308171D01*
X792209Y308449D01*
X791993Y308732D01*
X791785Y309021D01*
X791584Y309314D01*
X791390Y309613D01*
X791203Y309916D01*
X791024Y310223D01*
X790852Y310535D01*
X790688Y310851D01*
X790532Y311170D01*
X790384Y311494D01*
X790244Y311821D01*
X790112Y312152D01*
X789988Y312485D01*
X789872Y312822D01*
X789764Y313161D01*
X789665Y313503D01*
X789575Y313847D01*
X789492Y314193D01*
X789419Y314541D01*
X789353Y314891D01*
X789297Y315242D01*
X789249Y315595D01*
X789210Y315949D01*
X789179Y316303D01*
X789157Y316659D01*
X789144Y317014D01*
X789140Y317370D01*
X789140Y352370D02*
X789144Y352726D01*
X789157Y353081D01*
X789179Y353437D01*
X789210Y353791D01*
X789249Y354145D01*
X789297Y354498D01*
X789353Y354849D01*
X789419Y355199D01*
X789492Y355547D01*
X789575Y355893D01*
X789665Y356237D01*
X789764Y356579D01*
X789872Y356918D01*
X789988Y357255D01*
X790112Y357588D01*
X790244Y357919D01*
X790384Y358246D01*
X790532Y358570D01*
X790688Y358889D01*
X790852Y359205D01*
X791024Y359517D01*
X791203Y359824D01*
X791390Y360127D01*
X791584Y360426D01*
X791785Y360719D01*
X791993Y361008D01*
X792209Y361291D01*
X792431Y361569D01*
X792660Y361841D01*
X792896Y362108D01*
X793138Y362368D01*
X793387Y362623D01*
X793642Y362872D01*
X793902Y363114D01*
X794169Y363350D01*
X794441Y363579D01*
X794719Y363801D01*
X795002Y364017D01*
X795291Y364225D01*
X795584Y364426D01*
X795883Y364620D01*
X796186Y364807D01*
X796493Y364986D01*
X796805Y365158D01*
X797121Y365322D01*
X797440Y365478D01*
X797764Y365626D01*
X798091Y365766D01*
X798422Y365898D01*
X798755Y366022D01*
X799092Y366138D01*
X799431Y366246D01*
X799773Y366345D01*
X800117Y366435D01*
X800463Y366518D01*
X800811Y366591D01*
X801161Y366657D01*
X801512Y366713D01*
X801865Y366761D01*
X802219Y366800D01*
X802573Y366831D01*
X802929Y366853D01*
X803284Y366866D01*
X803640Y366870D01*
X803996Y366866D01*
X804351Y366853D01*
X804707Y366831D01*
X805061Y366800D01*
X805415Y366761D01*
X805768Y366713D01*
X806119Y366657D01*
X806469Y366591D01*
X806817Y366518D01*
X807163Y366435D01*
X807507Y366345D01*
X807849Y366246D01*
X808188Y366138D01*
X808525Y366022D01*
X808858Y365898D01*
X809189Y365766D01*
X809516Y365626D01*
X809840Y365478D01*
X810159Y365322D01*
X810475Y365158D01*
X810787Y364986D01*
X811094Y364807D01*
X811397Y364620D01*
X811696Y364426D01*
X811989Y364225D01*
X812278Y364017D01*
X812561Y363801D01*
X812839Y363579D01*
X813111Y363350D01*
X813378Y363114D01*
X813638Y362872D01*
X813893Y362623D01*
X814142Y362368D01*
X814384Y362108D01*
X814620Y361841D01*
X814849Y361569D01*
X815071Y361291D01*
X815287Y361008D01*
X815495Y360719D01*
X815696Y360426D01*
X815890Y360127D01*
X816077Y359824D01*
X816256Y359517D01*
X816428Y359205D01*
X816592Y358889D01*
X816748Y358570D01*
X816896Y358246D01*
X817036Y357919D01*
X817168Y357588D01*
X817292Y357255D01*
X817408Y356918D01*
X817516Y356579D01*
X817615Y356237D01*
X817705Y355893D01*
X817788Y355547D01*
X817861Y355199D01*
X817927Y354849D01*
X817983Y354498D01*
X818031Y354145D01*
X818070Y353791D01*
X818101Y353437D01*
X818123Y353081D01*
X818136Y352726D01*
X818140Y352370D01*
X818136Y352014D01*
X818123Y351659D01*
X818101Y351303D01*
X818070Y350949D01*
X818031Y350595D01*
X817983Y350242D01*
X817927Y349891D01*
X817861Y349541D01*
X817788Y349193D01*
X817705Y348847D01*
X817615Y348503D01*
X817516Y348161D01*
X817408Y347822D01*
X817292Y347485D01*
X817168Y347152D01*
X817036Y346821D01*
X816896Y346494D01*
X816748Y346170D01*
X816592Y345851D01*
X816428Y345535D01*
X816256Y345223D01*
X816077Y344916D01*
X815890Y344613D01*
X815696Y344314D01*
X815495Y344021D01*
X815287Y343732D01*
X815071Y343449D01*
X814849Y343171D01*
X814620Y342899D01*
X814384Y342632D01*
X814142Y342372D01*
X813893Y342117D01*
X813638Y341868D01*
X813378Y341626D01*
X813111Y341390D01*
X812839Y341161D01*
X812561Y340939D01*
X812278Y340723D01*
X811989Y340515D01*
X811696Y340314D01*
X811397Y340120D01*
X811094Y339933D01*
X810787Y339754D01*
X810475Y339582D01*
X810159Y339418D01*
X809840Y339262D01*
X809516Y339114D01*
X809189Y338974D01*
X808858Y338842D01*
X808525Y338718D01*
X808188Y338602D01*
X807849Y338494D01*
X807507Y338395D01*
X807163Y338305D01*
X806817Y338222D01*
X806469Y338149D01*
X806119Y338083D01*
X805768Y338027D01*
X805415Y337979D01*
X805061Y337940D01*
X804707Y337909D01*
X804351Y337887D01*
X803996Y337874D01*
X803640Y337870D01*
X803284Y337874D01*
X802929Y337887D01*
X802573Y337909D01*
X802219Y337940D01*
X801865Y337979D01*
X801512Y338027D01*
X801161Y338083D01*
X800811Y338149D01*
X800463Y338222D01*
X800117Y338305D01*
X799773Y338395D01*
X799431Y338494D01*
X799092Y338602D01*
X798755Y338718D01*
X798422Y338842D01*
X798091Y338974D01*
X797764Y339114D01*
X797440Y339262D01*
X797121Y339418D01*
X796805Y339582D01*
X796493Y339754D01*
X796186Y339933D01*
X795883Y340120D01*
X795584Y340314D01*
X795291Y340515D01*
X795002Y340723D01*
X794719Y340939D01*
X794441Y341161D01*
X794169Y341390D01*
X793902Y341626D01*
X793642Y341868D01*
X793387Y342117D01*
X793138Y342372D01*
X792896Y342632D01*
X792660Y342899D01*
X792431Y343171D01*
X792209Y343449D01*
X791993Y343732D01*
X791785Y344021D01*
X791584Y344314D01*
X791390Y344613D01*
X791203Y344916D01*
X791024Y345223D01*
X790852Y345535D01*
X790688Y345851D01*
X790532Y346170D01*
X790384Y346494D01*
X790244Y346821D01*
X790112Y347152D01*
X789988Y347485D01*
X789872Y347822D01*
X789764Y348161D01*
X789665Y348503D01*
X789575Y348847D01*
X789492Y349193D01*
X789419Y349541D01*
X789353Y349891D01*
X789297Y350242D01*
X789249Y350595D01*
X789210Y350949D01*
X789179Y351303D01*
X789157Y351659D01*
X789144Y352014D01*
X789140Y352370D01*
X768213Y107276D02*
X772111Y103378D01*
X768213Y107276D02*
X779907Y107276D01*
X779907Y103378D02*
X779907Y111174D01*
X779907Y138303D02*
X779907Y146099D01*
X779907Y138303D02*
X772111Y146099D01*
X770162Y146099D01*
X768213Y144150D01*
X768213Y140252D01*
X770162Y138303D01*
X770162Y173228D02*
X768213Y175177D01*
X768213Y179075D01*
X770162Y181024D01*
X772111Y181024D01*
X774060Y179075D01*
X774060Y177126D01*
X774060Y179075D02*
X776009Y181024D01*
X777958Y181024D01*
X779907Y179075D01*
X779907Y175177D01*
X777958Y173228D01*
X779907Y214000D02*
X768213Y214000D01*
X774060Y208153D01*
X774060Y215949D01*
X768213Y243078D02*
X768213Y250874D01*
X768213Y243078D02*
X774060Y243078D01*
X772111Y246976D01*
X772111Y248925D01*
X774060Y250874D01*
X777958Y250874D01*
X779907Y248925D01*
X779907Y245027D01*
X777958Y243078D01*
X770162Y281901D02*
X768213Y285799D01*
X770162Y281901D02*
X774060Y278003D01*
X777958Y278003D01*
X779907Y279952D01*
X779907Y283850D01*
X777958Y285799D01*
X776009Y285799D01*
X774060Y283850D01*
X774060Y278003D01*
X768213Y312928D02*
X768213Y320724D01*
X770162Y320724D01*
X777958Y312928D01*
X779907Y312928D01*
X770162Y347853D02*
X768213Y349802D01*
X768213Y353700D01*
X770162Y355649D01*
X772111Y355649D01*
X774060Y353700D01*
X776009Y355649D01*
X777958Y355649D01*
X779907Y353700D01*
X779907Y349802D01*
X777958Y347853D01*
X776009Y347853D01*
X774060Y349802D01*
X772111Y347853D01*
X770162Y347853D01*
X774060Y349802D02*
X774060Y353700D01*
D187*
X849620Y379131D02*
X849620Y469130D01*
X757621Y469130D01*
X757621Y379131D01*
X849620Y379131D01*
X820420Y379730D02*
X820420Y468630D01*
D191*
X201600Y476160D02*
X27000Y476160D01*
X27000Y560160D01*
X54920Y560160D01*
X54920Y557160D01*
X69710Y557160D01*
X69710Y560160D01*
X95470Y560160D01*
X95470Y544660D01*
X133130Y544660D01*
X133130Y560160D01*
X95470Y560160D01*
X133130Y560160D02*
X201600Y560160D01*
X201600Y476160D01*
X190350Y485410D02*
X38250Y485410D01*
X38250Y550910D01*
X95470Y550910D01*
X133130Y550910D02*
X190350Y550910D01*
X190350Y485410D01*
D187*
X525900Y51340D02*
X525900Y21340D01*
X540900Y36340D02*
X510900Y36340D01*
D188*
X760850Y10940D02*
X773550Y10940D01*
X760850Y10940D02*
X754500Y17290D01*
X748150Y10940D01*
X735450Y10940D01*
X729100Y17290D01*
X773550Y10940D02*
X779900Y17290D01*
X729100Y17290D02*
X722750Y10940D01*
X710050Y10940D01*
X703700Y17290D01*
X697350Y10940D02*
X684650Y10940D01*
X678300Y17290D01*
X671950Y10940D01*
X659250Y10940D01*
X652900Y17290D01*
X697350Y10940D02*
X703700Y17290D01*
X652900Y17290D02*
X646550Y10940D01*
X633850Y10940D01*
X627500Y17290D01*
X754500Y55390D02*
X760850Y61740D01*
X735450Y61740D02*
X729100Y55390D01*
X735450Y61740D02*
X748150Y61740D01*
X754500Y55390D01*
X779900Y55390D02*
X779900Y17290D01*
X779900Y55390D02*
X773550Y61740D01*
X760850Y61740D01*
X710050Y61740D02*
X703700Y55390D01*
X710050Y61740D02*
X722750Y61740D01*
X729100Y55390D01*
X684650Y61740D02*
X678300Y55390D01*
X659250Y61740D02*
X652900Y55390D01*
X659250Y61740D02*
X671950Y61740D01*
X678300Y55390D01*
X697350Y61740D02*
X703700Y55390D01*
X697350Y61740D02*
X684650Y61740D01*
X633850Y61740D02*
X627500Y55390D01*
X633850Y61740D02*
X646550Y61740D01*
X652900Y55390D01*
X608450Y10940D02*
X602100Y17290D01*
X608450Y10940D02*
X621150Y10940D01*
X627500Y17290D01*
X627500Y55390D02*
X621150Y61740D01*
X608450Y61740D01*
X602100Y55390D01*
X595750Y10940D02*
X583050Y10940D01*
X576700Y17290D01*
X570350Y10940D01*
X557650Y10940D01*
X551300Y17290D01*
X595750Y10940D02*
X602100Y17290D01*
X551300Y17290D02*
X544950Y10940D01*
X532250Y10940D01*
X525900Y17290D01*
X519550Y10940D02*
X506850Y10940D01*
X500500Y17290D01*
X494150Y10940D01*
X481450Y10940D01*
X475100Y17290D01*
X519550Y10940D02*
X525900Y17290D01*
X475100Y17290D02*
X468750Y10940D01*
X456050Y10940D01*
X449700Y17290D01*
X576700Y55390D02*
X583050Y61740D01*
X557650Y61740D02*
X551300Y55390D01*
X557650Y61740D02*
X570350Y61740D01*
X576700Y55390D01*
X595750Y61740D02*
X602100Y55390D01*
X595750Y61740D02*
X583050Y61740D01*
X532250Y61740D02*
X525900Y55390D01*
X532250Y61740D02*
X544950Y61740D01*
X551300Y55390D01*
X506850Y61740D02*
X500500Y55390D01*
X481450Y61740D02*
X475100Y55390D01*
X481450Y61740D02*
X494150Y61740D01*
X500500Y55390D01*
X519550Y61740D02*
X525900Y55390D01*
X519550Y61740D02*
X506850Y61740D01*
X456050Y61740D02*
X449700Y55390D01*
X456050Y61740D02*
X468750Y61740D01*
X475100Y55390D01*
X430650Y10940D02*
X424300Y17290D01*
X430650Y10940D02*
X443350Y10940D01*
X449700Y17290D01*
X449700Y55390D02*
X443350Y61740D01*
X430650Y61740D01*
X424300Y55390D01*
X417950Y10940D02*
X405250Y10940D01*
X398900Y17290D01*
X392550Y10940D01*
X379850Y10940D01*
X373500Y17290D01*
X417950Y10940D02*
X424300Y17290D01*
X373500Y17290D02*
X367150Y10940D01*
X354450Y10940D01*
X348100Y17290D01*
X341750Y10940D02*
X329050Y10940D01*
X322700Y17290D01*
X316350Y10940D01*
X303650Y10940D01*
X297300Y17290D01*
X341750Y10940D02*
X348100Y17290D01*
X297300Y17290D02*
X290950Y10940D01*
X278250Y10940D01*
X398900Y55390D02*
X405250Y61740D01*
X379850Y61740D02*
X373500Y55390D01*
X379850Y61740D02*
X392550Y61740D01*
X398900Y55390D01*
X417950Y61740D02*
X424300Y55390D01*
X417950Y61740D02*
X405250Y61740D01*
X354450Y61740D02*
X348100Y55390D01*
X354450Y61740D02*
X367150Y61740D01*
X373500Y55390D01*
X329050Y61740D02*
X322700Y55390D01*
X303650Y61740D02*
X297300Y55390D01*
X303650Y61740D02*
X316350Y61740D01*
X322700Y55390D01*
X341750Y61740D02*
X348100Y55390D01*
X341750Y61740D02*
X329050Y61740D01*
X290950Y61740D02*
X278250Y61740D01*
X290950Y61740D02*
X297300Y55390D01*
X271900Y55390D02*
X271900Y17290D01*
X278250Y10940D01*
X271900Y55390D02*
X278250Y61740D01*
D187*
X336720Y248760D02*
X336720Y468760D01*
X336720Y248760D02*
X166720Y248760D01*
X166720Y468760D01*
X336720Y468760D01*
D185*
X313438Y274414D02*
X311574Y274414D01*
X312506Y274414D02*
X312506Y280007D01*
X311574Y280007D02*
X313438Y280007D01*
X315316Y280007D02*
X315316Y274414D01*
X319045Y274414D02*
X315316Y280007D01*
X319045Y280007D02*
X319045Y274414D01*
X320929Y277210D02*
X324658Y277210D01*
X322793Y275346D02*
X322793Y279075D01*
X181358Y274414D02*
X179494Y274414D01*
X180426Y274414D02*
X180426Y280007D01*
X179494Y280007D02*
X181358Y280007D01*
X183236Y280007D02*
X183236Y274414D01*
X186965Y274414D02*
X183236Y280007D01*
X186965Y280007D02*
X186965Y274414D01*
X188849Y277210D02*
X192578Y277210D01*
X305294Y441551D02*
X307158Y441551D01*
X305294Y441551D02*
X304362Y440619D01*
X304362Y436890D01*
X305294Y435958D01*
X307158Y435958D01*
X308090Y436890D01*
X308090Y440619D01*
X307158Y441551D01*
X309975Y441551D02*
X309975Y436890D01*
X310907Y435958D01*
X312771Y435958D01*
X313703Y436890D01*
X313703Y441551D01*
X317452Y441551D02*
X317452Y435958D01*
X315588Y441551D02*
X319316Y441551D01*
X321201Y438754D02*
X324929Y438754D01*
X323065Y440619D02*
X323065Y436890D01*
X175078Y441551D02*
X173214Y441551D01*
X172282Y440619D01*
X172282Y436890D01*
X173214Y435958D01*
X175078Y435958D01*
X176010Y436890D01*
X176010Y440619D01*
X175078Y441551D01*
X177895Y441551D02*
X177895Y436890D01*
X178827Y435958D01*
X180691Y435958D01*
X181623Y436890D01*
X181623Y441551D01*
X185372Y441551D02*
X185372Y435958D01*
X183508Y441551D02*
X187236Y441551D01*
X189121Y438754D02*
X192849Y438754D01*
D187*
X512480Y468640D02*
X512480Y248640D01*
X342480Y248640D01*
X342480Y468640D01*
X512480Y468640D01*
D185*
X489198Y274294D02*
X487334Y274294D01*
X488266Y274294D02*
X488266Y279887D01*
X487334Y279887D02*
X489198Y279887D01*
X491076Y279887D02*
X491076Y274294D01*
X494805Y274294D02*
X491076Y279887D01*
X494805Y279887D02*
X494805Y274294D01*
X496689Y277090D02*
X500418Y277090D01*
X498553Y275226D02*
X498553Y278955D01*
X357118Y274294D02*
X355254Y274294D01*
X356186Y274294D02*
X356186Y279887D01*
X355254Y279887D02*
X357118Y279887D01*
X358996Y279887D02*
X358996Y274294D01*
X362725Y274294D02*
X358996Y279887D01*
X362725Y279887D02*
X362725Y274294D01*
X364609Y277090D02*
X368338Y277090D01*
X481054Y441431D02*
X482918Y441431D01*
X481054Y441431D02*
X480122Y440499D01*
X480122Y436770D01*
X481054Y435838D01*
X482918Y435838D01*
X483850Y436770D01*
X483850Y440499D01*
X482918Y441431D01*
X485735Y441431D02*
X485735Y436770D01*
X486667Y435838D01*
X488531Y435838D01*
X489463Y436770D01*
X489463Y441431D01*
X493212Y441431D02*
X493212Y435838D01*
X491348Y441431D02*
X495076Y441431D01*
X496961Y438634D02*
X500689Y438634D01*
X498825Y440499D02*
X498825Y436770D01*
X350838Y441431D02*
X348974Y441431D01*
X348042Y440499D01*
X348042Y436770D01*
X348974Y435838D01*
X350838Y435838D01*
X351770Y436770D01*
X351770Y440499D01*
X350838Y441431D01*
X353655Y441431D02*
X353655Y436770D01*
X354587Y435838D01*
X356451Y435838D01*
X357383Y436770D01*
X357383Y441431D01*
X361132Y441431D02*
X361132Y435838D01*
X359268Y441431D02*
X362996Y441431D01*
X364881Y438634D02*
X368609Y438634D01*
D187*
X292480Y72540D02*
X512480Y72540D01*
X292480Y72540D02*
X292480Y242540D01*
X512480Y242540D01*
X512480Y72540D01*
D185*
X323722Y83226D02*
X323722Y85090D01*
X323722Y84158D02*
X318129Y84158D01*
X318129Y83226D02*
X318129Y85090D01*
X318129Y86968D02*
X323722Y86968D01*
X323722Y90696D02*
X318129Y86968D01*
X318129Y90696D02*
X323722Y90696D01*
X320926Y92581D02*
X320926Y96309D01*
X319061Y94445D02*
X322790Y94445D01*
X323722Y215306D02*
X323722Y217170D01*
X323722Y216238D02*
X318129Y216238D01*
X318129Y215306D02*
X318129Y217170D01*
X318129Y219048D02*
X323722Y219048D01*
X323722Y222776D02*
X318129Y219048D01*
X318129Y222776D02*
X323722Y222776D01*
X320926Y224661D02*
X320926Y228389D01*
X479673Y85750D02*
X479673Y83886D01*
X480605Y82954D01*
X484334Y82954D01*
X485266Y83886D01*
X485266Y85750D01*
X484334Y86683D01*
X480605Y86683D01*
X479673Y85750D01*
X479673Y88567D02*
X484334Y88567D01*
X485266Y89499D01*
X485266Y91363D01*
X484334Y92296D01*
X479673Y92296D01*
X479673Y96044D02*
X485266Y96044D01*
X479673Y94180D02*
X479673Y97909D01*
X482470Y99793D02*
X482470Y103522D01*
X480605Y101658D02*
X484334Y101658D01*
X479673Y215966D02*
X479673Y217830D01*
X479673Y215966D02*
X480605Y215034D01*
X484334Y215034D01*
X485266Y215966D01*
X485266Y217830D01*
X484334Y218763D01*
X480605Y218763D01*
X479673Y217830D01*
X479673Y220647D02*
X484334Y220647D01*
X485266Y221579D01*
X485266Y223443D01*
X484334Y224376D01*
X479673Y224376D01*
X479673Y228124D02*
X485266Y228124D01*
X479673Y226260D02*
X479673Y229989D01*
X482470Y231873D02*
X482470Y235602D01*
D191*
X57548Y358803D02*
X10812Y358803D01*
X61358Y323687D02*
X61374Y323574D01*
X61385Y323460D01*
X61392Y323346D01*
X61396Y323232D01*
X61395Y323117D01*
X61391Y323003D01*
X61383Y322889D01*
X61371Y322775D01*
X61355Y322662D01*
X61335Y322550D01*
X61311Y322438D01*
X61284Y322327D01*
X61252Y322217D01*
X61217Y322108D01*
X61179Y322000D01*
X61136Y321894D01*
X61090Y321790D01*
X61041Y321686D01*
X60988Y321585D01*
X60932Y321486D01*
X60872Y321388D01*
X60809Y321293D01*
X60742Y321200D01*
X60673Y321109D01*
X60601Y321021D01*
X60525Y320935D01*
X60447Y320851D01*
X60366Y320771D01*
X60282Y320693D01*
X60195Y320618D01*
X60106Y320547D01*
X60015Y320478D01*
X59921Y320412D01*
X59826Y320350D01*
X59728Y320291D01*
X59628Y320235D01*
X59526Y320183D01*
X59423Y320134D01*
X59318Y320089D01*
X59211Y320048D01*
X59103Y320010D01*
X58994Y319975D01*
X58884Y319945D01*
X58773Y319918D01*
X58661Y319896D01*
X58548Y319877D01*
X10812Y358803D02*
X10682Y358786D01*
X10553Y358765D01*
X10424Y358740D01*
X10296Y358712D01*
X10169Y358679D01*
X10043Y358643D01*
X9918Y358602D01*
X9795Y358558D01*
X9673Y358511D01*
X9552Y358459D01*
X9433Y358405D01*
X9316Y358346D01*
X9201Y358284D01*
X9087Y358219D01*
X8975Y358150D01*
X8866Y358077D01*
X8759Y358002D01*
X8654Y357923D01*
X8552Y357841D01*
X8452Y357756D01*
X8355Y357669D01*
X8260Y357578D01*
X8168Y357484D01*
X8079Y357388D01*
X7993Y357289D01*
X7911Y357188D01*
X7831Y357084D01*
X7754Y356977D01*
X7681Y356869D01*
X7611Y356758D01*
X7544Y356645D01*
X7481Y356530D01*
X7421Y356414D01*
X7365Y356295D01*
X7312Y356175D01*
X7263Y356054D01*
X7218Y355931D01*
X7176Y355806D01*
X7138Y355681D01*
X7105Y355554D01*
X7074Y355427D01*
X7048Y355298D01*
X7026Y355169D01*
X7007Y355039D01*
X6993Y354909D01*
X6982Y354778D01*
X6976Y354647D01*
X6973Y354516D01*
X6974Y354385D01*
X6980Y354254D01*
X6989Y354124D01*
X7002Y353993D01*
X57548Y358803D02*
X57670Y358801D01*
X57792Y358795D01*
X57914Y358785D01*
X58035Y358772D01*
X58156Y358754D01*
X58276Y358733D01*
X58396Y358708D01*
X58515Y358679D01*
X58632Y358646D01*
X58749Y358609D01*
X58864Y358569D01*
X58978Y358525D01*
X59090Y358477D01*
X59201Y358426D01*
X59310Y358371D01*
X59418Y358313D01*
X59523Y358251D01*
X59627Y358186D01*
X59728Y358118D01*
X59827Y358047D01*
X59924Y357972D01*
X60018Y357894D01*
X60110Y357814D01*
X60199Y357730D01*
X60285Y357644D01*
X60369Y357555D01*
X60449Y357463D01*
X60527Y357369D01*
X60602Y357272D01*
X60673Y357173D01*
X60741Y357072D01*
X60806Y356968D01*
X60868Y356863D01*
X60926Y356755D01*
X60981Y356646D01*
X61032Y356535D01*
X61080Y356423D01*
X61124Y356309D01*
X61164Y356194D01*
X61201Y356077D01*
X61234Y355960D01*
X61263Y355841D01*
X61288Y355721D01*
X61309Y355601D01*
X61327Y355480D01*
X61340Y355359D01*
X61350Y355237D01*
X61356Y355115D01*
X61358Y354993D01*
X10813Y319877D02*
X10699Y319862D01*
X10585Y319850D01*
X10471Y319843D01*
X10357Y319839D01*
X10243Y319840D01*
X10128Y319844D01*
X10014Y319852D01*
X9901Y319864D01*
X9788Y319880D01*
X9675Y319900D01*
X9563Y319924D01*
X9452Y319951D01*
X9342Y319982D01*
X9233Y320017D01*
X9126Y320056D01*
X9019Y320098D01*
X8915Y320144D01*
X8812Y320194D01*
X8710Y320247D01*
X8611Y320303D01*
X8513Y320363D01*
X8418Y320426D01*
X8325Y320492D01*
X8234Y320562D01*
X8146Y320634D01*
X8060Y320710D01*
X7977Y320788D01*
X7896Y320869D01*
X7818Y320953D01*
X7744Y321039D01*
X7672Y321128D01*
X7603Y321220D01*
X7537Y321313D01*
X7475Y321409D01*
X7416Y321507D01*
X7360Y321607D01*
X7308Y321709D01*
X7260Y321812D01*
X7214Y321917D01*
X7173Y322024D01*
X7135Y322132D01*
X7101Y322241D01*
X7071Y322351D01*
X7044Y322462D01*
X7021Y322574D01*
X7002Y322687D01*
X10812Y319877D02*
X58548Y319877D01*
X61358Y323687D02*
X61358Y354993D01*
X7510Y345436D02*
X7668Y345434D01*
X7827Y345428D01*
X7985Y345418D01*
X8142Y345404D01*
X8300Y345387D01*
X8456Y345365D01*
X8613Y345340D01*
X8768Y345310D01*
X8923Y345277D01*
X9077Y345240D01*
X9230Y345199D01*
X9382Y345154D01*
X9532Y345105D01*
X9682Y345053D01*
X9830Y344997D01*
X9977Y344937D01*
X10122Y344874D01*
X10265Y344807D01*
X10407Y344737D01*
X10547Y344663D01*
X10685Y344585D01*
X10821Y344504D01*
X10955Y344420D01*
X11087Y344333D01*
X11217Y344242D01*
X11344Y344148D01*
X11469Y344051D01*
X11592Y343950D01*
X11712Y343847D01*
X11829Y343741D01*
X11944Y343632D01*
X12056Y343520D01*
X12165Y343405D01*
X12271Y343288D01*
X12374Y343168D01*
X12475Y343045D01*
X12572Y342920D01*
X12666Y342793D01*
X12757Y342663D01*
X12844Y342531D01*
X12928Y342397D01*
X13009Y342261D01*
X13087Y342123D01*
X13161Y341983D01*
X13231Y341841D01*
X13298Y341698D01*
X13361Y341553D01*
X13421Y341406D01*
X13477Y341258D01*
X13529Y341108D01*
X13578Y340958D01*
X13623Y340806D01*
X13664Y340653D01*
X13701Y340499D01*
X13734Y340344D01*
X13764Y340189D01*
X13789Y340032D01*
X13811Y339876D01*
X13828Y339718D01*
X13842Y339561D01*
X13852Y339403D01*
X13858Y339244D01*
X13860Y339086D01*
X13858Y338928D01*
X13852Y338769D01*
X13842Y338611D01*
X13828Y338454D01*
X13811Y338296D01*
X13789Y338140D01*
X13764Y337983D01*
X13734Y337828D01*
X13701Y337673D01*
X13664Y337519D01*
X13623Y337366D01*
X13578Y337214D01*
X13529Y337064D01*
X13477Y336914D01*
X13421Y336766D01*
X13361Y336619D01*
X13298Y336474D01*
X13231Y336331D01*
X13161Y336189D01*
X13087Y336049D01*
X13009Y335911D01*
X12928Y335775D01*
X12844Y335641D01*
X12757Y335509D01*
X12666Y335379D01*
X12572Y335252D01*
X12475Y335127D01*
X12374Y335004D01*
X12271Y334884D01*
X12165Y334767D01*
X12056Y334652D01*
X11944Y334540D01*
X11829Y334431D01*
X11712Y334325D01*
X11592Y334222D01*
X11469Y334121D01*
X11344Y334024D01*
X11217Y333930D01*
X11087Y333839D01*
X10955Y333752D01*
X10821Y333668D01*
X10685Y333587D01*
X10547Y333509D01*
X10407Y333435D01*
X10265Y333365D01*
X10122Y333298D01*
X9977Y333235D01*
X9830Y333175D01*
X9682Y333119D01*
X9532Y333067D01*
X9382Y333018D01*
X9230Y332973D01*
X9077Y332932D01*
X8923Y332895D01*
X8768Y332862D01*
X8613Y332832D01*
X8456Y332807D01*
X8300Y332785D01*
X8142Y332768D01*
X7985Y332754D01*
X7827Y332744D01*
X7668Y332738D01*
X7510Y332736D01*
X7002Y345436D02*
X7002Y353866D01*
X7002Y332736D02*
X7002Y322687D01*
D185*
X63221Y315981D02*
X63221Y311320D01*
X64153Y310388D01*
X66017Y310388D01*
X66949Y311320D01*
X66949Y315981D01*
X71630Y315981D02*
X71630Y310388D01*
X68834Y313184D02*
X71630Y315981D01*
X72562Y313184D02*
X68834Y313184D01*
X72563Y363055D02*
X71630Y363987D01*
X69766Y363987D01*
X68834Y363055D01*
X68834Y359326D01*
X69766Y358394D01*
X71630Y358394D01*
X72563Y359326D01*
X76311Y363055D02*
X78176Y363987D01*
X76311Y363055D02*
X74447Y361190D01*
X74447Y359326D01*
X75379Y358394D01*
X77243Y358394D01*
X78176Y359326D01*
X78176Y360258D01*
X77243Y361190D01*
X74447Y361190D01*
D187*
X525018Y374650D02*
X525018Y483870D01*
X684022Y471678D02*
X684022Y374650D01*
X671830Y483870D02*
X525018Y483870D01*
X525018Y374650D02*
X684022Y374650D01*
X684022Y471678D02*
X671830Y483870D01*
X525018Y245110D02*
X525018Y135890D01*
X684022Y135890D02*
X684022Y232918D01*
X671830Y245110D02*
X525018Y245110D01*
X525018Y135890D02*
X684022Y135890D01*
X684022Y232918D02*
X671830Y245110D01*
D188*
X144780Y455930D02*
X17780Y455930D01*
X144780Y455930D02*
X144780Y392430D01*
X17780Y392430D02*
X17780Y455930D01*
X17780Y468630D02*
X5080Y468630D01*
X157480Y468630D02*
X157480Y379730D01*
X5080Y379730D02*
X5080Y468630D01*
X101600Y400050D02*
X101600Y392430D01*
X101600Y400050D02*
X60960Y400050D01*
X60960Y392430D01*
X17780Y392430D01*
X60960Y392430D02*
X60960Y389890D01*
X144780Y468630D02*
X144780Y471170D01*
X132080Y471170D01*
X132080Y468630D01*
X144780Y468630D02*
X157480Y468630D01*
X87630Y471170D02*
X74930Y471170D01*
X87630Y471170D02*
X87630Y468630D01*
X132080Y468630D01*
X74930Y468630D02*
X74930Y471170D01*
X30480Y471170D02*
X17780Y471170D01*
X17780Y468630D01*
X30480Y468630D02*
X30480Y471170D01*
X30480Y468630D02*
X74930Y468630D01*
X101600Y379730D02*
X157480Y379730D01*
X101600Y379730D02*
X60960Y379730D01*
X101600Y392430D02*
X144780Y392430D01*
X101600Y392430D02*
X101600Y389890D01*
X101600Y379730D01*
D185*
X101600Y389890D02*
X147320Y389890D01*
X147320Y458470D01*
X15240Y458470D01*
X15240Y389890D01*
X60960Y389890D01*
D188*
X60960Y379730D01*
X55880Y379730D01*
X55880Y381000D01*
X43180Y381000D01*
X43180Y379730D01*
X5080Y379730D01*
D187*
X31115Y413392D02*
X34928Y417205D01*
X34928Y405765D01*
X31115Y405765D02*
X38742Y405765D01*
X38742Y431165D02*
X31115Y431165D01*
X38742Y438792D01*
X38742Y440698D01*
X36835Y442605D01*
X33022Y442605D01*
X31115Y440698D01*
X81918Y393708D02*
X85732Y395615D01*
X81918Y393708D02*
X78105Y389895D01*
X78105Y386082D01*
X80012Y384175D01*
X83825Y384175D01*
X85732Y386082D01*
X85732Y387988D01*
X83825Y389895D01*
X78105Y389895D01*
D185*
X107190Y376687D02*
X108123Y375755D01*
X107190Y376687D02*
X105326Y376687D01*
X104394Y375755D01*
X104394Y374823D01*
X105326Y373890D01*
X107190Y373890D01*
X108123Y372958D01*
X108123Y372026D01*
X107190Y371094D01*
X105326Y371094D01*
X104394Y372026D01*
X111871Y371094D02*
X111871Y376687D01*
X110007Y376687D02*
X113736Y376687D01*
X115620Y373890D02*
X119349Y373890D01*
X121233Y371094D02*
X121233Y376687D01*
X121233Y371094D02*
X124962Y371094D01*
X126846Y371094D02*
X128711Y371094D01*
X127779Y371094D02*
X127779Y376687D01*
X128711Y376687D02*
X126846Y376687D01*
X130588Y376687D02*
X130588Y371094D01*
X134317Y371094D02*
X130588Y376687D01*
X134317Y376687D02*
X134317Y371094D01*
X136202Y371094D02*
X136202Y376687D01*
X139930Y376687D02*
X136202Y372958D01*
X137134Y373890D02*
X139930Y371094D01*
X141815Y370162D02*
X145543Y370162D01*
X147428Y372958D02*
X147428Y376687D01*
X147428Y372958D02*
X149292Y371094D01*
X151156Y372958D01*
X151156Y376687D01*
X153041Y371094D02*
X156769Y371094D01*
X153041Y371094D02*
X156769Y374823D01*
X156769Y375755D01*
X155837Y376687D01*
X153973Y376687D01*
X153041Y375755D01*
D191*
X324500Y163860D02*
X324500Y157860D01*
X324500Y163860D02*
X316500Y163860D01*
X324500Y141860D02*
X324500Y135860D01*
X316500Y135860D01*
D185*
X336461Y147143D02*
X340190Y147143D01*
X336461Y147143D02*
X335529Y148075D01*
X335529Y149939D01*
X336461Y150871D01*
X340190Y150871D01*
X341122Y149939D01*
X341122Y148075D01*
X340190Y147143D01*
X339258Y149007D02*
X341122Y150871D01*
X337394Y152756D02*
X335529Y154620D01*
X341122Y154620D01*
X341122Y152756D02*
X341122Y156484D01*
X308864Y197104D02*
X308864Y202697D01*
X311660Y202697D01*
X312593Y201765D01*
X312593Y199900D01*
X311660Y198968D01*
X308864Y198968D01*
X310728Y198968D02*
X312593Y197104D01*
X314477Y201765D02*
X315409Y202697D01*
X317273Y202697D01*
X318206Y201765D01*
X318206Y200833D01*
X317273Y199900D01*
X316341Y199900D01*
X317273Y199900D02*
X318206Y198968D01*
X318206Y198036D01*
X317273Y197104D01*
X315409Y197104D01*
X314477Y198036D01*
D188*
X227330Y486410D02*
X214630Y486410D01*
X227330Y486410D02*
X233680Y480060D01*
X233680Y467360D01*
X227330Y461010D01*
X208280Y467360D02*
X208280Y480060D01*
X214630Y486410D01*
X208280Y467360D02*
X214630Y461010D01*
X227330Y461010D01*
X233680Y480060D02*
X240030Y486410D01*
X252730Y486410D01*
X259080Y480060D01*
X259080Y467360D01*
X252730Y461010D01*
X240030Y461010D01*
X233680Y467360D01*
D187*
X210060Y492633D02*
X208153Y494540D01*
X210060Y492633D02*
X211966Y492633D01*
X213873Y494540D01*
X213873Y504073D01*
X211966Y504073D02*
X215780Y504073D01*
X219847Y504073D02*
X219847Y492633D01*
X219847Y504073D02*
X225567Y504073D01*
X227473Y502166D01*
X227473Y498353D01*
X225567Y496446D01*
X219847Y496446D01*
X231541Y500260D02*
X235354Y504073D01*
X235354Y492633D01*
X231541Y492633D02*
X239167Y492633D01*
M02*
