G04 EAGLE Gerber RS-274X export*
G75*
%MOMM*%
%FSLAX34Y34*%
%LPD*%
%AMOC8*
5,1,8,0,0,1.08239X$1,22.5*%
G01*
%ADD10C,0.050800*%


D10*
X323678Y490055D02*
X324610Y490987D01*
X326474Y490987D01*
X327406Y490055D01*
X327406Y486326D01*
X326474Y485394D01*
X324610Y485394D01*
X323678Y486326D01*
X323678Y488190D01*
X325542Y488190D01*
X321793Y485394D02*
X321793Y490987D01*
X318064Y485394D01*
X318064Y490987D01*
X316180Y490987D02*
X316180Y485394D01*
X313383Y485394D01*
X312451Y486326D01*
X312451Y490055D01*
X313383Y490987D01*
X316180Y490987D01*
X322408Y551015D02*
X323340Y551947D01*
X325204Y551947D01*
X326136Y551015D01*
X326136Y547286D01*
X325204Y546354D01*
X323340Y546354D01*
X322408Y547286D01*
X322408Y549150D01*
X324272Y549150D01*
X320523Y546354D02*
X320523Y551947D01*
X316794Y546354D01*
X316794Y551947D01*
X314910Y551947D02*
X314910Y546354D01*
X312113Y546354D01*
X311181Y547286D01*
X311181Y551015D01*
X312113Y551947D01*
X314910Y551947D01*
X350942Y490987D02*
X350942Y485394D01*
X352806Y490987D02*
X349078Y490987D01*
X347193Y485394D02*
X345329Y485394D01*
X346261Y485394D02*
X346261Y490987D01*
X347193Y490987D02*
X345329Y490987D01*
X343451Y490987D02*
X343451Y485394D01*
X341587Y489123D02*
X343451Y490987D01*
X341587Y489123D02*
X339722Y490987D01*
X339722Y485394D01*
X337838Y490055D02*
X336906Y490987D01*
X335041Y490987D01*
X334109Y490055D01*
X334109Y489123D01*
X335041Y488190D01*
X335974Y488190D01*
X335041Y488190D02*
X334109Y487258D01*
X334109Y486326D01*
X335041Y485394D01*
X336906Y485394D01*
X337838Y486326D01*
X376342Y485394D02*
X376342Y490987D01*
X378206Y490987D02*
X374478Y490987D01*
X372593Y485394D02*
X370729Y485394D01*
X371661Y485394D02*
X371661Y490987D01*
X372593Y490987D02*
X370729Y490987D01*
X368851Y490987D02*
X368851Y485394D01*
X366987Y489123D02*
X368851Y490987D01*
X366987Y489123D02*
X365122Y490987D01*
X365122Y485394D01*
X363238Y489123D02*
X361374Y490987D01*
X361374Y485394D01*
X363238Y485394D02*
X359509Y485394D01*
X410038Y490055D02*
X410970Y490987D01*
X412834Y490987D01*
X413766Y490055D01*
X413766Y489123D01*
X412834Y488190D01*
X410970Y488190D01*
X410038Y487258D01*
X410038Y486326D01*
X410970Y485394D01*
X412834Y485394D01*
X413766Y486326D01*
X408153Y485394D02*
X408153Y490987D01*
X408153Y485394D02*
X405357Y485394D01*
X404424Y486326D01*
X404424Y490055D01*
X405357Y490987D01*
X408153Y490987D01*
X402540Y489123D02*
X402540Y485394D01*
X402540Y489123D02*
X400676Y490987D01*
X398811Y489123D01*
X398811Y485394D01*
X398811Y488190D02*
X402540Y488190D01*
X396927Y485394D02*
X393198Y490987D01*
X391314Y490987D02*
X391314Y485394D01*
X391314Y490987D02*
X388517Y490987D01*
X387585Y490055D01*
X387585Y488190D01*
X388517Y487258D01*
X391314Y487258D01*
X389449Y487258D02*
X387585Y485394D01*
X381972Y485394D02*
X385701Y490987D01*
X381972Y490987D02*
X385701Y485394D01*
X444328Y488190D02*
X448056Y488190D01*
X446192Y490055D02*
X446192Y486326D01*
X442443Y490987D02*
X438714Y490987D01*
X438714Y490055D01*
X442443Y486326D01*
X442443Y485394D01*
X436830Y487258D02*
X436830Y490987D01*
X436830Y487258D02*
X434966Y485394D01*
X433101Y487258D01*
X433101Y490987D01*
X427488Y490987D02*
X431217Y485394D01*
X425604Y485394D02*
X421875Y485394D01*
X425604Y485394D02*
X421875Y489123D01*
X421875Y490055D01*
X422807Y490987D01*
X424672Y490987D01*
X425604Y490055D01*
X436708Y549150D02*
X440436Y549150D01*
X438572Y551015D02*
X438572Y547286D01*
X434823Y551947D02*
X431094Y551947D01*
X431094Y551015D01*
X434823Y547286D01*
X434823Y546354D01*
X429210Y548218D02*
X429210Y551947D01*
X429210Y548218D02*
X427346Y546354D01*
X425481Y548218D01*
X425481Y551947D01*
X419868Y551947D02*
X423597Y546354D01*
X417984Y550083D02*
X416119Y551947D01*
X416119Y546354D01*
X414255Y546354D02*
X417984Y546354D01*
X407416Y549150D02*
X403688Y549150D01*
X405552Y551015D02*
X405552Y547286D01*
X401803Y551947D02*
X398074Y551947D01*
X401803Y551947D02*
X401803Y549150D01*
X399939Y550083D01*
X399007Y550083D01*
X398074Y549150D01*
X398074Y547286D01*
X399007Y546354D01*
X400871Y546354D01*
X401803Y547286D01*
X396190Y548218D02*
X396190Y551947D01*
X396190Y548218D02*
X394326Y546354D01*
X392461Y548218D01*
X392461Y551947D01*
X350942Y551947D02*
X350942Y546354D01*
X352806Y551947D02*
X349078Y551947D01*
X347193Y546354D02*
X345329Y546354D01*
X346261Y546354D02*
X346261Y551947D01*
X347193Y551947D02*
X345329Y551947D01*
X343451Y551947D02*
X343451Y546354D01*
X341587Y550083D02*
X343451Y551947D01*
X341587Y550083D02*
X339722Y551947D01*
X339722Y546354D01*
X337838Y546354D02*
X334109Y546354D01*
X337838Y546354D02*
X334109Y550083D01*
X334109Y551015D01*
X335041Y551947D01*
X336906Y551947D01*
X337838Y551015D01*
X383368Y551015D02*
X384300Y551947D01*
X386164Y551947D01*
X387096Y551015D01*
X387096Y550083D01*
X386164Y549150D01*
X384300Y549150D01*
X383368Y548218D01*
X383368Y547286D01*
X384300Y546354D01*
X386164Y546354D01*
X387096Y547286D01*
X378687Y551947D02*
X377754Y551015D01*
X378687Y551947D02*
X380551Y551947D01*
X381483Y551015D01*
X381483Y547286D01*
X380551Y546354D01*
X378687Y546354D01*
X377754Y547286D01*
X375870Y546354D02*
X375870Y551947D01*
X375870Y546354D02*
X372141Y546354D01*
X370257Y546354D02*
X366528Y551947D01*
X362779Y551947D02*
X362779Y546354D01*
X364644Y551947D02*
X360915Y551947D01*
X359031Y551947D02*
X355302Y546354D01*
X359031Y546354D02*
X355302Y551947D01*
X78230Y492257D02*
X77298Y491325D01*
X78230Y492257D02*
X80094Y492257D01*
X81026Y491325D01*
X81026Y487596D01*
X80094Y486664D01*
X78230Y486664D01*
X77298Y487596D01*
X77298Y489460D01*
X79162Y489460D01*
X75413Y486664D02*
X75413Y492257D01*
X71684Y486664D01*
X71684Y492257D01*
X69800Y492257D02*
X69800Y486664D01*
X67003Y486664D01*
X66071Y487596D01*
X66071Y491325D01*
X67003Y492257D01*
X69800Y492257D01*
X110236Y492257D02*
X110236Y486664D01*
X108372Y490393D02*
X110236Y492257D01*
X108372Y490393D02*
X106508Y492257D01*
X106508Y486664D01*
X103691Y492257D02*
X101827Y492257D01*
X103691Y492257D02*
X104623Y491325D01*
X104623Y487596D01*
X103691Y486664D01*
X101827Y486664D01*
X100894Y487596D01*
X100894Y491325D01*
X101827Y492257D01*
X96213Y492257D02*
X95281Y491325D01*
X96213Y492257D02*
X98078Y492257D01*
X99010Y491325D01*
X99010Y490393D01*
X98078Y489460D01*
X96213Y489460D01*
X95281Y488528D01*
X95281Y487596D01*
X96213Y486664D01*
X98078Y486664D01*
X99010Y487596D01*
X93397Y486664D02*
X91532Y486664D01*
X92465Y486664D02*
X92465Y492257D01*
X93397Y492257D02*
X91532Y492257D01*
X140716Y492257D02*
X140716Y486664D01*
X137920Y486664D01*
X136988Y487596D01*
X136988Y491325D01*
X137920Y492257D01*
X140716Y492257D01*
X135103Y490393D02*
X135103Y486664D01*
X135103Y490393D02*
X133239Y492257D01*
X131374Y490393D01*
X131374Y486664D01*
X131374Y489460D02*
X135103Y489460D01*
X127626Y486664D02*
X127626Y492257D01*
X129490Y492257D02*
X125761Y492257D01*
X123877Y490393D02*
X123877Y486664D01*
X123877Y490393D02*
X122012Y492257D01*
X120148Y490393D01*
X120148Y486664D01*
X120148Y489460D02*
X123877Y489460D01*
X118264Y489460D02*
X114535Y489460D01*
X116399Y491325D02*
X116399Y487596D01*
X161118Y489460D02*
X164846Y489460D01*
X162982Y491325D02*
X162982Y487596D01*
X159233Y492257D02*
X155504Y492257D01*
X159233Y492257D02*
X159233Y489460D01*
X157369Y490393D01*
X156437Y490393D01*
X155504Y489460D01*
X155504Y487596D01*
X156437Y486664D01*
X158301Y486664D01*
X159233Y487596D01*
X153620Y488528D02*
X153620Y492257D01*
X153620Y488528D02*
X151756Y486664D01*
X149891Y488528D01*
X149891Y492257D01*
X158578Y549745D02*
X159510Y550677D01*
X161374Y550677D01*
X162306Y549745D01*
X162306Y546016D01*
X161374Y545084D01*
X159510Y545084D01*
X158578Y546016D01*
X158578Y547880D01*
X160442Y547880D01*
X156693Y545084D02*
X156693Y550677D01*
X152964Y545084D01*
X152964Y550677D01*
X151080Y550677D02*
X151080Y545084D01*
X148283Y545084D01*
X147351Y546016D01*
X147351Y549745D01*
X148283Y550677D01*
X151080Y550677D01*
X139446Y550677D02*
X139446Y545084D01*
X136650Y545084D01*
X135718Y546016D01*
X135718Y549745D01*
X136650Y550677D01*
X139446Y550677D01*
X133833Y548813D02*
X133833Y545084D01*
X133833Y548813D02*
X131969Y550677D01*
X130104Y548813D01*
X130104Y545084D01*
X130104Y547880D02*
X133833Y547880D01*
X126356Y545084D02*
X126356Y550677D01*
X128220Y550677D02*
X124491Y550677D01*
X122607Y548813D02*
X122607Y545084D01*
X122607Y548813D02*
X120742Y550677D01*
X118878Y548813D01*
X118878Y545084D01*
X118878Y547880D02*
X122607Y547880D01*
X116994Y547880D02*
X113265Y547880D01*
X108966Y545084D02*
X108966Y550677D01*
X107102Y548813D01*
X105238Y550677D01*
X105238Y545084D01*
X103353Y545084D02*
X101489Y545084D01*
X102421Y545084D02*
X102421Y550677D01*
X103353Y550677D02*
X101489Y550677D01*
X96814Y550677D02*
X95882Y549745D01*
X96814Y550677D02*
X98679Y550677D01*
X99611Y549745D01*
X99611Y548813D01*
X98679Y547880D01*
X96814Y547880D01*
X95882Y546948D01*
X95882Y546016D01*
X96814Y545084D01*
X98679Y545084D01*
X99611Y546016D01*
X93066Y550677D02*
X91201Y550677D01*
X93066Y550677D02*
X93998Y549745D01*
X93998Y546016D01*
X93066Y545084D01*
X91201Y545084D01*
X90269Y546016D01*
X90269Y549745D01*
X91201Y550677D01*
X78230Y550677D02*
X77298Y549745D01*
X78230Y550677D02*
X80094Y550677D01*
X81026Y549745D01*
X81026Y546016D01*
X80094Y545084D01*
X78230Y545084D01*
X77298Y546016D01*
X75413Y545084D02*
X75413Y550677D01*
X75413Y545084D02*
X71684Y545084D01*
X69800Y545084D02*
X69800Y550677D01*
X69800Y546948D02*
X66071Y550677D01*
X68868Y547880D02*
X66071Y545084D01*
X825754Y311404D02*
X831347Y311404D01*
X829483Y313268D01*
X831347Y315133D01*
X825754Y315133D01*
X829483Y317017D02*
X831347Y318881D01*
X825754Y318881D01*
X825754Y317017D02*
X825754Y320746D01*
X829483Y322630D02*
X831347Y324494D01*
X825754Y324494D01*
X825754Y322630D02*
X825754Y326359D01*
X825754Y345694D02*
X831347Y345694D01*
X829483Y347558D01*
X831347Y349423D01*
X825754Y349423D01*
X829483Y351307D02*
X831347Y353171D01*
X825754Y353171D01*
X825754Y351307D02*
X825754Y355036D01*
X825754Y356920D02*
X825754Y360649D01*
X825754Y356920D02*
X829483Y360649D01*
X830415Y360649D01*
X831347Y359717D01*
X831347Y357852D01*
X830415Y356920D01*
X831347Y279654D02*
X825754Y279654D01*
X829483Y281518D02*
X831347Y279654D01*
X829483Y281518D02*
X831347Y283383D01*
X825754Y283383D01*
X825754Y285267D02*
X825754Y288996D01*
X825754Y285267D02*
X829483Y288996D01*
X830415Y288996D01*
X831347Y288063D01*
X831347Y286199D01*
X830415Y285267D01*
X825754Y290880D02*
X825754Y294609D01*
X825754Y290880D02*
X829483Y294609D01*
X830415Y294609D01*
X831347Y293677D01*
X831347Y291812D01*
X830415Y290880D01*
X831347Y241554D02*
X825754Y241554D01*
X829483Y243418D02*
X831347Y241554D01*
X829483Y243418D02*
X831347Y245283D01*
X825754Y245283D01*
X825754Y247167D02*
X825754Y250896D01*
X825754Y247167D02*
X829483Y250896D01*
X830415Y250896D01*
X831347Y249963D01*
X831347Y248099D01*
X830415Y247167D01*
X829483Y252780D02*
X831347Y254644D01*
X825754Y254644D01*
X825754Y252780D02*
X825754Y256509D01*
X824484Y205994D02*
X830077Y205994D01*
X828213Y207858D01*
X830077Y209723D01*
X824484Y209723D01*
X829145Y211607D02*
X830077Y212539D01*
X830077Y214403D01*
X829145Y215336D01*
X828213Y215336D01*
X827280Y214403D01*
X827280Y213471D01*
X827280Y214403D02*
X826348Y215336D01*
X825416Y215336D01*
X824484Y214403D01*
X824484Y212539D01*
X825416Y211607D01*
X824484Y217220D02*
X824484Y220949D01*
X824484Y217220D02*
X828213Y220949D01*
X829145Y220949D01*
X830077Y220017D01*
X830077Y218152D01*
X829145Y217220D01*
X828807Y171704D02*
X823214Y171704D01*
X826943Y173568D02*
X828807Y171704D01*
X826943Y173568D02*
X828807Y175433D01*
X823214Y175433D01*
X827875Y177317D02*
X828807Y178249D01*
X828807Y180113D01*
X827875Y181046D01*
X826943Y181046D01*
X826010Y180113D01*
X826010Y179181D01*
X826010Y180113D02*
X825078Y181046D01*
X824146Y181046D01*
X823214Y180113D01*
X823214Y178249D01*
X824146Y177317D01*
X826943Y182930D02*
X828807Y184794D01*
X823214Y184794D01*
X823214Y182930D02*
X823214Y186659D01*
X823214Y134874D02*
X828807Y134874D01*
X826943Y136738D01*
X828807Y138603D01*
X823214Y138603D01*
X823214Y143283D02*
X828807Y143283D01*
X826010Y140487D01*
X826010Y144216D01*
X823214Y146100D02*
X823214Y149829D01*
X823214Y146100D02*
X826943Y149829D01*
X827875Y149829D01*
X828807Y148897D01*
X828807Y147032D01*
X827875Y146100D01*
X828807Y100584D02*
X823214Y100584D01*
X826943Y102448D02*
X828807Y100584D01*
X826943Y102448D02*
X828807Y104313D01*
X823214Y104313D01*
X823214Y108993D02*
X828807Y108993D01*
X826010Y106197D01*
X826010Y109926D01*
X826943Y111810D02*
X828807Y113674D01*
X823214Y113674D01*
X823214Y111810D02*
X823214Y115539D01*
X827786Y83571D02*
X827786Y77978D01*
X825922Y81707D02*
X827786Y83571D01*
X825922Y81707D02*
X824058Y83571D01*
X824058Y77978D01*
X821241Y83571D02*
X819377Y83571D01*
X821241Y83571D02*
X822173Y82639D01*
X822173Y78910D01*
X821241Y77978D01*
X819377Y77978D01*
X818444Y78910D01*
X818444Y82639D01*
X819377Y83571D01*
X814696Y83571D02*
X814696Y77978D01*
X816560Y83571D02*
X812831Y83571D01*
X810015Y83571D02*
X808150Y83571D01*
X810015Y83571D02*
X810947Y82639D01*
X810947Y78910D01*
X810015Y77978D01*
X808150Y77978D01*
X807218Y78910D01*
X807218Y82639D01*
X808150Y83571D01*
X805334Y83571D02*
X805334Y77978D01*
X805334Y83571D02*
X802537Y83571D01*
X801605Y82639D01*
X801605Y80774D01*
X802537Y79842D01*
X805334Y79842D01*
X803469Y79842D02*
X801605Y77978D01*
X824058Y73495D02*
X824990Y74427D01*
X826854Y74427D01*
X827786Y73495D01*
X827786Y69766D01*
X826854Y68834D01*
X824990Y68834D01*
X824058Y69766D01*
X821241Y74427D02*
X819377Y74427D01*
X821241Y74427D02*
X822173Y73495D01*
X822173Y69766D01*
X821241Y68834D01*
X819377Y68834D01*
X818444Y69766D01*
X818444Y73495D01*
X819377Y74427D01*
X816560Y74427D02*
X816560Y68834D01*
X812831Y68834D02*
X816560Y74427D01*
X812831Y74427D02*
X812831Y68834D01*
X810947Y68834D02*
X810947Y74427D01*
X807218Y68834D01*
X807218Y74427D01*
X805334Y74427D02*
X801605Y74427D01*
X805334Y74427D02*
X805334Y68834D01*
X801605Y68834D01*
X803469Y71630D02*
X805334Y71630D01*
X796924Y74427D02*
X795992Y73495D01*
X796924Y74427D02*
X798788Y74427D01*
X799721Y73495D01*
X799721Y69766D01*
X798788Y68834D01*
X796924Y68834D01*
X795992Y69766D01*
X792243Y68834D02*
X792243Y74427D01*
X794107Y74427D02*
X790379Y74427D01*
X787562Y74427D02*
X785698Y74427D01*
X787562Y74427D02*
X788494Y73495D01*
X788494Y69766D01*
X787562Y68834D01*
X785698Y68834D01*
X784766Y69766D01*
X784766Y73495D01*
X785698Y74427D01*
X782881Y74427D02*
X782881Y68834D01*
X782881Y74427D02*
X780085Y74427D01*
X779153Y73495D01*
X779153Y71630D01*
X780085Y70698D01*
X782881Y70698D01*
X781017Y70698D02*
X779153Y68834D01*
X63784Y451871D02*
X62852Y450939D01*
X63784Y451871D02*
X65648Y451871D01*
X66581Y450939D01*
X66581Y450007D01*
X65648Y449074D01*
X63784Y449074D01*
X62852Y448142D01*
X62852Y447210D01*
X63784Y446278D01*
X65648Y446278D01*
X66581Y447210D01*
X60967Y446278D02*
X60967Y451871D01*
X59103Y448142D02*
X60967Y446278D01*
X59103Y448142D02*
X57239Y446278D01*
X57239Y451871D01*
X55354Y451871D02*
X55354Y446278D01*
X52558Y446278D01*
X51626Y447210D01*
X51626Y450939D01*
X52558Y451871D01*
X55354Y451871D01*
X49741Y446278D02*
X47877Y446278D01*
X48809Y446278D02*
X48809Y451871D01*
X49741Y451871D02*
X47877Y451871D01*
X45067Y451871D02*
X43203Y451871D01*
X45067Y451871D02*
X45999Y450939D01*
X45999Y447210D01*
X45067Y446278D01*
X43203Y446278D01*
X42271Y447210D01*
X42271Y450939D01*
X43203Y451871D01*
X89313Y451871D02*
X90245Y450939D01*
X89313Y451871D02*
X87449Y451871D01*
X86517Y450939D01*
X86517Y450007D01*
X87449Y449074D01*
X88381Y449074D01*
X87449Y449074D02*
X86517Y448142D01*
X86517Y447210D01*
X87449Y446278D01*
X89313Y446278D01*
X90245Y447210D01*
X84632Y450007D02*
X82768Y446278D01*
X80904Y450007D01*
X79019Y450939D02*
X78087Y451871D01*
X76223Y451871D01*
X75291Y450939D01*
X75291Y450007D01*
X76223Y449074D01*
X77155Y449074D01*
X76223Y449074D02*
X75291Y448142D01*
X75291Y447210D01*
X76223Y446278D01*
X78087Y446278D01*
X79019Y447210D01*
X112572Y446278D02*
X112572Y451871D01*
X108844Y446278D01*
X108844Y451871D01*
X104163Y451871D02*
X103231Y450939D01*
X104163Y451871D02*
X106027Y451871D01*
X106959Y450939D01*
X106959Y447210D01*
X106027Y446278D01*
X104163Y446278D01*
X103231Y447210D01*
X118718Y401071D02*
X118718Y395478D01*
X114990Y395478D02*
X118718Y401071D01*
X114990Y401071D02*
X114990Y395478D01*
X113105Y395478D02*
X113105Y401071D01*
X110309Y401071D01*
X109377Y400139D01*
X109377Y398274D01*
X110309Y397342D01*
X113105Y397342D01*
X111241Y397342D02*
X109377Y395478D01*
X104696Y401071D02*
X103764Y400139D01*
X104696Y401071D02*
X106560Y401071D01*
X107492Y400139D01*
X107492Y399207D01*
X106560Y398274D01*
X104696Y398274D01*
X103764Y397342D01*
X103764Y396410D01*
X104696Y395478D01*
X106560Y395478D01*
X107492Y396410D01*
X100015Y395478D02*
X100015Y401071D01*
X101879Y401071D02*
X98151Y401071D01*
X87449Y401071D02*
X86517Y400139D01*
X87449Y401071D02*
X89313Y401071D01*
X90245Y400139D01*
X90245Y396410D01*
X89313Y395478D01*
X87449Y395478D01*
X86517Y396410D01*
X86517Y398274D01*
X88381Y398274D01*
X84632Y395478D02*
X84632Y401071D01*
X80904Y395478D01*
X80904Y401071D01*
X79019Y401071D02*
X79019Y395478D01*
X76223Y395478D01*
X75291Y396410D01*
X75291Y400139D01*
X76223Y401071D01*
X79019Y401071D01*
X65655Y401071D02*
X64723Y400139D01*
X65655Y401071D02*
X67519Y401071D01*
X68452Y400139D01*
X68452Y399207D01*
X67519Y398274D01*
X65655Y398274D01*
X64723Y397342D01*
X64723Y396410D01*
X65655Y395478D01*
X67519Y395478D01*
X68452Y396410D01*
X62838Y395478D02*
X62838Y401071D01*
X60974Y397342D02*
X62838Y395478D01*
X60974Y397342D02*
X59110Y395478D01*
X59110Y401071D01*
X54429Y401071D02*
X53497Y400139D01*
X54429Y401071D02*
X56293Y401071D01*
X57225Y400139D01*
X57225Y396410D01*
X56293Y395478D01*
X54429Y395478D01*
X53497Y396410D01*
X51612Y395478D02*
X51612Y401071D01*
X51612Y395478D02*
X47884Y395478D01*
X45999Y395478D02*
X45999Y401071D01*
X42271Y401071D02*
X45999Y397342D01*
X45067Y398274D02*
X42271Y395478D01*
X840486Y391927D02*
X840486Y386334D01*
X840486Y391927D02*
X837690Y391927D01*
X836758Y390995D01*
X836758Y389130D01*
X837690Y388198D01*
X840486Y388198D01*
X833941Y386334D02*
X832077Y386334D01*
X831144Y387266D01*
X831144Y389130D01*
X832077Y390063D01*
X833941Y390063D01*
X834873Y389130D01*
X834873Y387266D01*
X833941Y386334D01*
X829260Y387266D02*
X829260Y390063D01*
X829260Y387266D02*
X828328Y386334D01*
X827396Y387266D01*
X826463Y386334D01*
X825531Y387266D01*
X825531Y390063D01*
X822715Y386334D02*
X820850Y386334D01*
X822715Y386334D02*
X823647Y387266D01*
X823647Y389130D01*
X822715Y390063D01*
X820850Y390063D01*
X819918Y389130D01*
X819918Y388198D01*
X823647Y388198D01*
X818034Y386334D02*
X818034Y390063D01*
X818034Y388198D02*
X816169Y390063D01*
X815237Y390063D01*
X806811Y390063D02*
X804014Y390063D01*
X806811Y390063D02*
X807743Y389130D01*
X807743Y387266D01*
X806811Y386334D01*
X804014Y386334D01*
X801198Y386334D02*
X799333Y386334D01*
X798401Y387266D01*
X798401Y389130D01*
X799333Y390063D01*
X801198Y390063D01*
X802130Y389130D01*
X802130Y387266D01*
X801198Y386334D01*
X796517Y386334D02*
X796517Y390063D01*
X793720Y390063D01*
X792788Y389130D01*
X792788Y386334D01*
X790904Y386334D02*
X790904Y390063D01*
X788107Y390063D01*
X787175Y389130D01*
X787175Y386334D01*
X784358Y386334D02*
X782494Y386334D01*
X784358Y386334D02*
X785291Y387266D01*
X785291Y389130D01*
X784358Y390063D01*
X782494Y390063D01*
X781562Y389130D01*
X781562Y388198D01*
X785291Y388198D01*
X778745Y390063D02*
X775949Y390063D01*
X778745Y390063D02*
X779677Y389130D01*
X779677Y387266D01*
X778745Y386334D01*
X775949Y386334D01*
X773132Y387266D02*
X773132Y390995D01*
X773132Y387266D02*
X772200Y386334D01*
X772200Y390063D02*
X774064Y390063D01*
X769390Y386334D02*
X767526Y386334D01*
X766594Y387266D01*
X766594Y389130D01*
X767526Y390063D01*
X769390Y390063D01*
X770322Y389130D01*
X770322Y387266D01*
X769390Y386334D01*
X764709Y386334D02*
X764709Y390063D01*
X762845Y390063D02*
X764709Y388198D01*
X762845Y390063D02*
X761913Y390063D01*
M02*
