G04 EAGLE Gerber RS-274X export*
G75*
%MOMM*%
%FSLAX34Y34*%
%LPD*%
%AMOC8*
5,1,8,0,0,1.08239X$1,22.5*%
G01*
%ADD10R,1.100000X1.000000*%
%ADD11R,2.000000X5.300000*%
%ADD12R,1.050000X1.080000*%
%ADD13R,2.160000X1.780000*%
%ADD14R,1.080000X1.050000*%
%ADD15R,1.800000X3.200000*%
%ADD16R,3.200000X1.800000*%
%ADD17R,1.400000X1.400000*%
%ADD18R,0.280000X1.200000*%
%ADD19R,1.200000X0.280000*%
%ADD20R,5.334000X1.930400*%
%ADD21R,1.000000X1.100000*%
%ADD22R,1.473200X0.355600*%
%ADD23R,0.355600X1.473200*%
%ADD24R,4.000000X1.600000*%
%ADD25R,0.600000X1.200000*%
%ADD26R,0.635000X1.651000*%
%ADD27R,0.900000X0.800000*%


D10*
X90170Y105020D03*
X90170Y88020D03*
X28100Y146440D03*
X28100Y163440D03*
D11*
X358160Y139700D03*
X424160Y139700D03*
D12*
X359550Y187960D03*
X377050Y187960D03*
D13*
X266700Y167660D03*
X266700Y208360D03*
D11*
X391140Y403860D03*
X325140Y403860D03*
D14*
X495300Y501790D03*
X495300Y519290D03*
D11*
X495280Y403860D03*
X429280Y403860D03*
D14*
X480060Y501790D03*
X480060Y519290D03*
D15*
X650300Y528320D03*
X594300Y528320D03*
D16*
X579120Y281880D03*
X579120Y337880D03*
D15*
X647760Y88900D03*
X591760Y88900D03*
D16*
X619760Y281880D03*
X619760Y337880D03*
D14*
X172720Y112890D03*
X172720Y95390D03*
X187960Y112890D03*
X187960Y95390D03*
X203200Y112890D03*
X203200Y95390D03*
X218440Y112890D03*
X218440Y95390D03*
X271780Y148450D03*
X271780Y130950D03*
X546100Y341490D03*
X546100Y323990D03*
D12*
X547510Y96520D03*
X565010Y96520D03*
D10*
X236220Y112640D03*
X236220Y95640D03*
X271780Y95640D03*
X271780Y112640D03*
D14*
X254000Y112890D03*
X254000Y95390D03*
D17*
X712520Y335280D03*
X750520Y335280D03*
X712520Y370840D03*
X750520Y370840D03*
X712520Y264160D03*
X750520Y264160D03*
X712520Y299720D03*
X750520Y299720D03*
X770840Y317500D03*
X732840Y317500D03*
X770840Y353060D03*
X732840Y353060D03*
X770840Y246380D03*
X732840Y246380D03*
X770840Y281940D03*
X732840Y281940D03*
X712520Y193040D03*
X750520Y193040D03*
X712520Y228600D03*
X750520Y228600D03*
X712520Y121920D03*
X750520Y121920D03*
X712520Y157480D03*
X750520Y157480D03*
X770840Y175260D03*
X732840Y175260D03*
X770840Y210820D03*
X732840Y210820D03*
X770840Y104140D03*
X732840Y104140D03*
X770840Y139700D03*
X732840Y139700D03*
D18*
X61400Y127680D03*
X66400Y127680D03*
X71400Y127680D03*
X76400Y127680D03*
X81400Y127680D03*
X86400Y127680D03*
X91400Y127680D03*
X96400Y127680D03*
X101400Y127680D03*
X106400Y127680D03*
X111400Y127680D03*
X116400Y127680D03*
D19*
X131400Y142680D03*
X131400Y147680D03*
X131400Y152680D03*
X131400Y157680D03*
X131400Y162680D03*
X131400Y167680D03*
X131400Y172680D03*
X131400Y177680D03*
X131400Y182680D03*
X131400Y187680D03*
X131400Y192680D03*
X131400Y197680D03*
D18*
X116400Y212680D03*
X111400Y212680D03*
X106400Y212680D03*
X101400Y212680D03*
X96400Y212680D03*
X91400Y212680D03*
X86400Y212680D03*
X81400Y212680D03*
X76400Y212680D03*
X71400Y212680D03*
X66400Y212680D03*
X61400Y212680D03*
D19*
X46400Y197680D03*
X46400Y192680D03*
X46400Y187680D03*
X46400Y182680D03*
X46400Y177680D03*
X46400Y172680D03*
X46400Y167680D03*
X46400Y162680D03*
X46400Y157680D03*
X46400Y152680D03*
X46400Y147680D03*
X46400Y142680D03*
D14*
X123190Y105270D03*
X123190Y87770D03*
X107950Y105270D03*
X107950Y87770D03*
X48260Y128130D03*
X48260Y110630D03*
D12*
X132982Y212344D03*
X150482Y212344D03*
D14*
X35560Y128130D03*
X35560Y110630D03*
D20*
X150670Y50700D03*
X54150Y50700D03*
D12*
X36510Y19170D03*
X54010Y19170D03*
X165050Y18810D03*
X147550Y18810D03*
D21*
X44060Y215900D03*
X27060Y215900D03*
X44060Y236220D03*
X27060Y236220D03*
D10*
X27940Y179460D03*
X27940Y196460D03*
D22*
X232410Y162306D03*
X232410Y168910D03*
X232410Y175260D03*
X232410Y181864D03*
X232410Y188468D03*
X232410Y194818D03*
X232410Y201422D03*
X232410Y207772D03*
X232410Y214376D03*
X232410Y220980D03*
X232410Y227330D03*
X232410Y233934D03*
X173990Y233934D03*
X173990Y227330D03*
X173990Y220980D03*
X173990Y214376D03*
X173990Y207772D03*
X173990Y201422D03*
X173990Y194818D03*
X173990Y188468D03*
X173990Y181864D03*
X173990Y175260D03*
X173990Y168910D03*
X173990Y162306D03*
D12*
X241160Y132080D03*
X223660Y132080D03*
X174130Y147320D03*
X191630Y147320D03*
D21*
X224400Y147320D03*
X207400Y147320D03*
D23*
X134874Y298450D03*
X128270Y298450D03*
X121920Y298450D03*
X115316Y298450D03*
X108712Y298450D03*
X102362Y298450D03*
X95758Y298450D03*
X89408Y298450D03*
X82804Y298450D03*
X76200Y298450D03*
X69850Y298450D03*
X63246Y298450D03*
X63246Y240030D03*
X69850Y240030D03*
X76200Y240030D03*
X82804Y240030D03*
X89408Y240030D03*
X95758Y240030D03*
X102362Y240030D03*
X108712Y240030D03*
X115316Y240030D03*
X121920Y240030D03*
X128270Y240030D03*
X134874Y240030D03*
D12*
X136030Y322580D03*
X153530Y322580D03*
D14*
X149860Y245250D03*
X149860Y262750D03*
D10*
X149860Y295520D03*
X149860Y278520D03*
D24*
X701390Y515790D03*
X762390Y515790D03*
D25*
X15130Y311340D03*
X27830Y311340D03*
X40530Y311340D03*
X53230Y311340D03*
X53230Y367340D03*
X40530Y367340D03*
X27830Y367340D03*
X15130Y367340D03*
D21*
X72920Y347840D03*
X72920Y330840D03*
D26*
X661670Y496570D03*
X648970Y496570D03*
X636270Y496570D03*
X623570Y496570D03*
X610870Y496570D03*
X598170Y496570D03*
X585470Y496570D03*
X572770Y496570D03*
X560070Y496570D03*
X547370Y496570D03*
X547370Y361950D03*
X560070Y361950D03*
X572770Y361950D03*
X585470Y361950D03*
X598170Y361950D03*
X610870Y361950D03*
X623570Y361950D03*
X636270Y361950D03*
X648970Y361950D03*
X661670Y361950D03*
X661670Y257810D03*
X648970Y257810D03*
X636270Y257810D03*
X623570Y257810D03*
X610870Y257810D03*
X598170Y257810D03*
X585470Y257810D03*
X572770Y257810D03*
X560070Y257810D03*
X547370Y257810D03*
X547370Y123190D03*
X560070Y123190D03*
X572770Y123190D03*
X585470Y123190D03*
X598170Y123190D03*
X610870Y123190D03*
X623570Y123190D03*
X636270Y123190D03*
X648970Y123190D03*
X661670Y123190D03*
D27*
X307500Y159360D03*
X307500Y140360D03*
X328500Y149860D03*
D21*
X323460Y182880D03*
X306460Y182880D03*
M02*
