%
M48
M72
T01C0.01181
T02C0.02362
T03C0.03600
T04C0.03937
T05C0.04000
T06C0.04724
T07C0.05200
T08C0.11811
%
T01
X111780Y38862
X111800Y43602
X117300Y43542
X117240Y38742
X117300Y48522
X111780Y48582
X167800Y82602
X200300Y59102
X206300Y45102
X200300Y32602
X248800Y45852
X248800Y63102
X276800Y97602
X276800Y111602
X313800Y119602
X313800Y91602
X325300Y82102
X329800Y83602
X332800Y86602
X332800Y67602
X345300Y59102
X355300Y55102
X365178Y60602
X360800Y63602
X332800Y35102
X300800Y36602
X313800Y63602
X306800Y66602
X360800Y91602
X360800Y119602
X370910Y161122
X372910Y164612
X383800Y173602
X381300Y176602
X379800Y181102
X376800Y184602
X373800Y182102
X372800Y174602
X361300Y185602
X363800Y189102
X376800Y202102
X379800Y199102
X382800Y196102
X384800Y203602
X370800Y209602
X366800Y209602
X360800Y207602
X353800Y211102
X368300Y220602
X377300Y213602
X353800Y224602
X327800Y240602
X319800Y224602
X321800Y214602
X298300Y213102
X288800Y212602
X276800Y223602
X272800Y205602
X266800Y207602
X261800Y207602
X257800Y207602
X253800Y207602
X261800Y191602
X266800Y191602
X252800Y180602
X252800Y176602
X252800Y171602
X234800Y164602
X217800Y160602
X213800Y161602
X187800Y158602
X183800Y158602
X207800Y136602
X191800Y135602
X167800Y128602
X116800Y128602
X94800Y162602
X109800Y167602
X113320Y174282
X130800Y187602
X156902Y182705
X173139Y220264
X147800Y229602
X143800Y229602
X125800Y231602
X143800Y245602
X148800Y248602
X130800Y250602
X71300Y218602
X55800Y212102
X55800Y201102
X54800Y189102
X55300Y178602
X55300Y171102
X73800Y168602
X35300Y224102
X55300Y224602
X55300Y108602
X55800Y85102
X17300Y84602
X17300Y108602
X220800Y237602
X220800Y250602
X236800Y249602
X276800Y248602
X282800Y255102
X307300Y236602
X309800Y198102
X292300Y196602
X294300Y183602
X288800Y183602
X282800Y168602
X306300Y165602
X319324Y165626
X321800Y171602
X321800Y176602
X321800Y180602
X316800Y180602
X310461Y180702
X335565Y170267
X350290Y165362
X354300Y171602
X385800Y266602
T02
X241800Y87602
X227800Y87602
X81800Y54256
T03
X175178Y26500
X185178Y26500
X195178Y26500
X205178Y26500
X215178Y26500
X225178Y26500
X235178Y26500
X245178Y26500
X255178Y26500
X265178Y26500
X275178Y26500
X285178Y26500
X295178Y26500
X305178Y26500
X315178Y26500
X325178Y26500
X335178Y26500
X345178Y26500
X355178Y26500
X365178Y26500
X365178Y16500
X355178Y16500
X345178Y16500
X335178Y16500
X325178Y16500
X315178Y16500
X305178Y16500
X295178Y16500
X285178Y16500
X275178Y16500
X265178Y16500
X255178Y16500
X245178Y16500
X235178Y16500
X225178Y16500
X215178Y16500
X205178Y16500
X195178Y16500
X185178Y16500
X175178Y16500
T04
X137981Y77413
X137981Y143555
X137981Y161413
X137981Y227555
X294280Y227555
X294280Y161413
X294280Y143555
X294280Y77413
T05
X207068Y250602
X197068Y250602
X187068Y250602
X177068Y250602
X167068Y250602
X157068Y250602
T06
X103422Y252823
X103422Y242823
X103422Y232823
X103422Y222823
X103422Y212823
X103422Y202823
X103422Y192823
X103422Y182823
X83422Y187823
X83422Y197823
X83422Y207823
X83422Y217823
X83422Y227823
X83422Y237823
X83422Y247823
X103422Y153720
X103422Y143720
X103422Y133720
X103422Y123720
X103422Y113720
X103422Y103720
X103422Y93720
X103422Y83720
X83422Y88720
X83422Y98720
X83422Y108720
X83422Y118720
X83422Y128720
X83422Y138720
X83422Y148720
X59300Y55602
X59300Y45602
X356225Y245043
X356225Y255043
X373824Y255059
X373824Y245059
T07
X27800Y27302
X27800Y47102
X27800Y76902
X27800Y96702
X27800Y116902
X27800Y136702
X27800Y156902
X27800Y176702
X27800Y196902
X27800Y216702
X27800Y236902
X27800Y256702
T08
X158761Y214295
M30
