G75*
%MOIN*%
%OFA0B0*%
%FSLAX25Y25*%
%IPPOS*%
%LPD*%
%AMOC8*
5,1,8,0,0,1.08239X$1,22.5*
%
%ADD10C,0.00000*%
D10*
X0013611Y0007602D02*
X0383690Y0007602D01*
X0383975Y0007605D01*
X0384261Y0007616D01*
X0384546Y0007633D01*
X0384830Y0007657D01*
X0385114Y0007688D01*
X0385397Y0007726D01*
X0385678Y0007771D01*
X0385959Y0007822D01*
X0386239Y0007880D01*
X0386517Y0007945D01*
X0386793Y0008017D01*
X0387067Y0008095D01*
X0387340Y0008180D01*
X0387610Y0008272D01*
X0387878Y0008370D01*
X0388144Y0008474D01*
X0388407Y0008585D01*
X0388667Y0008702D01*
X0388925Y0008825D01*
X0389179Y0008955D01*
X0389430Y0009091D01*
X0389678Y0009232D01*
X0389922Y0009380D01*
X0390163Y0009533D01*
X0390399Y0009693D01*
X0390632Y0009858D01*
X0390861Y0010028D01*
X0391086Y0010204D01*
X0391306Y0010386D01*
X0391522Y0010572D01*
X0391733Y0010764D01*
X0391940Y0010961D01*
X0392142Y0011163D01*
X0392339Y0011370D01*
X0392531Y0011581D01*
X0392717Y0011797D01*
X0392899Y0012017D01*
X0393075Y0012242D01*
X0393245Y0012471D01*
X0393410Y0012704D01*
X0393570Y0012940D01*
X0393723Y0013181D01*
X0393871Y0013425D01*
X0394012Y0013673D01*
X0394148Y0013924D01*
X0394278Y0014178D01*
X0394401Y0014436D01*
X0394518Y0014696D01*
X0394629Y0014959D01*
X0394733Y0015225D01*
X0394831Y0015493D01*
X0394923Y0015763D01*
X0395008Y0016036D01*
X0395086Y0016310D01*
X0395158Y0016586D01*
X0395223Y0016864D01*
X0395281Y0017144D01*
X0395332Y0017425D01*
X0395377Y0017706D01*
X0395415Y0017989D01*
X0395446Y0018273D01*
X0395470Y0018557D01*
X0395487Y0018842D01*
X0395498Y0019128D01*
X0395501Y0019413D01*
X0395501Y0263508D01*
X0395498Y0263793D01*
X0395487Y0264079D01*
X0395470Y0264364D01*
X0395446Y0264648D01*
X0395415Y0264932D01*
X0395377Y0265215D01*
X0395332Y0265496D01*
X0395281Y0265777D01*
X0395223Y0266057D01*
X0395158Y0266335D01*
X0395086Y0266611D01*
X0395008Y0266885D01*
X0394923Y0267158D01*
X0394831Y0267428D01*
X0394733Y0267696D01*
X0394629Y0267962D01*
X0394518Y0268225D01*
X0394401Y0268485D01*
X0394278Y0268743D01*
X0394148Y0268997D01*
X0394012Y0269248D01*
X0393871Y0269496D01*
X0393723Y0269740D01*
X0393570Y0269981D01*
X0393410Y0270217D01*
X0393245Y0270450D01*
X0393075Y0270679D01*
X0392899Y0270904D01*
X0392717Y0271124D01*
X0392531Y0271340D01*
X0392339Y0271551D01*
X0392142Y0271758D01*
X0391940Y0271960D01*
X0391733Y0272157D01*
X0391522Y0272349D01*
X0391306Y0272535D01*
X0391086Y0272717D01*
X0390861Y0272893D01*
X0390632Y0273063D01*
X0390399Y0273228D01*
X0390163Y0273388D01*
X0389922Y0273541D01*
X0389678Y0273689D01*
X0389430Y0273830D01*
X0389179Y0273966D01*
X0388925Y0274096D01*
X0388667Y0274219D01*
X0388407Y0274336D01*
X0388144Y0274447D01*
X0387878Y0274551D01*
X0387610Y0274649D01*
X0387340Y0274741D01*
X0387067Y0274826D01*
X0386793Y0274904D01*
X0386517Y0274976D01*
X0386239Y0275041D01*
X0385959Y0275099D01*
X0385678Y0275150D01*
X0385397Y0275195D01*
X0385114Y0275233D01*
X0384830Y0275264D01*
X0384546Y0275288D01*
X0384261Y0275305D01*
X0383975Y0275316D01*
X0383690Y0275319D01*
X0013611Y0275319D01*
X0013326Y0275316D01*
X0013040Y0275305D01*
X0012755Y0275288D01*
X0012471Y0275264D01*
X0012187Y0275233D01*
X0011904Y0275195D01*
X0011623Y0275150D01*
X0011342Y0275099D01*
X0011062Y0275041D01*
X0010784Y0274976D01*
X0010508Y0274904D01*
X0010234Y0274826D01*
X0009961Y0274741D01*
X0009691Y0274649D01*
X0009423Y0274551D01*
X0009157Y0274447D01*
X0008894Y0274336D01*
X0008634Y0274219D01*
X0008376Y0274096D01*
X0008122Y0273966D01*
X0007871Y0273830D01*
X0007623Y0273689D01*
X0007379Y0273541D01*
X0007138Y0273388D01*
X0006902Y0273228D01*
X0006669Y0273063D01*
X0006440Y0272893D01*
X0006215Y0272717D01*
X0005995Y0272535D01*
X0005779Y0272349D01*
X0005568Y0272157D01*
X0005361Y0271960D01*
X0005159Y0271758D01*
X0004962Y0271551D01*
X0004770Y0271340D01*
X0004584Y0271124D01*
X0004402Y0270904D01*
X0004226Y0270679D01*
X0004056Y0270450D01*
X0003891Y0270217D01*
X0003731Y0269981D01*
X0003578Y0269740D01*
X0003430Y0269496D01*
X0003289Y0269248D01*
X0003153Y0268997D01*
X0003023Y0268743D01*
X0002900Y0268485D01*
X0002783Y0268225D01*
X0002672Y0267962D01*
X0002568Y0267696D01*
X0002470Y0267428D01*
X0002378Y0267158D01*
X0002293Y0266885D01*
X0002215Y0266611D01*
X0002143Y0266335D01*
X0002078Y0266057D01*
X0002020Y0265777D01*
X0001969Y0265496D01*
X0001924Y0265215D01*
X0001886Y0264932D01*
X0001855Y0264648D01*
X0001831Y0264364D01*
X0001814Y0264079D01*
X0001803Y0263793D01*
X0001800Y0263508D01*
X0001800Y0019413D01*
X0001803Y0019128D01*
X0001814Y0018842D01*
X0001831Y0018557D01*
X0001855Y0018273D01*
X0001886Y0017989D01*
X0001924Y0017706D01*
X0001969Y0017425D01*
X0002020Y0017144D01*
X0002078Y0016864D01*
X0002143Y0016586D01*
X0002215Y0016310D01*
X0002293Y0016036D01*
X0002378Y0015763D01*
X0002470Y0015493D01*
X0002568Y0015225D01*
X0002672Y0014959D01*
X0002783Y0014696D01*
X0002900Y0014436D01*
X0003023Y0014178D01*
X0003153Y0013924D01*
X0003289Y0013673D01*
X0003430Y0013425D01*
X0003578Y0013181D01*
X0003731Y0012940D01*
X0003891Y0012704D01*
X0004056Y0012471D01*
X0004226Y0012242D01*
X0004402Y0012017D01*
X0004584Y0011797D01*
X0004770Y0011581D01*
X0004962Y0011370D01*
X0005159Y0011163D01*
X0005361Y0010961D01*
X0005568Y0010764D01*
X0005779Y0010572D01*
X0005995Y0010386D01*
X0006215Y0010204D01*
X0006440Y0010028D01*
X0006669Y0009858D01*
X0006902Y0009693D01*
X0007138Y0009533D01*
X0007379Y0009380D01*
X0007623Y0009232D01*
X0007871Y0009091D01*
X0008122Y0008955D01*
X0008376Y0008825D01*
X0008634Y0008702D01*
X0008894Y0008585D01*
X0009157Y0008474D01*
X0009423Y0008370D01*
X0009691Y0008272D01*
X0009961Y0008180D01*
X0010234Y0008095D01*
X0010508Y0008017D01*
X0010784Y0007945D01*
X0011062Y0007880D01*
X0011342Y0007822D01*
X0011623Y0007771D01*
X0011904Y0007726D01*
X0012187Y0007688D01*
X0012471Y0007657D01*
X0012755Y0007633D01*
X0013040Y0007616D01*
X0013326Y0007605D01*
X0013611Y0007602D01*
X0152855Y0214295D02*
X0152857Y0214448D01*
X0152863Y0214602D01*
X0152873Y0214755D01*
X0152887Y0214907D01*
X0152905Y0215060D01*
X0152927Y0215211D01*
X0152952Y0215362D01*
X0152982Y0215513D01*
X0153016Y0215663D01*
X0153053Y0215811D01*
X0153094Y0215959D01*
X0153139Y0216105D01*
X0153188Y0216251D01*
X0153241Y0216395D01*
X0153297Y0216537D01*
X0153357Y0216678D01*
X0153421Y0216818D01*
X0153488Y0216956D01*
X0153559Y0217092D01*
X0153634Y0217226D01*
X0153711Y0217358D01*
X0153793Y0217488D01*
X0153877Y0217616D01*
X0153965Y0217742D01*
X0154056Y0217865D01*
X0154150Y0217986D01*
X0154248Y0218104D01*
X0154348Y0218220D01*
X0154452Y0218333D01*
X0154558Y0218444D01*
X0154667Y0218552D01*
X0154779Y0218657D01*
X0154893Y0218758D01*
X0155011Y0218857D01*
X0155130Y0218953D01*
X0155252Y0219046D01*
X0155377Y0219135D01*
X0155504Y0219222D01*
X0155633Y0219304D01*
X0155764Y0219384D01*
X0155897Y0219460D01*
X0156032Y0219533D01*
X0156169Y0219602D01*
X0156308Y0219667D01*
X0156448Y0219729D01*
X0156590Y0219787D01*
X0156733Y0219842D01*
X0156878Y0219893D01*
X0157024Y0219940D01*
X0157171Y0219983D01*
X0157319Y0220022D01*
X0157468Y0220058D01*
X0157618Y0220089D01*
X0157769Y0220117D01*
X0157920Y0220141D01*
X0158073Y0220161D01*
X0158225Y0220177D01*
X0158378Y0220189D01*
X0158531Y0220197D01*
X0158684Y0220201D01*
X0158838Y0220201D01*
X0158991Y0220197D01*
X0159144Y0220189D01*
X0159297Y0220177D01*
X0159449Y0220161D01*
X0159602Y0220141D01*
X0159753Y0220117D01*
X0159904Y0220089D01*
X0160054Y0220058D01*
X0160203Y0220022D01*
X0160351Y0219983D01*
X0160498Y0219940D01*
X0160644Y0219893D01*
X0160789Y0219842D01*
X0160932Y0219787D01*
X0161074Y0219729D01*
X0161214Y0219667D01*
X0161353Y0219602D01*
X0161490Y0219533D01*
X0161625Y0219460D01*
X0161758Y0219384D01*
X0161889Y0219304D01*
X0162018Y0219222D01*
X0162145Y0219135D01*
X0162270Y0219046D01*
X0162392Y0218953D01*
X0162511Y0218857D01*
X0162629Y0218758D01*
X0162743Y0218657D01*
X0162855Y0218552D01*
X0162964Y0218444D01*
X0163070Y0218333D01*
X0163174Y0218220D01*
X0163274Y0218104D01*
X0163372Y0217986D01*
X0163466Y0217865D01*
X0163557Y0217742D01*
X0163645Y0217616D01*
X0163729Y0217488D01*
X0163811Y0217358D01*
X0163888Y0217226D01*
X0163963Y0217092D01*
X0164034Y0216956D01*
X0164101Y0216818D01*
X0164165Y0216678D01*
X0164225Y0216537D01*
X0164281Y0216395D01*
X0164334Y0216251D01*
X0164383Y0216105D01*
X0164428Y0215959D01*
X0164469Y0215811D01*
X0164506Y0215663D01*
X0164540Y0215513D01*
X0164570Y0215362D01*
X0164595Y0215211D01*
X0164617Y0215060D01*
X0164635Y0214907D01*
X0164649Y0214755D01*
X0164659Y0214602D01*
X0164665Y0214448D01*
X0164667Y0214295D01*
X0164665Y0214142D01*
X0164659Y0213988D01*
X0164649Y0213835D01*
X0164635Y0213683D01*
X0164617Y0213530D01*
X0164595Y0213379D01*
X0164570Y0213228D01*
X0164540Y0213077D01*
X0164506Y0212927D01*
X0164469Y0212779D01*
X0164428Y0212631D01*
X0164383Y0212485D01*
X0164334Y0212339D01*
X0164281Y0212195D01*
X0164225Y0212053D01*
X0164165Y0211912D01*
X0164101Y0211772D01*
X0164034Y0211634D01*
X0163963Y0211498D01*
X0163888Y0211364D01*
X0163811Y0211232D01*
X0163729Y0211102D01*
X0163645Y0210974D01*
X0163557Y0210848D01*
X0163466Y0210725D01*
X0163372Y0210604D01*
X0163274Y0210486D01*
X0163174Y0210370D01*
X0163070Y0210257D01*
X0162964Y0210146D01*
X0162855Y0210038D01*
X0162743Y0209933D01*
X0162629Y0209832D01*
X0162511Y0209733D01*
X0162392Y0209637D01*
X0162270Y0209544D01*
X0162145Y0209455D01*
X0162018Y0209368D01*
X0161889Y0209286D01*
X0161758Y0209206D01*
X0161625Y0209130D01*
X0161490Y0209057D01*
X0161353Y0208988D01*
X0161214Y0208923D01*
X0161074Y0208861D01*
X0160932Y0208803D01*
X0160789Y0208748D01*
X0160644Y0208697D01*
X0160498Y0208650D01*
X0160351Y0208607D01*
X0160203Y0208568D01*
X0160054Y0208532D01*
X0159904Y0208501D01*
X0159753Y0208473D01*
X0159602Y0208449D01*
X0159449Y0208429D01*
X0159297Y0208413D01*
X0159144Y0208401D01*
X0158991Y0208393D01*
X0158838Y0208389D01*
X0158684Y0208389D01*
X0158531Y0208393D01*
X0158378Y0208401D01*
X0158225Y0208413D01*
X0158073Y0208429D01*
X0157920Y0208449D01*
X0157769Y0208473D01*
X0157618Y0208501D01*
X0157468Y0208532D01*
X0157319Y0208568D01*
X0157171Y0208607D01*
X0157024Y0208650D01*
X0156878Y0208697D01*
X0156733Y0208748D01*
X0156590Y0208803D01*
X0156448Y0208861D01*
X0156308Y0208923D01*
X0156169Y0208988D01*
X0156032Y0209057D01*
X0155897Y0209130D01*
X0155764Y0209206D01*
X0155633Y0209286D01*
X0155504Y0209368D01*
X0155377Y0209455D01*
X0155252Y0209544D01*
X0155130Y0209637D01*
X0155011Y0209733D01*
X0154893Y0209832D01*
X0154779Y0209933D01*
X0154667Y0210038D01*
X0154558Y0210146D01*
X0154452Y0210257D01*
X0154348Y0210370D01*
X0154248Y0210486D01*
X0154150Y0210604D01*
X0154056Y0210725D01*
X0153965Y0210848D01*
X0153877Y0210974D01*
X0153793Y0211102D01*
X0153711Y0211232D01*
X0153634Y0211364D01*
X0153559Y0211498D01*
X0153488Y0211634D01*
X0153421Y0211772D01*
X0153357Y0211912D01*
X0153297Y0212053D01*
X0153241Y0212195D01*
X0153188Y0212339D01*
X0153139Y0212485D01*
X0153094Y0212631D01*
X0153053Y0212779D01*
X0153016Y0212927D01*
X0152982Y0213077D01*
X0152952Y0213228D01*
X0152927Y0213379D01*
X0152905Y0213530D01*
X0152887Y0213683D01*
X0152873Y0213835D01*
X0152863Y0213988D01*
X0152857Y0214142D01*
X0152855Y0214295D01*
M02*
