G75*
%MOIN*%
%OFA0B0*%
%FSLAX25Y25*%
%IPPOS*%
%LPD*%
%AMOC8*
5,1,8,0,0,1.08239X$1,22.5*
%
%ADD10R,0.00040X0.00360*%
%ADD11R,0.00040X0.00600*%
%ADD12R,0.00040X0.00760*%
%ADD13R,0.00040X0.00920*%
%ADD14R,0.00040X0.01000*%
%ADD15R,0.00040X0.01120*%
%ADD16R,0.00040X0.01200*%
%ADD17R,0.00040X0.01280*%
%ADD18R,0.00040X0.01360*%
%ADD19R,0.00040X0.01440*%
%ADD20R,0.00040X0.01520*%
%ADD21R,0.00040X0.01560*%
%ADD22R,0.00040X0.01640*%
%ADD23R,0.00040X0.01680*%
%ADD24R,0.00040X0.01760*%
%ADD25R,0.00040X0.01800*%
%ADD26R,0.00040X0.01840*%
%ADD27R,0.00040X0.01880*%
%ADD28R,0.00040X0.01920*%
%ADD29R,0.00040X0.01960*%
%ADD30R,0.00040X0.02040*%
%ADD31R,0.00040X0.02080*%
%ADD32R,0.00040X0.02080*%
%ADD33R,0.00040X0.02120*%
%ADD34R,0.00040X0.02160*%
%ADD35R,0.00040X0.02200*%
%ADD36R,0.00040X0.02240*%
%ADD37R,0.00040X0.02280*%
%ADD38R,0.00040X0.02320*%
%ADD39R,0.00040X0.01800*%
%ADD40R,0.00040X0.01720*%
%ADD41R,0.00040X0.01640*%
%ADD42R,0.00040X0.01560*%
%ADD43R,0.00040X0.01520*%
%ADD44R,0.00040X0.01480*%
%ADD45R,0.00040X0.01400*%
%ADD46R,0.00040X0.01360*%
%ADD47R,0.00040X0.01320*%
%ADD48R,0.00040X0.01280*%
%ADD49R,0.00040X0.01240*%
%ADD50R,0.00040X0.01200*%
%ADD51R,0.00040X0.01240*%
%ADD52R,0.00040X0.01160*%
%ADD53R,0.00040X0.01160*%
%ADD54R,0.00040X0.00920*%
%ADD55R,0.00040X0.00920*%
%ADD56R,0.00040X0.11400*%
%ADD57R,0.00040X0.11440*%
%ADD58R,0.00040X0.11400*%
%ADD59R,0.00040X0.02040*%
%ADD60R,0.00040X0.02520*%
%ADD61R,0.00040X0.02520*%
%ADD62R,0.00040X0.11360*%
%ADD63R,0.00040X0.02760*%
%ADD64R,0.00040X0.02720*%
%ADD65R,0.00040X0.11360*%
%ADD66R,0.00040X0.02920*%
%ADD67R,0.00040X0.02920*%
%ADD68R,0.00040X0.03080*%
%ADD69R,0.00040X0.03240*%
%ADD70R,0.00040X0.03240*%
%ADD71R,0.00040X0.11320*%
%ADD72R,0.00040X0.03400*%
%ADD73R,0.00040X0.11320*%
%ADD74R,0.00040X0.03560*%
%ADD75R,0.00040X0.11280*%
%ADD76R,0.00040X0.03680*%
%ADD77R,0.00040X0.03640*%
%ADD78R,0.00040X0.03800*%
%ADD79R,0.00040X0.03920*%
%ADD80R,0.00040X0.03960*%
%ADD81R,0.00040X0.04040*%
%ADD82R,0.00040X0.04040*%
%ADD83R,0.00040X0.11240*%
%ADD84R,0.00040X0.04160*%
%ADD85R,0.00040X0.04120*%
%ADD86R,0.00040X0.11200*%
%ADD87R,0.00040X0.04280*%
%ADD88R,0.00040X0.04360*%
%ADD89R,0.00040X0.04480*%
%ADD90R,0.00040X0.04440*%
%ADD91R,0.00040X0.11160*%
%ADD92R,0.00040X0.04560*%
%ADD93R,0.00040X0.04600*%
%ADD94R,0.00040X0.11120*%
%ADD95R,0.00040X0.04640*%
%ADD96R,0.00040X0.04680*%
%ADD97R,0.00040X0.11120*%
%ADD98R,0.00040X0.04760*%
%ADD99R,0.00040X0.04840*%
%ADD100R,0.00040X0.04840*%
%ADD101R,0.00040X0.11080*%
%ADD102R,0.00040X0.04920*%
%ADD103R,0.00040X0.04920*%
%ADD104R,0.00040X0.11040*%
%ADD105R,0.00040X0.05000*%
%ADD106R,0.00040X0.11040*%
%ADD107R,0.00040X0.05080*%
%ADD108R,0.00040X0.05160*%
%ADD109R,0.00040X0.11000*%
%ADD110R,0.00040X0.05240*%
%ADD111R,0.00040X0.05240*%
%ADD112R,0.00040X0.10960*%
%ADD113R,0.00040X0.02240*%
%ADD114R,0.00040X0.02040*%
%ADD115R,0.00040X0.02040*%
%ADD116R,0.00040X0.02000*%
%ADD117R,0.00040X0.01920*%
%ADD118R,0.00040X0.01840*%
%ADD119R,0.00040X0.01840*%
%ADD120R,0.00040X0.01720*%
%ADD121R,0.00040X0.01680*%
%ADD122R,0.00040X0.01760*%
%ADD123R,0.00040X0.01720*%
%ADD124R,0.00040X0.01720*%
%ADD125R,0.00040X0.01240*%
%ADD126R,0.00040X0.01600*%
%ADD127R,0.00040X0.01520*%
%ADD128R,0.00040X0.01320*%
%ADD129R,0.00040X0.01440*%
%ADD130R,0.00040X0.01440*%
%ADD131R,0.00040X0.01480*%
%ADD132R,0.00040X0.01440*%
%ADD133R,0.00040X0.01320*%
%ADD134R,0.00040X0.01320*%
%ADD135R,0.00040X0.01400*%
%ADD136R,0.00040X0.01240*%
%ADD137R,0.00040X0.01640*%
%ADD138R,0.00040X0.01600*%
%ADD139R,0.00040X0.01880*%
%ADD140R,0.00040X0.01520*%
%ADD141R,0.00040X0.02360*%
%ADD142R,0.00040X0.02440*%
%ADD143R,0.00040X0.02560*%
%ADD144R,0.00040X0.02720*%
%ADD145R,0.00040X0.02880*%
%ADD146R,0.00040X0.03440*%
%ADD147R,0.00040X0.02120*%
%ADD148R,0.00040X0.03440*%
%ADD149R,0.00040X0.06880*%
%ADD150R,0.00040X0.03440*%
%ADD151R,0.00040X0.03440*%
%ADD152R,0.00040X0.06800*%
%ADD153R,0.00040X0.06680*%
%ADD154R,0.00040X0.02520*%
%ADD155R,0.00040X0.06560*%
%ADD156R,0.00040X0.02480*%
%ADD157R,0.00040X0.06440*%
%ADD158R,0.00040X0.02440*%
%ADD159R,0.00040X0.06320*%
%ADD160R,0.00040X0.02400*%
%ADD161R,0.00040X0.06200*%
%ADD162R,0.00040X0.02360*%
%ADD163R,0.00040X0.06080*%
%ADD164R,0.00040X0.02320*%
%ADD165R,0.00040X0.05960*%
%ADD166R,0.00040X0.05840*%
%ADD167R,0.00040X0.05680*%
%ADD168R,0.00040X0.05520*%
%ADD169R,0.00040X0.02120*%
%ADD170R,0.00040X0.05360*%
%ADD171R,0.00040X0.01960*%
%ADD172R,0.00040X0.04920*%
%ADD173R,0.00040X0.04720*%
%ADD174R,0.00040X0.04560*%
%ADD175R,0.00040X0.01640*%
%ADD176R,0.00040X0.03960*%
%ADD177R,0.00040X0.03720*%
%ADD178R,0.00040X0.03480*%
%ADD179R,0.00040X0.02960*%
%ADD180R,0.00040X0.02640*%
%ADD181R,0.00040X0.01080*%
%ADD182R,0.00040X0.00920*%
%ADD183R,0.00040X0.00600*%
%ADD184R,0.00040X0.00280*%
%ADD185C,0.00600*%
%ADD186C,0.00300*%
%ADD187C,0.00100*%
%ADD188C,0.00500*%
%ADD189C,0.00400*%
%ADD190C,0.01000*%
%ADD191R,0.06594X0.74606*%
%ADD192R,0.15000X0.03000*%
%ADD193C,0.00700*%
%ADD194C,0.00800*%
D10*
X0339240Y0129622D03*
D11*
X0339200Y0129502D03*
D12*
X0339160Y0129422D03*
X0330880Y0116342D03*
D13*
X0339120Y0129342D03*
D14*
X0339080Y0129302D03*
D15*
X0339040Y0129242D03*
D16*
X0339000Y0129202D03*
X0337000Y0127602D03*
X0334800Y0127762D03*
X0333200Y0118162D03*
X0333400Y0113962D03*
X0333200Y0112042D03*
X0333200Y0106242D03*
X0333000Y0106202D03*
X0333200Y0099002D03*
D17*
X0333560Y0099122D03*
X0333640Y0099162D03*
X0333680Y0099162D03*
X0333720Y0099202D03*
X0333760Y0099202D03*
X0333760Y0104562D03*
X0333720Y0104602D03*
X0333680Y0104602D03*
X0333640Y0104642D03*
X0333640Y0106402D03*
X0333720Y0106442D03*
X0333720Y0111842D03*
X0333760Y0111842D03*
X0333680Y0111882D03*
X0333640Y0111882D03*
X0333560Y0111922D03*
X0333160Y0114042D03*
X0333120Y0114082D03*
X0333080Y0114082D03*
X0333040Y0114122D03*
X0331040Y0116082D03*
X0333560Y0118282D03*
X0333640Y0118322D03*
X0333720Y0118362D03*
X0333760Y0123722D03*
X0333720Y0123762D03*
X0333680Y0123762D03*
X0333640Y0123802D03*
X0334840Y0127762D03*
X0334520Y0127882D03*
X0334440Y0127922D03*
X0334360Y0127962D03*
X0334320Y0127962D03*
X0334280Y0128002D03*
X0334120Y0128082D03*
X0337240Y0127682D03*
X0337280Y0127682D03*
X0337320Y0127722D03*
X0337360Y0127722D03*
X0338960Y0129162D03*
X0334360Y0137242D03*
X0334320Y0137242D03*
X0334240Y0137202D03*
X0334480Y0137322D03*
D18*
X0333960Y0137042D03*
X0333920Y0137002D03*
X0333880Y0137002D03*
X0333840Y0136962D03*
X0333720Y0136882D03*
X0333840Y0128242D03*
X0333880Y0128242D03*
X0333920Y0128202D03*
X0337480Y0127802D03*
X0337520Y0127842D03*
X0337560Y0127842D03*
X0338920Y0129122D03*
X0334040Y0123562D03*
X0333960Y0123602D03*
X0333920Y0123642D03*
X0333960Y0118482D03*
X0331080Y0116042D03*
X0332760Y0114282D03*
X0332880Y0114202D03*
X0333960Y0111722D03*
X0333920Y0104482D03*
X0333960Y0104442D03*
X0334040Y0104402D03*
X0333960Y0099322D03*
D19*
X0334160Y0104322D03*
X0334120Y0106682D03*
X0334160Y0106722D03*
X0334120Y0111602D03*
X0332680Y0114322D03*
X0332640Y0114362D03*
X0334120Y0118602D03*
X0335960Y0121082D03*
X0334160Y0123482D03*
X0333520Y0128482D03*
X0333480Y0128522D03*
X0337680Y0127962D03*
X0338880Y0129082D03*
X0333520Y0136722D03*
X0333560Y0136762D03*
X0333440Y0136682D03*
D20*
X0333280Y0128682D03*
X0333320Y0128642D03*
X0338840Y0129042D03*
X0334360Y0118802D03*
X0332480Y0114482D03*
X0334320Y0111442D03*
X0334360Y0111402D03*
X0334360Y0106882D03*
X0334320Y0106842D03*
X0334360Y0099642D03*
X0334320Y0099602D03*
D21*
X0334400Y0099662D03*
X0334400Y0104102D03*
X0334400Y0106942D03*
X0334400Y0111382D03*
X0334400Y0123262D03*
X0333200Y0128742D03*
X0338800Y0129022D03*
X0333200Y0136462D03*
D22*
X0332960Y0136222D03*
X0332920Y0129022D03*
X0332960Y0128982D03*
X0333040Y0128902D03*
X0338760Y0128982D03*
X0334520Y0118982D03*
X0332280Y0114702D03*
X0334520Y0111222D03*
X0334520Y0107062D03*
X0334520Y0103982D03*
X0334520Y0099822D03*
D23*
X0334560Y0103922D03*
X0332240Y0114722D03*
X0334560Y0123082D03*
X0337920Y0128202D03*
X0338720Y0128962D03*
X0332880Y0129082D03*
X0332840Y0129122D03*
X0332880Y0136162D03*
X0332920Y0136202D03*
D24*
X0332760Y0136002D03*
X0332720Y0135962D03*
X0332760Y0129202D03*
X0338680Y0128922D03*
X0334640Y0123002D03*
X0335920Y0121082D03*
X0334640Y0119122D03*
X0331280Y0115842D03*
X0332160Y0114842D03*
X0334640Y0111082D03*
X0335920Y0109162D03*
X0334640Y0103842D03*
X0334640Y0099962D03*
D25*
X0335920Y0101902D03*
X0334680Y0103782D03*
X0334640Y0107222D03*
X0334680Y0122942D03*
X0332720Y0129262D03*
X0332680Y0129302D03*
X0330920Y0132622D03*
X0332680Y0135902D03*
X0338640Y0128902D03*
D26*
X0338600Y0128882D03*
X0332600Y0135802D03*
D27*
X0332560Y0135742D03*
X0332560Y0129462D03*
X0338040Y0128382D03*
X0338560Y0128862D03*
X0334720Y0122862D03*
X0332120Y0114902D03*
X0334720Y0103702D03*
D28*
X0334720Y0100082D03*
X0334720Y0119242D03*
X0338520Y0128842D03*
X0332520Y0135682D03*
D29*
X0332480Y0135622D03*
X0332480Y0129582D03*
X0338480Y0128822D03*
X0334760Y0122782D03*
X0334760Y0103622D03*
D30*
X0335880Y0101902D03*
X0338080Y0128502D03*
X0338440Y0128782D03*
D31*
X0338400Y0128762D03*
X0334800Y0119402D03*
X0334800Y0110802D03*
X0334800Y0107482D03*
X0334800Y0100242D03*
D32*
X0331480Y0115682D03*
X0335880Y0121082D03*
X0338360Y0128762D03*
X0332360Y0135442D03*
D33*
X0332360Y0129782D03*
X0338320Y0128742D03*
D34*
X0338280Y0128722D03*
X0332320Y0129842D03*
X0332320Y0135362D03*
X0331560Y0115642D03*
D35*
X0334840Y0103422D03*
X0338240Y0128702D03*
D36*
X0338200Y0128682D03*
X0331600Y0115602D03*
D37*
X0331640Y0115582D03*
X0335840Y0109142D03*
X0335840Y0101902D03*
X0338160Y0128662D03*
X0332240Y0130022D03*
X0332240Y0135222D03*
D38*
X0338120Y0128642D03*
X0335840Y0121082D03*
X0331960Y0115282D03*
D39*
X0338000Y0128302D03*
D40*
X0337960Y0128262D03*
X0334560Y0119022D03*
X0331240Y0115862D03*
X0334560Y0099862D03*
D41*
X0334520Y0123142D03*
X0337880Y0128142D03*
D42*
X0337840Y0128102D03*
X0333160Y0128782D03*
X0333120Y0128822D03*
X0333080Y0128862D03*
X0334440Y0123222D03*
X0331160Y0115942D03*
X0334440Y0104062D03*
X0333120Y0136382D03*
X0333160Y0136422D03*
X0333240Y0136502D03*
D43*
X0337800Y0128042D03*
X0334400Y0118842D03*
D44*
X0334280Y0118742D03*
X0334240Y0118702D03*
X0331120Y0115982D03*
X0332520Y0114462D03*
X0332560Y0114422D03*
X0334240Y0111502D03*
X0334280Y0111462D03*
X0334280Y0106822D03*
X0334240Y0106782D03*
X0334280Y0104222D03*
X0334320Y0104182D03*
X0334280Y0099582D03*
X0334240Y0099542D03*
X0334320Y0123342D03*
X0334280Y0123382D03*
X0334240Y0123422D03*
X0333440Y0128542D03*
X0333360Y0128622D03*
X0337720Y0127982D03*
X0337760Y0128022D03*
X0333280Y0136542D03*
X0333320Y0136582D03*
X0333360Y0136622D03*
X0333480Y0136702D03*
D45*
X0333640Y0136822D03*
X0333680Y0136862D03*
X0333760Y0136902D03*
X0333640Y0128382D03*
X0333680Y0128342D03*
X0333720Y0128342D03*
X0333760Y0128302D03*
X0337640Y0127902D03*
X0334080Y0123542D03*
X0334120Y0123502D03*
X0334080Y0118582D03*
X0334040Y0118542D03*
X0332720Y0114302D03*
X0334040Y0111662D03*
X0334080Y0111622D03*
X0334160Y0111582D03*
X0335960Y0109142D03*
X0334080Y0106662D03*
X0334040Y0106622D03*
X0334080Y0104382D03*
X0334120Y0104342D03*
X0335960Y0101902D03*
X0334160Y0099462D03*
X0334120Y0099422D03*
X0334080Y0099422D03*
X0334040Y0099382D03*
D46*
X0334000Y0099362D03*
X0334000Y0104442D03*
X0334000Y0106602D03*
X0334000Y0111682D03*
X0332800Y0114242D03*
X0334000Y0118522D03*
X0334000Y0123602D03*
X0333800Y0128282D03*
X0337600Y0127882D03*
D47*
X0337440Y0127782D03*
X0334080Y0128102D03*
X0334040Y0128142D03*
X0333960Y0128182D03*
X0333840Y0123702D03*
X0333760Y0118382D03*
X0332920Y0114182D03*
X0332960Y0114142D03*
X0333840Y0111782D03*
X0333880Y0111782D03*
X0333920Y0111742D03*
X0333960Y0106582D03*
X0333920Y0106542D03*
X0333880Y0106542D03*
X0333840Y0106502D03*
X0333840Y0104542D03*
X0333880Y0104502D03*
X0333920Y0099302D03*
X0334040Y0137102D03*
X0334080Y0137102D03*
X0334120Y0137142D03*
X0334160Y0137142D03*
D48*
X0334400Y0137282D03*
X0334200Y0128042D03*
X0334400Y0127922D03*
X0334600Y0127842D03*
X0337400Y0127762D03*
X0333800Y0118402D03*
X0333000Y0114122D03*
X0333200Y0114042D03*
X0333800Y0111802D03*
X0333800Y0106482D03*
X0333800Y0099242D03*
D49*
X0333400Y0099062D03*
X0333400Y0106302D03*
X0333600Y0106382D03*
X0333600Y0111902D03*
X0333400Y0111982D03*
X0333400Y0118222D03*
X0333600Y0118302D03*
X0337200Y0127662D03*
X0334600Y0137382D03*
X0334800Y0137462D03*
D50*
X0337160Y0127642D03*
X0337040Y0127602D03*
X0336960Y0127562D03*
X0336920Y0127562D03*
X0336880Y0127562D03*
X0333440Y0118242D03*
X0333360Y0118202D03*
X0333320Y0118202D03*
X0333280Y0118202D03*
X0333240Y0118162D03*
X0333160Y0118162D03*
X0333080Y0118122D03*
X0333040Y0118122D03*
X0333440Y0113962D03*
X0333480Y0113922D03*
X0333520Y0113922D03*
X0333560Y0113922D03*
X0333680Y0113882D03*
X0333720Y0113882D03*
X0333280Y0112042D03*
X0333240Y0112042D03*
X0333320Y0112002D03*
X0333360Y0112002D03*
X0333080Y0112082D03*
X0333040Y0112082D03*
X0333440Y0106322D03*
X0333360Y0106282D03*
X0333320Y0106282D03*
X0333280Y0106282D03*
X0333240Y0106242D03*
X0333160Y0106242D03*
X0333040Y0106202D03*
X0333320Y0099042D03*
X0333360Y0099042D03*
X0333280Y0099002D03*
X0333240Y0099002D03*
X0333080Y0098962D03*
X0333040Y0098962D03*
D51*
X0333440Y0099062D03*
X0333480Y0099102D03*
X0333520Y0099102D03*
X0333560Y0106382D03*
X0333680Y0106422D03*
X0333440Y0111982D03*
X0333360Y0113982D03*
X0333320Y0113982D03*
X0333280Y0114022D03*
X0333240Y0114022D03*
X0333480Y0118262D03*
X0333520Y0118262D03*
X0334720Y0127782D03*
X0334760Y0127782D03*
X0334680Y0127822D03*
X0334640Y0127822D03*
X0334560Y0127862D03*
X0334480Y0127902D03*
X0337080Y0127622D03*
X0337120Y0127622D03*
X0334440Y0137302D03*
X0334640Y0137382D03*
X0334680Y0137422D03*
X0334720Y0137422D03*
X0334760Y0137422D03*
X0334840Y0137462D03*
D52*
X0330880Y0132622D03*
X0336840Y0127542D03*
X0335960Y0125502D03*
X0335920Y0125502D03*
X0335880Y0125502D03*
X0335840Y0125502D03*
X0335760Y0125502D03*
X0335720Y0125502D03*
X0335680Y0125502D03*
X0335640Y0125502D03*
X0335560Y0125502D03*
X0335520Y0125502D03*
X0335480Y0125502D03*
X0335440Y0125502D03*
X0335360Y0125502D03*
X0335320Y0125502D03*
X0335280Y0125502D03*
X0335240Y0125502D03*
X0335160Y0125502D03*
X0335120Y0125502D03*
X0335080Y0125502D03*
X0335040Y0125502D03*
X0334960Y0125502D03*
X0334920Y0125502D03*
X0334880Y0125502D03*
X0334840Y0125502D03*
X0334760Y0125502D03*
X0334720Y0125502D03*
X0334680Y0125502D03*
X0334640Y0125502D03*
X0334560Y0125502D03*
X0334520Y0125502D03*
X0334480Y0125502D03*
X0334440Y0125502D03*
X0334360Y0125502D03*
X0334320Y0125502D03*
X0334280Y0125502D03*
X0334240Y0125502D03*
X0334160Y0125502D03*
X0334120Y0125502D03*
X0334080Y0125502D03*
X0334040Y0125502D03*
X0333960Y0125502D03*
X0333920Y0125502D03*
X0333880Y0125502D03*
X0333840Y0125502D03*
X0333760Y0125502D03*
X0333720Y0125502D03*
X0333680Y0125502D03*
X0333640Y0125502D03*
X0333560Y0125502D03*
X0333520Y0125502D03*
X0333480Y0125502D03*
X0333440Y0125502D03*
X0333360Y0125502D03*
X0333320Y0125502D03*
X0333280Y0125502D03*
X0333240Y0125502D03*
X0333160Y0125502D03*
X0333120Y0125502D03*
X0333080Y0125502D03*
X0333040Y0125502D03*
X0332960Y0125502D03*
X0332920Y0125502D03*
X0332880Y0125502D03*
X0332840Y0125502D03*
X0332760Y0125502D03*
X0332720Y0125502D03*
X0332680Y0125502D03*
X0332640Y0125502D03*
X0332560Y0125502D03*
X0332520Y0125502D03*
X0332480Y0125502D03*
X0332440Y0125502D03*
X0332360Y0125502D03*
X0332320Y0125502D03*
X0332280Y0125502D03*
X0332240Y0125502D03*
X0332160Y0125502D03*
X0332120Y0125502D03*
X0332080Y0125502D03*
X0332040Y0125502D03*
X0331960Y0125502D03*
X0331920Y0125502D03*
X0331880Y0125502D03*
X0331840Y0125502D03*
X0331760Y0125502D03*
X0331720Y0125502D03*
X0331680Y0125502D03*
X0331640Y0125502D03*
X0331560Y0125502D03*
X0331520Y0125502D03*
X0331480Y0125502D03*
X0331440Y0125502D03*
X0331360Y0125502D03*
X0331320Y0125502D03*
X0331280Y0125502D03*
X0331240Y0125502D03*
X0331160Y0125502D03*
X0331120Y0125502D03*
X0331080Y0125502D03*
X0331040Y0125502D03*
X0330960Y0125502D03*
X0330920Y0125502D03*
X0330880Y0125502D03*
X0330840Y0125502D03*
X0330760Y0125502D03*
X0330720Y0125502D03*
X0330680Y0125502D03*
X0330640Y0125502D03*
X0330560Y0125502D03*
X0330520Y0125502D03*
X0330480Y0125502D03*
X0330440Y0125502D03*
X0330360Y0125502D03*
X0330320Y0125502D03*
X0330280Y0125502D03*
X0330240Y0125502D03*
X0330160Y0125502D03*
X0330120Y0125502D03*
X0330080Y0125502D03*
X0330040Y0125502D03*
X0329960Y0125502D03*
X0329920Y0125502D03*
X0329880Y0125502D03*
X0329840Y0125502D03*
X0329760Y0125502D03*
X0329720Y0125502D03*
X0329680Y0125502D03*
X0329640Y0125502D03*
X0329560Y0125502D03*
X0329520Y0125502D03*
X0329480Y0125502D03*
X0329440Y0125502D03*
X0329360Y0125502D03*
X0329320Y0125502D03*
X0329280Y0125502D03*
X0329240Y0125502D03*
X0329160Y0125502D03*
X0329120Y0125502D03*
X0329080Y0125502D03*
X0329040Y0125502D03*
X0328960Y0125502D03*
X0328920Y0125502D03*
X0328880Y0125502D03*
X0328840Y0125502D03*
X0328760Y0125502D03*
X0328760Y0118062D03*
X0328840Y0118062D03*
X0328880Y0118062D03*
X0328920Y0118062D03*
X0328960Y0118062D03*
X0329040Y0118062D03*
X0329080Y0118062D03*
X0329120Y0118062D03*
X0329160Y0118062D03*
X0329240Y0118062D03*
X0329280Y0118062D03*
X0329320Y0118062D03*
X0329360Y0118062D03*
X0329440Y0118062D03*
X0329480Y0118062D03*
X0329520Y0118062D03*
X0329560Y0118062D03*
X0329640Y0118062D03*
X0329680Y0118062D03*
X0329720Y0118062D03*
X0329760Y0118062D03*
X0329840Y0118062D03*
X0329880Y0118062D03*
X0329920Y0118062D03*
X0329960Y0118062D03*
X0330040Y0118062D03*
X0330080Y0118062D03*
X0330120Y0118062D03*
X0330160Y0118062D03*
X0330240Y0118062D03*
X0330280Y0118062D03*
X0330320Y0118062D03*
X0330360Y0118062D03*
X0330440Y0118062D03*
X0330480Y0118062D03*
X0330520Y0118062D03*
X0330560Y0118062D03*
X0330640Y0118062D03*
X0330680Y0118062D03*
X0330720Y0118062D03*
X0330760Y0118062D03*
X0330840Y0118062D03*
X0332040Y0118062D03*
X0332080Y0118062D03*
X0332120Y0118062D03*
X0332160Y0118062D03*
X0332240Y0118062D03*
X0332280Y0118062D03*
X0332320Y0118062D03*
X0332360Y0118062D03*
X0332440Y0118062D03*
X0332480Y0118062D03*
X0332520Y0118062D03*
X0332560Y0118062D03*
X0332640Y0118062D03*
X0332680Y0118062D03*
X0332720Y0118062D03*
X0332760Y0118062D03*
X0332840Y0118102D03*
X0332880Y0118102D03*
X0332920Y0118102D03*
X0332960Y0118102D03*
X0333120Y0118142D03*
X0333640Y0113902D03*
X0333760Y0113862D03*
X0333840Y0113862D03*
X0333880Y0113862D03*
X0333920Y0113862D03*
X0333960Y0113822D03*
X0334040Y0113822D03*
X0334080Y0113822D03*
X0334120Y0113822D03*
X0334160Y0113822D03*
X0334240Y0113822D03*
X0334280Y0113822D03*
X0334320Y0113822D03*
X0334360Y0113822D03*
X0334440Y0113822D03*
X0334480Y0113822D03*
X0334520Y0113822D03*
X0334560Y0113822D03*
X0334640Y0113822D03*
X0334680Y0113822D03*
X0334720Y0113822D03*
X0334760Y0113822D03*
X0334840Y0113822D03*
X0334880Y0113822D03*
X0334920Y0113822D03*
X0334960Y0113822D03*
X0335040Y0113822D03*
X0335080Y0113822D03*
X0335120Y0113822D03*
X0335160Y0113822D03*
X0335240Y0113822D03*
X0335280Y0113822D03*
X0335320Y0113822D03*
X0335360Y0113822D03*
X0335440Y0113822D03*
X0335480Y0113822D03*
X0335520Y0113822D03*
X0335560Y0113822D03*
X0335640Y0113822D03*
X0335680Y0113822D03*
X0335720Y0113822D03*
X0335760Y0113822D03*
X0335840Y0113822D03*
X0335880Y0113822D03*
X0335920Y0113822D03*
X0335960Y0113822D03*
X0333160Y0112062D03*
X0333120Y0112062D03*
X0332960Y0112102D03*
X0332920Y0112102D03*
X0332880Y0112102D03*
X0332840Y0112102D03*
X0332760Y0112142D03*
X0332720Y0112142D03*
X0332680Y0112142D03*
X0332640Y0112142D03*
X0332560Y0112142D03*
X0332520Y0112142D03*
X0332480Y0112142D03*
X0332440Y0112142D03*
X0332360Y0112142D03*
X0332320Y0112142D03*
X0332280Y0112142D03*
X0332240Y0112142D03*
X0332160Y0112142D03*
X0332120Y0112142D03*
X0332080Y0112142D03*
X0332040Y0112142D03*
X0331960Y0112142D03*
X0331920Y0112142D03*
X0331880Y0112142D03*
X0331840Y0112142D03*
X0331760Y0112142D03*
X0331720Y0112142D03*
X0331680Y0112142D03*
X0331640Y0112142D03*
X0331560Y0112142D03*
X0331520Y0112142D03*
X0331480Y0112142D03*
X0331440Y0112142D03*
X0331360Y0112142D03*
X0331320Y0112142D03*
X0331280Y0112142D03*
X0331240Y0112142D03*
X0331160Y0112142D03*
X0331120Y0112142D03*
X0331080Y0112142D03*
X0331080Y0106142D03*
X0331120Y0106142D03*
X0331160Y0106142D03*
X0331240Y0106142D03*
X0331280Y0106142D03*
X0331320Y0106142D03*
X0331360Y0106142D03*
X0331440Y0106142D03*
X0331480Y0106142D03*
X0331520Y0106142D03*
X0331560Y0106142D03*
X0331640Y0106142D03*
X0331680Y0106142D03*
X0331720Y0106142D03*
X0331760Y0106142D03*
X0331840Y0106142D03*
X0331880Y0106142D03*
X0331920Y0106142D03*
X0331960Y0106142D03*
X0332040Y0106142D03*
X0332080Y0106142D03*
X0332120Y0106142D03*
X0332160Y0106142D03*
X0332240Y0106142D03*
X0332280Y0106142D03*
X0332320Y0106142D03*
X0332360Y0106142D03*
X0332440Y0106142D03*
X0332480Y0106142D03*
X0332520Y0106142D03*
X0332560Y0106142D03*
X0332640Y0106142D03*
X0332680Y0106142D03*
X0332720Y0106142D03*
X0332760Y0106142D03*
X0332840Y0106182D03*
X0332880Y0106182D03*
X0332920Y0106182D03*
X0332960Y0106182D03*
X0333080Y0106222D03*
X0333120Y0106222D03*
X0333120Y0098982D03*
X0333160Y0098982D03*
X0332960Y0098942D03*
X0332920Y0098942D03*
X0332880Y0098942D03*
X0332840Y0098942D03*
X0332760Y0098902D03*
X0332720Y0098902D03*
X0332680Y0098902D03*
X0332640Y0098902D03*
X0332560Y0098902D03*
X0332520Y0098902D03*
X0332480Y0098902D03*
X0332440Y0098902D03*
X0332360Y0098902D03*
X0332320Y0098902D03*
X0332280Y0098902D03*
X0332240Y0098902D03*
X0332160Y0098902D03*
X0332120Y0098902D03*
X0332080Y0098902D03*
X0332040Y0098902D03*
X0330840Y0098902D03*
X0330760Y0098902D03*
X0330720Y0098902D03*
X0330680Y0098902D03*
X0330640Y0098902D03*
X0330560Y0098902D03*
X0330520Y0098902D03*
X0330480Y0098902D03*
X0330440Y0098902D03*
X0330360Y0098902D03*
X0330320Y0098902D03*
X0330280Y0098902D03*
X0330240Y0098902D03*
X0330160Y0098902D03*
X0330120Y0098902D03*
X0330080Y0098902D03*
X0330040Y0098902D03*
X0329960Y0098902D03*
X0329920Y0098902D03*
X0329880Y0098902D03*
X0329840Y0098902D03*
X0329760Y0098902D03*
X0329720Y0098902D03*
X0329680Y0098902D03*
X0329640Y0098902D03*
X0329560Y0098902D03*
X0329520Y0098902D03*
X0329480Y0098902D03*
X0329440Y0098902D03*
X0329360Y0098902D03*
X0329320Y0098902D03*
X0329280Y0098902D03*
X0329240Y0098902D03*
X0329160Y0098902D03*
X0329120Y0098902D03*
X0329080Y0098902D03*
X0329040Y0098902D03*
X0328960Y0098902D03*
X0328920Y0098902D03*
X0328880Y0098902D03*
X0328840Y0098902D03*
X0328760Y0098902D03*
D53*
X0328800Y0098902D03*
X0329000Y0098902D03*
X0329200Y0098902D03*
X0329400Y0098902D03*
X0329600Y0098902D03*
X0329800Y0098902D03*
X0330000Y0098902D03*
X0330200Y0098902D03*
X0330400Y0098902D03*
X0330600Y0098902D03*
X0330800Y0098902D03*
X0332200Y0098902D03*
X0332400Y0098902D03*
X0332600Y0098902D03*
X0332800Y0098902D03*
X0333000Y0098942D03*
X0332600Y0106142D03*
X0332400Y0106142D03*
X0332200Y0106142D03*
X0332000Y0106142D03*
X0331800Y0106142D03*
X0331600Y0106142D03*
X0331400Y0106142D03*
X0331200Y0106142D03*
X0332800Y0106182D03*
X0333000Y0112102D03*
X0332800Y0112142D03*
X0332600Y0112142D03*
X0332400Y0112142D03*
X0332200Y0112142D03*
X0332000Y0112142D03*
X0331800Y0112142D03*
X0331600Y0112142D03*
X0331400Y0112142D03*
X0331200Y0112142D03*
X0333600Y0113902D03*
X0333800Y0113862D03*
X0334000Y0113822D03*
X0334200Y0113822D03*
X0334400Y0113822D03*
X0334600Y0113822D03*
X0334800Y0113822D03*
X0335000Y0113822D03*
X0335200Y0113822D03*
X0335400Y0113822D03*
X0335600Y0113822D03*
X0335800Y0113822D03*
X0333000Y0118102D03*
X0332800Y0118062D03*
X0332600Y0118062D03*
X0332400Y0118062D03*
X0332200Y0118062D03*
X0330800Y0118062D03*
X0330600Y0118062D03*
X0330400Y0118062D03*
X0330200Y0118062D03*
X0330000Y0118062D03*
X0329800Y0118062D03*
X0329600Y0118062D03*
X0329400Y0118062D03*
X0329200Y0118062D03*
X0329000Y0118062D03*
X0328800Y0118062D03*
X0331000Y0116142D03*
X0331000Y0125502D03*
X0330800Y0125502D03*
X0330600Y0125502D03*
X0330400Y0125502D03*
X0330200Y0125502D03*
X0330000Y0125502D03*
X0329800Y0125502D03*
X0329600Y0125502D03*
X0329400Y0125502D03*
X0329200Y0125502D03*
X0329000Y0125502D03*
X0328800Y0125502D03*
X0331200Y0125502D03*
X0331400Y0125502D03*
X0331600Y0125502D03*
X0331800Y0125502D03*
X0332000Y0125502D03*
X0332200Y0125502D03*
X0332400Y0125502D03*
X0332600Y0125502D03*
X0332800Y0125502D03*
X0333000Y0125502D03*
X0333200Y0125502D03*
X0333400Y0125502D03*
X0333600Y0125502D03*
X0333800Y0125502D03*
X0334000Y0125502D03*
X0334200Y0125502D03*
X0334400Y0125502D03*
X0334600Y0125502D03*
X0334800Y0125502D03*
X0335000Y0125502D03*
X0335200Y0125502D03*
X0335400Y0125502D03*
X0335600Y0125502D03*
X0335800Y0125502D03*
X0336000Y0125502D03*
X0336800Y0127542D03*
D54*
X0336000Y0109142D03*
X0336000Y0101902D03*
D55*
X0336000Y0121062D03*
D56*
X0336000Y0132622D03*
D57*
X0335960Y0132602D03*
D58*
X0335920Y0132622D03*
X0335880Y0132622D03*
X0335840Y0132622D03*
D59*
X0335880Y0109142D03*
D60*
X0335800Y0109142D03*
X0335800Y0101902D03*
D61*
X0335800Y0121062D03*
D62*
X0335800Y0132602D03*
D63*
X0335760Y0121062D03*
X0335760Y0101902D03*
D64*
X0335760Y0109162D03*
D65*
X0335760Y0132602D03*
X0335720Y0132602D03*
X0335680Y0132602D03*
D66*
X0335720Y0109142D03*
X0335720Y0101902D03*
D67*
X0335720Y0121062D03*
X0332040Y0134662D03*
D68*
X0335680Y0121062D03*
X0335680Y0109142D03*
X0335680Y0101902D03*
D69*
X0335640Y0101902D03*
X0335640Y0121062D03*
X0331080Y0132622D03*
D70*
X0335640Y0109142D03*
D71*
X0335640Y0132622D03*
D72*
X0335600Y0121062D03*
X0335600Y0109142D03*
X0335600Y0101902D03*
D73*
X0335600Y0132622D03*
D74*
X0335560Y0121062D03*
X0335560Y0109142D03*
X0335560Y0101902D03*
D75*
X0335560Y0132602D03*
X0335520Y0132602D03*
X0335480Y0132602D03*
X0335440Y0132602D03*
D76*
X0335520Y0109162D03*
X0335520Y0101882D03*
D77*
X0335520Y0121062D03*
D78*
X0335480Y0121062D03*
X0335480Y0109142D03*
X0335480Y0101902D03*
D79*
X0335440Y0101882D03*
D80*
X0335440Y0109142D03*
X0335440Y0121062D03*
D81*
X0335400Y0121062D03*
X0335400Y0101902D03*
D82*
X0335400Y0109142D03*
D83*
X0335400Y0132622D03*
D84*
X0331240Y0132602D03*
X0335360Y0109162D03*
X0335360Y0101882D03*
D85*
X0335360Y0121062D03*
D86*
X0335360Y0132602D03*
X0335320Y0132602D03*
X0335280Y0132602D03*
D87*
X0335320Y0121062D03*
X0335320Y0109142D03*
X0335320Y0101902D03*
D88*
X0335280Y0101902D03*
X0335280Y0109142D03*
X0335280Y0121062D03*
X0331280Y0132622D03*
D89*
X0335240Y0109162D03*
X0335240Y0101882D03*
D90*
X0335240Y0121062D03*
D91*
X0335240Y0132622D03*
D92*
X0335200Y0121042D03*
X0335200Y0101882D03*
D93*
X0335200Y0109142D03*
D94*
X0335200Y0132602D03*
D95*
X0335160Y0101882D03*
D96*
X0335160Y0109142D03*
X0335160Y0121062D03*
D97*
X0335160Y0132602D03*
X0335120Y0132602D03*
D98*
X0335120Y0121062D03*
X0335120Y0109142D03*
X0335120Y0101902D03*
D99*
X0335080Y0101902D03*
X0335080Y0121062D03*
D100*
X0335080Y0109142D03*
D101*
X0335080Y0132622D03*
D102*
X0335040Y0109142D03*
X0335040Y0101902D03*
D103*
X0335040Y0121062D03*
D104*
X0335040Y0132602D03*
X0334960Y0132602D03*
D105*
X0335000Y0121062D03*
X0335000Y0109142D03*
X0335000Y0101902D03*
D106*
X0335000Y0132602D03*
D107*
X0331440Y0132622D03*
X0334960Y0121062D03*
X0334960Y0109142D03*
X0334960Y0101902D03*
D108*
X0334920Y0101902D03*
X0334920Y0109142D03*
X0334920Y0121062D03*
D109*
X0334920Y0132622D03*
D110*
X0331480Y0132622D03*
X0334880Y0121062D03*
X0334880Y0101902D03*
D111*
X0334880Y0109142D03*
D112*
X0334880Y0132602D03*
D113*
X0332280Y0129922D03*
X0330960Y0132602D03*
X0332280Y0135282D03*
X0334840Y0122602D03*
X0334840Y0119522D03*
X0334840Y0110682D03*
X0334840Y0107602D03*
X0334840Y0100362D03*
D114*
X0334800Y0103542D03*
D115*
X0334800Y0122702D03*
X0332400Y0129702D03*
X0332400Y0135502D03*
D116*
X0332440Y0135562D03*
X0332440Y0129642D03*
X0334760Y0119322D03*
X0331440Y0115722D03*
X0332040Y0115042D03*
X0334760Y0110882D03*
X0334760Y0107402D03*
X0334760Y0100162D03*
D117*
X0334720Y0107322D03*
X0334720Y0110962D03*
X0332080Y0114962D03*
X0331360Y0115762D03*
X0332520Y0129522D03*
D118*
X0332640Y0135842D03*
X0334680Y0100042D03*
D119*
X0334680Y0107282D03*
X0334680Y0111002D03*
X0331320Y0115802D03*
X0334680Y0119202D03*
X0332640Y0129362D03*
D120*
X0332200Y0114782D03*
X0334600Y0111142D03*
X0334600Y0099902D03*
D121*
X0334600Y0103882D03*
X0334600Y0123042D03*
D122*
X0332800Y0129162D03*
X0334600Y0107162D03*
D123*
X0334600Y0119062D03*
X0332800Y0136062D03*
D124*
X0332840Y0136102D03*
X0334560Y0111182D03*
X0334560Y0107102D03*
D125*
X0333520Y0106342D03*
X0333480Y0106342D03*
X0333480Y0111942D03*
X0333520Y0111942D03*
X0333680Y0118342D03*
X0334520Y0137342D03*
X0334560Y0137342D03*
D126*
X0333080Y0136362D03*
X0333040Y0136322D03*
X0334480Y0123202D03*
X0334480Y0118922D03*
X0334440Y0118882D03*
X0332320Y0114642D03*
X0332360Y0114602D03*
X0334440Y0111322D03*
X0334480Y0111282D03*
X0334480Y0107002D03*
X0334440Y0106962D03*
X0334480Y0104042D03*
X0334480Y0099762D03*
X0334440Y0099722D03*
D127*
X0334360Y0104162D03*
X0332440Y0114522D03*
X0334320Y0118762D03*
X0334360Y0123322D03*
X0333240Y0128722D03*
D128*
X0334160Y0128062D03*
X0334240Y0128022D03*
X0333880Y0123662D03*
X0333880Y0118462D03*
X0333920Y0118462D03*
X0333840Y0118422D03*
X0332840Y0114222D03*
X0333760Y0106462D03*
X0333840Y0099262D03*
X0333880Y0099262D03*
X0334280Y0137222D03*
D129*
X0333560Y0128442D03*
X0334160Y0118642D03*
X0334240Y0104242D03*
D130*
X0334200Y0104282D03*
X0334200Y0106762D03*
X0334200Y0099482D03*
X0332600Y0114402D03*
X0334200Y0118682D03*
X0333600Y0136802D03*
D131*
X0333400Y0128582D03*
X0334200Y0111542D03*
D132*
X0334200Y0123442D03*
X0333400Y0136642D03*
D133*
X0334200Y0137182D03*
X0334000Y0128142D03*
X0333800Y0123702D03*
X0333800Y0104542D03*
D134*
X0334000Y0137062D03*
D135*
X0333800Y0136942D03*
X0333600Y0128422D03*
D136*
X0333600Y0099142D03*
D137*
X0333000Y0128942D03*
D138*
X0333000Y0136282D03*
D139*
X0332600Y0129422D03*
D140*
X0332400Y0114562D03*
D141*
X0332200Y0130102D03*
X0332200Y0135142D03*
D142*
X0332160Y0135022D03*
X0332160Y0130182D03*
D143*
X0332120Y0130282D03*
X0332120Y0134922D03*
X0331920Y0115442D03*
D144*
X0332080Y0130402D03*
X0332080Y0134802D03*
D145*
X0332040Y0130562D03*
D146*
X0332000Y0100042D03*
X0331800Y0100042D03*
X0331600Y0100042D03*
X0331400Y0100042D03*
X0331200Y0100042D03*
X0331000Y0100042D03*
D147*
X0332000Y0115142D03*
D148*
X0332000Y0119202D03*
X0331800Y0119202D03*
X0331600Y0119202D03*
X0331400Y0119202D03*
X0331200Y0119202D03*
X0331000Y0119202D03*
D149*
X0332000Y0132602D03*
D150*
X0331960Y0100042D03*
X0331920Y0100042D03*
X0331880Y0100042D03*
X0331840Y0100042D03*
X0331760Y0100042D03*
X0331720Y0100042D03*
X0331680Y0100042D03*
X0331640Y0100042D03*
X0331560Y0100042D03*
X0331520Y0100042D03*
X0331480Y0100042D03*
X0331440Y0100042D03*
X0331360Y0100042D03*
X0331320Y0100042D03*
X0331280Y0100042D03*
X0331240Y0100042D03*
X0331160Y0100042D03*
X0331120Y0100042D03*
X0331080Y0100042D03*
X0331040Y0100042D03*
X0330960Y0100042D03*
X0330920Y0100042D03*
X0330880Y0100042D03*
D151*
X0330880Y0119202D03*
X0330920Y0119202D03*
X0330960Y0119202D03*
X0331040Y0119202D03*
X0331080Y0119202D03*
X0331120Y0119202D03*
X0331160Y0119202D03*
X0331240Y0119202D03*
X0331280Y0119202D03*
X0331320Y0119202D03*
X0331360Y0119202D03*
X0331440Y0119202D03*
X0331480Y0119202D03*
X0331520Y0119202D03*
X0331560Y0119202D03*
X0331640Y0119202D03*
X0331680Y0119202D03*
X0331720Y0119202D03*
X0331760Y0119202D03*
X0331840Y0119202D03*
X0331880Y0119202D03*
X0331920Y0119202D03*
X0331960Y0119202D03*
D152*
X0331960Y0132602D03*
D153*
X0331920Y0132622D03*
D154*
X0331880Y0115462D03*
D155*
X0331880Y0132602D03*
D156*
X0331840Y0115482D03*
D157*
X0331840Y0132622D03*
D158*
X0331800Y0115502D03*
D159*
X0331800Y0132602D03*
D160*
X0331760Y0115522D03*
D161*
X0331760Y0132622D03*
D162*
X0331720Y0115542D03*
D163*
X0331720Y0132602D03*
D164*
X0331680Y0115562D03*
D165*
X0331680Y0132622D03*
D166*
X0331640Y0132602D03*
D167*
X0331600Y0132602D03*
D168*
X0331560Y0132602D03*
D169*
X0331520Y0115662D03*
D170*
X0331520Y0132602D03*
D171*
X0331400Y0115742D03*
D172*
X0331400Y0132622D03*
D173*
X0331360Y0132602D03*
D174*
X0331320Y0132602D03*
D175*
X0331200Y0115902D03*
D176*
X0331200Y0132622D03*
D177*
X0331160Y0132622D03*
D178*
X0331120Y0132622D03*
D179*
X0331040Y0132602D03*
D180*
X0331000Y0132602D03*
D181*
X0330960Y0116182D03*
D182*
X0330920Y0116262D03*
D183*
X0330840Y0116422D03*
D184*
X0330800Y0116582D03*
D185*
X0019300Y0017202D02*
X0013800Y0017202D01*
X0013800Y0057202D01*
X0019300Y0057202D01*
X0036300Y0057202D01*
X0036300Y0017202D01*
X0019300Y0017202D01*
X0019300Y0057202D01*
X0019300Y0066802D02*
X0013800Y0066802D01*
X0013800Y0106802D01*
X0019300Y0106802D01*
X0019300Y0146802D01*
X0013800Y0146802D01*
X0013800Y0186802D01*
X0019300Y0186802D01*
X0019300Y0226802D01*
X0036300Y0226802D01*
X0036300Y0186802D01*
X0019300Y0186802D01*
X0036300Y0186802D01*
X0043300Y0186802D01*
X0043300Y0226802D01*
X0039800Y0226802D01*
X0036300Y0226802D01*
X0035800Y0228802D01*
X0040300Y0228802D01*
X0039800Y0226802D01*
X0043300Y0226802D02*
X0036300Y0226802D01*
X0019300Y0226802D01*
X0013800Y0226802D01*
X0013800Y0186802D01*
X0019300Y0186802D01*
X0019300Y0146802D01*
X0036300Y0146802D01*
X0036300Y0186802D01*
X0039800Y0186802D01*
X0043300Y0186802D01*
X0043300Y0146802D01*
X0036300Y0146802D01*
X0019300Y0146802D01*
X0013800Y0146802D01*
X0013800Y0106802D01*
X0019300Y0106802D01*
X0036300Y0106802D01*
X0036300Y0146802D01*
X0039800Y0146802D01*
X0043300Y0146802D01*
X0043300Y0106802D01*
X0036300Y0106802D01*
X0019300Y0106802D01*
X0019300Y0066802D01*
X0036300Y0066802D01*
X0036300Y0106802D01*
X0039800Y0106802D01*
X0043300Y0106802D01*
X0043300Y0066802D01*
X0036300Y0066802D01*
X0035800Y0059202D02*
X0036300Y0057202D01*
X0039800Y0057202D01*
X0043300Y0057202D01*
X0043300Y0017202D01*
X0036300Y0017202D01*
X0044595Y0019336D02*
X0048865Y0019336D01*
X0051000Y0017201D01*
X0048865Y0015066D01*
X0044595Y0015066D01*
X0045662Y0021511D02*
X0049932Y0021511D01*
X0051000Y0022579D01*
X0051000Y0024714D01*
X0049932Y0025782D01*
X0049932Y0027957D02*
X0045662Y0027957D01*
X0044595Y0029024D01*
X0044595Y0031160D01*
X0045662Y0032227D01*
X0049932Y0032227D02*
X0051000Y0031160D01*
X0051000Y0029024D01*
X0049932Y0027957D01*
X0045662Y0025782D02*
X0044595Y0024714D01*
X0044595Y0022579D01*
X0045662Y0021511D01*
X0037800Y0027302D02*
X0037802Y0027391D01*
X0037808Y0027480D01*
X0037818Y0027569D01*
X0037832Y0027657D01*
X0037849Y0027744D01*
X0037871Y0027830D01*
X0037897Y0027916D01*
X0037926Y0028000D01*
X0037959Y0028083D01*
X0037995Y0028164D01*
X0038036Y0028244D01*
X0038079Y0028321D01*
X0038126Y0028397D01*
X0038177Y0028470D01*
X0038230Y0028541D01*
X0038287Y0028610D01*
X0038347Y0028676D01*
X0038410Y0028740D01*
X0038475Y0028800D01*
X0038543Y0028858D01*
X0038614Y0028912D01*
X0038687Y0028963D01*
X0038762Y0029011D01*
X0038839Y0029056D01*
X0038918Y0029097D01*
X0038999Y0029134D01*
X0039081Y0029168D01*
X0039165Y0029199D01*
X0039250Y0029225D01*
X0039336Y0029248D01*
X0039423Y0029266D01*
X0039511Y0029281D01*
X0039600Y0029292D01*
X0039689Y0029299D01*
X0039778Y0029302D01*
X0039867Y0029301D01*
X0039956Y0029296D01*
X0040044Y0029287D01*
X0040133Y0029274D01*
X0040220Y0029257D01*
X0040307Y0029237D01*
X0040393Y0029212D01*
X0040477Y0029184D01*
X0040560Y0029152D01*
X0040642Y0029116D01*
X0040722Y0029077D01*
X0040800Y0029034D01*
X0040876Y0028988D01*
X0040950Y0028938D01*
X0041022Y0028885D01*
X0041091Y0028829D01*
X0041158Y0028770D01*
X0041222Y0028708D01*
X0041283Y0028644D01*
X0041342Y0028576D01*
X0041397Y0028506D01*
X0041449Y0028434D01*
X0041498Y0028359D01*
X0041543Y0028283D01*
X0041585Y0028204D01*
X0041623Y0028124D01*
X0041658Y0028042D01*
X0041689Y0027958D01*
X0041717Y0027873D01*
X0041740Y0027787D01*
X0041760Y0027700D01*
X0041776Y0027613D01*
X0041788Y0027524D01*
X0041796Y0027436D01*
X0041800Y0027347D01*
X0041800Y0027257D01*
X0041796Y0027168D01*
X0041788Y0027080D01*
X0041776Y0026991D01*
X0041760Y0026904D01*
X0041740Y0026817D01*
X0041717Y0026731D01*
X0041689Y0026646D01*
X0041658Y0026562D01*
X0041623Y0026480D01*
X0041585Y0026400D01*
X0041543Y0026321D01*
X0041498Y0026245D01*
X0041449Y0026170D01*
X0041397Y0026098D01*
X0041342Y0026028D01*
X0041283Y0025960D01*
X0041222Y0025896D01*
X0041158Y0025834D01*
X0041091Y0025775D01*
X0041022Y0025719D01*
X0040950Y0025666D01*
X0040876Y0025616D01*
X0040800Y0025570D01*
X0040722Y0025527D01*
X0040642Y0025488D01*
X0040560Y0025452D01*
X0040477Y0025420D01*
X0040393Y0025392D01*
X0040307Y0025367D01*
X0040220Y0025347D01*
X0040133Y0025330D01*
X0040044Y0025317D01*
X0039956Y0025308D01*
X0039867Y0025303D01*
X0039778Y0025302D01*
X0039689Y0025305D01*
X0039600Y0025312D01*
X0039511Y0025323D01*
X0039423Y0025338D01*
X0039336Y0025356D01*
X0039250Y0025379D01*
X0039165Y0025405D01*
X0039081Y0025436D01*
X0038999Y0025470D01*
X0038918Y0025507D01*
X0038839Y0025548D01*
X0038762Y0025593D01*
X0038687Y0025641D01*
X0038614Y0025692D01*
X0038543Y0025746D01*
X0038475Y0025804D01*
X0038410Y0025864D01*
X0038347Y0025928D01*
X0038287Y0025994D01*
X0038230Y0026063D01*
X0038177Y0026134D01*
X0038126Y0026207D01*
X0038079Y0026283D01*
X0038036Y0026360D01*
X0037995Y0026440D01*
X0037959Y0026521D01*
X0037926Y0026604D01*
X0037897Y0026688D01*
X0037871Y0026774D01*
X0037849Y0026860D01*
X0037832Y0026947D01*
X0037818Y0027035D01*
X0037808Y0027124D01*
X0037802Y0027213D01*
X0037800Y0027302D01*
X0046162Y0039066D02*
X0050432Y0039066D01*
X0051500Y0040133D01*
X0051500Y0042269D01*
X0050432Y0043336D01*
X0048297Y0043336D01*
X0048297Y0041201D01*
X0046162Y0039066D02*
X0045095Y0040133D01*
X0045095Y0042269D01*
X0046162Y0043336D01*
X0045095Y0045511D02*
X0051500Y0049782D01*
X0045095Y0049782D01*
X0045095Y0051957D02*
X0045095Y0055160D01*
X0046162Y0056227D01*
X0050432Y0056227D01*
X0051500Y0055160D01*
X0051500Y0051957D01*
X0045095Y0051957D01*
X0045095Y0045511D02*
X0051500Y0045511D01*
X0054969Y0040524D02*
X0054969Y0060681D01*
X0040300Y0059202D02*
X0039800Y0057202D01*
X0040300Y0059202D02*
X0035800Y0059202D01*
X0037800Y0047102D02*
X0037802Y0047191D01*
X0037808Y0047280D01*
X0037818Y0047369D01*
X0037832Y0047457D01*
X0037849Y0047544D01*
X0037871Y0047630D01*
X0037897Y0047716D01*
X0037926Y0047800D01*
X0037959Y0047883D01*
X0037995Y0047964D01*
X0038036Y0048044D01*
X0038079Y0048121D01*
X0038126Y0048197D01*
X0038177Y0048270D01*
X0038230Y0048341D01*
X0038287Y0048410D01*
X0038347Y0048476D01*
X0038410Y0048540D01*
X0038475Y0048600D01*
X0038543Y0048658D01*
X0038614Y0048712D01*
X0038687Y0048763D01*
X0038762Y0048811D01*
X0038839Y0048856D01*
X0038918Y0048897D01*
X0038999Y0048934D01*
X0039081Y0048968D01*
X0039165Y0048999D01*
X0039250Y0049025D01*
X0039336Y0049048D01*
X0039423Y0049066D01*
X0039511Y0049081D01*
X0039600Y0049092D01*
X0039689Y0049099D01*
X0039778Y0049102D01*
X0039867Y0049101D01*
X0039956Y0049096D01*
X0040044Y0049087D01*
X0040133Y0049074D01*
X0040220Y0049057D01*
X0040307Y0049037D01*
X0040393Y0049012D01*
X0040477Y0048984D01*
X0040560Y0048952D01*
X0040642Y0048916D01*
X0040722Y0048877D01*
X0040800Y0048834D01*
X0040876Y0048788D01*
X0040950Y0048738D01*
X0041022Y0048685D01*
X0041091Y0048629D01*
X0041158Y0048570D01*
X0041222Y0048508D01*
X0041283Y0048444D01*
X0041342Y0048376D01*
X0041397Y0048306D01*
X0041449Y0048234D01*
X0041498Y0048159D01*
X0041543Y0048083D01*
X0041585Y0048004D01*
X0041623Y0047924D01*
X0041658Y0047842D01*
X0041689Y0047758D01*
X0041717Y0047673D01*
X0041740Y0047587D01*
X0041760Y0047500D01*
X0041776Y0047413D01*
X0041788Y0047324D01*
X0041796Y0047236D01*
X0041800Y0047147D01*
X0041800Y0047057D01*
X0041796Y0046968D01*
X0041788Y0046880D01*
X0041776Y0046791D01*
X0041760Y0046704D01*
X0041740Y0046617D01*
X0041717Y0046531D01*
X0041689Y0046446D01*
X0041658Y0046362D01*
X0041623Y0046280D01*
X0041585Y0046200D01*
X0041543Y0046121D01*
X0041498Y0046045D01*
X0041449Y0045970D01*
X0041397Y0045898D01*
X0041342Y0045828D01*
X0041283Y0045760D01*
X0041222Y0045696D01*
X0041158Y0045634D01*
X0041091Y0045575D01*
X0041022Y0045519D01*
X0040950Y0045466D01*
X0040876Y0045416D01*
X0040800Y0045370D01*
X0040722Y0045327D01*
X0040642Y0045288D01*
X0040560Y0045252D01*
X0040477Y0045220D01*
X0040393Y0045192D01*
X0040307Y0045167D01*
X0040220Y0045147D01*
X0040133Y0045130D01*
X0040044Y0045117D01*
X0039956Y0045108D01*
X0039867Y0045103D01*
X0039778Y0045102D01*
X0039689Y0045105D01*
X0039600Y0045112D01*
X0039511Y0045123D01*
X0039423Y0045138D01*
X0039336Y0045156D01*
X0039250Y0045179D01*
X0039165Y0045205D01*
X0039081Y0045236D01*
X0038999Y0045270D01*
X0038918Y0045307D01*
X0038839Y0045348D01*
X0038762Y0045393D01*
X0038687Y0045441D01*
X0038614Y0045492D01*
X0038543Y0045546D01*
X0038475Y0045604D01*
X0038410Y0045664D01*
X0038347Y0045728D01*
X0038287Y0045794D01*
X0038230Y0045863D01*
X0038177Y0045934D01*
X0038126Y0046007D01*
X0038079Y0046083D01*
X0038036Y0046160D01*
X0037995Y0046240D01*
X0037959Y0046321D01*
X0037926Y0046404D01*
X0037897Y0046488D01*
X0037871Y0046574D01*
X0037849Y0046660D01*
X0037832Y0046747D01*
X0037818Y0046835D01*
X0037808Y0046924D01*
X0037802Y0047013D01*
X0037800Y0047102D01*
X0037800Y0076902D02*
X0037802Y0076991D01*
X0037808Y0077080D01*
X0037818Y0077169D01*
X0037832Y0077257D01*
X0037849Y0077344D01*
X0037871Y0077430D01*
X0037897Y0077516D01*
X0037926Y0077600D01*
X0037959Y0077683D01*
X0037995Y0077764D01*
X0038036Y0077844D01*
X0038079Y0077921D01*
X0038126Y0077997D01*
X0038177Y0078070D01*
X0038230Y0078141D01*
X0038287Y0078210D01*
X0038347Y0078276D01*
X0038410Y0078340D01*
X0038475Y0078400D01*
X0038543Y0078458D01*
X0038614Y0078512D01*
X0038687Y0078563D01*
X0038762Y0078611D01*
X0038839Y0078656D01*
X0038918Y0078697D01*
X0038999Y0078734D01*
X0039081Y0078768D01*
X0039165Y0078799D01*
X0039250Y0078825D01*
X0039336Y0078848D01*
X0039423Y0078866D01*
X0039511Y0078881D01*
X0039600Y0078892D01*
X0039689Y0078899D01*
X0039778Y0078902D01*
X0039867Y0078901D01*
X0039956Y0078896D01*
X0040044Y0078887D01*
X0040133Y0078874D01*
X0040220Y0078857D01*
X0040307Y0078837D01*
X0040393Y0078812D01*
X0040477Y0078784D01*
X0040560Y0078752D01*
X0040642Y0078716D01*
X0040722Y0078677D01*
X0040800Y0078634D01*
X0040876Y0078588D01*
X0040950Y0078538D01*
X0041022Y0078485D01*
X0041091Y0078429D01*
X0041158Y0078370D01*
X0041222Y0078308D01*
X0041283Y0078244D01*
X0041342Y0078176D01*
X0041397Y0078106D01*
X0041449Y0078034D01*
X0041498Y0077959D01*
X0041543Y0077883D01*
X0041585Y0077804D01*
X0041623Y0077724D01*
X0041658Y0077642D01*
X0041689Y0077558D01*
X0041717Y0077473D01*
X0041740Y0077387D01*
X0041760Y0077300D01*
X0041776Y0077213D01*
X0041788Y0077124D01*
X0041796Y0077036D01*
X0041800Y0076947D01*
X0041800Y0076857D01*
X0041796Y0076768D01*
X0041788Y0076680D01*
X0041776Y0076591D01*
X0041760Y0076504D01*
X0041740Y0076417D01*
X0041717Y0076331D01*
X0041689Y0076246D01*
X0041658Y0076162D01*
X0041623Y0076080D01*
X0041585Y0076000D01*
X0041543Y0075921D01*
X0041498Y0075845D01*
X0041449Y0075770D01*
X0041397Y0075698D01*
X0041342Y0075628D01*
X0041283Y0075560D01*
X0041222Y0075496D01*
X0041158Y0075434D01*
X0041091Y0075375D01*
X0041022Y0075319D01*
X0040950Y0075266D01*
X0040876Y0075216D01*
X0040800Y0075170D01*
X0040722Y0075127D01*
X0040642Y0075088D01*
X0040560Y0075052D01*
X0040477Y0075020D01*
X0040393Y0074992D01*
X0040307Y0074967D01*
X0040220Y0074947D01*
X0040133Y0074930D01*
X0040044Y0074917D01*
X0039956Y0074908D01*
X0039867Y0074903D01*
X0039778Y0074902D01*
X0039689Y0074905D01*
X0039600Y0074912D01*
X0039511Y0074923D01*
X0039423Y0074938D01*
X0039336Y0074956D01*
X0039250Y0074979D01*
X0039165Y0075005D01*
X0039081Y0075036D01*
X0038999Y0075070D01*
X0038918Y0075107D01*
X0038839Y0075148D01*
X0038762Y0075193D01*
X0038687Y0075241D01*
X0038614Y0075292D01*
X0038543Y0075346D01*
X0038475Y0075404D01*
X0038410Y0075464D01*
X0038347Y0075528D01*
X0038287Y0075594D01*
X0038230Y0075663D01*
X0038177Y0075734D01*
X0038126Y0075807D01*
X0038079Y0075883D01*
X0038036Y0075960D01*
X0037995Y0076040D01*
X0037959Y0076121D01*
X0037926Y0076204D01*
X0037897Y0076288D01*
X0037871Y0076374D01*
X0037849Y0076460D01*
X0037832Y0076547D01*
X0037818Y0076635D01*
X0037808Y0076724D01*
X0037802Y0076813D01*
X0037800Y0076902D01*
X0037800Y0096702D02*
X0037802Y0096791D01*
X0037808Y0096880D01*
X0037818Y0096969D01*
X0037832Y0097057D01*
X0037849Y0097144D01*
X0037871Y0097230D01*
X0037897Y0097316D01*
X0037926Y0097400D01*
X0037959Y0097483D01*
X0037995Y0097564D01*
X0038036Y0097644D01*
X0038079Y0097721D01*
X0038126Y0097797D01*
X0038177Y0097870D01*
X0038230Y0097941D01*
X0038287Y0098010D01*
X0038347Y0098076D01*
X0038410Y0098140D01*
X0038475Y0098200D01*
X0038543Y0098258D01*
X0038614Y0098312D01*
X0038687Y0098363D01*
X0038762Y0098411D01*
X0038839Y0098456D01*
X0038918Y0098497D01*
X0038999Y0098534D01*
X0039081Y0098568D01*
X0039165Y0098599D01*
X0039250Y0098625D01*
X0039336Y0098648D01*
X0039423Y0098666D01*
X0039511Y0098681D01*
X0039600Y0098692D01*
X0039689Y0098699D01*
X0039778Y0098702D01*
X0039867Y0098701D01*
X0039956Y0098696D01*
X0040044Y0098687D01*
X0040133Y0098674D01*
X0040220Y0098657D01*
X0040307Y0098637D01*
X0040393Y0098612D01*
X0040477Y0098584D01*
X0040560Y0098552D01*
X0040642Y0098516D01*
X0040722Y0098477D01*
X0040800Y0098434D01*
X0040876Y0098388D01*
X0040950Y0098338D01*
X0041022Y0098285D01*
X0041091Y0098229D01*
X0041158Y0098170D01*
X0041222Y0098108D01*
X0041283Y0098044D01*
X0041342Y0097976D01*
X0041397Y0097906D01*
X0041449Y0097834D01*
X0041498Y0097759D01*
X0041543Y0097683D01*
X0041585Y0097604D01*
X0041623Y0097524D01*
X0041658Y0097442D01*
X0041689Y0097358D01*
X0041717Y0097273D01*
X0041740Y0097187D01*
X0041760Y0097100D01*
X0041776Y0097013D01*
X0041788Y0096924D01*
X0041796Y0096836D01*
X0041800Y0096747D01*
X0041800Y0096657D01*
X0041796Y0096568D01*
X0041788Y0096480D01*
X0041776Y0096391D01*
X0041760Y0096304D01*
X0041740Y0096217D01*
X0041717Y0096131D01*
X0041689Y0096046D01*
X0041658Y0095962D01*
X0041623Y0095880D01*
X0041585Y0095800D01*
X0041543Y0095721D01*
X0041498Y0095645D01*
X0041449Y0095570D01*
X0041397Y0095498D01*
X0041342Y0095428D01*
X0041283Y0095360D01*
X0041222Y0095296D01*
X0041158Y0095234D01*
X0041091Y0095175D01*
X0041022Y0095119D01*
X0040950Y0095066D01*
X0040876Y0095016D01*
X0040800Y0094970D01*
X0040722Y0094927D01*
X0040642Y0094888D01*
X0040560Y0094852D01*
X0040477Y0094820D01*
X0040393Y0094792D01*
X0040307Y0094767D01*
X0040220Y0094747D01*
X0040133Y0094730D01*
X0040044Y0094717D01*
X0039956Y0094708D01*
X0039867Y0094703D01*
X0039778Y0094702D01*
X0039689Y0094705D01*
X0039600Y0094712D01*
X0039511Y0094723D01*
X0039423Y0094738D01*
X0039336Y0094756D01*
X0039250Y0094779D01*
X0039165Y0094805D01*
X0039081Y0094836D01*
X0038999Y0094870D01*
X0038918Y0094907D01*
X0038839Y0094948D01*
X0038762Y0094993D01*
X0038687Y0095041D01*
X0038614Y0095092D01*
X0038543Y0095146D01*
X0038475Y0095204D01*
X0038410Y0095264D01*
X0038347Y0095328D01*
X0038287Y0095394D01*
X0038230Y0095463D01*
X0038177Y0095534D01*
X0038126Y0095607D01*
X0038079Y0095683D01*
X0038036Y0095760D01*
X0037995Y0095840D01*
X0037959Y0095921D01*
X0037926Y0096004D01*
X0037897Y0096088D01*
X0037871Y0096174D01*
X0037849Y0096260D01*
X0037832Y0096347D01*
X0037818Y0096435D01*
X0037808Y0096524D01*
X0037802Y0096613D01*
X0037800Y0096702D01*
X0036300Y0106802D02*
X0035800Y0108802D01*
X0040300Y0108802D01*
X0039800Y0106802D01*
X0037800Y0116902D02*
X0037802Y0116991D01*
X0037808Y0117080D01*
X0037818Y0117169D01*
X0037832Y0117257D01*
X0037849Y0117344D01*
X0037871Y0117430D01*
X0037897Y0117516D01*
X0037926Y0117600D01*
X0037959Y0117683D01*
X0037995Y0117764D01*
X0038036Y0117844D01*
X0038079Y0117921D01*
X0038126Y0117997D01*
X0038177Y0118070D01*
X0038230Y0118141D01*
X0038287Y0118210D01*
X0038347Y0118276D01*
X0038410Y0118340D01*
X0038475Y0118400D01*
X0038543Y0118458D01*
X0038614Y0118512D01*
X0038687Y0118563D01*
X0038762Y0118611D01*
X0038839Y0118656D01*
X0038918Y0118697D01*
X0038999Y0118734D01*
X0039081Y0118768D01*
X0039165Y0118799D01*
X0039250Y0118825D01*
X0039336Y0118848D01*
X0039423Y0118866D01*
X0039511Y0118881D01*
X0039600Y0118892D01*
X0039689Y0118899D01*
X0039778Y0118902D01*
X0039867Y0118901D01*
X0039956Y0118896D01*
X0040044Y0118887D01*
X0040133Y0118874D01*
X0040220Y0118857D01*
X0040307Y0118837D01*
X0040393Y0118812D01*
X0040477Y0118784D01*
X0040560Y0118752D01*
X0040642Y0118716D01*
X0040722Y0118677D01*
X0040800Y0118634D01*
X0040876Y0118588D01*
X0040950Y0118538D01*
X0041022Y0118485D01*
X0041091Y0118429D01*
X0041158Y0118370D01*
X0041222Y0118308D01*
X0041283Y0118244D01*
X0041342Y0118176D01*
X0041397Y0118106D01*
X0041449Y0118034D01*
X0041498Y0117959D01*
X0041543Y0117883D01*
X0041585Y0117804D01*
X0041623Y0117724D01*
X0041658Y0117642D01*
X0041689Y0117558D01*
X0041717Y0117473D01*
X0041740Y0117387D01*
X0041760Y0117300D01*
X0041776Y0117213D01*
X0041788Y0117124D01*
X0041796Y0117036D01*
X0041800Y0116947D01*
X0041800Y0116857D01*
X0041796Y0116768D01*
X0041788Y0116680D01*
X0041776Y0116591D01*
X0041760Y0116504D01*
X0041740Y0116417D01*
X0041717Y0116331D01*
X0041689Y0116246D01*
X0041658Y0116162D01*
X0041623Y0116080D01*
X0041585Y0116000D01*
X0041543Y0115921D01*
X0041498Y0115845D01*
X0041449Y0115770D01*
X0041397Y0115698D01*
X0041342Y0115628D01*
X0041283Y0115560D01*
X0041222Y0115496D01*
X0041158Y0115434D01*
X0041091Y0115375D01*
X0041022Y0115319D01*
X0040950Y0115266D01*
X0040876Y0115216D01*
X0040800Y0115170D01*
X0040722Y0115127D01*
X0040642Y0115088D01*
X0040560Y0115052D01*
X0040477Y0115020D01*
X0040393Y0114992D01*
X0040307Y0114967D01*
X0040220Y0114947D01*
X0040133Y0114930D01*
X0040044Y0114917D01*
X0039956Y0114908D01*
X0039867Y0114903D01*
X0039778Y0114902D01*
X0039689Y0114905D01*
X0039600Y0114912D01*
X0039511Y0114923D01*
X0039423Y0114938D01*
X0039336Y0114956D01*
X0039250Y0114979D01*
X0039165Y0115005D01*
X0039081Y0115036D01*
X0038999Y0115070D01*
X0038918Y0115107D01*
X0038839Y0115148D01*
X0038762Y0115193D01*
X0038687Y0115241D01*
X0038614Y0115292D01*
X0038543Y0115346D01*
X0038475Y0115404D01*
X0038410Y0115464D01*
X0038347Y0115528D01*
X0038287Y0115594D01*
X0038230Y0115663D01*
X0038177Y0115734D01*
X0038126Y0115807D01*
X0038079Y0115883D01*
X0038036Y0115960D01*
X0037995Y0116040D01*
X0037959Y0116121D01*
X0037926Y0116204D01*
X0037897Y0116288D01*
X0037871Y0116374D01*
X0037849Y0116460D01*
X0037832Y0116547D01*
X0037818Y0116635D01*
X0037808Y0116724D01*
X0037802Y0116813D01*
X0037800Y0116902D01*
X0037800Y0136702D02*
X0037802Y0136791D01*
X0037808Y0136880D01*
X0037818Y0136969D01*
X0037832Y0137057D01*
X0037849Y0137144D01*
X0037871Y0137230D01*
X0037897Y0137316D01*
X0037926Y0137400D01*
X0037959Y0137483D01*
X0037995Y0137564D01*
X0038036Y0137644D01*
X0038079Y0137721D01*
X0038126Y0137797D01*
X0038177Y0137870D01*
X0038230Y0137941D01*
X0038287Y0138010D01*
X0038347Y0138076D01*
X0038410Y0138140D01*
X0038475Y0138200D01*
X0038543Y0138258D01*
X0038614Y0138312D01*
X0038687Y0138363D01*
X0038762Y0138411D01*
X0038839Y0138456D01*
X0038918Y0138497D01*
X0038999Y0138534D01*
X0039081Y0138568D01*
X0039165Y0138599D01*
X0039250Y0138625D01*
X0039336Y0138648D01*
X0039423Y0138666D01*
X0039511Y0138681D01*
X0039600Y0138692D01*
X0039689Y0138699D01*
X0039778Y0138702D01*
X0039867Y0138701D01*
X0039956Y0138696D01*
X0040044Y0138687D01*
X0040133Y0138674D01*
X0040220Y0138657D01*
X0040307Y0138637D01*
X0040393Y0138612D01*
X0040477Y0138584D01*
X0040560Y0138552D01*
X0040642Y0138516D01*
X0040722Y0138477D01*
X0040800Y0138434D01*
X0040876Y0138388D01*
X0040950Y0138338D01*
X0041022Y0138285D01*
X0041091Y0138229D01*
X0041158Y0138170D01*
X0041222Y0138108D01*
X0041283Y0138044D01*
X0041342Y0137976D01*
X0041397Y0137906D01*
X0041449Y0137834D01*
X0041498Y0137759D01*
X0041543Y0137683D01*
X0041585Y0137604D01*
X0041623Y0137524D01*
X0041658Y0137442D01*
X0041689Y0137358D01*
X0041717Y0137273D01*
X0041740Y0137187D01*
X0041760Y0137100D01*
X0041776Y0137013D01*
X0041788Y0136924D01*
X0041796Y0136836D01*
X0041800Y0136747D01*
X0041800Y0136657D01*
X0041796Y0136568D01*
X0041788Y0136480D01*
X0041776Y0136391D01*
X0041760Y0136304D01*
X0041740Y0136217D01*
X0041717Y0136131D01*
X0041689Y0136046D01*
X0041658Y0135962D01*
X0041623Y0135880D01*
X0041585Y0135800D01*
X0041543Y0135721D01*
X0041498Y0135645D01*
X0041449Y0135570D01*
X0041397Y0135498D01*
X0041342Y0135428D01*
X0041283Y0135360D01*
X0041222Y0135296D01*
X0041158Y0135234D01*
X0041091Y0135175D01*
X0041022Y0135119D01*
X0040950Y0135066D01*
X0040876Y0135016D01*
X0040800Y0134970D01*
X0040722Y0134927D01*
X0040642Y0134888D01*
X0040560Y0134852D01*
X0040477Y0134820D01*
X0040393Y0134792D01*
X0040307Y0134767D01*
X0040220Y0134747D01*
X0040133Y0134730D01*
X0040044Y0134717D01*
X0039956Y0134708D01*
X0039867Y0134703D01*
X0039778Y0134702D01*
X0039689Y0134705D01*
X0039600Y0134712D01*
X0039511Y0134723D01*
X0039423Y0134738D01*
X0039336Y0134756D01*
X0039250Y0134779D01*
X0039165Y0134805D01*
X0039081Y0134836D01*
X0038999Y0134870D01*
X0038918Y0134907D01*
X0038839Y0134948D01*
X0038762Y0134993D01*
X0038687Y0135041D01*
X0038614Y0135092D01*
X0038543Y0135146D01*
X0038475Y0135204D01*
X0038410Y0135264D01*
X0038347Y0135328D01*
X0038287Y0135394D01*
X0038230Y0135463D01*
X0038177Y0135534D01*
X0038126Y0135607D01*
X0038079Y0135683D01*
X0038036Y0135760D01*
X0037995Y0135840D01*
X0037959Y0135921D01*
X0037926Y0136004D01*
X0037897Y0136088D01*
X0037871Y0136174D01*
X0037849Y0136260D01*
X0037832Y0136347D01*
X0037818Y0136435D01*
X0037808Y0136524D01*
X0037802Y0136613D01*
X0037800Y0136702D01*
X0036300Y0146802D02*
X0035800Y0148802D01*
X0040300Y0148802D01*
X0039800Y0146802D01*
X0037800Y0156902D02*
X0037802Y0156991D01*
X0037808Y0157080D01*
X0037818Y0157169D01*
X0037832Y0157257D01*
X0037849Y0157344D01*
X0037871Y0157430D01*
X0037897Y0157516D01*
X0037926Y0157600D01*
X0037959Y0157683D01*
X0037995Y0157764D01*
X0038036Y0157844D01*
X0038079Y0157921D01*
X0038126Y0157997D01*
X0038177Y0158070D01*
X0038230Y0158141D01*
X0038287Y0158210D01*
X0038347Y0158276D01*
X0038410Y0158340D01*
X0038475Y0158400D01*
X0038543Y0158458D01*
X0038614Y0158512D01*
X0038687Y0158563D01*
X0038762Y0158611D01*
X0038839Y0158656D01*
X0038918Y0158697D01*
X0038999Y0158734D01*
X0039081Y0158768D01*
X0039165Y0158799D01*
X0039250Y0158825D01*
X0039336Y0158848D01*
X0039423Y0158866D01*
X0039511Y0158881D01*
X0039600Y0158892D01*
X0039689Y0158899D01*
X0039778Y0158902D01*
X0039867Y0158901D01*
X0039956Y0158896D01*
X0040044Y0158887D01*
X0040133Y0158874D01*
X0040220Y0158857D01*
X0040307Y0158837D01*
X0040393Y0158812D01*
X0040477Y0158784D01*
X0040560Y0158752D01*
X0040642Y0158716D01*
X0040722Y0158677D01*
X0040800Y0158634D01*
X0040876Y0158588D01*
X0040950Y0158538D01*
X0041022Y0158485D01*
X0041091Y0158429D01*
X0041158Y0158370D01*
X0041222Y0158308D01*
X0041283Y0158244D01*
X0041342Y0158176D01*
X0041397Y0158106D01*
X0041449Y0158034D01*
X0041498Y0157959D01*
X0041543Y0157883D01*
X0041585Y0157804D01*
X0041623Y0157724D01*
X0041658Y0157642D01*
X0041689Y0157558D01*
X0041717Y0157473D01*
X0041740Y0157387D01*
X0041760Y0157300D01*
X0041776Y0157213D01*
X0041788Y0157124D01*
X0041796Y0157036D01*
X0041800Y0156947D01*
X0041800Y0156857D01*
X0041796Y0156768D01*
X0041788Y0156680D01*
X0041776Y0156591D01*
X0041760Y0156504D01*
X0041740Y0156417D01*
X0041717Y0156331D01*
X0041689Y0156246D01*
X0041658Y0156162D01*
X0041623Y0156080D01*
X0041585Y0156000D01*
X0041543Y0155921D01*
X0041498Y0155845D01*
X0041449Y0155770D01*
X0041397Y0155698D01*
X0041342Y0155628D01*
X0041283Y0155560D01*
X0041222Y0155496D01*
X0041158Y0155434D01*
X0041091Y0155375D01*
X0041022Y0155319D01*
X0040950Y0155266D01*
X0040876Y0155216D01*
X0040800Y0155170D01*
X0040722Y0155127D01*
X0040642Y0155088D01*
X0040560Y0155052D01*
X0040477Y0155020D01*
X0040393Y0154992D01*
X0040307Y0154967D01*
X0040220Y0154947D01*
X0040133Y0154930D01*
X0040044Y0154917D01*
X0039956Y0154908D01*
X0039867Y0154903D01*
X0039778Y0154902D01*
X0039689Y0154905D01*
X0039600Y0154912D01*
X0039511Y0154923D01*
X0039423Y0154938D01*
X0039336Y0154956D01*
X0039250Y0154979D01*
X0039165Y0155005D01*
X0039081Y0155036D01*
X0038999Y0155070D01*
X0038918Y0155107D01*
X0038839Y0155148D01*
X0038762Y0155193D01*
X0038687Y0155241D01*
X0038614Y0155292D01*
X0038543Y0155346D01*
X0038475Y0155404D01*
X0038410Y0155464D01*
X0038347Y0155528D01*
X0038287Y0155594D01*
X0038230Y0155663D01*
X0038177Y0155734D01*
X0038126Y0155807D01*
X0038079Y0155883D01*
X0038036Y0155960D01*
X0037995Y0156040D01*
X0037959Y0156121D01*
X0037926Y0156204D01*
X0037897Y0156288D01*
X0037871Y0156374D01*
X0037849Y0156460D01*
X0037832Y0156547D01*
X0037818Y0156635D01*
X0037808Y0156724D01*
X0037802Y0156813D01*
X0037800Y0156902D01*
X0037800Y0176702D02*
X0037802Y0176791D01*
X0037808Y0176880D01*
X0037818Y0176969D01*
X0037832Y0177057D01*
X0037849Y0177144D01*
X0037871Y0177230D01*
X0037897Y0177316D01*
X0037926Y0177400D01*
X0037959Y0177483D01*
X0037995Y0177564D01*
X0038036Y0177644D01*
X0038079Y0177721D01*
X0038126Y0177797D01*
X0038177Y0177870D01*
X0038230Y0177941D01*
X0038287Y0178010D01*
X0038347Y0178076D01*
X0038410Y0178140D01*
X0038475Y0178200D01*
X0038543Y0178258D01*
X0038614Y0178312D01*
X0038687Y0178363D01*
X0038762Y0178411D01*
X0038839Y0178456D01*
X0038918Y0178497D01*
X0038999Y0178534D01*
X0039081Y0178568D01*
X0039165Y0178599D01*
X0039250Y0178625D01*
X0039336Y0178648D01*
X0039423Y0178666D01*
X0039511Y0178681D01*
X0039600Y0178692D01*
X0039689Y0178699D01*
X0039778Y0178702D01*
X0039867Y0178701D01*
X0039956Y0178696D01*
X0040044Y0178687D01*
X0040133Y0178674D01*
X0040220Y0178657D01*
X0040307Y0178637D01*
X0040393Y0178612D01*
X0040477Y0178584D01*
X0040560Y0178552D01*
X0040642Y0178516D01*
X0040722Y0178477D01*
X0040800Y0178434D01*
X0040876Y0178388D01*
X0040950Y0178338D01*
X0041022Y0178285D01*
X0041091Y0178229D01*
X0041158Y0178170D01*
X0041222Y0178108D01*
X0041283Y0178044D01*
X0041342Y0177976D01*
X0041397Y0177906D01*
X0041449Y0177834D01*
X0041498Y0177759D01*
X0041543Y0177683D01*
X0041585Y0177604D01*
X0041623Y0177524D01*
X0041658Y0177442D01*
X0041689Y0177358D01*
X0041717Y0177273D01*
X0041740Y0177187D01*
X0041760Y0177100D01*
X0041776Y0177013D01*
X0041788Y0176924D01*
X0041796Y0176836D01*
X0041800Y0176747D01*
X0041800Y0176657D01*
X0041796Y0176568D01*
X0041788Y0176480D01*
X0041776Y0176391D01*
X0041760Y0176304D01*
X0041740Y0176217D01*
X0041717Y0176131D01*
X0041689Y0176046D01*
X0041658Y0175962D01*
X0041623Y0175880D01*
X0041585Y0175800D01*
X0041543Y0175721D01*
X0041498Y0175645D01*
X0041449Y0175570D01*
X0041397Y0175498D01*
X0041342Y0175428D01*
X0041283Y0175360D01*
X0041222Y0175296D01*
X0041158Y0175234D01*
X0041091Y0175175D01*
X0041022Y0175119D01*
X0040950Y0175066D01*
X0040876Y0175016D01*
X0040800Y0174970D01*
X0040722Y0174927D01*
X0040642Y0174888D01*
X0040560Y0174852D01*
X0040477Y0174820D01*
X0040393Y0174792D01*
X0040307Y0174767D01*
X0040220Y0174747D01*
X0040133Y0174730D01*
X0040044Y0174717D01*
X0039956Y0174708D01*
X0039867Y0174703D01*
X0039778Y0174702D01*
X0039689Y0174705D01*
X0039600Y0174712D01*
X0039511Y0174723D01*
X0039423Y0174738D01*
X0039336Y0174756D01*
X0039250Y0174779D01*
X0039165Y0174805D01*
X0039081Y0174836D01*
X0038999Y0174870D01*
X0038918Y0174907D01*
X0038839Y0174948D01*
X0038762Y0174993D01*
X0038687Y0175041D01*
X0038614Y0175092D01*
X0038543Y0175146D01*
X0038475Y0175204D01*
X0038410Y0175264D01*
X0038347Y0175328D01*
X0038287Y0175394D01*
X0038230Y0175463D01*
X0038177Y0175534D01*
X0038126Y0175607D01*
X0038079Y0175683D01*
X0038036Y0175760D01*
X0037995Y0175840D01*
X0037959Y0175921D01*
X0037926Y0176004D01*
X0037897Y0176088D01*
X0037871Y0176174D01*
X0037849Y0176260D01*
X0037832Y0176347D01*
X0037818Y0176435D01*
X0037808Y0176524D01*
X0037802Y0176613D01*
X0037800Y0176702D01*
X0036300Y0186802D02*
X0035800Y0188802D01*
X0040300Y0188802D01*
X0039800Y0186802D01*
X0037800Y0196902D02*
X0037802Y0196991D01*
X0037808Y0197080D01*
X0037818Y0197169D01*
X0037832Y0197257D01*
X0037849Y0197344D01*
X0037871Y0197430D01*
X0037897Y0197516D01*
X0037926Y0197600D01*
X0037959Y0197683D01*
X0037995Y0197764D01*
X0038036Y0197844D01*
X0038079Y0197921D01*
X0038126Y0197997D01*
X0038177Y0198070D01*
X0038230Y0198141D01*
X0038287Y0198210D01*
X0038347Y0198276D01*
X0038410Y0198340D01*
X0038475Y0198400D01*
X0038543Y0198458D01*
X0038614Y0198512D01*
X0038687Y0198563D01*
X0038762Y0198611D01*
X0038839Y0198656D01*
X0038918Y0198697D01*
X0038999Y0198734D01*
X0039081Y0198768D01*
X0039165Y0198799D01*
X0039250Y0198825D01*
X0039336Y0198848D01*
X0039423Y0198866D01*
X0039511Y0198881D01*
X0039600Y0198892D01*
X0039689Y0198899D01*
X0039778Y0198902D01*
X0039867Y0198901D01*
X0039956Y0198896D01*
X0040044Y0198887D01*
X0040133Y0198874D01*
X0040220Y0198857D01*
X0040307Y0198837D01*
X0040393Y0198812D01*
X0040477Y0198784D01*
X0040560Y0198752D01*
X0040642Y0198716D01*
X0040722Y0198677D01*
X0040800Y0198634D01*
X0040876Y0198588D01*
X0040950Y0198538D01*
X0041022Y0198485D01*
X0041091Y0198429D01*
X0041158Y0198370D01*
X0041222Y0198308D01*
X0041283Y0198244D01*
X0041342Y0198176D01*
X0041397Y0198106D01*
X0041449Y0198034D01*
X0041498Y0197959D01*
X0041543Y0197883D01*
X0041585Y0197804D01*
X0041623Y0197724D01*
X0041658Y0197642D01*
X0041689Y0197558D01*
X0041717Y0197473D01*
X0041740Y0197387D01*
X0041760Y0197300D01*
X0041776Y0197213D01*
X0041788Y0197124D01*
X0041796Y0197036D01*
X0041800Y0196947D01*
X0041800Y0196857D01*
X0041796Y0196768D01*
X0041788Y0196680D01*
X0041776Y0196591D01*
X0041760Y0196504D01*
X0041740Y0196417D01*
X0041717Y0196331D01*
X0041689Y0196246D01*
X0041658Y0196162D01*
X0041623Y0196080D01*
X0041585Y0196000D01*
X0041543Y0195921D01*
X0041498Y0195845D01*
X0041449Y0195770D01*
X0041397Y0195698D01*
X0041342Y0195628D01*
X0041283Y0195560D01*
X0041222Y0195496D01*
X0041158Y0195434D01*
X0041091Y0195375D01*
X0041022Y0195319D01*
X0040950Y0195266D01*
X0040876Y0195216D01*
X0040800Y0195170D01*
X0040722Y0195127D01*
X0040642Y0195088D01*
X0040560Y0195052D01*
X0040477Y0195020D01*
X0040393Y0194992D01*
X0040307Y0194967D01*
X0040220Y0194947D01*
X0040133Y0194930D01*
X0040044Y0194917D01*
X0039956Y0194908D01*
X0039867Y0194903D01*
X0039778Y0194902D01*
X0039689Y0194905D01*
X0039600Y0194912D01*
X0039511Y0194923D01*
X0039423Y0194938D01*
X0039336Y0194956D01*
X0039250Y0194979D01*
X0039165Y0195005D01*
X0039081Y0195036D01*
X0038999Y0195070D01*
X0038918Y0195107D01*
X0038839Y0195148D01*
X0038762Y0195193D01*
X0038687Y0195241D01*
X0038614Y0195292D01*
X0038543Y0195346D01*
X0038475Y0195404D01*
X0038410Y0195464D01*
X0038347Y0195528D01*
X0038287Y0195594D01*
X0038230Y0195663D01*
X0038177Y0195734D01*
X0038126Y0195807D01*
X0038079Y0195883D01*
X0038036Y0195960D01*
X0037995Y0196040D01*
X0037959Y0196121D01*
X0037926Y0196204D01*
X0037897Y0196288D01*
X0037871Y0196374D01*
X0037849Y0196460D01*
X0037832Y0196547D01*
X0037818Y0196635D01*
X0037808Y0196724D01*
X0037802Y0196813D01*
X0037800Y0196902D01*
X0037800Y0216702D02*
X0037802Y0216791D01*
X0037808Y0216880D01*
X0037818Y0216969D01*
X0037832Y0217057D01*
X0037849Y0217144D01*
X0037871Y0217230D01*
X0037897Y0217316D01*
X0037926Y0217400D01*
X0037959Y0217483D01*
X0037995Y0217564D01*
X0038036Y0217644D01*
X0038079Y0217721D01*
X0038126Y0217797D01*
X0038177Y0217870D01*
X0038230Y0217941D01*
X0038287Y0218010D01*
X0038347Y0218076D01*
X0038410Y0218140D01*
X0038475Y0218200D01*
X0038543Y0218258D01*
X0038614Y0218312D01*
X0038687Y0218363D01*
X0038762Y0218411D01*
X0038839Y0218456D01*
X0038918Y0218497D01*
X0038999Y0218534D01*
X0039081Y0218568D01*
X0039165Y0218599D01*
X0039250Y0218625D01*
X0039336Y0218648D01*
X0039423Y0218666D01*
X0039511Y0218681D01*
X0039600Y0218692D01*
X0039689Y0218699D01*
X0039778Y0218702D01*
X0039867Y0218701D01*
X0039956Y0218696D01*
X0040044Y0218687D01*
X0040133Y0218674D01*
X0040220Y0218657D01*
X0040307Y0218637D01*
X0040393Y0218612D01*
X0040477Y0218584D01*
X0040560Y0218552D01*
X0040642Y0218516D01*
X0040722Y0218477D01*
X0040800Y0218434D01*
X0040876Y0218388D01*
X0040950Y0218338D01*
X0041022Y0218285D01*
X0041091Y0218229D01*
X0041158Y0218170D01*
X0041222Y0218108D01*
X0041283Y0218044D01*
X0041342Y0217976D01*
X0041397Y0217906D01*
X0041449Y0217834D01*
X0041498Y0217759D01*
X0041543Y0217683D01*
X0041585Y0217604D01*
X0041623Y0217524D01*
X0041658Y0217442D01*
X0041689Y0217358D01*
X0041717Y0217273D01*
X0041740Y0217187D01*
X0041760Y0217100D01*
X0041776Y0217013D01*
X0041788Y0216924D01*
X0041796Y0216836D01*
X0041800Y0216747D01*
X0041800Y0216657D01*
X0041796Y0216568D01*
X0041788Y0216480D01*
X0041776Y0216391D01*
X0041760Y0216304D01*
X0041740Y0216217D01*
X0041717Y0216131D01*
X0041689Y0216046D01*
X0041658Y0215962D01*
X0041623Y0215880D01*
X0041585Y0215800D01*
X0041543Y0215721D01*
X0041498Y0215645D01*
X0041449Y0215570D01*
X0041397Y0215498D01*
X0041342Y0215428D01*
X0041283Y0215360D01*
X0041222Y0215296D01*
X0041158Y0215234D01*
X0041091Y0215175D01*
X0041022Y0215119D01*
X0040950Y0215066D01*
X0040876Y0215016D01*
X0040800Y0214970D01*
X0040722Y0214927D01*
X0040642Y0214888D01*
X0040560Y0214852D01*
X0040477Y0214820D01*
X0040393Y0214792D01*
X0040307Y0214767D01*
X0040220Y0214747D01*
X0040133Y0214730D01*
X0040044Y0214717D01*
X0039956Y0214708D01*
X0039867Y0214703D01*
X0039778Y0214702D01*
X0039689Y0214705D01*
X0039600Y0214712D01*
X0039511Y0214723D01*
X0039423Y0214738D01*
X0039336Y0214756D01*
X0039250Y0214779D01*
X0039165Y0214805D01*
X0039081Y0214836D01*
X0038999Y0214870D01*
X0038918Y0214907D01*
X0038839Y0214948D01*
X0038762Y0214993D01*
X0038687Y0215041D01*
X0038614Y0215092D01*
X0038543Y0215146D01*
X0038475Y0215204D01*
X0038410Y0215264D01*
X0038347Y0215328D01*
X0038287Y0215394D01*
X0038230Y0215463D01*
X0038177Y0215534D01*
X0038126Y0215607D01*
X0038079Y0215683D01*
X0038036Y0215760D01*
X0037995Y0215840D01*
X0037959Y0215921D01*
X0037926Y0216004D01*
X0037897Y0216088D01*
X0037871Y0216174D01*
X0037849Y0216260D01*
X0037832Y0216347D01*
X0037818Y0216435D01*
X0037808Y0216524D01*
X0037802Y0216613D01*
X0037800Y0216702D01*
X0036300Y0226802D02*
X0036300Y0266802D01*
X0019300Y0266802D01*
X0019300Y0226802D01*
X0013800Y0226802D01*
X0013800Y0266802D01*
X0019300Y0266802D01*
X0035800Y0268802D02*
X0036300Y0266802D01*
X0039800Y0266802D01*
X0043300Y0266802D01*
X0043300Y0226802D01*
X0037800Y0236902D02*
X0037802Y0236991D01*
X0037808Y0237080D01*
X0037818Y0237169D01*
X0037832Y0237257D01*
X0037849Y0237344D01*
X0037871Y0237430D01*
X0037897Y0237516D01*
X0037926Y0237600D01*
X0037959Y0237683D01*
X0037995Y0237764D01*
X0038036Y0237844D01*
X0038079Y0237921D01*
X0038126Y0237997D01*
X0038177Y0238070D01*
X0038230Y0238141D01*
X0038287Y0238210D01*
X0038347Y0238276D01*
X0038410Y0238340D01*
X0038475Y0238400D01*
X0038543Y0238458D01*
X0038614Y0238512D01*
X0038687Y0238563D01*
X0038762Y0238611D01*
X0038839Y0238656D01*
X0038918Y0238697D01*
X0038999Y0238734D01*
X0039081Y0238768D01*
X0039165Y0238799D01*
X0039250Y0238825D01*
X0039336Y0238848D01*
X0039423Y0238866D01*
X0039511Y0238881D01*
X0039600Y0238892D01*
X0039689Y0238899D01*
X0039778Y0238902D01*
X0039867Y0238901D01*
X0039956Y0238896D01*
X0040044Y0238887D01*
X0040133Y0238874D01*
X0040220Y0238857D01*
X0040307Y0238837D01*
X0040393Y0238812D01*
X0040477Y0238784D01*
X0040560Y0238752D01*
X0040642Y0238716D01*
X0040722Y0238677D01*
X0040800Y0238634D01*
X0040876Y0238588D01*
X0040950Y0238538D01*
X0041022Y0238485D01*
X0041091Y0238429D01*
X0041158Y0238370D01*
X0041222Y0238308D01*
X0041283Y0238244D01*
X0041342Y0238176D01*
X0041397Y0238106D01*
X0041449Y0238034D01*
X0041498Y0237959D01*
X0041543Y0237883D01*
X0041585Y0237804D01*
X0041623Y0237724D01*
X0041658Y0237642D01*
X0041689Y0237558D01*
X0041717Y0237473D01*
X0041740Y0237387D01*
X0041760Y0237300D01*
X0041776Y0237213D01*
X0041788Y0237124D01*
X0041796Y0237036D01*
X0041800Y0236947D01*
X0041800Y0236857D01*
X0041796Y0236768D01*
X0041788Y0236680D01*
X0041776Y0236591D01*
X0041760Y0236504D01*
X0041740Y0236417D01*
X0041717Y0236331D01*
X0041689Y0236246D01*
X0041658Y0236162D01*
X0041623Y0236080D01*
X0041585Y0236000D01*
X0041543Y0235921D01*
X0041498Y0235845D01*
X0041449Y0235770D01*
X0041397Y0235698D01*
X0041342Y0235628D01*
X0041283Y0235560D01*
X0041222Y0235496D01*
X0041158Y0235434D01*
X0041091Y0235375D01*
X0041022Y0235319D01*
X0040950Y0235266D01*
X0040876Y0235216D01*
X0040800Y0235170D01*
X0040722Y0235127D01*
X0040642Y0235088D01*
X0040560Y0235052D01*
X0040477Y0235020D01*
X0040393Y0234992D01*
X0040307Y0234967D01*
X0040220Y0234947D01*
X0040133Y0234930D01*
X0040044Y0234917D01*
X0039956Y0234908D01*
X0039867Y0234903D01*
X0039778Y0234902D01*
X0039689Y0234905D01*
X0039600Y0234912D01*
X0039511Y0234923D01*
X0039423Y0234938D01*
X0039336Y0234956D01*
X0039250Y0234979D01*
X0039165Y0235005D01*
X0039081Y0235036D01*
X0038999Y0235070D01*
X0038918Y0235107D01*
X0038839Y0235148D01*
X0038762Y0235193D01*
X0038687Y0235241D01*
X0038614Y0235292D01*
X0038543Y0235346D01*
X0038475Y0235404D01*
X0038410Y0235464D01*
X0038347Y0235528D01*
X0038287Y0235594D01*
X0038230Y0235663D01*
X0038177Y0235734D01*
X0038126Y0235807D01*
X0038079Y0235883D01*
X0038036Y0235960D01*
X0037995Y0236040D01*
X0037959Y0236121D01*
X0037926Y0236204D01*
X0037897Y0236288D01*
X0037871Y0236374D01*
X0037849Y0236460D01*
X0037832Y0236547D01*
X0037818Y0236635D01*
X0037808Y0236724D01*
X0037802Y0236813D01*
X0037800Y0236902D01*
X0037800Y0256702D02*
X0037802Y0256791D01*
X0037808Y0256880D01*
X0037818Y0256969D01*
X0037832Y0257057D01*
X0037849Y0257144D01*
X0037871Y0257230D01*
X0037897Y0257316D01*
X0037926Y0257400D01*
X0037959Y0257483D01*
X0037995Y0257564D01*
X0038036Y0257644D01*
X0038079Y0257721D01*
X0038126Y0257797D01*
X0038177Y0257870D01*
X0038230Y0257941D01*
X0038287Y0258010D01*
X0038347Y0258076D01*
X0038410Y0258140D01*
X0038475Y0258200D01*
X0038543Y0258258D01*
X0038614Y0258312D01*
X0038687Y0258363D01*
X0038762Y0258411D01*
X0038839Y0258456D01*
X0038918Y0258497D01*
X0038999Y0258534D01*
X0039081Y0258568D01*
X0039165Y0258599D01*
X0039250Y0258625D01*
X0039336Y0258648D01*
X0039423Y0258666D01*
X0039511Y0258681D01*
X0039600Y0258692D01*
X0039689Y0258699D01*
X0039778Y0258702D01*
X0039867Y0258701D01*
X0039956Y0258696D01*
X0040044Y0258687D01*
X0040133Y0258674D01*
X0040220Y0258657D01*
X0040307Y0258637D01*
X0040393Y0258612D01*
X0040477Y0258584D01*
X0040560Y0258552D01*
X0040642Y0258516D01*
X0040722Y0258477D01*
X0040800Y0258434D01*
X0040876Y0258388D01*
X0040950Y0258338D01*
X0041022Y0258285D01*
X0041091Y0258229D01*
X0041158Y0258170D01*
X0041222Y0258108D01*
X0041283Y0258044D01*
X0041342Y0257976D01*
X0041397Y0257906D01*
X0041449Y0257834D01*
X0041498Y0257759D01*
X0041543Y0257683D01*
X0041585Y0257604D01*
X0041623Y0257524D01*
X0041658Y0257442D01*
X0041689Y0257358D01*
X0041717Y0257273D01*
X0041740Y0257187D01*
X0041760Y0257100D01*
X0041776Y0257013D01*
X0041788Y0256924D01*
X0041796Y0256836D01*
X0041800Y0256747D01*
X0041800Y0256657D01*
X0041796Y0256568D01*
X0041788Y0256480D01*
X0041776Y0256391D01*
X0041760Y0256304D01*
X0041740Y0256217D01*
X0041717Y0256131D01*
X0041689Y0256046D01*
X0041658Y0255962D01*
X0041623Y0255880D01*
X0041585Y0255800D01*
X0041543Y0255721D01*
X0041498Y0255645D01*
X0041449Y0255570D01*
X0041397Y0255498D01*
X0041342Y0255428D01*
X0041283Y0255360D01*
X0041222Y0255296D01*
X0041158Y0255234D01*
X0041091Y0255175D01*
X0041022Y0255119D01*
X0040950Y0255066D01*
X0040876Y0255016D01*
X0040800Y0254970D01*
X0040722Y0254927D01*
X0040642Y0254888D01*
X0040560Y0254852D01*
X0040477Y0254820D01*
X0040393Y0254792D01*
X0040307Y0254767D01*
X0040220Y0254747D01*
X0040133Y0254730D01*
X0040044Y0254717D01*
X0039956Y0254708D01*
X0039867Y0254703D01*
X0039778Y0254702D01*
X0039689Y0254705D01*
X0039600Y0254712D01*
X0039511Y0254723D01*
X0039423Y0254738D01*
X0039336Y0254756D01*
X0039250Y0254779D01*
X0039165Y0254805D01*
X0039081Y0254836D01*
X0038999Y0254870D01*
X0038918Y0254907D01*
X0038839Y0254948D01*
X0038762Y0254993D01*
X0038687Y0255041D01*
X0038614Y0255092D01*
X0038543Y0255146D01*
X0038475Y0255204D01*
X0038410Y0255264D01*
X0038347Y0255328D01*
X0038287Y0255394D01*
X0038230Y0255463D01*
X0038177Y0255534D01*
X0038126Y0255607D01*
X0038079Y0255683D01*
X0038036Y0255760D01*
X0037995Y0255840D01*
X0037959Y0255921D01*
X0037926Y0256004D01*
X0037897Y0256088D01*
X0037871Y0256174D01*
X0037849Y0256260D01*
X0037832Y0256347D01*
X0037818Y0256435D01*
X0037808Y0256524D01*
X0037802Y0256613D01*
X0037800Y0256702D01*
X0039800Y0266802D02*
X0040300Y0268802D01*
X0035800Y0268802D01*
X0072422Y0254823D02*
X0086422Y0254823D01*
X0086422Y0253823D01*
X0086422Y0181823D02*
X0086422Y0180823D01*
X0072422Y0180823D01*
X0072422Y0155720D02*
X0086422Y0155720D01*
X0086422Y0154720D01*
X0086422Y0082720D02*
X0086422Y0081720D01*
X0072422Y0081720D01*
X0234005Y0236106D02*
X0250698Y0236106D01*
X0273154Y0236106D02*
X0289847Y0236106D01*
X0303595Y0232618D02*
X0307865Y0232618D01*
X0310000Y0230483D01*
X0307865Y0228348D01*
X0303595Y0228348D01*
X0303595Y0226173D02*
X0304662Y0226173D01*
X0308932Y0221902D01*
X0310000Y0221902D01*
X0303595Y0221902D02*
X0303595Y0226173D01*
X0289847Y0255791D02*
X0273154Y0255791D01*
X0250698Y0255791D02*
X0234005Y0255791D01*
X0351894Y0260122D02*
X0351894Y0239965D01*
X0378154Y0239980D02*
X0378154Y0260138D01*
X0309365Y0148618D02*
X0305095Y0148618D01*
X0309365Y0148618D02*
X0311500Y0146483D01*
X0309365Y0144348D01*
X0305095Y0144348D01*
X0305095Y0142173D02*
X0305095Y0137902D01*
X0308297Y0137902D01*
X0307230Y0140038D01*
X0307230Y0141105D01*
X0308297Y0142173D01*
X0310432Y0142173D01*
X0311500Y0141105D01*
X0311500Y0138970D01*
X0310432Y0137902D01*
D186*
X0229868Y0264252D02*
X0228900Y0265220D01*
X0229384Y0265220D02*
X0227933Y0265220D01*
X0227933Y0264252D02*
X0227933Y0267155D01*
X0229384Y0267155D01*
X0229868Y0266671D01*
X0229868Y0265704D01*
X0229384Y0265220D01*
X0226921Y0264736D02*
X0226921Y0266671D01*
X0226438Y0267155D01*
X0225470Y0267155D01*
X0224986Y0266671D01*
X0224986Y0264736D01*
X0225470Y0264252D01*
X0226438Y0264252D01*
X0226921Y0264736D01*
X0223975Y0267155D02*
X0222040Y0267155D01*
X0223007Y0267155D02*
X0223007Y0264252D01*
X0221028Y0264252D02*
X0221028Y0266187D01*
X0220061Y0267155D01*
X0219093Y0266187D01*
X0219093Y0264252D01*
X0218082Y0264252D02*
X0216147Y0264252D01*
X0216147Y0267155D01*
X0215135Y0267155D02*
X0215135Y0264736D01*
X0214652Y0264252D01*
X0213684Y0264252D01*
X0213200Y0264736D01*
X0213200Y0267155D01*
X0212189Y0266671D02*
X0212189Y0265704D01*
X0211705Y0265220D01*
X0210254Y0265220D01*
X0210254Y0264252D02*
X0210254Y0267155D01*
X0211705Y0267155D01*
X0212189Y0266671D01*
X0209257Y0267155D02*
X0208290Y0267155D01*
X0208773Y0267155D02*
X0208773Y0264252D01*
X0208290Y0264252D02*
X0209257Y0264252D01*
X0207278Y0264252D02*
X0207278Y0267155D01*
X0205343Y0267155D02*
X0205343Y0264252D01*
X0204331Y0264252D02*
X0204331Y0266187D01*
X0203364Y0267155D01*
X0202397Y0266187D01*
X0202397Y0264252D01*
X0201385Y0264252D02*
X0201385Y0267155D01*
X0200417Y0266187D01*
X0199450Y0267155D01*
X0199450Y0264252D01*
X0202397Y0265704D02*
X0204331Y0265704D01*
X0205343Y0267155D02*
X0207278Y0264252D01*
X0219093Y0265704D02*
X0221028Y0265704D01*
X0071166Y0059580D02*
X0069231Y0059580D01*
X0068748Y0059097D01*
X0068748Y0057645D01*
X0071650Y0057645D01*
X0071650Y0059097D01*
X0071166Y0059580D01*
X0071650Y0056634D02*
X0068748Y0056634D01*
X0068748Y0054699D02*
X0071650Y0056634D01*
X0071650Y0054699D02*
X0068748Y0054699D01*
X0069231Y0053687D02*
X0068748Y0053204D01*
X0068748Y0052236D01*
X0069231Y0051752D01*
X0071166Y0051752D01*
X0071650Y0052236D01*
X0071650Y0053204D01*
X0071166Y0053687D01*
X0070199Y0053687D01*
X0070199Y0052720D01*
X0071166Y0048580D02*
X0071650Y0048097D01*
X0071650Y0047129D01*
X0071166Y0046645D01*
X0069231Y0046645D01*
X0068748Y0047129D01*
X0068748Y0048097D01*
X0069231Y0048580D01*
X0069231Y0045634D02*
X0068748Y0045150D01*
X0068748Y0044183D01*
X0069231Y0043699D01*
X0071166Y0043699D01*
X0071650Y0044183D01*
X0071650Y0045150D01*
X0071166Y0045634D01*
X0070683Y0042687D02*
X0068748Y0042687D01*
X0070683Y0042687D02*
X0071650Y0041720D01*
X0070683Y0040752D01*
X0068748Y0040752D01*
D187*
X0350350Y0231152D02*
X0350350Y0232653D01*
X0351101Y0232653D01*
X0351351Y0232403D01*
X0351351Y0231903D01*
X0351101Y0231652D01*
X0350350Y0231652D01*
X0351823Y0231903D02*
X0352073Y0231652D01*
X0352574Y0231652D01*
X0352824Y0231903D01*
X0352824Y0232403D01*
X0352574Y0232653D01*
X0352073Y0232653D01*
X0351823Y0232403D01*
X0351823Y0231903D01*
X0353297Y0231903D02*
X0353547Y0231652D01*
X0353797Y0231903D01*
X0354047Y0231652D01*
X0354297Y0231903D01*
X0354297Y0232653D01*
X0354770Y0232403D02*
X0355020Y0232653D01*
X0355520Y0232653D01*
X0355771Y0232403D01*
X0355771Y0232153D01*
X0354770Y0232153D01*
X0354770Y0231903D02*
X0354770Y0232403D01*
X0354770Y0231903D02*
X0355020Y0231652D01*
X0355520Y0231652D01*
X0356243Y0231652D02*
X0356243Y0232653D01*
X0356243Y0232153D02*
X0356743Y0232653D01*
X0356994Y0232653D01*
X0357475Y0234052D02*
X0358226Y0234052D01*
X0358226Y0235053D01*
X0358698Y0235554D02*
X0358949Y0235554D01*
X0358949Y0234052D01*
X0359199Y0234052D02*
X0358698Y0234052D01*
X0359681Y0234303D02*
X0359931Y0234553D01*
X0360681Y0234553D01*
X0360681Y0234803D02*
X0360681Y0234052D01*
X0359931Y0234052D01*
X0359681Y0234303D01*
X0359931Y0235053D02*
X0360431Y0235053D01*
X0360681Y0234803D01*
X0361154Y0235053D02*
X0361654Y0235053D01*
X0361404Y0235303D02*
X0361404Y0234303D01*
X0361654Y0234052D01*
X0362136Y0234303D02*
X0362386Y0234052D01*
X0362887Y0234052D01*
X0363137Y0234303D01*
X0363137Y0234803D01*
X0362887Y0235053D01*
X0362386Y0235053D01*
X0362136Y0234803D01*
X0362136Y0234303D01*
X0363609Y0234553D02*
X0364110Y0235053D01*
X0364360Y0235053D01*
X0363609Y0235053D02*
X0363609Y0234052D01*
X0363364Y0232653D02*
X0364114Y0232653D01*
X0364365Y0232403D01*
X0364365Y0231903D01*
X0364114Y0231652D01*
X0363364Y0231652D01*
X0363364Y0231152D02*
X0363364Y0232653D01*
X0362891Y0232403D02*
X0362891Y0231903D01*
X0362641Y0231652D01*
X0361890Y0231652D01*
X0361418Y0231652D02*
X0361418Y0232653D01*
X0361890Y0232653D02*
X0362641Y0232653D01*
X0362891Y0232403D01*
X0361890Y0232653D02*
X0361890Y0231152D01*
X0361418Y0231652D02*
X0360667Y0231652D01*
X0360417Y0231903D01*
X0360417Y0232653D01*
X0359945Y0232653D02*
X0359194Y0232653D01*
X0358944Y0232403D01*
X0359194Y0232153D01*
X0359695Y0232153D01*
X0359945Y0231903D01*
X0359695Y0231652D01*
X0358944Y0231652D01*
X0357475Y0234052D02*
X0357225Y0234303D01*
X0357225Y0235053D01*
X0356753Y0234803D02*
X0356753Y0234303D01*
X0356503Y0234052D01*
X0355752Y0234052D01*
X0355270Y0234052D02*
X0354770Y0234052D01*
X0355020Y0234052D02*
X0355020Y0235053D01*
X0354770Y0235053D01*
X0354297Y0234803D02*
X0354297Y0234052D01*
X0354297Y0234803D02*
X0354047Y0235053D01*
X0353297Y0235053D01*
X0353297Y0234052D01*
X0352824Y0234052D02*
X0352073Y0234052D01*
X0351823Y0234303D01*
X0352073Y0234553D01*
X0352824Y0234553D01*
X0352824Y0234803D02*
X0352824Y0234052D01*
X0352824Y0234803D02*
X0352574Y0235053D01*
X0352073Y0235053D01*
X0351351Y0234803D02*
X0351351Y0234052D01*
X0350850Y0234052D02*
X0350850Y0234803D01*
X0351101Y0235053D01*
X0351351Y0234803D01*
X0350850Y0234803D02*
X0350600Y0235053D01*
X0350350Y0235053D01*
X0350350Y0234052D01*
X0350600Y0236452D02*
X0350850Y0236703D01*
X0351101Y0236452D01*
X0351351Y0236703D01*
X0351351Y0237453D01*
X0351823Y0237453D02*
X0352073Y0237453D01*
X0352073Y0236452D01*
X0351823Y0236452D02*
X0352324Y0236452D01*
X0352805Y0236452D02*
X0352805Y0237453D01*
X0352805Y0236953D02*
X0353306Y0237453D01*
X0353556Y0237453D01*
X0354033Y0237203D02*
X0354283Y0237453D01*
X0354784Y0237453D01*
X0355034Y0237203D01*
X0355034Y0236953D01*
X0354033Y0236953D01*
X0354033Y0236703D02*
X0354033Y0237203D01*
X0354033Y0236703D02*
X0354283Y0236452D01*
X0354784Y0236452D01*
X0355020Y0235804D02*
X0355020Y0235554D01*
X0355752Y0235053D02*
X0356503Y0235053D01*
X0356753Y0234803D01*
X0355752Y0235053D02*
X0355752Y0233552D01*
X0353297Y0232653D02*
X0353297Y0231903D01*
X0355757Y0236452D02*
X0355506Y0236703D01*
X0355506Y0237203D01*
X0355757Y0237453D01*
X0356507Y0237453D01*
X0356507Y0237954D02*
X0356507Y0236452D01*
X0355757Y0236452D01*
X0358453Y0236452D02*
X0358953Y0236452D01*
X0358703Y0236452D02*
X0358703Y0237453D01*
X0358453Y0237453D01*
X0358703Y0237954D02*
X0358703Y0238204D01*
X0359685Y0237703D02*
X0359935Y0237954D01*
X0359685Y0237703D02*
X0359685Y0236452D01*
X0359435Y0237203D02*
X0359935Y0237203D01*
X0361890Y0237203D02*
X0361890Y0236703D01*
X0362141Y0236452D01*
X0362641Y0236452D01*
X0362891Y0236703D01*
X0362891Y0237203D01*
X0362641Y0237453D01*
X0362141Y0237453D01*
X0361890Y0237203D01*
X0363364Y0237453D02*
X0364114Y0237453D01*
X0364365Y0237203D01*
X0364365Y0236452D01*
X0364837Y0236703D02*
X0364837Y0237203D01*
X0365087Y0237453D01*
X0365588Y0237453D01*
X0365838Y0237203D01*
X0365838Y0236953D01*
X0364837Y0236953D01*
X0364837Y0236703D02*
X0365087Y0236452D01*
X0365588Y0236452D01*
X0363364Y0236452D02*
X0363364Y0237453D01*
X0364837Y0233154D02*
X0365087Y0233154D01*
X0365087Y0231652D01*
X0364837Y0231652D02*
X0365337Y0231652D01*
X0365819Y0231903D02*
X0366069Y0231652D01*
X0366820Y0231652D01*
X0366820Y0231402D02*
X0366570Y0231152D01*
X0366320Y0231152D01*
X0366820Y0231402D02*
X0366820Y0232653D01*
X0365819Y0232653D02*
X0365819Y0231903D01*
X0368350Y0231652D02*
X0369101Y0231652D01*
X0369351Y0231903D01*
X0369351Y0232403D01*
X0369101Y0232653D01*
X0368350Y0232653D01*
X0368350Y0231152D01*
X0369823Y0231903D02*
X0370073Y0231652D01*
X0370574Y0231652D01*
X0370824Y0231903D01*
X0370824Y0232403D01*
X0370574Y0232653D01*
X0370073Y0232653D01*
X0369823Y0232403D01*
X0369823Y0231903D01*
X0371297Y0231903D02*
X0371547Y0231652D01*
X0371797Y0231903D01*
X0372047Y0231652D01*
X0372297Y0231903D01*
X0372297Y0232653D01*
X0372770Y0232403D02*
X0373020Y0232653D01*
X0373520Y0232653D01*
X0373771Y0232403D01*
X0373771Y0232153D01*
X0372770Y0232153D01*
X0372770Y0231903D02*
X0372770Y0232403D01*
X0372770Y0231903D02*
X0373020Y0231652D01*
X0373520Y0231652D01*
X0374243Y0231652D02*
X0374243Y0232653D01*
X0374243Y0232153D02*
X0374743Y0232653D01*
X0374994Y0232653D01*
X0375475Y0234052D02*
X0376226Y0234052D01*
X0376226Y0235053D01*
X0376698Y0235554D02*
X0376949Y0235554D01*
X0376949Y0234052D01*
X0377199Y0234052D02*
X0376698Y0234052D01*
X0377681Y0234303D02*
X0377931Y0234553D01*
X0378681Y0234553D01*
X0378681Y0234803D02*
X0378681Y0234052D01*
X0377931Y0234052D01*
X0377681Y0234303D01*
X0377931Y0235053D02*
X0378431Y0235053D01*
X0378681Y0234803D01*
X0379154Y0235053D02*
X0379654Y0235053D01*
X0379404Y0235303D02*
X0379404Y0234303D01*
X0379654Y0234052D01*
X0380136Y0234303D02*
X0380386Y0234052D01*
X0380887Y0234052D01*
X0381137Y0234303D01*
X0381137Y0234803D01*
X0380887Y0235053D01*
X0380386Y0235053D01*
X0380136Y0234803D01*
X0380136Y0234303D01*
X0381609Y0234553D02*
X0382110Y0235053D01*
X0382360Y0235053D01*
X0381609Y0235053D02*
X0381609Y0234052D01*
X0381364Y0232653D02*
X0382114Y0232653D01*
X0382365Y0232403D01*
X0382365Y0231903D01*
X0382114Y0231652D01*
X0381364Y0231652D01*
X0381364Y0231152D02*
X0381364Y0232653D01*
X0380891Y0232403D02*
X0380891Y0231903D01*
X0380641Y0231652D01*
X0379890Y0231652D01*
X0379418Y0231652D02*
X0379418Y0232653D01*
X0379890Y0232653D02*
X0380641Y0232653D01*
X0380891Y0232403D01*
X0379890Y0232653D02*
X0379890Y0231152D01*
X0379418Y0231652D02*
X0378667Y0231652D01*
X0378417Y0231903D01*
X0378417Y0232653D01*
X0377945Y0232653D02*
X0377194Y0232653D01*
X0376944Y0232403D01*
X0377194Y0232153D01*
X0377695Y0232153D01*
X0377945Y0231903D01*
X0377695Y0231652D01*
X0376944Y0231652D01*
X0375475Y0234052D02*
X0375225Y0234303D01*
X0375225Y0235053D01*
X0374753Y0234803D02*
X0374753Y0234303D01*
X0374503Y0234052D01*
X0373752Y0234052D01*
X0373270Y0234052D02*
X0372770Y0234052D01*
X0373020Y0234052D02*
X0373020Y0235053D01*
X0372770Y0235053D01*
X0372297Y0234803D02*
X0372297Y0234052D01*
X0372297Y0234803D02*
X0372047Y0235053D01*
X0371297Y0235053D01*
X0371297Y0234052D01*
X0370824Y0234052D02*
X0370073Y0234052D01*
X0369823Y0234303D01*
X0370073Y0234553D01*
X0370824Y0234553D01*
X0370824Y0234803D02*
X0370824Y0234052D01*
X0370824Y0234803D02*
X0370574Y0235053D01*
X0370073Y0235053D01*
X0369351Y0234803D02*
X0369351Y0234052D01*
X0368850Y0234052D02*
X0368850Y0234803D01*
X0369101Y0235053D01*
X0369351Y0234803D01*
X0368850Y0234803D02*
X0368600Y0235053D01*
X0368350Y0235053D01*
X0368350Y0234052D01*
X0368350Y0236452D02*
X0369101Y0236452D01*
X0369351Y0236703D01*
X0369101Y0236953D01*
X0368600Y0236953D01*
X0368350Y0237203D01*
X0368600Y0237453D01*
X0369351Y0237453D01*
X0369823Y0237203D02*
X0370073Y0237453D01*
X0370574Y0237453D01*
X0370824Y0237203D01*
X0370824Y0236953D01*
X0369823Y0236953D01*
X0369823Y0236703D02*
X0369823Y0237203D01*
X0369823Y0236703D02*
X0370073Y0236452D01*
X0370574Y0236452D01*
X0371297Y0236703D02*
X0371547Y0236452D01*
X0372297Y0236452D01*
X0372770Y0236703D02*
X0373020Y0236452D01*
X0373520Y0236452D01*
X0373771Y0236703D01*
X0373771Y0237203D01*
X0373520Y0237453D01*
X0373020Y0237453D01*
X0372770Y0237203D01*
X0372770Y0236703D01*
X0372297Y0237453D02*
X0371547Y0237453D01*
X0371297Y0237203D01*
X0371297Y0236703D01*
X0373020Y0235804D02*
X0373020Y0235554D01*
X0373752Y0235053D02*
X0374503Y0235053D01*
X0374753Y0234803D01*
X0373752Y0235053D02*
X0373752Y0233552D01*
X0371297Y0232653D02*
X0371297Y0231903D01*
X0374243Y0236452D02*
X0374243Y0237453D01*
X0374994Y0237453D01*
X0375244Y0237203D01*
X0375244Y0236452D01*
X0375716Y0236703D02*
X0375716Y0237203D01*
X0375966Y0237453D01*
X0376717Y0237453D01*
X0376717Y0237954D02*
X0376717Y0236452D01*
X0375966Y0236452D01*
X0375716Y0236703D01*
X0377190Y0236703D02*
X0377440Y0236953D01*
X0378190Y0236953D01*
X0378190Y0237203D02*
X0378190Y0236452D01*
X0377440Y0236452D01*
X0377190Y0236703D01*
X0377440Y0237453D02*
X0377940Y0237453D01*
X0378190Y0237203D01*
X0378663Y0237453D02*
X0378663Y0236452D01*
X0378663Y0236953D02*
X0379163Y0237453D01*
X0379413Y0237453D01*
X0379890Y0237453D02*
X0379890Y0236703D01*
X0380141Y0236452D01*
X0380891Y0236452D01*
X0380891Y0236202D02*
X0380641Y0235952D01*
X0380391Y0235952D01*
X0380891Y0236202D02*
X0380891Y0237453D01*
X0382837Y0233154D02*
X0383087Y0233154D01*
X0383087Y0231652D01*
X0382837Y0231652D02*
X0383337Y0231652D01*
X0383819Y0231903D02*
X0384069Y0231652D01*
X0384820Y0231652D01*
X0384820Y0231402D02*
X0384570Y0231152D01*
X0384320Y0231152D01*
X0384820Y0231402D02*
X0384820Y0232653D01*
X0383819Y0232653D02*
X0383819Y0231903D01*
X0352073Y0237954D02*
X0352073Y0238204D01*
X0350350Y0237453D02*
X0350350Y0236703D01*
X0350600Y0236452D01*
D188*
X0301957Y0234051D02*
X0130698Y0234051D01*
X0130698Y0152555D01*
X0301957Y0152555D01*
X0301957Y0234051D01*
X0301957Y0150051D02*
X0130698Y0150051D01*
X0130698Y0068555D01*
X0301957Y0068555D01*
X0301957Y0150051D01*
X0041450Y0143230D02*
X0041450Y0140961D01*
X0041450Y0142096D02*
X0038047Y0142096D01*
X0039181Y0140961D01*
X0039181Y0123230D02*
X0038614Y0123230D01*
X0038047Y0122663D01*
X0038047Y0121528D01*
X0038614Y0120961D01*
X0039181Y0123230D02*
X0041450Y0120961D01*
X0041450Y0123230D01*
X0041450Y0103230D02*
X0041450Y0100961D01*
X0041450Y0102096D02*
X0038047Y0102096D01*
X0039181Y0100961D01*
X0039181Y0083230D02*
X0038614Y0083230D01*
X0038047Y0082663D01*
X0038047Y0081528D01*
X0038614Y0080961D01*
X0039181Y0083230D02*
X0041450Y0080961D01*
X0041450Y0083230D01*
X0041450Y0053630D02*
X0041450Y0051361D01*
X0041450Y0052496D02*
X0038047Y0052496D01*
X0039181Y0051361D01*
X0039181Y0033630D02*
X0038614Y0033630D01*
X0038047Y0033063D01*
X0038047Y0031928D01*
X0038614Y0031361D01*
X0039181Y0033630D02*
X0041450Y0031361D01*
X0041450Y0033630D01*
X0041450Y0160961D02*
X0039181Y0163230D01*
X0038614Y0163230D01*
X0038047Y0162663D01*
X0038047Y0161528D01*
X0038614Y0160961D01*
X0041450Y0160961D02*
X0041450Y0163230D01*
X0041450Y0180961D02*
X0041450Y0183230D01*
X0041450Y0182096D02*
X0038047Y0182096D01*
X0039181Y0180961D01*
X0038614Y0200961D02*
X0038047Y0201528D01*
X0038047Y0202663D01*
X0038614Y0203230D01*
X0039181Y0203230D01*
X0041450Y0200961D01*
X0041450Y0203230D01*
X0041450Y0220961D02*
X0041450Y0223230D01*
X0041450Y0222096D02*
X0038047Y0222096D01*
X0039181Y0220961D01*
X0038614Y0240961D02*
X0038047Y0241528D01*
X0038047Y0242663D01*
X0038614Y0243230D01*
X0039181Y0243230D01*
X0041450Y0240961D01*
X0041450Y0243230D01*
X0041450Y0260961D02*
X0041450Y0263230D01*
X0041450Y0262096D02*
X0038047Y0262096D01*
X0039181Y0260961D01*
D189*
X0073618Y0251183D02*
X0075920Y0248881D01*
X0075920Y0251950D01*
X0078222Y0251183D02*
X0073618Y0251183D01*
X0078222Y0247346D02*
X0078222Y0244277D01*
X0078222Y0245811D02*
X0073618Y0245811D01*
X0075153Y0244277D01*
X0109087Y0251280D02*
X0113691Y0251280D01*
X0113691Y0249746D02*
X0113691Y0252815D01*
X0112924Y0254350D02*
X0113691Y0255117D01*
X0113691Y0256652D01*
X0112924Y0257419D01*
X0111389Y0257419D01*
X0110622Y0256652D01*
X0110622Y0255884D01*
X0111389Y0254350D01*
X0109087Y0254350D01*
X0109087Y0257419D01*
X0109087Y0251280D02*
X0110622Y0249746D01*
X0118472Y0262397D02*
X0118472Y0267001D01*
X0120774Y0267001D01*
X0121542Y0266233D01*
X0121542Y0264699D01*
X0120774Y0263931D01*
X0118472Y0263931D01*
X0120007Y0263931D02*
X0121542Y0262397D01*
X0123076Y0263164D02*
X0123076Y0263931D01*
X0123844Y0264699D01*
X0125378Y0264699D01*
X0126146Y0263931D01*
X0126146Y0263164D01*
X0125378Y0262397D01*
X0123844Y0262397D01*
X0123076Y0263164D01*
X0123844Y0264699D02*
X0123076Y0265466D01*
X0123076Y0266233D01*
X0123844Y0267001D01*
X0125378Y0267001D01*
X0126146Y0266233D01*
X0126146Y0265466D01*
X0125378Y0264699D01*
X0112872Y0227127D02*
X0109803Y0227127D01*
X0109035Y0226359D01*
X0109035Y0224825D01*
X0109803Y0224057D01*
X0110570Y0224057D01*
X0111337Y0224825D01*
X0111337Y0227127D01*
X0112872Y0227127D02*
X0113639Y0226359D01*
X0113639Y0224825D01*
X0112872Y0224057D01*
X0113639Y0222523D02*
X0113639Y0219454D01*
X0113639Y0220988D02*
X0109035Y0220988D01*
X0110570Y0219454D01*
X0109803Y0217919D02*
X0109035Y0217152D01*
X0109035Y0215617D01*
X0109803Y0214850D01*
X0112872Y0214850D01*
X0113639Y0215617D01*
X0113639Y0217152D01*
X0112872Y0217919D01*
X0118559Y0200914D02*
X0120861Y0200914D01*
X0121628Y0200147D01*
X0121628Y0198612D01*
X0120861Y0197845D01*
X0118559Y0197845D01*
X0120094Y0197845D02*
X0121628Y0196310D01*
X0123163Y0196310D02*
X0123163Y0197078D01*
X0126232Y0200147D01*
X0126232Y0200914D01*
X0123163Y0200914D01*
X0118559Y0200914D02*
X0118559Y0196310D01*
X0113924Y0184370D02*
X0113924Y0181301D01*
X0113924Y0182835D02*
X0109320Y0182835D01*
X0110855Y0181301D01*
X0110185Y0181155D02*
X0110185Y0179621D01*
X0109418Y0178854D01*
X0107883Y0178854D01*
X0107116Y0179621D01*
X0107116Y0181155D02*
X0108650Y0181923D01*
X0109418Y0181923D01*
X0110185Y0181155D01*
X0110185Y0183457D02*
X0107116Y0183457D01*
X0107116Y0181155D01*
X0105581Y0181155D02*
X0104814Y0180388D01*
X0102512Y0180388D01*
X0104046Y0180388D02*
X0105581Y0178854D01*
X0105581Y0181155D02*
X0105581Y0182690D01*
X0104814Y0183457D01*
X0102512Y0183457D01*
X0102512Y0178854D01*
X0078222Y0185832D02*
X0075153Y0188901D01*
X0074385Y0188901D01*
X0073618Y0188134D01*
X0073618Y0186599D01*
X0074385Y0185832D01*
X0078222Y0185832D02*
X0078222Y0188901D01*
X0109087Y0158317D02*
X0109087Y0155247D01*
X0111389Y0155247D01*
X0110622Y0156782D01*
X0110622Y0157549D01*
X0111389Y0158317D01*
X0112924Y0158317D01*
X0113691Y0157549D01*
X0113691Y0156015D01*
X0112924Y0155247D01*
X0113691Y0153713D02*
X0113691Y0150643D01*
X0113691Y0152178D02*
X0109087Y0152178D01*
X0110622Y0150643D01*
X0078222Y0152080D02*
X0073618Y0152080D01*
X0075920Y0149778D01*
X0075920Y0152848D01*
X0078222Y0148244D02*
X0078222Y0145174D01*
X0078222Y0146709D02*
X0073618Y0146709D01*
X0075153Y0145174D01*
X0107657Y0126359D02*
X0108425Y0127127D01*
X0109192Y0127127D01*
X0109959Y0126359D01*
X0109959Y0124825D01*
X0109192Y0124057D01*
X0108425Y0124057D01*
X0107657Y0124825D01*
X0107657Y0126359D01*
X0109959Y0126359D02*
X0110727Y0127127D01*
X0111494Y0127127D01*
X0112261Y0126359D01*
X0112261Y0124825D01*
X0111494Y0124057D01*
X0110727Y0124057D01*
X0109959Y0124825D01*
X0112261Y0122523D02*
X0112261Y0119454D01*
X0112261Y0120988D02*
X0107657Y0120988D01*
X0109192Y0119454D01*
X0108425Y0117919D02*
X0107657Y0117152D01*
X0107657Y0115617D01*
X0108425Y0114850D01*
X0111494Y0114850D01*
X0112261Y0115617D01*
X0112261Y0117152D01*
X0111494Y0117919D01*
X0078222Y0089799D02*
X0078222Y0086730D01*
X0075153Y0089799D01*
X0074385Y0089799D01*
X0073618Y0089031D01*
X0073618Y0087497D01*
X0074385Y0086730D01*
X0109320Y0083733D02*
X0110855Y0082198D01*
X0109320Y0083733D02*
X0113924Y0083733D01*
X0113924Y0082198D02*
X0113924Y0085268D01*
X0167264Y0057803D02*
X0167264Y0054734D01*
X0169566Y0054734D01*
X0168798Y0056268D01*
X0168798Y0057036D01*
X0169566Y0057803D01*
X0171100Y0057803D01*
X0171868Y0057036D01*
X0171868Y0055501D01*
X0171100Y0054734D01*
X0171100Y0053199D02*
X0171868Y0052432D01*
X0171868Y0050897D01*
X0171100Y0050130D01*
X0168031Y0050130D01*
X0167264Y0050897D01*
X0167264Y0052432D01*
X0168031Y0053199D01*
X0247713Y0229141D02*
X0247713Y0233745D01*
X0250783Y0233745D01*
X0252317Y0232978D02*
X0253085Y0233745D01*
X0254619Y0233745D01*
X0255387Y0232978D01*
X0255387Y0232210D01*
X0254619Y0231443D01*
X0255387Y0230676D01*
X0255387Y0229908D01*
X0254619Y0229141D01*
X0253085Y0229141D01*
X0252317Y0229908D01*
X0253852Y0231443D02*
X0254619Y0231443D01*
X0249248Y0231443D02*
X0247713Y0231443D01*
X0267331Y0258157D02*
X0267331Y0262761D01*
X0270400Y0262761D01*
X0271935Y0261993D02*
X0272702Y0262761D01*
X0274237Y0262761D01*
X0275004Y0261993D01*
X0275004Y0261226D01*
X0271935Y0258157D01*
X0275004Y0258157D01*
X0268865Y0260459D02*
X0267331Y0260459D01*
X0344421Y0246149D02*
X0344421Y0244615D01*
X0345189Y0243847D01*
X0344421Y0242313D02*
X0349025Y0239243D01*
X0349025Y0242313D02*
X0344421Y0239243D01*
X0349025Y0243847D02*
X0345956Y0246917D01*
X0345189Y0246917D01*
X0344421Y0246149D01*
X0349025Y0246917D02*
X0349025Y0243847D01*
X0381020Y0252051D02*
X0385624Y0255120D01*
X0385624Y0256655D02*
X0385624Y0259724D01*
X0385624Y0258190D02*
X0381020Y0258190D01*
X0382554Y0256655D01*
X0381020Y0255120D02*
X0385624Y0252051D01*
D190*
X0379532Y0260571D02*
X0379532Y0239547D01*
X0368115Y0239547D01*
X0368115Y0260571D01*
X0379532Y0260571D01*
X0361934Y0260555D02*
X0350517Y0260555D01*
X0350517Y0239531D01*
X0361934Y0239531D01*
X0361934Y0260555D01*
X0217068Y0261852D02*
X0217068Y0239352D01*
X0147068Y0239352D01*
X0147068Y0261852D01*
X0168318Y0261852D01*
X0168318Y0265602D01*
X0195818Y0265602D01*
X0195818Y0261852D01*
X0217068Y0261852D01*
X0065009Y0061114D02*
X0053591Y0061114D01*
X0053591Y0040091D01*
X0065009Y0040091D01*
X0065009Y0061114D01*
D191*
X0069436Y0118720D03*
X0069436Y0217823D03*
D192*
X0027800Y0206802D03*
X0027800Y0166802D03*
X0027800Y0126802D03*
X0027800Y0086802D03*
X0027800Y0037202D03*
X0027800Y0246802D03*
D193*
X0045645Y0247816D02*
X0051950Y0247816D01*
X0051950Y0252019D01*
X0051950Y0254261D02*
X0051950Y0258465D01*
X0051950Y0260707D02*
X0051950Y0263860D01*
X0050899Y0264910D01*
X0046696Y0264910D01*
X0045645Y0263860D01*
X0045645Y0260707D01*
X0051950Y0260707D01*
X0048797Y0256363D02*
X0048797Y0254261D01*
X0045645Y0254261D02*
X0051950Y0254261D01*
X0045645Y0254261D02*
X0045645Y0258465D01*
X0048797Y0224910D02*
X0048797Y0220707D01*
X0045645Y0223860D01*
X0051950Y0223860D01*
X0051950Y0216363D02*
X0045645Y0216363D01*
X0045645Y0214261D02*
X0045645Y0218465D01*
X0046696Y0212019D02*
X0045645Y0210969D01*
X0045645Y0208867D01*
X0046696Y0207816D01*
X0050899Y0207816D01*
X0051950Y0208867D01*
X0051950Y0210969D01*
X0050899Y0212019D01*
X0046696Y0212019D01*
X0045645Y0205574D02*
X0051950Y0205574D01*
X0047746Y0203472D02*
X0045645Y0205574D01*
X0047746Y0203472D02*
X0045645Y0201370D01*
X0051950Y0201370D01*
X0050899Y0184910D02*
X0051950Y0183860D01*
X0051950Y0181758D01*
X0050899Y0180707D01*
X0048797Y0182809D02*
X0048797Y0183860D01*
X0049848Y0184910D01*
X0050899Y0184910D01*
X0048797Y0183860D02*
X0047746Y0184910D01*
X0046696Y0184910D01*
X0045645Y0183860D01*
X0045645Y0181758D01*
X0046696Y0180707D01*
X0045645Y0178465D02*
X0045645Y0174261D01*
X0045645Y0176363D02*
X0051950Y0176363D01*
X0050899Y0172019D02*
X0046696Y0172019D01*
X0045645Y0170969D01*
X0045645Y0168867D01*
X0046696Y0167816D01*
X0050899Y0167816D01*
X0051950Y0168867D01*
X0051950Y0170969D01*
X0050899Y0172019D01*
X0051950Y0165574D02*
X0045645Y0165574D01*
X0047746Y0163472D01*
X0045645Y0161370D01*
X0051950Y0161370D01*
X0051950Y0144910D02*
X0051950Y0140707D01*
X0047746Y0144910D01*
X0046696Y0144910D01*
X0045645Y0143860D01*
X0045645Y0141758D01*
X0046696Y0140707D01*
X0045645Y0138465D02*
X0045645Y0134261D01*
X0045645Y0136363D02*
X0051950Y0136363D01*
X0050899Y0132019D02*
X0046696Y0132019D01*
X0045645Y0130969D01*
X0045645Y0128867D01*
X0046696Y0127816D01*
X0050899Y0127816D01*
X0051950Y0128867D01*
X0051950Y0130969D01*
X0050899Y0132019D01*
X0051950Y0125574D02*
X0045645Y0125574D01*
X0047746Y0123472D01*
X0045645Y0121370D01*
X0051950Y0121370D01*
X0051950Y0104910D02*
X0051950Y0100707D01*
X0051950Y0102809D02*
X0045645Y0102809D01*
X0047746Y0100707D01*
X0045645Y0098465D02*
X0045645Y0094261D01*
X0045645Y0096363D02*
X0051950Y0096363D01*
X0050899Y0092019D02*
X0046696Y0092019D01*
X0045645Y0090969D01*
X0045645Y0088867D01*
X0046696Y0087816D01*
X0050899Y0087816D01*
X0051950Y0088867D01*
X0051950Y0090969D01*
X0050899Y0092019D01*
X0051950Y0085574D02*
X0045645Y0085574D01*
X0047746Y0083472D01*
X0045645Y0081370D01*
X0051950Y0081370D01*
D194*
X0132698Y0058783D02*
X0132698Y0029256D01*
X0136241Y0025713D01*
X0144902Y0025713D01*
X0153564Y0025713D02*
X0162225Y0025713D01*
X0165769Y0029256D01*
X0165769Y0058783D01*
X0153564Y0058783D01*
X0144902Y0058783D02*
X0132698Y0058783D01*
X0153367Y0057011D02*
X0153726Y0056904D01*
X0154081Y0056788D01*
X0154434Y0056663D01*
X0154784Y0056529D01*
X0155130Y0056387D01*
X0155473Y0056237D01*
X0155812Y0056079D01*
X0156147Y0055912D01*
X0156478Y0055737D01*
X0156804Y0055554D01*
X0157126Y0055363D01*
X0157444Y0055164D01*
X0157756Y0054958D01*
X0158063Y0054744D01*
X0158365Y0054523D01*
X0158661Y0054294D01*
X0158952Y0054059D01*
X0159237Y0053816D01*
X0159516Y0053566D01*
X0159789Y0053310D01*
X0160055Y0053047D01*
X0160315Y0052778D01*
X0160568Y0052502D01*
X0160815Y0052221D01*
X0161054Y0051933D01*
X0161287Y0051640D01*
X0161512Y0051341D01*
X0161730Y0051037D01*
X0161940Y0050727D01*
X0162143Y0050413D01*
X0162338Y0050093D01*
X0162525Y0049769D01*
X0162705Y0049441D01*
X0162876Y0049108D01*
X0163039Y0048771D01*
X0163194Y0048430D01*
X0163340Y0048086D01*
X0163478Y0047738D01*
X0163608Y0047387D01*
X0163729Y0047033D01*
X0163841Y0046676D01*
X0163944Y0046316D01*
X0164039Y0045954D01*
X0164125Y0045590D01*
X0164202Y0045223D01*
X0164270Y0044855D01*
X0164329Y0044486D01*
X0164379Y0044115D01*
X0164420Y0043743D01*
X0164452Y0043370D01*
X0164475Y0042996D01*
X0164488Y0042622D01*
X0164493Y0042248D01*
X0164488Y0041874D01*
X0164475Y0041500D01*
X0164452Y0041126D01*
X0164420Y0040753D01*
X0164379Y0040381D01*
X0164329Y0040010D01*
X0164270Y0039641D01*
X0164202Y0039273D01*
X0164125Y0038906D01*
X0164039Y0038542D01*
X0163944Y0038180D01*
X0163841Y0037820D01*
X0163729Y0037463D01*
X0163608Y0037109D01*
X0163478Y0036758D01*
X0163340Y0036410D01*
X0163194Y0036066D01*
X0163039Y0035725D01*
X0162876Y0035388D01*
X0162705Y0035055D01*
X0162525Y0034727D01*
X0162338Y0034403D01*
X0162143Y0034083D01*
X0161940Y0033769D01*
X0161730Y0033459D01*
X0161512Y0033155D01*
X0161287Y0032856D01*
X0161054Y0032563D01*
X0160815Y0032275D01*
X0160568Y0031994D01*
X0160315Y0031718D01*
X0160055Y0031449D01*
X0159789Y0031186D01*
X0159516Y0030930D01*
X0159237Y0030680D01*
X0158952Y0030437D01*
X0158661Y0030202D01*
X0158365Y0029973D01*
X0158063Y0029752D01*
X0157756Y0029538D01*
X0157444Y0029332D01*
X0157126Y0029133D01*
X0156804Y0028942D01*
X0156478Y0028759D01*
X0156147Y0028584D01*
X0155812Y0028417D01*
X0155473Y0028259D01*
X0155130Y0028109D01*
X0154784Y0027967D01*
X0154434Y0027833D01*
X0154081Y0027708D01*
X0153726Y0027592D01*
X0153367Y0027485D01*
X0145099Y0027485D02*
X0144740Y0027592D01*
X0144385Y0027708D01*
X0144032Y0027833D01*
X0143682Y0027967D01*
X0143336Y0028109D01*
X0142993Y0028259D01*
X0142654Y0028417D01*
X0142319Y0028584D01*
X0141988Y0028759D01*
X0141662Y0028942D01*
X0141340Y0029133D01*
X0141022Y0029332D01*
X0140710Y0029538D01*
X0140403Y0029752D01*
X0140101Y0029973D01*
X0139805Y0030202D01*
X0139514Y0030437D01*
X0139229Y0030680D01*
X0138950Y0030930D01*
X0138677Y0031186D01*
X0138411Y0031449D01*
X0138151Y0031718D01*
X0137898Y0031994D01*
X0137651Y0032275D01*
X0137412Y0032563D01*
X0137179Y0032856D01*
X0136954Y0033155D01*
X0136736Y0033459D01*
X0136526Y0033769D01*
X0136323Y0034083D01*
X0136128Y0034403D01*
X0135941Y0034727D01*
X0135761Y0035055D01*
X0135590Y0035388D01*
X0135427Y0035725D01*
X0135272Y0036066D01*
X0135126Y0036410D01*
X0134988Y0036758D01*
X0134858Y0037109D01*
X0134737Y0037463D01*
X0134625Y0037820D01*
X0134522Y0038180D01*
X0134427Y0038542D01*
X0134341Y0038906D01*
X0134264Y0039273D01*
X0134196Y0039641D01*
X0134137Y0040010D01*
X0134087Y0040381D01*
X0134046Y0040753D01*
X0134014Y0041126D01*
X0133991Y0041500D01*
X0133978Y0041874D01*
X0133973Y0042248D01*
X0133978Y0042622D01*
X0133991Y0042996D01*
X0134014Y0043370D01*
X0134046Y0043743D01*
X0134087Y0044115D01*
X0134137Y0044486D01*
X0134196Y0044855D01*
X0134264Y0045223D01*
X0134341Y0045590D01*
X0134427Y0045954D01*
X0134522Y0046316D01*
X0134625Y0046676D01*
X0134737Y0047033D01*
X0134858Y0047387D01*
X0134988Y0047738D01*
X0135126Y0048086D01*
X0135272Y0048430D01*
X0135427Y0048771D01*
X0135590Y0049108D01*
X0135761Y0049441D01*
X0135941Y0049769D01*
X0136128Y0050093D01*
X0136323Y0050413D01*
X0136526Y0050727D01*
X0136736Y0051037D01*
X0136954Y0051341D01*
X0137179Y0051640D01*
X0137412Y0051933D01*
X0137651Y0052221D01*
X0137898Y0052502D01*
X0138151Y0052778D01*
X0138411Y0053047D01*
X0138677Y0053310D01*
X0138950Y0053566D01*
X0139229Y0053816D01*
X0139514Y0054059D01*
X0139805Y0054294D01*
X0140101Y0054523D01*
X0140403Y0054744D01*
X0140710Y0054958D01*
X0141022Y0055164D01*
X0141340Y0055363D01*
X0141662Y0055554D01*
X0141988Y0055737D01*
X0142319Y0055912D01*
X0142654Y0056079D01*
X0142993Y0056237D01*
X0143336Y0056387D01*
X0143682Y0056529D01*
X0144032Y0056663D01*
X0144385Y0056788D01*
X0144740Y0056904D01*
X0145099Y0057011D01*
M02*
