G75*
%MOIN*%
%OFA0B0*%
%FSLAX25Y25*%
%IPPOS*%
%LPD*%
%AMOC8*
5,1,8,0,0,1.08239X$1,22.5*
%
%ADD10C,0.05600*%
%ADD11OC8,0.05600*%
%ADD12OC8,0.07087*%
%ADD13R,0.07874X0.20866*%
%ADD14C,0.07087*%
%ADD15R,0.07087X0.12598*%
%ADD16R,0.05906X0.05118*%
%ADD17C,0.07800*%
%ADD18C,0.06000*%
%ADD19R,0.06299X0.15748*%
%ADD20C,0.07600*%
%ADD21C,0.01000*%
%ADD22OC8,0.03962*%
%ADD23C,0.05600*%
%ADD24C,0.04000*%
%ADD25OC8,0.02781*%
%ADD26C,0.01200*%
%ADD27C,0.03200*%
%ADD28C,0.01600*%
%ADD29C,0.02400*%
D10*
X0365178Y0026500D03*
D11*
X0355178Y0026500D03*
X0345178Y0026500D03*
X0335178Y0026500D03*
X0325178Y0026500D03*
X0315178Y0026500D03*
X0305178Y0026500D03*
X0295178Y0026500D03*
X0285178Y0026500D03*
X0275178Y0026500D03*
X0265178Y0026500D03*
X0255178Y0026500D03*
X0245178Y0026500D03*
X0235178Y0026500D03*
X0225178Y0026500D03*
X0215178Y0026500D03*
X0205178Y0026500D03*
X0195178Y0026500D03*
X0185178Y0026500D03*
X0175178Y0026500D03*
X0175178Y0016500D03*
X0185178Y0016500D03*
X0195178Y0016500D03*
X0205178Y0016500D03*
X0215178Y0016500D03*
X0225178Y0016500D03*
X0235178Y0016500D03*
X0245178Y0016500D03*
X0255178Y0016500D03*
X0265178Y0016500D03*
X0275178Y0016500D03*
X0285178Y0016500D03*
X0295178Y0016500D03*
X0305178Y0016500D03*
X0315178Y0016500D03*
X0325178Y0016500D03*
X0335178Y0016500D03*
X0345178Y0016500D03*
X0355178Y0016500D03*
X0365178Y0016500D03*
D12*
X0294280Y0077413D03*
X0294280Y0143555D03*
X0294280Y0161413D03*
X0294280Y0227555D03*
X0137981Y0227555D03*
X0137981Y0161413D03*
X0137981Y0143555D03*
X0137981Y0077413D03*
D13*
X0229359Y0245949D03*
X0255343Y0245949D03*
X0268509Y0245949D03*
X0294493Y0245949D03*
D14*
X0352682Y0245043D02*
X0359769Y0245043D01*
X0370280Y0245059D02*
X0377367Y0245059D01*
X0377367Y0255059D02*
X0370280Y0255059D01*
X0359769Y0255043D02*
X0352682Y0255043D01*
X0106965Y0252823D02*
X0099879Y0252823D01*
X0099879Y0242823D02*
X0106965Y0242823D01*
X0106965Y0232823D02*
X0099879Y0232823D01*
X0099879Y0222823D02*
X0106965Y0222823D01*
X0106965Y0212823D02*
X0099879Y0212823D01*
X0099879Y0202823D02*
X0106965Y0202823D01*
X0106965Y0192823D02*
X0099879Y0192823D01*
X0099879Y0182823D02*
X0106965Y0182823D01*
X0086965Y0187823D02*
X0079879Y0187823D01*
X0079879Y0197823D02*
X0086965Y0197823D01*
X0086965Y0207823D02*
X0079879Y0207823D01*
X0079879Y0217823D02*
X0086965Y0217823D01*
X0086965Y0227823D02*
X0079879Y0227823D01*
X0079879Y0237823D02*
X0086965Y0237823D01*
X0086965Y0247823D02*
X0079879Y0247823D01*
X0099879Y0153720D02*
X0106965Y0153720D01*
X0106965Y0143720D02*
X0099879Y0143720D01*
X0099879Y0133720D02*
X0106965Y0133720D01*
X0106965Y0123720D02*
X0099879Y0123720D01*
X0099879Y0113720D02*
X0106965Y0113720D01*
X0106965Y0103720D02*
X0099879Y0103720D01*
X0099879Y0093720D02*
X0106965Y0093720D01*
X0106965Y0083720D02*
X0099879Y0083720D01*
X0086965Y0088720D02*
X0079879Y0088720D01*
X0079879Y0098720D02*
X0086965Y0098720D01*
X0086965Y0108720D02*
X0079879Y0108720D01*
X0079879Y0118720D02*
X0086965Y0118720D01*
X0086965Y0128720D02*
X0079879Y0128720D01*
X0079879Y0138720D02*
X0086965Y0138720D01*
X0086965Y0148720D02*
X0079879Y0148720D01*
X0062843Y0055602D02*
X0055757Y0055602D01*
X0055757Y0045602D02*
X0062843Y0045602D01*
D15*
X0101288Y0171154D03*
X0123335Y0171154D03*
X0117335Y0188610D03*
X0139383Y0188610D03*
X0139296Y0254697D03*
X0117249Y0254697D03*
D16*
X0118839Y0223390D03*
X0118839Y0215909D03*
X0117461Y0123390D03*
X0117461Y0115909D03*
D17*
X0031700Y0116902D02*
X0023900Y0116902D01*
X0023900Y0136702D02*
X0031700Y0136702D01*
X0031700Y0156902D02*
X0023900Y0156902D01*
X0023900Y0176702D02*
X0031700Y0176702D01*
X0031700Y0196902D02*
X0023900Y0196902D01*
X0023900Y0216702D02*
X0031700Y0216702D01*
X0031700Y0236902D02*
X0023900Y0236902D01*
X0023900Y0256702D02*
X0031700Y0256702D01*
X0031700Y0096702D02*
X0023900Y0096702D01*
X0023900Y0076902D02*
X0031700Y0076902D01*
X0031700Y0047102D02*
X0023900Y0047102D01*
X0023900Y0027302D02*
X0031700Y0027302D01*
D18*
X0157068Y0247602D02*
X0157068Y0253602D01*
X0167068Y0253602D02*
X0167068Y0247602D01*
X0177068Y0247602D02*
X0177068Y0253602D01*
X0187068Y0253602D02*
X0187068Y0247602D01*
X0197068Y0247602D02*
X0197068Y0253602D01*
X0207068Y0253602D02*
X0207068Y0247602D01*
D19*
X0149233Y0054256D03*
X0149233Y0030240D03*
D20*
X0160800Y0041807D01*
X0160800Y0045602D01*
X0160800Y0136602D01*
X0156800Y0140602D01*
X0156800Y0182602D01*
X0156800Y0196602D01*
X0152800Y0200602D01*
X0145800Y0200602D01*
X0137981Y0208421D01*
X0137981Y0227555D01*
X0137981Y0161413D02*
X0133611Y0161413D01*
X0126800Y0154602D01*
X0126800Y0114602D01*
X0126800Y0088594D01*
X0137981Y0077413D01*
X0149233Y0066161D01*
X0149233Y0054256D01*
X0081800Y0054256D01*
X0077300Y0054256D01*
X0156800Y0140602D02*
X0153800Y0143602D01*
X0138028Y0143602D01*
X0137981Y0143555D01*
D21*
X0117461Y0123390D02*
X0117131Y0123720D01*
X0117461Y0115909D02*
X0125493Y0115909D01*
X0126800Y0114602D01*
X0183800Y0158602D02*
X0183800Y0160602D01*
X0184800Y0161602D01*
X0213800Y0161602D01*
X0217800Y0160602D02*
X0217800Y0159602D01*
X0216800Y0158602D01*
X0187800Y0158602D01*
X0207800Y0136602D02*
X0206800Y0135602D01*
X0191800Y0135602D01*
X0252800Y0171602D02*
X0321800Y0171602D01*
X0320800Y0171602D01*
X0318800Y0173602D02*
X0321800Y0176602D01*
X0321800Y0180602D02*
X0316800Y0175602D01*
X0258800Y0175602D01*
X0253800Y0180602D01*
X0252800Y0180602D01*
X0253800Y0183602D02*
X0259800Y0177602D01*
X0313800Y0177602D01*
X0316800Y0180602D01*
X0310461Y0180702D02*
X0309761Y0180002D01*
X0260400Y0180002D01*
X0257800Y0182602D01*
X0257800Y0207602D01*
X0253800Y0207602D02*
X0253800Y0183602D01*
X0252800Y0176602D02*
X0255800Y0173602D01*
X0318800Y0173602D01*
X0335565Y0170267D02*
X0340473Y0165358D01*
X0350286Y0165358D01*
X0350290Y0165362D01*
X0353575Y0165362D01*
X0357800Y0161138D01*
X0357800Y0088602D01*
X0355800Y0086602D01*
X0332800Y0086602D01*
X0329800Y0083602D02*
X0362300Y0083602D01*
X0363800Y0085102D01*
X0363800Y0115602D01*
X0365300Y0117102D01*
X0374300Y0117102D01*
X0378800Y0121602D01*
X0378800Y0164102D01*
X0387800Y0173102D01*
X0387800Y0213602D01*
X0384800Y0216602D01*
X0365300Y0216602D01*
X0360800Y0212102D01*
X0360800Y0207602D01*
X0366800Y0209602D02*
X0368300Y0208102D01*
X0368800Y0207602D01*
X0368800Y0185102D01*
X0366800Y0183102D01*
X0366800Y0166602D01*
X0370910Y0162492D01*
X0370910Y0161122D01*
X0372910Y0164612D02*
X0372910Y0165992D01*
X0368800Y0170102D01*
X0368800Y0182102D01*
X0370800Y0184102D01*
X0370800Y0209602D01*
X0373800Y0209602D02*
X0377300Y0213602D01*
X0373800Y0209602D02*
X0373800Y0182102D01*
X0376800Y0184602D02*
X0376800Y0202102D01*
X0379800Y0199102D02*
X0379800Y0181102D01*
X0382800Y0178102D02*
X0382800Y0196102D01*
X0385800Y0202602D02*
X0384800Y0203602D01*
X0385800Y0202602D02*
X0385800Y0175602D01*
X0383800Y0173602D01*
X0381300Y0176602D02*
X0382800Y0178102D01*
X0376300Y0173602D02*
X0376300Y0122102D01*
X0373800Y0119602D01*
X0360800Y0119602D01*
X0365800Y0114602D02*
X0365800Y0083102D01*
X0363300Y0080602D01*
X0326800Y0080602D01*
X0325300Y0082102D01*
X0332800Y0067602D02*
X0332800Y0035102D01*
X0325178Y0026500D02*
X0320280Y0021602D01*
X0310300Y0021602D01*
X0305198Y0016500D01*
X0305178Y0016500D01*
X0300076Y0021602D01*
X0280300Y0021602D01*
X0275198Y0016500D01*
X0275178Y0016500D01*
X0270076Y0021602D01*
X0250300Y0021602D01*
X0245402Y0026500D01*
X0245178Y0026500D01*
X0240280Y0021602D01*
X0230800Y0021602D01*
X0225698Y0016500D01*
X0225178Y0016500D01*
X0220076Y0021602D01*
X0210300Y0021602D01*
X0205198Y0016500D01*
X0205178Y0016500D01*
X0200076Y0021602D01*
X0178300Y0021602D01*
X0175178Y0024724D01*
X0175178Y0026500D01*
X0200300Y0032602D02*
X0200300Y0059102D01*
X0248800Y0063102D02*
X0248800Y0045852D01*
X0293800Y0077894D02*
X0294280Y0077413D01*
X0293800Y0077894D02*
X0293800Y0118102D01*
X0295300Y0119602D01*
X0313800Y0119602D01*
X0276800Y0111602D02*
X0276800Y0097602D01*
X0276800Y0111602D02*
X0276800Y0162602D01*
X0282800Y0168602D01*
X0286300Y0183602D02*
X0284300Y0185602D01*
X0284300Y0210602D01*
X0286300Y0212602D01*
X0288800Y0212602D01*
X0298300Y0213102D02*
X0320300Y0213102D01*
X0321800Y0214602D01*
X0313800Y0199602D02*
X0365800Y0199602D01*
X0366800Y0198602D01*
X0366800Y0186102D01*
X0366300Y0185602D01*
X0361300Y0185602D01*
X0363800Y0189102D02*
X0363800Y0197102D01*
X0363300Y0197602D01*
X0314800Y0197602D01*
X0312300Y0195102D01*
X0293800Y0195102D01*
X0292300Y0196602D01*
X0288800Y0183602D02*
X0286300Y0183602D01*
X0266800Y0191602D02*
X0266800Y0207602D01*
X0261800Y0207602D02*
X0261800Y0191602D01*
X0309800Y0198102D02*
X0312300Y0198102D01*
X0313800Y0199602D01*
X0353800Y0211102D02*
X0360300Y0217602D01*
X0360300Y0231535D01*
X0373824Y0245059D01*
X0368300Y0220602D02*
X0384300Y0220602D01*
X0389800Y0215102D01*
X0389800Y0172102D01*
X0380800Y0163102D01*
X0380800Y0120602D01*
X0375300Y0115102D01*
X0366300Y0115102D01*
X0365800Y0114602D01*
X0306800Y0066602D02*
X0306800Y0042602D01*
X0300800Y0036602D01*
X0325178Y0026500D02*
X0330076Y0021602D01*
X0341800Y0021602D01*
X0345178Y0018224D01*
X0345178Y0016500D01*
X0345178Y0026500D02*
X0345178Y0058980D01*
X0345300Y0059102D01*
X0355178Y0054980D02*
X0355300Y0055102D01*
X0355178Y0054980D02*
X0355178Y0026500D01*
X0376300Y0173602D02*
X0375300Y0174602D01*
X0372800Y0174602D01*
X0309800Y0235102D02*
X0309800Y0235602D01*
X0309300Y0236102D01*
X0307800Y0236102D01*
X0307300Y0236602D01*
X0306800Y0236602D02*
X0310800Y0240602D01*
X0327800Y0240602D01*
X0148800Y0248602D02*
X0148800Y0230602D01*
X0147800Y0229602D01*
X0143800Y0229602D02*
X0143800Y0245602D01*
X0125800Y0231602D02*
X0104643Y0231602D01*
X0103422Y0232823D01*
X0103580Y0182823D02*
X0109800Y0176602D01*
X0109800Y0167602D01*
D22*
X0227800Y0087602D03*
X0241800Y0087602D03*
X0081800Y0054256D03*
D23*
X0103422Y0153720D02*
X0103422Y0169020D01*
X0101288Y0171154D01*
X0103422Y0182823D02*
X0113548Y0182823D01*
X0117335Y0186610D01*
X0117335Y0188610D01*
X0139383Y0188610D02*
X0139383Y0195366D01*
X0120473Y0214276D01*
X0118839Y0215909D01*
X0139383Y0188610D02*
X0139383Y0162815D01*
X0137981Y0161413D01*
X0128241Y0171154D01*
X0123335Y0171154D01*
X0157068Y0250602D02*
X0152973Y0254697D01*
X0139296Y0254697D01*
X0117249Y0254697D02*
X0115375Y0252823D01*
X0103422Y0252823D01*
D24*
X0083422Y0247823D02*
X0073520Y0247823D01*
X0071300Y0245602D01*
X0071300Y0226102D01*
X0069800Y0224602D01*
X0055300Y0224602D01*
X0071300Y0218602D02*
X0029700Y0218602D01*
X0027800Y0216702D01*
X0035800Y0208102D02*
X0035800Y0204902D01*
X0027800Y0196902D01*
X0035800Y0208102D02*
X0039800Y0212102D01*
X0055800Y0212102D01*
X0055800Y0201102D02*
X0047300Y0201102D01*
X0043800Y0197602D01*
X0043800Y0175102D01*
X0047300Y0171602D01*
X0054800Y0171602D01*
X0055300Y0171102D01*
X0055300Y0178602D02*
X0092300Y0178602D01*
X0093400Y0179642D01*
X0093400Y0190642D01*
X0095520Y0192823D01*
X0103422Y0192823D01*
X0083422Y0187823D02*
X0082143Y0189102D01*
X0054800Y0189102D01*
X0068131Y0155634D02*
X0090965Y0155634D01*
X0093328Y0153272D01*
X0093328Y0144610D01*
X0094115Y0143823D01*
X0103320Y0143823D01*
X0103422Y0143720D01*
X0083422Y0148720D02*
X0083249Y0148547D01*
X0072855Y0148547D01*
X0069706Y0145398D01*
X0069706Y0121776D01*
X0064832Y0116902D01*
X0027800Y0116902D01*
X0017300Y0108602D02*
X0055300Y0108602D01*
X0054745Y0096579D02*
X0027924Y0096579D01*
X0027800Y0096702D01*
X0017800Y0085102D02*
X0017300Y0084602D01*
X0017800Y0085102D02*
X0055800Y0085102D01*
X0062603Y0088720D02*
X0054745Y0096579D01*
X0062603Y0088720D02*
X0083422Y0088720D01*
X0093328Y0091854D02*
X0093328Y0082406D01*
X0087824Y0076902D01*
X0027800Y0076902D01*
X0093328Y0091854D02*
X0094902Y0093429D01*
X0103131Y0093429D01*
X0103422Y0093720D01*
X0059435Y0136702D02*
X0061831Y0139098D01*
X0061831Y0149335D01*
X0068131Y0155634D01*
X0059435Y0136702D02*
X0027800Y0136702D01*
X0117800Y0216602D02*
X0120127Y0214276D01*
X0120473Y0214276D01*
X0117800Y0216602D02*
X0126800Y0216602D01*
X0130800Y0220602D01*
X0130800Y0250602D01*
X0130800Y0252602D01*
X0132800Y0254602D01*
X0140800Y0254602D01*
D25*
X0148800Y0248602D03*
X0143800Y0245602D03*
X0130800Y0250602D03*
X0125800Y0231602D03*
X0143800Y0229602D03*
X0147800Y0229602D03*
X0173139Y0220264D03*
X0220800Y0237602D03*
X0220800Y0250602D03*
X0236800Y0249602D03*
X0276800Y0248602D03*
X0282800Y0255102D03*
X0307300Y0236602D03*
X0319800Y0224602D03*
X0321800Y0214602D03*
X0298300Y0213102D03*
X0288800Y0212602D03*
X0276800Y0223602D03*
X0272800Y0205602D03*
X0266800Y0207602D03*
X0261800Y0207602D03*
X0257800Y0207602D03*
X0253800Y0207602D03*
X0261800Y0191602D03*
X0266800Y0191602D03*
X0252800Y0180602D03*
X0252800Y0176602D03*
X0252800Y0171602D03*
X0234800Y0164602D03*
X0217800Y0160602D03*
X0213800Y0161602D03*
X0187800Y0158602D03*
X0183800Y0158602D03*
X0207800Y0136602D03*
X0191800Y0135602D03*
X0167800Y0128602D03*
X0116800Y0128602D03*
X0094800Y0162602D03*
X0109800Y0167602D03*
X0113320Y0174282D03*
X0130800Y0187602D03*
X0156902Y0182705D03*
X0073800Y0168602D03*
X0055300Y0171102D03*
X0055300Y0178602D03*
X0054800Y0189102D03*
X0055800Y0201102D03*
X0055800Y0212102D03*
X0071300Y0218602D03*
X0055300Y0224602D03*
X0035300Y0224102D03*
X0017300Y0108602D03*
X0017300Y0084602D03*
X0055300Y0108602D03*
X0055800Y0085102D03*
X0111780Y0048582D03*
X0117300Y0048522D03*
X0117300Y0043542D03*
X0111800Y0043602D03*
X0111780Y0038862D03*
X0117240Y0038742D03*
X0167800Y0082602D03*
X0200300Y0059102D03*
X0206300Y0045102D03*
X0200300Y0032602D03*
X0248800Y0045852D03*
X0248800Y0063102D03*
X0276800Y0097602D03*
X0276800Y0111602D03*
X0313800Y0119602D03*
X0313800Y0091602D03*
X0325300Y0082102D03*
X0329800Y0083602D03*
X0332800Y0086602D03*
X0332800Y0067602D03*
X0345300Y0059102D03*
X0355300Y0055102D03*
X0365178Y0060602D03*
X0360800Y0063602D03*
X0332800Y0035102D03*
X0300800Y0036602D03*
X0313800Y0063602D03*
X0306800Y0066602D03*
X0360800Y0091602D03*
X0360800Y0119602D03*
X0370910Y0161122D03*
X0372910Y0164612D03*
X0383800Y0173602D03*
X0381300Y0176602D03*
X0379800Y0181102D03*
X0376800Y0184602D03*
X0373800Y0182102D03*
X0372800Y0174602D03*
X0361300Y0185602D03*
X0363800Y0189102D03*
X0376800Y0202102D03*
X0379800Y0199102D03*
X0382800Y0196102D03*
X0384800Y0203602D03*
X0370800Y0209602D03*
X0366800Y0209602D03*
X0360800Y0207602D03*
X0353800Y0211102D03*
X0368300Y0220602D03*
X0377300Y0213602D03*
X0353800Y0224602D03*
X0327800Y0240602D03*
X0309800Y0198102D03*
X0292300Y0196602D03*
X0294300Y0183602D03*
X0288800Y0183602D03*
X0282800Y0168602D03*
X0306300Y0165602D03*
X0319324Y0165626D03*
X0321800Y0171602D03*
X0321800Y0176602D03*
X0321800Y0180602D03*
X0316800Y0180602D03*
X0310461Y0180702D03*
X0335565Y0170267D03*
X0350290Y0165362D03*
X0354300Y0171602D03*
X0385800Y0266602D03*
D26*
X0139383Y0188610D02*
X0138391Y0187602D01*
X0130800Y0187602D01*
X0103580Y0182823D02*
X0103422Y0182823D01*
X0095820Y0138702D02*
X0113040Y0138702D01*
D27*
X0173139Y0220264D02*
X0157068Y0236335D01*
X0157068Y0250602D01*
X0156800Y0250335D01*
X0227800Y0087602D02*
X0241800Y0087602D01*
X0355178Y0016500D02*
X0365178Y0016500D01*
D28*
X0009343Y0013851D02*
X0008049Y0015145D01*
X0007134Y0016730D01*
X0006660Y0018498D01*
X0006600Y0019413D01*
X0006600Y0263508D01*
X0006660Y0264423D01*
X0007134Y0266191D01*
X0008049Y0267776D01*
X0009343Y0269070D01*
X0010928Y0269985D01*
X0012696Y0270459D01*
X0013611Y0270519D01*
X0383690Y0270519D01*
X0384605Y0270459D01*
X0386373Y0269985D01*
X0387958Y0269070D01*
X0389252Y0267776D01*
X0390167Y0266191D01*
X0390641Y0264423D01*
X0390701Y0263508D01*
X0390701Y0218303D01*
X0386758Y0222245D01*
X0385943Y0223061D01*
X0384877Y0223502D01*
X0370761Y0223502D01*
X0369870Y0224393D01*
X0366730Y0224393D01*
X0364509Y0222172D01*
X0364509Y0219414D01*
X0363657Y0219061D01*
X0362841Y0218245D01*
X0358341Y0213745D01*
X0357900Y0212679D01*
X0357900Y0210063D01*
X0357009Y0209172D01*
X0357009Y0206032D01*
X0359230Y0203812D01*
X0362370Y0203812D01*
X0364591Y0206032D01*
X0364591Y0206451D01*
X0365230Y0205812D01*
X0365900Y0205812D01*
X0365900Y0202502D01*
X0313223Y0202502D01*
X0312157Y0202061D01*
X0311680Y0201583D01*
X0311370Y0201893D01*
X0308230Y0201893D01*
X0306009Y0199672D01*
X0306009Y0198002D01*
X0296091Y0198002D01*
X0296091Y0198172D01*
X0294993Y0199270D01*
X0295013Y0199290D01*
X0295500Y0200466D01*
X0295500Y0210542D01*
X0296730Y0209312D01*
X0299870Y0209312D01*
X0300761Y0210202D01*
X0320877Y0210202D01*
X0321943Y0210644D01*
X0322111Y0210812D01*
X0323370Y0210812D01*
X0325591Y0213032D01*
X0325591Y0216172D01*
X0323370Y0218393D01*
X0320230Y0218393D01*
X0318009Y0216172D01*
X0318009Y0216002D01*
X0306725Y0216002D01*
X0310513Y0219790D01*
X0311000Y0220966D01*
X0311000Y0221402D01*
X0317639Y0221402D01*
X0318230Y0220812D01*
X0321370Y0220812D01*
X0321961Y0221402D01*
X0351639Y0221402D01*
X0352230Y0220812D01*
X0355370Y0220812D01*
X0357591Y0223032D01*
X0357591Y0226172D01*
X0355370Y0228393D01*
X0352230Y0228393D01*
X0351639Y0227802D01*
X0321961Y0227802D01*
X0321370Y0228393D01*
X0318230Y0228393D01*
X0317639Y0227802D01*
X0307163Y0227802D01*
X0306400Y0227486D01*
X0306400Y0241111D01*
X0306732Y0241443D01*
X0347877Y0241443D01*
X0349315Y0240005D01*
X0351500Y0239100D01*
X0360951Y0239100D01*
X0363135Y0240005D01*
X0364807Y0241677D01*
X0365345Y0242976D01*
X0365710Y0242259D01*
X0366205Y0241578D01*
X0366799Y0240983D01*
X0367480Y0240489D01*
X0368229Y0240107D01*
X0369029Y0239847D01*
X0369860Y0239716D01*
X0373442Y0239716D01*
X0373442Y0244678D01*
X0374205Y0244678D01*
X0374205Y0245440D01*
X0382710Y0245440D01*
X0382710Y0245480D01*
X0382579Y0246310D01*
X0382319Y0247110D01*
X0381937Y0247860D01*
X0381443Y0248540D01*
X0380848Y0249135D01*
X0380167Y0249629D01*
X0379997Y0249716D01*
X0380734Y0250021D01*
X0382405Y0251692D01*
X0383310Y0253877D01*
X0383310Y0256241D01*
X0382405Y0258426D01*
X0380734Y0260098D01*
X0378549Y0261002D01*
X0377400Y0261002D01*
X0377400Y0261318D01*
X0376852Y0262642D01*
X0375839Y0263654D01*
X0373839Y0265654D01*
X0372516Y0266202D01*
X0258084Y0266202D01*
X0256761Y0265654D01*
X0255748Y0264642D01*
X0252291Y0261185D01*
X0251743Y0259862D01*
X0251743Y0258782D01*
X0250929Y0258782D01*
X0250047Y0258416D01*
X0249372Y0257741D01*
X0249006Y0256859D01*
X0249006Y0235038D01*
X0249372Y0234156D01*
X0250047Y0233481D01*
X0250929Y0233116D01*
X0259758Y0233116D01*
X0260640Y0233481D01*
X0261315Y0234156D01*
X0261680Y0235038D01*
X0261680Y0256859D01*
X0261315Y0257741D01*
X0260640Y0258416D01*
X0259979Y0258690D01*
X0260291Y0259002D01*
X0267109Y0259002D01*
X0266888Y0258782D01*
X0264094Y0258782D01*
X0263212Y0258416D01*
X0262537Y0257741D01*
X0262172Y0256859D01*
X0262172Y0235038D01*
X0262537Y0234156D01*
X0263212Y0233481D01*
X0264094Y0233116D01*
X0272923Y0233116D01*
X0273805Y0233481D01*
X0274480Y0234156D01*
X0274846Y0235038D01*
X0274846Y0245002D01*
X0275039Y0245002D01*
X0275230Y0244812D01*
X0278370Y0244812D01*
X0280591Y0247032D01*
X0280591Y0250172D01*
X0278370Y0252393D01*
X0275230Y0252393D01*
X0275039Y0252202D01*
X0274846Y0252202D01*
X0274846Y0255002D01*
X0288156Y0255002D01*
X0288156Y0235038D01*
X0288521Y0234156D01*
X0289196Y0233481D01*
X0290079Y0233116D01*
X0290893Y0233116D01*
X0290893Y0232573D01*
X0288337Y0230017D01*
X0288337Y0229156D01*
X0285839Y0231654D01*
X0284516Y0232202D01*
X0235291Y0232202D01*
X0234201Y0233293D01*
X0234656Y0233481D01*
X0235331Y0234156D01*
X0235696Y0235038D01*
X0235696Y0245812D01*
X0238370Y0245812D01*
X0240591Y0248032D01*
X0240591Y0251172D01*
X0238370Y0253393D01*
X0235696Y0253393D01*
X0235696Y0256859D01*
X0235331Y0257741D01*
X0234656Y0258416D01*
X0233773Y0258782D01*
X0224945Y0258782D01*
X0224063Y0258416D01*
X0223387Y0257741D01*
X0223022Y0256859D01*
X0223022Y0253741D01*
X0222370Y0254393D01*
X0219230Y0254393D01*
X0219039Y0254202D01*
X0212468Y0254202D01*
X0212468Y0254676D01*
X0211646Y0256661D01*
X0210127Y0258180D01*
X0208142Y0259002D01*
X0205994Y0259002D01*
X0204009Y0258180D01*
X0202490Y0256661D01*
X0202068Y0255642D01*
X0201646Y0256661D01*
X0200127Y0258180D01*
X0198142Y0259002D01*
X0195994Y0259002D01*
X0194009Y0258180D01*
X0192490Y0256661D01*
X0192068Y0255642D01*
X0191646Y0256661D01*
X0190127Y0258180D01*
X0188142Y0259002D01*
X0185994Y0259002D01*
X0184009Y0258180D01*
X0182490Y0256661D01*
X0182068Y0255642D01*
X0181646Y0256661D01*
X0180127Y0258180D01*
X0178142Y0259002D01*
X0175994Y0259002D01*
X0174009Y0258180D01*
X0172490Y0256661D01*
X0172068Y0255642D01*
X0171646Y0256661D01*
X0170127Y0258180D01*
X0168142Y0259002D01*
X0165994Y0259002D01*
X0164009Y0258180D01*
X0162490Y0256661D01*
X0161723Y0254809D01*
X0161516Y0255445D01*
X0161173Y0256118D01*
X0160729Y0256729D01*
X0160195Y0257264D01*
X0159583Y0257708D01*
X0158910Y0258051D01*
X0158192Y0258284D01*
X0157445Y0258402D01*
X0157268Y0258402D01*
X0157268Y0250802D01*
X0156868Y0250802D01*
X0156868Y0250402D01*
X0157268Y0250402D01*
X0157268Y0242802D01*
X0157445Y0242802D01*
X0158192Y0242921D01*
X0158910Y0243154D01*
X0159583Y0243497D01*
X0160195Y0243941D01*
X0160729Y0244475D01*
X0161173Y0245087D01*
X0161516Y0245760D01*
X0161723Y0246396D01*
X0162490Y0244544D01*
X0164009Y0243024D01*
X0165994Y0242202D01*
X0168142Y0242202D01*
X0170127Y0243024D01*
X0171646Y0244544D01*
X0172068Y0245563D01*
X0172490Y0244544D01*
X0174009Y0243024D01*
X0175994Y0242202D01*
X0178142Y0242202D01*
X0180127Y0243024D01*
X0181646Y0244544D01*
X0182068Y0245563D01*
X0182490Y0244544D01*
X0184009Y0243024D01*
X0185994Y0242202D01*
X0188142Y0242202D01*
X0190127Y0243024D01*
X0191646Y0244544D01*
X0192068Y0245563D01*
X0192490Y0244544D01*
X0193468Y0243566D01*
X0193468Y0242619D01*
X0194016Y0241295D01*
X0194748Y0240563D01*
X0195761Y0239550D01*
X0197084Y0239002D01*
X0217009Y0239002D01*
X0217009Y0236032D01*
X0217200Y0235842D01*
X0217200Y0224886D01*
X0217748Y0223563D01*
X0219748Y0221563D01*
X0220761Y0220550D01*
X0222084Y0220002D01*
X0275039Y0220002D01*
X0275230Y0219812D01*
X0278370Y0219812D01*
X0280591Y0222032D01*
X0280591Y0225002D01*
X0282200Y0225002D01*
X0282200Y0220886D01*
X0282748Y0219563D01*
X0283761Y0218550D01*
X0285761Y0216550D01*
X0286911Y0216074D01*
X0286339Y0215502D01*
X0285723Y0215502D01*
X0284657Y0215061D01*
X0283841Y0214245D01*
X0281841Y0212245D01*
X0281400Y0211179D01*
X0281400Y0185026D01*
X0281841Y0183960D01*
X0282657Y0183144D01*
X0282899Y0182902D01*
X0261601Y0182902D01*
X0260700Y0183804D01*
X0260700Y0187812D01*
X0263370Y0187812D01*
X0264300Y0188742D01*
X0265230Y0187812D01*
X0268370Y0187812D01*
X0270591Y0190032D01*
X0270591Y0193172D01*
X0269700Y0194063D01*
X0269700Y0205142D01*
X0270591Y0206032D01*
X0270591Y0209172D01*
X0268370Y0211393D01*
X0265230Y0211393D01*
X0264300Y0210463D01*
X0263370Y0211393D01*
X0260230Y0211393D01*
X0259800Y0210963D01*
X0259370Y0211393D01*
X0256230Y0211393D01*
X0255800Y0210963D01*
X0255370Y0211393D01*
X0252230Y0211393D01*
X0250009Y0209172D01*
X0250009Y0206032D01*
X0250900Y0205142D01*
X0250900Y0184063D01*
X0249009Y0182172D01*
X0249009Y0179032D01*
X0249439Y0178602D01*
X0249009Y0178172D01*
X0249009Y0175032D01*
X0249939Y0174102D01*
X0249009Y0173172D01*
X0249009Y0170032D01*
X0251230Y0167812D01*
X0254370Y0167812D01*
X0255261Y0168702D01*
X0278799Y0168702D01*
X0274341Y0164245D01*
X0273900Y0163179D01*
X0273900Y0114063D01*
X0273009Y0113172D01*
X0273009Y0110032D01*
X0273900Y0109142D01*
X0273900Y0100063D01*
X0273009Y0099172D01*
X0273009Y0096032D01*
X0275230Y0093812D01*
X0278370Y0093812D01*
X0280591Y0096032D01*
X0280591Y0099172D01*
X0279700Y0100063D01*
X0279700Y0109142D01*
X0280591Y0110032D01*
X0280591Y0113172D01*
X0279700Y0114063D01*
X0279700Y0161401D01*
X0283111Y0164812D01*
X0284370Y0164812D01*
X0286591Y0167032D01*
X0286591Y0168702D01*
X0304039Y0168702D01*
X0302509Y0167172D01*
X0302509Y0164032D01*
X0304730Y0161812D01*
X0307870Y0161812D01*
X0308461Y0162402D01*
X0317187Y0162402D01*
X0317754Y0161835D01*
X0320894Y0161835D01*
X0321461Y0162402D01*
X0330937Y0162402D01*
X0332113Y0162890D01*
X0333613Y0164390D01*
X0334513Y0165290D01*
X0335000Y0166466D01*
X0335000Y0166476D01*
X0335254Y0166476D01*
X0338015Y0163716D01*
X0338015Y0163716D01*
X0338830Y0162900D01*
X0339896Y0162458D01*
X0347833Y0162458D01*
X0348720Y0161572D01*
X0351860Y0161572D01*
X0352562Y0162274D01*
X0354900Y0159937D01*
X0354900Y0089804D01*
X0354599Y0089502D01*
X0335261Y0089502D01*
X0334370Y0090393D01*
X0331230Y0090393D01*
X0329009Y0088172D01*
X0329009Y0087393D01*
X0328230Y0087393D01*
X0326730Y0085893D01*
X0323730Y0085893D01*
X0321509Y0083672D01*
X0321509Y0080702D01*
X0304084Y0080702D01*
X0302761Y0080154D01*
X0299624Y0077017D01*
X0299624Y0077229D01*
X0294465Y0077229D01*
X0294465Y0077598D01*
X0294096Y0077598D01*
X0294096Y0082757D01*
X0292067Y0082757D01*
X0288937Y0079627D01*
X0288937Y0077598D01*
X0294096Y0077598D01*
X0294096Y0077229D01*
X0288937Y0077229D01*
X0288937Y0075200D01*
X0289935Y0074202D01*
X0247791Y0074202D01*
X0246132Y0075861D01*
X0246132Y0085739D01*
X0246181Y0085788D01*
X0246181Y0089417D01*
X0243615Y0091983D01*
X0239985Y0091983D01*
X0239604Y0091602D01*
X0229996Y0091602D01*
X0229615Y0091983D01*
X0225985Y0091983D01*
X0223419Y0089417D01*
X0223419Y0085788D01*
X0225985Y0083221D01*
X0229615Y0083221D01*
X0229996Y0083602D01*
X0238932Y0083602D01*
X0238932Y0073654D01*
X0239480Y0072331D01*
X0240493Y0071318D01*
X0244261Y0067550D01*
X0245584Y0067002D01*
X0284609Y0067002D01*
X0283261Y0065654D01*
X0282248Y0064642D01*
X0281700Y0063318D01*
X0281700Y0045702D01*
X0252591Y0045702D01*
X0252591Y0047422D01*
X0251700Y0048313D01*
X0251700Y0060642D01*
X0252591Y0061532D01*
X0252591Y0064672D01*
X0250370Y0066893D01*
X0247230Y0066893D01*
X0245009Y0064672D01*
X0245009Y0061532D01*
X0245900Y0060642D01*
X0245900Y0048313D01*
X0245009Y0047422D01*
X0245009Y0045702D01*
X0210091Y0045702D01*
X0210091Y0046672D01*
X0207870Y0048893D01*
X0204730Y0048893D01*
X0203200Y0047363D01*
X0203200Y0056642D01*
X0204091Y0057532D01*
X0204091Y0060672D01*
X0201870Y0062893D01*
X0198730Y0062893D01*
X0196509Y0060672D01*
X0196509Y0057532D01*
X0197400Y0056642D01*
X0197400Y0035063D01*
X0196509Y0034172D01*
X0196509Y0031700D01*
X0193024Y0031700D01*
X0190178Y0028854D01*
X0187332Y0031700D01*
X0183024Y0031700D01*
X0179978Y0028654D01*
X0179978Y0024346D01*
X0182824Y0021500D01*
X0180178Y0018854D01*
X0177332Y0021700D01*
X0173024Y0021700D01*
X0169978Y0018654D01*
X0169978Y0014346D01*
X0171922Y0012402D01*
X0013611Y0012402D01*
X0012696Y0012462D01*
X0010928Y0012936D01*
X0010928Y0012936D01*
X0009343Y0013851D01*
X0009198Y0013996D02*
X0170328Y0013996D01*
X0169978Y0015595D02*
X0007789Y0015595D01*
X0007010Y0017193D02*
X0169978Y0017193D01*
X0170116Y0018792D02*
X0006641Y0018792D01*
X0006600Y0020390D02*
X0144665Y0020390D01*
X0144724Y0020332D02*
X0145606Y0019966D01*
X0152860Y0019966D01*
X0153742Y0020332D01*
X0154417Y0021007D01*
X0154783Y0021889D01*
X0154783Y0027022D01*
X0164312Y0036551D01*
X0166056Y0038295D01*
X0167000Y0040574D01*
X0167000Y0078812D01*
X0169370Y0078812D01*
X0171591Y0081032D01*
X0171591Y0084172D01*
X0171000Y0084763D01*
X0171000Y0126442D01*
X0171591Y0127032D01*
X0171591Y0130172D01*
X0169370Y0132393D01*
X0167000Y0132393D01*
X0167000Y0137836D01*
X0166056Y0140114D01*
X0163000Y0143170D01*
X0163000Y0197836D01*
X0162056Y0200114D01*
X0160312Y0201858D01*
X0158581Y0203590D01*
X0160170Y0203590D01*
X0162893Y0204319D01*
X0165334Y0205729D01*
X0167327Y0207722D01*
X0168737Y0210163D01*
X0169466Y0212886D01*
X0169466Y0215705D01*
X0168737Y0218427D01*
X0167327Y0220869D01*
X0165334Y0222862D01*
X0162893Y0224271D01*
X0160170Y0225001D01*
X0157351Y0225001D01*
X0154628Y0224271D01*
X0152187Y0222862D01*
X0150194Y0220869D01*
X0148785Y0218427D01*
X0148055Y0215705D01*
X0148055Y0212886D01*
X0148785Y0210163D01*
X0150194Y0207722D01*
X0151114Y0206802D01*
X0148368Y0206802D01*
X0144181Y0210989D01*
X0144181Y0225812D01*
X0145370Y0225812D01*
X0145800Y0226242D01*
X0146230Y0225812D01*
X0149370Y0225812D01*
X0151591Y0228032D01*
X0151591Y0229761D01*
X0151700Y0230026D01*
X0151700Y0246142D01*
X0152338Y0246780D01*
X0152386Y0246478D01*
X0152619Y0245760D01*
X0152962Y0245087D01*
X0153406Y0244475D01*
X0153941Y0243941D01*
X0154552Y0243497D01*
X0155225Y0243154D01*
X0155944Y0242921D01*
X0156690Y0242802D01*
X0156868Y0242802D01*
X0156868Y0250402D01*
X0152361Y0250402D01*
X0150370Y0252393D01*
X0147230Y0252393D01*
X0145009Y0250172D01*
X0145009Y0249393D01*
X0144639Y0249393D01*
X0144639Y0253897D01*
X0140096Y0253897D01*
X0140096Y0255497D01*
X0138496Y0255497D01*
X0138496Y0262796D01*
X0135516Y0262796D01*
X0135058Y0262673D01*
X0134648Y0262436D01*
X0134312Y0262101D01*
X0134075Y0261691D01*
X0133953Y0261233D01*
X0133953Y0255497D01*
X0138496Y0255497D01*
X0138496Y0253897D01*
X0133953Y0253897D01*
X0133953Y0248161D01*
X0134075Y0247703D01*
X0134312Y0247292D01*
X0134648Y0246957D01*
X0135058Y0246720D01*
X0135516Y0246598D01*
X0138496Y0246598D01*
X0138496Y0253897D01*
X0140096Y0253897D01*
X0140096Y0247259D01*
X0140009Y0247172D01*
X0140009Y0244032D01*
X0140900Y0243142D01*
X0140900Y0233057D01*
X0140873Y0233068D01*
X0140443Y0233498D01*
X0139834Y0233498D01*
X0139214Y0233755D01*
X0136748Y0233755D01*
X0136128Y0233498D01*
X0135519Y0233498D01*
X0135089Y0233068D01*
X0134469Y0232811D01*
X0132725Y0231067D01*
X0132468Y0230447D01*
X0132038Y0230017D01*
X0132038Y0229408D01*
X0131781Y0228788D01*
X0131781Y0207188D01*
X0132725Y0204909D01*
X0140544Y0197090D01*
X0140925Y0196709D01*
X0140183Y0196709D01*
X0140183Y0189410D01*
X0144726Y0189410D01*
X0144726Y0194402D01*
X0150232Y0194402D01*
X0150600Y0194034D01*
X0150600Y0149802D01*
X0136795Y0149802D01*
X0136061Y0149498D01*
X0135519Y0149498D01*
X0135136Y0149115D01*
X0134516Y0148858D01*
X0132725Y0147067D01*
X0132468Y0146447D01*
X0132038Y0146017D01*
X0132038Y0145408D01*
X0131781Y0144788D01*
X0131781Y0142322D01*
X0132038Y0141702D01*
X0132038Y0141093D01*
X0132468Y0140663D01*
X0132725Y0140043D01*
X0134469Y0138299D01*
X0135089Y0138042D01*
X0135519Y0137612D01*
X0136128Y0137612D01*
X0136748Y0137355D01*
X0139214Y0137355D01*
X0139328Y0137402D01*
X0151232Y0137402D01*
X0151544Y0137090D01*
X0153288Y0135346D01*
X0154600Y0134034D01*
X0154600Y0044375D01*
X0150739Y0040514D01*
X0145606Y0040514D01*
X0144724Y0040149D01*
X0144049Y0039474D01*
X0143683Y0038592D01*
X0143683Y0033044D01*
X0143033Y0031473D01*
X0143033Y0029007D01*
X0143683Y0027437D01*
X0143683Y0021889D01*
X0144049Y0021007D01*
X0144724Y0020332D01*
X0143683Y0021989D02*
X0035296Y0021989D01*
X0035269Y0021961D02*
X0037041Y0023734D01*
X0038000Y0026049D01*
X0038000Y0028556D01*
X0037041Y0030871D01*
X0035269Y0032643D01*
X0032953Y0033602D01*
X0022647Y0033602D01*
X0020331Y0032643D01*
X0018559Y0030871D01*
X0017600Y0028556D01*
X0017600Y0026049D01*
X0018559Y0023734D01*
X0020331Y0021961D01*
X0022647Y0021002D01*
X0032953Y0021002D01*
X0035269Y0021961D01*
X0036895Y0023587D02*
X0143683Y0023587D01*
X0143683Y0025186D02*
X0037642Y0025186D01*
X0038000Y0026784D02*
X0143683Y0026784D01*
X0143291Y0028383D02*
X0038000Y0028383D01*
X0037409Y0029982D02*
X0143033Y0029982D01*
X0143077Y0031580D02*
X0036332Y0031580D01*
X0033976Y0033179D02*
X0143683Y0033179D01*
X0143683Y0034777D02*
X0006600Y0034777D01*
X0006600Y0033179D02*
X0021624Y0033179D01*
X0019268Y0031580D02*
X0006600Y0031580D01*
X0006600Y0029982D02*
X0018191Y0029982D01*
X0017600Y0028383D02*
X0006600Y0028383D01*
X0006600Y0026784D02*
X0017600Y0026784D01*
X0017958Y0025186D02*
X0006600Y0025186D01*
X0006600Y0023587D02*
X0018705Y0023587D01*
X0020304Y0021989D02*
X0006600Y0021989D01*
X0006600Y0036376D02*
X0143683Y0036376D01*
X0143683Y0037974D02*
X0006600Y0037974D01*
X0006600Y0039573D02*
X0144148Y0039573D01*
X0145389Y0044705D02*
X0145846Y0044582D01*
X0148458Y0044582D01*
X0148458Y0053481D01*
X0144283Y0053481D01*
X0144283Y0046145D01*
X0144406Y0045687D01*
X0144643Y0045277D01*
X0144978Y0044942D01*
X0145389Y0044705D01*
X0144331Y0045967D02*
X0068787Y0045967D01*
X0068787Y0046785D02*
X0067882Y0048969D01*
X0066210Y0050641D01*
X0065474Y0050946D01*
X0065644Y0051032D01*
X0066324Y0051527D01*
X0066919Y0052121D01*
X0067413Y0052802D01*
X0067795Y0053551D01*
X0068055Y0054351D01*
X0068187Y0055182D01*
X0068187Y0055221D01*
X0059681Y0055221D01*
X0059681Y0055983D01*
X0068187Y0055983D01*
X0068187Y0056023D01*
X0068055Y0056854D01*
X0067795Y0057653D01*
X0067413Y0058403D01*
X0066919Y0059083D01*
X0066324Y0059678D01*
X0065644Y0060172D01*
X0064894Y0060554D01*
X0064095Y0060814D01*
X0063264Y0060946D01*
X0059681Y0060946D01*
X0059681Y0055984D01*
X0058919Y0055984D01*
X0058919Y0060946D01*
X0055336Y0060946D01*
X0054505Y0060814D01*
X0053706Y0060554D01*
X0052956Y0060172D01*
X0052276Y0059678D01*
X0051681Y0059083D01*
X0051187Y0058403D01*
X0050805Y0057653D01*
X0050545Y0056854D01*
X0050413Y0056023D01*
X0050413Y0055983D01*
X0058919Y0055983D01*
X0058919Y0055221D01*
X0050413Y0055221D01*
X0050413Y0055182D01*
X0050545Y0054351D01*
X0050805Y0053551D01*
X0051187Y0052802D01*
X0051681Y0052121D01*
X0052276Y0051527D01*
X0052956Y0051032D01*
X0053126Y0050946D01*
X0052390Y0050641D01*
X0050718Y0048969D01*
X0049813Y0046785D01*
X0049813Y0044420D01*
X0050718Y0042236D01*
X0052390Y0040564D01*
X0054574Y0039659D01*
X0064026Y0039659D01*
X0066210Y0040564D01*
X0067882Y0042236D01*
X0068787Y0044420D01*
X0068787Y0046785D01*
X0068463Y0047565D02*
X0144283Y0047565D01*
X0144283Y0049164D02*
X0067687Y0049164D01*
X0065917Y0050762D02*
X0144283Y0050762D01*
X0144283Y0052361D02*
X0067093Y0052361D01*
X0067928Y0053959D02*
X0148458Y0053959D01*
X0148458Y0053481D02*
X0148458Y0055031D01*
X0148458Y0063930D01*
X0145846Y0063930D01*
X0145389Y0063807D01*
X0144978Y0063570D01*
X0144643Y0063235D01*
X0144406Y0062825D01*
X0144283Y0062367D01*
X0144283Y0055031D01*
X0148458Y0055031D01*
X0150008Y0055031D01*
X0150008Y0063930D01*
X0152620Y0063930D01*
X0153077Y0063807D01*
X0153488Y0063570D01*
X0153823Y0063235D01*
X0154060Y0062825D01*
X0154183Y0062367D01*
X0154183Y0055031D01*
X0150008Y0055031D01*
X0150008Y0053481D01*
X0154183Y0053481D01*
X0154183Y0046145D01*
X0154060Y0045687D01*
X0153823Y0045277D01*
X0153488Y0044942D01*
X0153077Y0044705D01*
X0152620Y0044582D01*
X0150008Y0044582D01*
X0150008Y0053481D01*
X0148458Y0053481D01*
X0148458Y0052361D02*
X0150008Y0052361D01*
X0150008Y0053959D02*
X0154600Y0053959D01*
X0154600Y0052361D02*
X0154183Y0052361D01*
X0154183Y0050762D02*
X0154600Y0050762D01*
X0154600Y0049164D02*
X0154183Y0049164D01*
X0154183Y0047565D02*
X0154600Y0047565D01*
X0154600Y0045967D02*
X0154135Y0045967D01*
X0154593Y0044368D02*
X0068765Y0044368D01*
X0068103Y0042770D02*
X0152994Y0042770D01*
X0151396Y0041171D02*
X0066817Y0041171D01*
X0051783Y0041171D02*
X0006600Y0041171D01*
X0006600Y0042770D02*
X0020172Y0042770D01*
X0020187Y0042755D02*
X0020913Y0042227D01*
X0021712Y0041820D01*
X0022565Y0041543D01*
X0023451Y0041402D01*
X0027300Y0041402D01*
X0027300Y0046602D01*
X0028300Y0046602D01*
X0028300Y0041402D01*
X0032149Y0041402D01*
X0033035Y0041543D01*
X0033888Y0041820D01*
X0034687Y0042227D01*
X0035413Y0042755D01*
X0036048Y0043389D01*
X0036575Y0044115D01*
X0036982Y0044914D01*
X0037260Y0045768D01*
X0037392Y0046602D01*
X0028300Y0046602D01*
X0028300Y0047602D01*
X0037392Y0047602D01*
X0037260Y0048437D01*
X0036982Y0049290D01*
X0036575Y0050090D01*
X0036048Y0050816D01*
X0035413Y0051450D01*
X0034687Y0051977D01*
X0033888Y0052385D01*
X0033035Y0052662D01*
X0032149Y0052802D01*
X0028300Y0052802D01*
X0028300Y0047602D01*
X0027300Y0047602D01*
X0027300Y0046602D01*
X0018208Y0046602D01*
X0018340Y0045768D01*
X0018618Y0044914D01*
X0019025Y0044115D01*
X0019552Y0043389D01*
X0020187Y0042755D01*
X0018896Y0044368D02*
X0006600Y0044368D01*
X0006600Y0045967D02*
X0018309Y0045967D01*
X0018208Y0047602D02*
X0027300Y0047602D01*
X0027300Y0052802D01*
X0023451Y0052802D01*
X0022565Y0052662D01*
X0021712Y0052385D01*
X0020913Y0051977D01*
X0020187Y0051450D01*
X0019552Y0050816D01*
X0019025Y0050090D01*
X0018618Y0049290D01*
X0018340Y0048437D01*
X0018208Y0047602D01*
X0018576Y0049164D02*
X0006600Y0049164D01*
X0006600Y0050762D02*
X0019513Y0050762D01*
X0021665Y0052361D02*
X0006600Y0052361D01*
X0006600Y0053959D02*
X0050672Y0053959D01*
X0051507Y0052361D02*
X0033935Y0052361D01*
X0036087Y0050762D02*
X0052683Y0050762D01*
X0050913Y0049164D02*
X0037024Y0049164D01*
X0037291Y0045967D02*
X0049813Y0045967D01*
X0049835Y0044368D02*
X0036704Y0044368D01*
X0035428Y0042770D02*
X0050497Y0042770D01*
X0050137Y0047565D02*
X0028300Y0047565D01*
X0027300Y0047565D02*
X0006600Y0047565D01*
X0006600Y0055558D02*
X0058919Y0055558D01*
X0059681Y0055558D02*
X0144283Y0055558D01*
X0144283Y0057156D02*
X0067957Y0057156D01*
X0067158Y0058755D02*
X0144283Y0058755D01*
X0144283Y0060353D02*
X0065289Y0060353D01*
X0059681Y0060353D02*
X0058919Y0060353D01*
X0058919Y0058755D02*
X0059681Y0058755D01*
X0059681Y0057156D02*
X0058919Y0057156D01*
X0053311Y0060353D02*
X0006600Y0060353D01*
X0006600Y0058755D02*
X0051442Y0058755D01*
X0050643Y0057156D02*
X0006600Y0057156D01*
X0006600Y0061952D02*
X0144283Y0061952D01*
X0144958Y0063550D02*
X0006600Y0063550D01*
X0006600Y0065149D02*
X0154600Y0065149D01*
X0154600Y0066747D02*
X0006600Y0066747D01*
X0006600Y0068346D02*
X0154600Y0068346D01*
X0154600Y0069944D02*
X0006600Y0069944D01*
X0006600Y0071543D02*
X0020376Y0071543D01*
X0020331Y0071561D02*
X0022647Y0070602D01*
X0032953Y0070602D01*
X0035269Y0071561D01*
X0036210Y0072502D01*
X0088700Y0072502D01*
X0090317Y0073172D01*
X0095820Y0078675D01*
X0096169Y0079025D01*
X0096512Y0078682D01*
X0098697Y0077777D01*
X0108148Y0077777D01*
X0110332Y0078682D01*
X0112004Y0080354D01*
X0112909Y0082538D01*
X0112909Y0084903D01*
X0112004Y0087087D01*
X0110370Y0088720D01*
X0112004Y0090354D01*
X0112909Y0092538D01*
X0112909Y0094903D01*
X0112004Y0097087D01*
X0110370Y0098720D01*
X0112004Y0100354D01*
X0112909Y0102538D01*
X0112909Y0104903D01*
X0112004Y0107087D01*
X0110370Y0108720D01*
X0112004Y0110354D01*
X0112905Y0112529D01*
X0113068Y0112245D01*
X0113403Y0111910D01*
X0113814Y0111673D01*
X0114272Y0111550D01*
X0116982Y0111550D01*
X0116982Y0115430D01*
X0117941Y0115430D01*
X0117941Y0116389D01*
X0122214Y0116389D01*
X0122214Y0118705D01*
X0122102Y0119124D01*
X0122449Y0119471D01*
X0122814Y0120353D01*
X0122814Y0126426D01*
X0122449Y0127308D01*
X0121774Y0127983D01*
X0120892Y0128349D01*
X0120591Y0128349D01*
X0120591Y0130172D01*
X0120000Y0130763D01*
X0120000Y0163054D01*
X0122535Y0163054D01*
X0122535Y0170353D01*
X0124135Y0170353D01*
X0124135Y0163054D01*
X0127116Y0163054D01*
X0127574Y0163177D01*
X0127984Y0163414D01*
X0128319Y0163749D01*
X0128556Y0164160D01*
X0128679Y0164617D01*
X0128679Y0170354D01*
X0124135Y0170354D01*
X0124135Y0171954D01*
X0128679Y0171954D01*
X0128679Y0177690D01*
X0128556Y0178148D01*
X0128319Y0178558D01*
X0127984Y0178893D01*
X0127905Y0178939D01*
X0128056Y0179090D01*
X0128056Y0179090D01*
X0129000Y0181369D01*
X0129000Y0194059D01*
X0128099Y0196831D01*
X0126386Y0199189D01*
X0124029Y0200902D01*
X0124029Y0200902D01*
X0121257Y0201802D01*
X0117000Y0201802D01*
X0117000Y0211550D01*
X0118360Y0211550D01*
X0118360Y0215430D01*
X0119319Y0215430D01*
X0119319Y0216389D01*
X0123592Y0216389D01*
X0123592Y0218705D01*
X0123480Y0219124D01*
X0123827Y0219471D01*
X0124192Y0220353D01*
X0124192Y0226426D01*
X0123827Y0227308D01*
X0123152Y0227983D01*
X0122270Y0228349D01*
X0115409Y0228349D01*
X0114527Y0227983D01*
X0113852Y0227308D01*
X0113554Y0226590D01*
X0111604Y0226590D01*
X0110370Y0227823D01*
X0111250Y0228702D01*
X0123339Y0228702D01*
X0124230Y0227812D01*
X0127370Y0227812D01*
X0129591Y0230032D01*
X0129591Y0233172D01*
X0127370Y0235393D01*
X0124230Y0235393D01*
X0123339Y0234502D01*
X0112703Y0234502D01*
X0112004Y0236189D01*
X0110370Y0237823D01*
X0112004Y0239456D01*
X0112909Y0241641D01*
X0112909Y0244005D01*
X0112004Y0246189D01*
X0110570Y0247623D01*
X0111429Y0247623D01*
X0111671Y0247038D01*
X0112346Y0246363D01*
X0113228Y0245998D01*
X0121270Y0245998D01*
X0122152Y0246363D01*
X0122827Y0247038D01*
X0123192Y0247920D01*
X0123192Y0261473D01*
X0122827Y0262356D01*
X0122152Y0263031D01*
X0121270Y0263396D01*
X0113228Y0263396D01*
X0112346Y0263031D01*
X0111671Y0262356D01*
X0111306Y0261473D01*
X0111306Y0258023D01*
X0109942Y0258023D01*
X0108148Y0258766D01*
X0098697Y0258766D01*
X0096512Y0257861D01*
X0096072Y0257421D01*
X0095839Y0257654D01*
X0092852Y0260642D01*
X0091839Y0261654D01*
X0090516Y0262202D01*
X0042084Y0262202D01*
X0040761Y0261654D01*
X0039748Y0260642D01*
X0039748Y0260642D01*
X0037761Y0258654D01*
X0037761Y0258654D01*
X0037725Y0258619D01*
X0037041Y0260271D01*
X0035269Y0262043D01*
X0032953Y0263002D01*
X0022647Y0263002D01*
X0020331Y0262043D01*
X0018559Y0260271D01*
X0017600Y0257956D01*
X0017600Y0255449D01*
X0018559Y0253134D01*
X0020331Y0251361D01*
X0022647Y0250402D01*
X0032953Y0250402D01*
X0035269Y0251361D01*
X0036200Y0252293D01*
X0036200Y0241312D01*
X0035269Y0242243D01*
X0032953Y0243202D01*
X0022647Y0243202D01*
X0020331Y0242243D01*
X0018559Y0240471D01*
X0017600Y0238156D01*
X0017600Y0235649D01*
X0018559Y0233334D01*
X0020331Y0231561D01*
X0022647Y0230602D01*
X0031209Y0230602D01*
X0031700Y0230111D01*
X0031700Y0225863D01*
X0031509Y0225672D01*
X0031509Y0223002D01*
X0022647Y0223002D01*
X0020331Y0222043D01*
X0018559Y0220271D01*
X0017600Y0217956D01*
X0017600Y0215449D01*
X0018559Y0213134D01*
X0020331Y0211361D01*
X0022647Y0210402D01*
X0031990Y0210402D01*
X0031400Y0208978D01*
X0031400Y0206725D01*
X0027877Y0203202D01*
X0022647Y0203202D01*
X0020331Y0202243D01*
X0018559Y0200471D01*
X0017600Y0198156D01*
X0017600Y0195649D01*
X0018559Y0193334D01*
X0020331Y0191561D01*
X0022647Y0190602D01*
X0032953Y0190602D01*
X0035269Y0191561D01*
X0037041Y0193334D01*
X0038000Y0195649D01*
X0038000Y0198156D01*
X0037202Y0200082D01*
X0039530Y0202410D01*
X0040200Y0204027D01*
X0040200Y0206280D01*
X0041623Y0207702D01*
X0056675Y0207702D01*
X0058292Y0208372D01*
X0059530Y0209610D01*
X0060200Y0211227D01*
X0060200Y0212978D01*
X0059693Y0214202D01*
X0072175Y0214202D01*
X0073792Y0214872D01*
X0074869Y0215949D01*
X0074927Y0215772D01*
X0075309Y0215022D01*
X0075803Y0214342D01*
X0076398Y0213747D01*
X0077078Y0213253D01*
X0077248Y0213166D01*
X0076512Y0212861D01*
X0074840Y0211189D01*
X0073935Y0209005D01*
X0073935Y0206641D01*
X0074840Y0204456D01*
X0076474Y0202823D01*
X0074840Y0201189D01*
X0073935Y0199005D01*
X0073935Y0196641D01*
X0074840Y0194456D01*
X0075794Y0193502D01*
X0053925Y0193502D01*
X0052308Y0192832D01*
X0051070Y0191595D01*
X0050400Y0189978D01*
X0050400Y0188227D01*
X0051070Y0186610D01*
X0052308Y0185372D01*
X0053925Y0184702D01*
X0074738Y0184702D01*
X0074840Y0184456D01*
X0076294Y0183002D01*
X0054425Y0183002D01*
X0052808Y0182332D01*
X0051570Y0181095D01*
X0050900Y0179478D01*
X0050900Y0177727D01*
X0051570Y0176110D01*
X0052808Y0174872D01*
X0054425Y0174202D01*
X0092238Y0174202D01*
X0093052Y0174180D01*
X0093111Y0174202D01*
X0093175Y0174202D01*
X0093927Y0174514D01*
X0094687Y0174804D01*
X0094733Y0174848D01*
X0094792Y0174872D01*
X0095345Y0175425D01*
X0095345Y0167149D01*
X0090839Y0171654D01*
X0089516Y0172202D01*
X0075561Y0172202D01*
X0075370Y0172393D01*
X0072230Y0172393D01*
X0070009Y0170172D01*
X0070009Y0167032D01*
X0072230Y0164812D01*
X0075370Y0164812D01*
X0075561Y0165002D01*
X0087309Y0165002D01*
X0091009Y0161302D01*
X0091009Y0161032D01*
X0092126Y0159916D01*
X0091841Y0160034D01*
X0067255Y0160034D01*
X0065638Y0159364D01*
X0064401Y0158126D01*
X0058101Y0151827D01*
X0057431Y0150210D01*
X0057431Y0141102D01*
X0036210Y0141102D01*
X0035269Y0142043D01*
X0032953Y0143002D01*
X0022647Y0143002D01*
X0020331Y0142043D01*
X0018559Y0140271D01*
X0017600Y0137956D01*
X0017600Y0135449D01*
X0018559Y0133134D01*
X0020331Y0131361D01*
X0022647Y0130402D01*
X0032953Y0130402D01*
X0035269Y0131361D01*
X0036210Y0132302D01*
X0060311Y0132302D01*
X0061928Y0132972D01*
X0064324Y0135368D01*
X0065306Y0136350D01*
X0065306Y0123598D01*
X0063010Y0121302D01*
X0036210Y0121302D01*
X0035269Y0122243D01*
X0032953Y0123202D01*
X0022647Y0123202D01*
X0020331Y0122243D01*
X0018559Y0120471D01*
X0017600Y0118156D01*
X0017600Y0115649D01*
X0018559Y0113334D01*
X0020331Y0111561D01*
X0022647Y0110602D01*
X0032953Y0110602D01*
X0035269Y0111561D01*
X0036210Y0112502D01*
X0065707Y0112502D01*
X0067325Y0113172D01*
X0072198Y0118045D01*
X0073436Y0119283D01*
X0074105Y0120900D01*
X0074105Y0127128D01*
X0074840Y0125354D01*
X0076512Y0123682D01*
X0077248Y0123377D01*
X0077078Y0123290D01*
X0076398Y0122796D01*
X0075803Y0122201D01*
X0075309Y0121521D01*
X0074927Y0120772D01*
X0074667Y0119972D01*
X0074535Y0119141D01*
X0074535Y0119102D01*
X0083041Y0119102D01*
X0083041Y0118339D01*
X0074535Y0118339D01*
X0074535Y0118300D01*
X0074667Y0117469D01*
X0074927Y0116669D01*
X0075309Y0115920D01*
X0075803Y0115240D01*
X0076398Y0114645D01*
X0077078Y0114150D01*
X0077248Y0114064D01*
X0076512Y0113759D01*
X0074840Y0112087D01*
X0073935Y0109903D01*
X0073935Y0107538D01*
X0074840Y0105354D01*
X0076474Y0103720D01*
X0074840Y0102087D01*
X0073935Y0099903D01*
X0073935Y0097538D01*
X0074840Y0095354D01*
X0076474Y0093720D01*
X0075874Y0093120D01*
X0064426Y0093120D01*
X0058475Y0099071D01*
X0057237Y0100309D01*
X0055620Y0100979D01*
X0036333Y0100979D01*
X0035269Y0102043D01*
X0032953Y0103002D01*
X0022647Y0103002D01*
X0020331Y0102043D01*
X0018559Y0100271D01*
X0017600Y0097956D01*
X0017600Y0095449D01*
X0018559Y0093134D01*
X0020331Y0091361D01*
X0022647Y0090402D01*
X0032953Y0090402D01*
X0035269Y0091361D01*
X0036086Y0092179D01*
X0052922Y0092179D01*
X0060111Y0084990D01*
X0061728Y0084320D01*
X0075874Y0084320D01*
X0076512Y0083682D01*
X0078697Y0082777D01*
X0087477Y0082777D01*
X0086002Y0081302D01*
X0036210Y0081302D01*
X0035269Y0082243D01*
X0032953Y0083202D01*
X0022647Y0083202D01*
X0020331Y0082243D01*
X0018559Y0080471D01*
X0017600Y0078156D01*
X0017600Y0075649D01*
X0018559Y0073334D01*
X0020331Y0071561D01*
X0018751Y0073141D02*
X0006600Y0073141D01*
X0006600Y0074740D02*
X0017977Y0074740D01*
X0017600Y0076338D02*
X0006600Y0076338D01*
X0006600Y0077937D02*
X0017600Y0077937D01*
X0018172Y0079535D02*
X0006600Y0079535D01*
X0006600Y0081134D02*
X0019222Y0081134D01*
X0021512Y0082732D02*
X0006600Y0082732D01*
X0006600Y0084331D02*
X0061703Y0084331D01*
X0059172Y0085929D02*
X0006600Y0085929D01*
X0006600Y0087528D02*
X0057573Y0087528D01*
X0055975Y0089126D02*
X0006600Y0089126D01*
X0006600Y0090725D02*
X0021868Y0090725D01*
X0019369Y0092323D02*
X0006600Y0092323D01*
X0006600Y0093922D02*
X0018233Y0093922D01*
X0017600Y0095520D02*
X0006600Y0095520D01*
X0006600Y0097119D02*
X0017600Y0097119D01*
X0017916Y0098718D02*
X0006600Y0098718D01*
X0006600Y0100316D02*
X0018604Y0100316D01*
X0020203Y0101915D02*
X0006600Y0101915D01*
X0006600Y0103513D02*
X0076266Y0103513D01*
X0075083Y0105112D02*
X0006600Y0105112D01*
X0006600Y0106710D02*
X0074278Y0106710D01*
X0073935Y0108309D02*
X0006600Y0108309D01*
X0006600Y0109907D02*
X0073937Y0109907D01*
X0074599Y0111506D02*
X0035134Y0111506D01*
X0020466Y0111506D02*
X0006600Y0111506D01*
X0006600Y0113104D02*
X0018789Y0113104D01*
X0017992Y0114703D02*
X0006600Y0114703D01*
X0006600Y0116301D02*
X0017600Y0116301D01*
X0017600Y0117900D02*
X0006600Y0117900D01*
X0006600Y0119498D02*
X0018156Y0119498D01*
X0019185Y0121097D02*
X0006600Y0121097D01*
X0006600Y0122695D02*
X0021422Y0122695D01*
X0021958Y0130688D02*
X0006600Y0130688D01*
X0006600Y0132286D02*
X0019407Y0132286D01*
X0018248Y0133885D02*
X0006600Y0133885D01*
X0006600Y0135483D02*
X0017600Y0135483D01*
X0017600Y0137082D02*
X0006600Y0137082D01*
X0006600Y0138680D02*
X0017900Y0138680D01*
X0018567Y0140279D02*
X0006600Y0140279D01*
X0006600Y0141877D02*
X0020165Y0141877D01*
X0022647Y0150602D02*
X0032953Y0150602D01*
X0035269Y0151561D01*
X0037041Y0153334D01*
X0038000Y0155649D01*
X0038000Y0158156D01*
X0037041Y0160471D01*
X0035269Y0162243D01*
X0032953Y0163202D01*
X0022647Y0163202D01*
X0020331Y0162243D01*
X0018559Y0160471D01*
X0017600Y0158156D01*
X0017600Y0155649D01*
X0018559Y0153334D01*
X0020331Y0151561D01*
X0022647Y0150602D01*
X0020556Y0151468D02*
X0006600Y0151468D01*
X0006600Y0149870D02*
X0057431Y0149870D01*
X0057431Y0148271D02*
X0006600Y0148271D01*
X0006600Y0146673D02*
X0057431Y0146673D01*
X0057431Y0145074D02*
X0006600Y0145074D01*
X0006600Y0143476D02*
X0057431Y0143476D01*
X0057431Y0141877D02*
X0035435Y0141877D01*
X0035044Y0151468D02*
X0057953Y0151468D01*
X0059341Y0153067D02*
X0036774Y0153067D01*
X0037592Y0154665D02*
X0060940Y0154665D01*
X0062538Y0156264D02*
X0038000Y0156264D01*
X0038000Y0157862D02*
X0064137Y0157862D01*
X0065872Y0159461D02*
X0037459Y0159461D01*
X0036452Y0161059D02*
X0091009Y0161059D01*
X0089653Y0162658D02*
X0034267Y0162658D01*
X0032953Y0170402D02*
X0022647Y0170402D01*
X0020331Y0171361D01*
X0018559Y0173134D01*
X0017600Y0175449D01*
X0017600Y0177956D01*
X0018559Y0180271D01*
X0020331Y0182043D01*
X0022647Y0183002D01*
X0032953Y0183002D01*
X0035269Y0182043D01*
X0037041Y0180271D01*
X0038000Y0177956D01*
X0038000Y0175449D01*
X0037041Y0173134D01*
X0035269Y0171361D01*
X0032953Y0170402D01*
X0033552Y0170651D02*
X0070488Y0170651D01*
X0070009Y0169052D02*
X0006600Y0169052D01*
X0006600Y0170651D02*
X0022048Y0170651D01*
X0019444Y0172249D02*
X0006600Y0172249D01*
X0006600Y0173848D02*
X0018263Y0173848D01*
X0017601Y0175446D02*
X0006600Y0175446D01*
X0006600Y0177045D02*
X0017600Y0177045D01*
X0017885Y0178643D02*
X0006600Y0178643D01*
X0006600Y0180242D02*
X0018547Y0180242D01*
X0020128Y0181840D02*
X0006600Y0181840D01*
X0006600Y0183439D02*
X0075858Y0183439D01*
X0075514Y0172249D02*
X0095345Y0172249D01*
X0095345Y0170651D02*
X0091843Y0170651D01*
X0093442Y0169052D02*
X0095345Y0169052D01*
X0095345Y0167453D02*
X0095040Y0167453D01*
X0088055Y0164256D02*
X0006600Y0164256D01*
X0006600Y0162658D02*
X0021333Y0162658D01*
X0019148Y0161059D02*
X0006600Y0161059D01*
X0006600Y0159461D02*
X0018141Y0159461D01*
X0017600Y0157862D02*
X0006600Y0157862D01*
X0006600Y0156264D02*
X0017600Y0156264D01*
X0018007Y0154665D02*
X0006600Y0154665D01*
X0006600Y0153067D02*
X0018826Y0153067D01*
X0006600Y0165855D02*
X0071187Y0165855D01*
X0070009Y0167453D02*
X0006600Y0167453D01*
X0006600Y0185037D02*
X0053117Y0185037D01*
X0051059Y0186636D02*
X0006600Y0186636D01*
X0006600Y0188234D02*
X0050400Y0188234D01*
X0050400Y0189833D02*
X0006600Y0189833D01*
X0006600Y0191431D02*
X0020646Y0191431D01*
X0018863Y0193030D02*
X0006600Y0193030D01*
X0006600Y0194628D02*
X0018023Y0194628D01*
X0017600Y0196227D02*
X0006600Y0196227D01*
X0006600Y0197825D02*
X0017600Y0197825D01*
X0018125Y0199424D02*
X0006600Y0199424D01*
X0006600Y0201022D02*
X0019110Y0201022D01*
X0021243Y0202621D02*
X0006600Y0202621D01*
X0006600Y0204219D02*
X0028894Y0204219D01*
X0030493Y0205818D02*
X0006600Y0205818D01*
X0006600Y0207416D02*
X0031400Y0207416D01*
X0031415Y0209015D02*
X0006600Y0209015D01*
X0006600Y0210613D02*
X0022138Y0210613D01*
X0019481Y0212212D02*
X0006600Y0212212D01*
X0006600Y0213810D02*
X0018279Y0213810D01*
X0017617Y0215409D02*
X0006600Y0215409D01*
X0006600Y0217007D02*
X0017600Y0217007D01*
X0017869Y0218606D02*
X0006600Y0218606D01*
X0006600Y0220204D02*
X0018532Y0220204D01*
X0020091Y0221803D02*
X0006600Y0221803D01*
X0006600Y0223401D02*
X0031509Y0223401D01*
X0031509Y0225000D02*
X0006600Y0225000D01*
X0006600Y0226598D02*
X0031700Y0226598D01*
X0031700Y0228197D02*
X0006600Y0228197D01*
X0006600Y0229795D02*
X0031700Y0229795D01*
X0020736Y0231394D02*
X0006600Y0231394D01*
X0006600Y0232992D02*
X0018900Y0232992D01*
X0018038Y0234591D02*
X0006600Y0234591D01*
X0006600Y0236189D02*
X0017600Y0236189D01*
X0017600Y0237788D02*
X0006600Y0237788D01*
X0006600Y0239387D02*
X0018110Y0239387D01*
X0019073Y0240985D02*
X0006600Y0240985D01*
X0006600Y0242584D02*
X0021153Y0242584D01*
X0022227Y0250576D02*
X0006600Y0250576D01*
X0006600Y0248978D02*
X0036200Y0248978D01*
X0036200Y0250576D02*
X0033373Y0250576D01*
X0036082Y0252175D02*
X0036200Y0252175D01*
X0036200Y0247379D02*
X0006600Y0247379D01*
X0006600Y0245781D02*
X0036200Y0245781D01*
X0036200Y0244182D02*
X0006600Y0244182D01*
X0006600Y0252175D02*
X0019518Y0252175D01*
X0018294Y0253773D02*
X0006600Y0253773D01*
X0006600Y0255372D02*
X0017632Y0255372D01*
X0017600Y0256970D02*
X0006600Y0256970D01*
X0006600Y0258569D02*
X0017854Y0258569D01*
X0018516Y0260167D02*
X0006600Y0260167D01*
X0006600Y0261766D02*
X0020054Y0261766D01*
X0010535Y0269758D02*
X0386766Y0269758D01*
X0388868Y0268160D02*
X0008433Y0268160D01*
X0007347Y0266561D02*
X0389953Y0266561D01*
X0390496Y0264963D02*
X0374531Y0264963D01*
X0376129Y0263364D02*
X0390701Y0263364D01*
X0390701Y0261766D02*
X0377215Y0261766D01*
X0380565Y0260167D02*
X0390701Y0260167D01*
X0390701Y0258569D02*
X0382262Y0258569D01*
X0383008Y0256970D02*
X0390701Y0256970D01*
X0390701Y0255372D02*
X0383310Y0255372D01*
X0383267Y0253773D02*
X0390701Y0253773D01*
X0390701Y0252175D02*
X0382605Y0252175D01*
X0381289Y0250576D02*
X0390701Y0250576D01*
X0390701Y0248978D02*
X0381005Y0248978D01*
X0382182Y0247379D02*
X0390701Y0247379D01*
X0390701Y0245781D02*
X0382663Y0245781D01*
X0382710Y0244678D02*
X0374205Y0244678D01*
X0374205Y0239716D01*
X0377787Y0239716D01*
X0378618Y0239847D01*
X0379418Y0240107D01*
X0380167Y0240489D01*
X0380848Y0240983D01*
X0381443Y0241578D01*
X0381937Y0242259D01*
X0382319Y0243008D01*
X0382579Y0243808D01*
X0382710Y0244639D01*
X0382710Y0244678D01*
X0382638Y0244182D02*
X0390701Y0244182D01*
X0390701Y0242584D02*
X0382102Y0242584D01*
X0380849Y0240985D02*
X0390701Y0240985D01*
X0390701Y0239387D02*
X0361642Y0239387D01*
X0364115Y0240985D02*
X0366798Y0240985D01*
X0365545Y0242584D02*
X0365183Y0242584D01*
X0373442Y0242584D02*
X0374205Y0242584D01*
X0374205Y0244182D02*
X0373442Y0244182D01*
X0373442Y0240985D02*
X0374205Y0240985D01*
X0390701Y0237788D02*
X0306400Y0237788D01*
X0306400Y0239387D02*
X0350808Y0239387D01*
X0348335Y0240985D02*
X0306400Y0240985D01*
X0306400Y0236189D02*
X0390701Y0236189D01*
X0390701Y0234591D02*
X0306400Y0234591D01*
X0306400Y0232992D02*
X0390701Y0232992D01*
X0390701Y0231394D02*
X0306400Y0231394D01*
X0306400Y0229795D02*
X0390701Y0229795D01*
X0390701Y0228197D02*
X0355566Y0228197D01*
X0357165Y0226598D02*
X0390701Y0226598D01*
X0390701Y0225000D02*
X0357591Y0225000D01*
X0357591Y0223401D02*
X0365738Y0223401D01*
X0364509Y0221803D02*
X0356361Y0221803D01*
X0353800Y0224602D02*
X0319800Y0224602D01*
X0307800Y0224602D01*
X0307800Y0221602D01*
X0302800Y0216602D01*
X0293300Y0216602D01*
X0292300Y0215602D01*
X0292300Y0201102D01*
X0288800Y0197602D01*
X0288800Y0188102D01*
X0291800Y0185102D01*
X0293300Y0185102D01*
X0294300Y0184102D01*
X0294300Y0183602D01*
X0298091Y0183439D02*
X0307837Y0183439D01*
X0307301Y0182902D02*
X0298091Y0182902D01*
X0298091Y0185172D01*
X0295870Y0187393D01*
X0295535Y0187393D01*
X0295113Y0187815D01*
X0293937Y0188302D01*
X0293125Y0188302D01*
X0292000Y0189428D01*
X0292000Y0192801D01*
X0292157Y0192644D01*
X0293223Y0192202D01*
X0312877Y0192202D01*
X0313943Y0192644D01*
X0314758Y0193460D01*
X0316001Y0194702D01*
X0360900Y0194702D01*
X0360900Y0191563D01*
X0360009Y0190672D01*
X0360009Y0189393D01*
X0359730Y0189393D01*
X0357509Y0187172D01*
X0357509Y0184032D01*
X0359730Y0181812D01*
X0362870Y0181812D01*
X0363761Y0182702D01*
X0363900Y0182702D01*
X0363900Y0166026D01*
X0364341Y0164960D01*
X0365157Y0164144D01*
X0367119Y0162182D01*
X0367119Y0159552D01*
X0369340Y0157332D01*
X0372480Y0157332D01*
X0374701Y0159552D01*
X0374701Y0161042D01*
X0375900Y0162242D01*
X0375900Y0122804D01*
X0373099Y0120002D01*
X0364723Y0120002D01*
X0363657Y0119561D01*
X0362157Y0118061D01*
X0361341Y0117245D01*
X0360900Y0116179D01*
X0360900Y0086502D01*
X0359801Y0086502D01*
X0360258Y0086960D01*
X0360700Y0088026D01*
X0360700Y0161715D01*
X0360258Y0162781D01*
X0356034Y0167005D01*
X0355227Y0167812D01*
X0355870Y0167812D01*
X0358091Y0170032D01*
X0358091Y0173172D01*
X0355870Y0175393D01*
X0352730Y0175393D01*
X0352139Y0174802D01*
X0350625Y0174802D01*
X0349113Y0176315D01*
X0347937Y0176802D01*
X0332163Y0176802D01*
X0330987Y0176315D01*
X0330087Y0175415D01*
X0329087Y0174415D01*
X0328600Y0173239D01*
X0328600Y0168802D01*
X0324361Y0168802D01*
X0325591Y0170032D01*
X0325591Y0173172D01*
X0324661Y0174102D01*
X0325591Y0175032D01*
X0325591Y0178172D01*
X0325161Y0178602D01*
X0325591Y0179032D01*
X0325591Y0182172D01*
X0323370Y0184393D01*
X0320230Y0184393D01*
X0319300Y0183463D01*
X0318370Y0184393D01*
X0315230Y0184393D01*
X0313681Y0182844D01*
X0312032Y0184493D01*
X0308891Y0184493D01*
X0307301Y0182902D01*
X0313086Y0183439D02*
X0314276Y0183439D01*
X0324324Y0183439D02*
X0358103Y0183439D01*
X0357509Y0185037D02*
X0298091Y0185037D01*
X0296627Y0186636D02*
X0357509Y0186636D01*
X0358571Y0188234D02*
X0294101Y0188234D01*
X0292000Y0189833D02*
X0360009Y0189833D01*
X0360768Y0191431D02*
X0292000Y0191431D01*
X0295068Y0199424D02*
X0306009Y0199424D01*
X0307359Y0201022D02*
X0295500Y0201022D01*
X0295500Y0202621D02*
X0365900Y0202621D01*
X0365900Y0204219D02*
X0362778Y0204219D01*
X0364376Y0205818D02*
X0365224Y0205818D01*
X0358822Y0204219D02*
X0295500Y0204219D01*
X0295500Y0205818D02*
X0357224Y0205818D01*
X0357009Y0207416D02*
X0295500Y0207416D01*
X0295500Y0209015D02*
X0357009Y0209015D01*
X0357900Y0210613D02*
X0321869Y0210613D01*
X0324770Y0212212D02*
X0357900Y0212212D01*
X0358407Y0213810D02*
X0325591Y0213810D01*
X0325591Y0215409D02*
X0360005Y0215409D01*
X0361604Y0217007D02*
X0324756Y0217007D01*
X0318844Y0217007D02*
X0307730Y0217007D01*
X0309329Y0218606D02*
X0363202Y0218606D01*
X0364509Y0220204D02*
X0310685Y0220204D01*
X0306400Y0228197D02*
X0318034Y0228197D01*
X0321566Y0228197D02*
X0352034Y0228197D01*
X0385121Y0223401D02*
X0390701Y0223401D01*
X0390701Y0221803D02*
X0387201Y0221803D01*
X0386758Y0222245D02*
X0386758Y0222245D01*
X0388799Y0220204D02*
X0390701Y0220204D01*
X0390701Y0218606D02*
X0390398Y0218606D01*
X0360900Y0194628D02*
X0315927Y0194628D01*
X0314329Y0193030D02*
X0360900Y0193030D01*
X0359702Y0181840D02*
X0325591Y0181840D01*
X0325591Y0180242D02*
X0363900Y0180242D01*
X0363900Y0181840D02*
X0362898Y0181840D01*
X0363900Y0178643D02*
X0325201Y0178643D01*
X0325591Y0177045D02*
X0363900Y0177045D01*
X0363900Y0175446D02*
X0349982Y0175446D01*
X0347300Y0173602D02*
X0349300Y0171602D01*
X0354300Y0171602D01*
X0357110Y0169052D02*
X0363900Y0169052D01*
X0363900Y0170651D02*
X0358091Y0170651D01*
X0358091Y0172249D02*
X0363900Y0172249D01*
X0363900Y0173848D02*
X0357415Y0173848D01*
X0355586Y0167453D02*
X0363900Y0167453D01*
X0363971Y0165855D02*
X0357184Y0165855D01*
X0358783Y0164256D02*
X0365045Y0164256D01*
X0366643Y0162658D02*
X0360309Y0162658D01*
X0360700Y0161059D02*
X0367119Y0161059D01*
X0367211Y0159461D02*
X0360700Y0159461D01*
X0360700Y0157862D02*
X0368809Y0157862D01*
X0373011Y0157862D02*
X0375900Y0157862D01*
X0375900Y0156264D02*
X0360700Y0156264D01*
X0360700Y0154665D02*
X0375900Y0154665D01*
X0375900Y0153067D02*
X0360700Y0153067D01*
X0360700Y0151468D02*
X0375900Y0151468D01*
X0375900Y0149870D02*
X0360700Y0149870D01*
X0360700Y0148271D02*
X0375900Y0148271D01*
X0375900Y0146673D02*
X0360700Y0146673D01*
X0360700Y0145074D02*
X0375900Y0145074D01*
X0375900Y0143476D02*
X0360700Y0143476D01*
X0360700Y0141877D02*
X0375900Y0141877D01*
X0375900Y0140279D02*
X0360700Y0140279D01*
X0360700Y0138680D02*
X0375900Y0138680D01*
X0375900Y0137082D02*
X0360700Y0137082D01*
X0360700Y0135483D02*
X0375900Y0135483D01*
X0375900Y0133885D02*
X0360700Y0133885D01*
X0360700Y0132286D02*
X0375900Y0132286D01*
X0375900Y0130688D02*
X0360700Y0130688D01*
X0360700Y0129089D02*
X0375900Y0129089D01*
X0375900Y0127491D02*
X0360700Y0127491D01*
X0360700Y0125892D02*
X0375900Y0125892D01*
X0375900Y0124294D02*
X0360700Y0124294D01*
X0360700Y0122695D02*
X0375792Y0122695D01*
X0374193Y0121097D02*
X0360700Y0121097D01*
X0360700Y0119498D02*
X0363595Y0119498D01*
X0361996Y0117900D02*
X0360700Y0117900D01*
X0360700Y0116301D02*
X0360951Y0116301D01*
X0360900Y0114703D02*
X0360700Y0114703D01*
X0360700Y0113104D02*
X0360900Y0113104D01*
X0360900Y0111506D02*
X0360700Y0111506D01*
X0360700Y0109907D02*
X0360900Y0109907D01*
X0360900Y0108309D02*
X0360700Y0108309D01*
X0360700Y0106710D02*
X0360900Y0106710D01*
X0360900Y0105112D02*
X0360700Y0105112D01*
X0360700Y0103513D02*
X0360900Y0103513D01*
X0360900Y0101915D02*
X0360700Y0101915D01*
X0360700Y0100316D02*
X0360900Y0100316D01*
X0360900Y0098718D02*
X0360700Y0098718D01*
X0360700Y0097119D02*
X0360900Y0097119D01*
X0360900Y0095520D02*
X0360700Y0095520D01*
X0360700Y0093922D02*
X0360900Y0093922D01*
X0360900Y0092323D02*
X0360700Y0092323D01*
X0360700Y0090725D02*
X0360900Y0090725D01*
X0360900Y0089126D02*
X0360700Y0089126D01*
X0360900Y0087528D02*
X0360494Y0087528D01*
X0354900Y0090725D02*
X0244873Y0090725D01*
X0246181Y0089126D02*
X0329963Y0089126D01*
X0329009Y0087528D02*
X0246181Y0087528D01*
X0246181Y0085929D02*
X0326766Y0085929D01*
X0322168Y0084331D02*
X0246132Y0084331D01*
X0246132Y0082732D02*
X0292043Y0082732D01*
X0294096Y0082732D02*
X0294465Y0082732D01*
X0294465Y0082757D02*
X0294465Y0077598D01*
X0299624Y0077598D01*
X0299624Y0079627D01*
X0296494Y0082757D01*
X0294465Y0082757D01*
X0294465Y0081134D02*
X0294096Y0081134D01*
X0294096Y0079535D02*
X0294465Y0079535D01*
X0294465Y0077937D02*
X0294096Y0077937D01*
X0290444Y0081134D02*
X0246132Y0081134D01*
X0246132Y0079535D02*
X0288937Y0079535D01*
X0288937Y0077937D02*
X0246132Y0077937D01*
X0246132Y0076338D02*
X0288937Y0076338D01*
X0289397Y0074740D02*
X0247254Y0074740D01*
X0241867Y0069944D02*
X0167000Y0069944D01*
X0167000Y0068346D02*
X0243465Y0068346D01*
X0245486Y0065149D02*
X0167000Y0065149D01*
X0167000Y0066747D02*
X0247084Y0066747D01*
X0250516Y0066747D02*
X0284354Y0066747D01*
X0282755Y0065149D02*
X0252114Y0065149D01*
X0252591Y0063550D02*
X0281796Y0063550D01*
X0281700Y0061952D02*
X0252591Y0061952D01*
X0251700Y0060353D02*
X0281700Y0060353D01*
X0281700Y0058755D02*
X0251700Y0058755D01*
X0251700Y0057156D02*
X0281700Y0057156D01*
X0281700Y0055558D02*
X0251700Y0055558D01*
X0251700Y0053959D02*
X0281700Y0053959D01*
X0281700Y0052361D02*
X0251700Y0052361D01*
X0251700Y0050762D02*
X0281700Y0050762D01*
X0281700Y0049164D02*
X0251700Y0049164D01*
X0252448Y0047565D02*
X0281700Y0047565D01*
X0281700Y0045967D02*
X0252591Y0045967D01*
X0245900Y0049164D02*
X0203200Y0049164D01*
X0203200Y0050762D02*
X0245900Y0050762D01*
X0245900Y0052361D02*
X0203200Y0052361D01*
X0203200Y0053959D02*
X0245900Y0053959D01*
X0245900Y0055558D02*
X0203200Y0055558D01*
X0203714Y0057156D02*
X0245900Y0057156D01*
X0245900Y0058755D02*
X0204091Y0058755D01*
X0204091Y0060353D02*
X0245900Y0060353D01*
X0245009Y0061952D02*
X0202811Y0061952D01*
X0197789Y0061952D02*
X0167000Y0061952D01*
X0167000Y0063550D02*
X0245009Y0063550D01*
X0240268Y0071543D02*
X0167000Y0071543D01*
X0167000Y0073141D02*
X0239145Y0073141D01*
X0238932Y0074740D02*
X0167000Y0074740D01*
X0167000Y0076338D02*
X0238932Y0076338D01*
X0238932Y0077937D02*
X0167000Y0077937D01*
X0170094Y0079535D02*
X0238932Y0079535D01*
X0238932Y0081134D02*
X0171591Y0081134D01*
X0171591Y0082732D02*
X0238932Y0082732D01*
X0224876Y0084331D02*
X0171432Y0084331D01*
X0171000Y0085929D02*
X0223419Y0085929D01*
X0223419Y0087528D02*
X0171000Y0087528D01*
X0171000Y0089126D02*
X0223419Y0089126D01*
X0224727Y0090725D02*
X0171000Y0090725D01*
X0171000Y0092323D02*
X0354900Y0092323D01*
X0354900Y0093922D02*
X0278480Y0093922D01*
X0280079Y0095520D02*
X0354900Y0095520D01*
X0354900Y0097119D02*
X0280591Y0097119D01*
X0280591Y0098718D02*
X0354900Y0098718D01*
X0354900Y0100316D02*
X0279700Y0100316D01*
X0279700Y0101915D02*
X0354900Y0101915D01*
X0354900Y0103513D02*
X0279700Y0103513D01*
X0279700Y0105112D02*
X0354900Y0105112D01*
X0354900Y0106710D02*
X0279700Y0106710D01*
X0279700Y0108309D02*
X0354900Y0108309D01*
X0354900Y0109907D02*
X0280465Y0109907D01*
X0280591Y0111506D02*
X0354900Y0111506D01*
X0354900Y0113104D02*
X0280591Y0113104D01*
X0279700Y0114703D02*
X0354900Y0114703D01*
X0354900Y0116301D02*
X0279700Y0116301D01*
X0279700Y0117900D02*
X0354900Y0117900D01*
X0354900Y0119498D02*
X0279700Y0119498D01*
X0279700Y0121097D02*
X0354900Y0121097D01*
X0354900Y0122695D02*
X0279700Y0122695D01*
X0279700Y0124294D02*
X0354900Y0124294D01*
X0354900Y0125892D02*
X0279700Y0125892D01*
X0279700Y0127491D02*
X0354900Y0127491D01*
X0354900Y0129089D02*
X0279700Y0129089D01*
X0279700Y0130688D02*
X0354900Y0130688D01*
X0354900Y0132286D02*
X0279700Y0132286D01*
X0279700Y0133885D02*
X0354900Y0133885D01*
X0354900Y0135483D02*
X0279700Y0135483D01*
X0279700Y0137082D02*
X0354900Y0137082D01*
X0354900Y0138680D02*
X0297811Y0138680D01*
X0296742Y0137612D02*
X0291819Y0137612D01*
X0288337Y0141093D01*
X0288337Y0146017D01*
X0291819Y0149498D01*
X0296742Y0149498D01*
X0300224Y0146017D01*
X0300224Y0141093D01*
X0296742Y0137612D01*
X0299409Y0140279D02*
X0354900Y0140279D01*
X0354900Y0141877D02*
X0300224Y0141877D01*
X0300224Y0143476D02*
X0354900Y0143476D01*
X0354900Y0145074D02*
X0300224Y0145074D01*
X0299568Y0146673D02*
X0354900Y0146673D01*
X0354900Y0148271D02*
X0297969Y0148271D01*
X0290591Y0148271D02*
X0279700Y0148271D01*
X0279700Y0146673D02*
X0288993Y0146673D01*
X0288337Y0145074D02*
X0279700Y0145074D01*
X0279700Y0143476D02*
X0288337Y0143476D01*
X0288337Y0141877D02*
X0279700Y0141877D01*
X0279700Y0140279D02*
X0289152Y0140279D01*
X0290750Y0138680D02*
X0279700Y0138680D01*
X0273900Y0138680D02*
X0211083Y0138680D01*
X0211591Y0138172D02*
X0209370Y0140393D01*
X0206230Y0140393D01*
X0204339Y0138502D01*
X0194261Y0138502D01*
X0193370Y0139393D01*
X0190230Y0139393D01*
X0188009Y0137172D01*
X0188009Y0134032D01*
X0190230Y0131812D01*
X0193370Y0131812D01*
X0194261Y0132702D01*
X0207377Y0132702D01*
X0207641Y0132812D01*
X0209370Y0132812D01*
X0211591Y0135032D01*
X0211591Y0138172D01*
X0211591Y0137082D02*
X0273900Y0137082D01*
X0273900Y0135483D02*
X0211591Y0135483D01*
X0210443Y0133885D02*
X0273900Y0133885D01*
X0273900Y0132286D02*
X0193845Y0132286D01*
X0189755Y0132286D02*
X0169477Y0132286D01*
X0171075Y0130688D02*
X0273900Y0130688D01*
X0273900Y0129089D02*
X0171591Y0129089D01*
X0171591Y0127491D02*
X0273900Y0127491D01*
X0273900Y0125892D02*
X0171000Y0125892D01*
X0171000Y0124294D02*
X0273900Y0124294D01*
X0273900Y0122695D02*
X0171000Y0122695D01*
X0171000Y0121097D02*
X0273900Y0121097D01*
X0273900Y0119498D02*
X0171000Y0119498D01*
X0171000Y0117900D02*
X0273900Y0117900D01*
X0273900Y0116301D02*
X0171000Y0116301D01*
X0171000Y0114703D02*
X0273900Y0114703D01*
X0273009Y0113104D02*
X0171000Y0113104D01*
X0171000Y0111506D02*
X0273009Y0111506D01*
X0273135Y0109907D02*
X0171000Y0109907D01*
X0171000Y0108309D02*
X0273900Y0108309D01*
X0273900Y0106710D02*
X0171000Y0106710D01*
X0171000Y0105112D02*
X0273900Y0105112D01*
X0273900Y0103513D02*
X0171000Y0103513D01*
X0171000Y0101915D02*
X0273900Y0101915D01*
X0273900Y0100316D02*
X0171000Y0100316D01*
X0171000Y0098718D02*
X0273009Y0098718D01*
X0273009Y0097119D02*
X0171000Y0097119D01*
X0171000Y0095520D02*
X0273521Y0095520D01*
X0275120Y0093922D02*
X0171000Y0093922D01*
X0167800Y0082602D02*
X0167800Y0128602D01*
X0167000Y0133885D02*
X0188157Y0133885D01*
X0188009Y0135483D02*
X0167000Y0135483D01*
X0167000Y0137082D02*
X0188009Y0137082D01*
X0189517Y0138680D02*
X0166650Y0138680D01*
X0165892Y0140279D02*
X0206116Y0140279D01*
X0204517Y0138680D02*
X0194083Y0138680D01*
X0209484Y0140279D02*
X0273900Y0140279D01*
X0273900Y0141877D02*
X0164293Y0141877D01*
X0163000Y0143476D02*
X0273900Y0143476D01*
X0273900Y0145074D02*
X0163000Y0145074D01*
X0163000Y0146673D02*
X0273900Y0146673D01*
X0273900Y0148271D02*
X0163000Y0148271D01*
X0163000Y0149870D02*
X0273900Y0149870D01*
X0273900Y0151468D02*
X0163000Y0151468D01*
X0163000Y0153067D02*
X0273900Y0153067D01*
X0273900Y0154665D02*
X0163000Y0154665D01*
X0163000Y0156264D02*
X0180778Y0156264D01*
X0180009Y0157032D02*
X0182230Y0154812D01*
X0185370Y0154812D01*
X0185800Y0155242D01*
X0186230Y0154812D01*
X0189370Y0154812D01*
X0190261Y0155702D01*
X0217377Y0155702D01*
X0218443Y0156144D01*
X0219111Y0156812D01*
X0219370Y0156812D01*
X0221591Y0159032D01*
X0221591Y0162172D01*
X0219370Y0164393D01*
X0216370Y0164393D01*
X0215370Y0165393D01*
X0212230Y0165393D01*
X0211339Y0164502D01*
X0184223Y0164502D01*
X0183157Y0164061D01*
X0182341Y0163245D01*
X0181341Y0162245D01*
X0180900Y0161179D01*
X0180900Y0161063D01*
X0180009Y0160172D01*
X0180009Y0157032D01*
X0180009Y0157862D02*
X0163000Y0157862D01*
X0163000Y0159461D02*
X0180009Y0159461D01*
X0180896Y0161059D02*
X0163000Y0161059D01*
X0163000Y0162658D02*
X0181754Y0162658D01*
X0182341Y0163245D02*
X0182341Y0163245D01*
X0183630Y0164256D02*
X0163000Y0164256D01*
X0163000Y0165855D02*
X0275951Y0165855D01*
X0274353Y0164256D02*
X0219507Y0164256D01*
X0221105Y0162658D02*
X0273900Y0162658D01*
X0273900Y0161059D02*
X0221591Y0161059D01*
X0221591Y0159461D02*
X0273900Y0159461D01*
X0273900Y0157862D02*
X0220421Y0157862D01*
X0218563Y0156264D02*
X0273900Y0156264D01*
X0279700Y0156264D02*
X0291873Y0156264D01*
X0292067Y0156070D02*
X0288937Y0159200D01*
X0288937Y0161229D01*
X0294096Y0161229D01*
X0294465Y0161229D01*
X0294465Y0161598D01*
X0294096Y0161598D01*
X0294096Y0166757D01*
X0292067Y0166757D01*
X0288937Y0163627D01*
X0288937Y0161598D01*
X0294096Y0161598D01*
X0294096Y0161229D01*
X0294096Y0156070D01*
X0292067Y0156070D01*
X0294096Y0156264D02*
X0294465Y0156264D01*
X0294465Y0156070D02*
X0296494Y0156070D01*
X0299624Y0159200D01*
X0299624Y0161229D01*
X0294465Y0161229D01*
X0294465Y0156070D01*
X0294465Y0157862D02*
X0294096Y0157862D01*
X0294096Y0159461D02*
X0294465Y0159461D01*
X0294465Y0161059D02*
X0294096Y0161059D01*
X0294465Y0161598D02*
X0299624Y0161598D01*
X0299624Y0163627D01*
X0296494Y0166757D01*
X0294465Y0166757D01*
X0294465Y0161598D01*
X0294465Y0162658D02*
X0294096Y0162658D01*
X0294096Y0164256D02*
X0294465Y0164256D01*
X0294465Y0165855D02*
X0294096Y0165855D01*
X0291165Y0165855D02*
X0285413Y0165855D01*
X0286591Y0167453D02*
X0302791Y0167453D01*
X0302509Y0165855D02*
X0297395Y0165855D01*
X0298994Y0164256D02*
X0302509Y0164256D01*
X0303884Y0162658D02*
X0299624Y0162658D01*
X0299624Y0161059D02*
X0353777Y0161059D01*
X0354900Y0159461D02*
X0299624Y0159461D01*
X0298286Y0157862D02*
X0354900Y0157862D01*
X0354900Y0156264D02*
X0296687Y0156264D01*
X0290275Y0157862D02*
X0279700Y0157862D01*
X0279700Y0159461D02*
X0288937Y0159461D01*
X0288937Y0161059D02*
X0279700Y0161059D01*
X0280957Y0162658D02*
X0288937Y0162658D01*
X0289567Y0164256D02*
X0282555Y0164256D01*
X0277550Y0167453D02*
X0163000Y0167453D01*
X0163000Y0169052D02*
X0249990Y0169052D01*
X0249009Y0170651D02*
X0163000Y0170651D01*
X0163000Y0172249D02*
X0249009Y0172249D01*
X0249685Y0173848D02*
X0163000Y0173848D01*
X0163000Y0175446D02*
X0249009Y0175446D01*
X0249009Y0177045D02*
X0163000Y0177045D01*
X0163000Y0178643D02*
X0249399Y0178643D01*
X0249009Y0180242D02*
X0163000Y0180242D01*
X0163000Y0181840D02*
X0249009Y0181840D01*
X0250276Y0183439D02*
X0163000Y0183439D01*
X0163000Y0185037D02*
X0250900Y0185037D01*
X0250900Y0186636D02*
X0163000Y0186636D01*
X0163000Y0188234D02*
X0250900Y0188234D01*
X0250900Y0189833D02*
X0163000Y0189833D01*
X0163000Y0191431D02*
X0250900Y0191431D01*
X0250900Y0193030D02*
X0163000Y0193030D01*
X0163000Y0194628D02*
X0250900Y0194628D01*
X0250900Y0196227D02*
X0163000Y0196227D01*
X0163000Y0197825D02*
X0250900Y0197825D01*
X0250900Y0199424D02*
X0162342Y0199424D01*
X0161148Y0201022D02*
X0250900Y0201022D01*
X0250900Y0202621D02*
X0159550Y0202621D01*
X0162519Y0204219D02*
X0250900Y0204219D01*
X0250224Y0205818D02*
X0165423Y0205818D01*
X0167022Y0207416D02*
X0250009Y0207416D01*
X0250009Y0209015D02*
X0168074Y0209015D01*
X0168857Y0210613D02*
X0251450Y0210613D01*
X0264150Y0210613D02*
X0264450Y0210613D01*
X0269150Y0210613D02*
X0281400Y0210613D01*
X0281400Y0209015D02*
X0270591Y0209015D01*
X0270591Y0207416D02*
X0281400Y0207416D01*
X0281400Y0205818D02*
X0270376Y0205818D01*
X0269700Y0204219D02*
X0281400Y0204219D01*
X0281400Y0202621D02*
X0269700Y0202621D01*
X0269700Y0201022D02*
X0281400Y0201022D01*
X0281400Y0199424D02*
X0269700Y0199424D01*
X0269700Y0197825D02*
X0281400Y0197825D01*
X0281400Y0196227D02*
X0269700Y0196227D01*
X0269700Y0194628D02*
X0281400Y0194628D01*
X0281400Y0193030D02*
X0270591Y0193030D01*
X0270591Y0191431D02*
X0281400Y0191431D01*
X0281400Y0189833D02*
X0270391Y0189833D01*
X0268792Y0188234D02*
X0281400Y0188234D01*
X0281400Y0186636D02*
X0260700Y0186636D01*
X0260700Y0185037D02*
X0281400Y0185037D01*
X0282363Y0183439D02*
X0261065Y0183439D01*
X0263792Y0188234D02*
X0264808Y0188234D01*
X0281828Y0212212D02*
X0169286Y0212212D01*
X0169466Y0213810D02*
X0283407Y0213810D01*
X0285497Y0215409D02*
X0169466Y0215409D01*
X0169117Y0217007D02*
X0285304Y0217007D01*
X0283705Y0218606D02*
X0168634Y0218606D01*
X0167711Y0220204D02*
X0221596Y0220204D01*
X0219508Y0221803D02*
X0166393Y0221803D01*
X0164399Y0223401D02*
X0217910Y0223401D01*
X0217200Y0225000D02*
X0160173Y0225000D01*
X0157348Y0225000D02*
X0144181Y0225000D01*
X0144181Y0223401D02*
X0153122Y0223401D01*
X0151128Y0221803D02*
X0144181Y0221803D01*
X0144181Y0220204D02*
X0149811Y0220204D01*
X0148888Y0218606D02*
X0144181Y0218606D01*
X0144181Y0217007D02*
X0148404Y0217007D01*
X0148055Y0215409D02*
X0144181Y0215409D01*
X0144181Y0213810D02*
X0148055Y0213810D01*
X0148236Y0212212D02*
X0144181Y0212212D01*
X0144557Y0210613D02*
X0148664Y0210613D01*
X0149448Y0209015D02*
X0146156Y0209015D01*
X0147754Y0207416D02*
X0150500Y0207416D01*
X0139809Y0197825D02*
X0127377Y0197825D01*
X0126386Y0199189D02*
X0126386Y0199189D01*
X0126063Y0199424D02*
X0138211Y0199424D01*
X0136612Y0201022D02*
X0123658Y0201022D01*
X0119800Y0198602D02*
X0116800Y0198602D01*
X0116693Y0198604D01*
X0116586Y0198610D01*
X0116479Y0198619D01*
X0116373Y0198633D01*
X0116267Y0198650D01*
X0116162Y0198671D01*
X0116058Y0198695D01*
X0115955Y0198724D01*
X0115853Y0198756D01*
X0115752Y0198791D01*
X0115652Y0198830D01*
X0115554Y0198873D01*
X0115457Y0198919D01*
X0115362Y0198969D01*
X0115269Y0199022D01*
X0115178Y0199078D01*
X0115089Y0199138D01*
X0115002Y0199200D01*
X0114918Y0199266D01*
X0114835Y0199335D01*
X0114756Y0199406D01*
X0114679Y0199481D01*
X0114604Y0199558D01*
X0114533Y0199637D01*
X0114464Y0199720D01*
X0114398Y0199804D01*
X0114336Y0199891D01*
X0114276Y0199980D01*
X0114220Y0200071D01*
X0114167Y0200164D01*
X0114117Y0200259D01*
X0114071Y0200356D01*
X0114028Y0200454D01*
X0113989Y0200554D01*
X0113954Y0200655D01*
X0113922Y0200757D01*
X0113893Y0200860D01*
X0113869Y0200964D01*
X0113848Y0201069D01*
X0113831Y0201175D01*
X0113817Y0201281D01*
X0113808Y0201388D01*
X0113802Y0201495D01*
X0113800Y0201602D01*
X0113800Y0221390D01*
X0113802Y0221477D01*
X0113808Y0221564D01*
X0113817Y0221651D01*
X0113830Y0221737D01*
X0113847Y0221823D01*
X0113868Y0221908D01*
X0113893Y0221991D01*
X0113921Y0222074D01*
X0113952Y0222155D01*
X0113987Y0222235D01*
X0114026Y0222313D01*
X0114068Y0222390D01*
X0114113Y0222465D01*
X0114162Y0222537D01*
X0114213Y0222608D01*
X0114268Y0222676D01*
X0114325Y0222741D01*
X0114386Y0222804D01*
X0114449Y0222865D01*
X0114514Y0222922D01*
X0114582Y0222977D01*
X0114653Y0223028D01*
X0114725Y0223077D01*
X0114800Y0223122D01*
X0114877Y0223164D01*
X0114955Y0223203D01*
X0115035Y0223238D01*
X0115116Y0223269D01*
X0115199Y0223297D01*
X0115282Y0223322D01*
X0115367Y0223343D01*
X0115453Y0223360D01*
X0115539Y0223373D01*
X0115626Y0223382D01*
X0115713Y0223388D01*
X0115800Y0223390D01*
X0118839Y0223390D01*
X0115800Y0223390D02*
X0103989Y0223390D01*
X0103422Y0222823D01*
X0111595Y0226598D02*
X0113558Y0226598D01*
X0115043Y0228197D02*
X0110745Y0228197D01*
X0112666Y0234591D02*
X0123428Y0234591D01*
X0128172Y0234591D02*
X0140900Y0234591D01*
X0140900Y0236189D02*
X0112004Y0236189D01*
X0110405Y0237788D02*
X0140900Y0237788D01*
X0140900Y0239387D02*
X0111934Y0239387D01*
X0112637Y0240985D02*
X0140900Y0240985D01*
X0140900Y0242584D02*
X0112909Y0242584D01*
X0112835Y0244182D02*
X0140009Y0244182D01*
X0140009Y0245781D02*
X0112173Y0245781D01*
X0111530Y0247379D02*
X0110814Y0247379D01*
X0122968Y0247379D02*
X0134262Y0247379D01*
X0133953Y0248978D02*
X0123192Y0248978D01*
X0123192Y0250576D02*
X0133953Y0250576D01*
X0133953Y0252175D02*
X0123192Y0252175D01*
X0123192Y0253773D02*
X0133953Y0253773D01*
X0133953Y0256970D02*
X0123192Y0256970D01*
X0123192Y0255372D02*
X0138496Y0255372D01*
X0138496Y0256970D02*
X0140096Y0256970D01*
X0140096Y0255497D02*
X0140096Y0262796D01*
X0143076Y0262796D01*
X0143534Y0262673D01*
X0143945Y0262436D01*
X0144280Y0262101D01*
X0144517Y0261691D01*
X0144639Y0261233D01*
X0144639Y0255497D01*
X0140096Y0255497D01*
X0140096Y0255372D02*
X0152596Y0255372D01*
X0152619Y0255445D02*
X0152386Y0254726D01*
X0152268Y0253980D01*
X0152268Y0250802D01*
X0156868Y0250802D01*
X0156868Y0258402D01*
X0156690Y0258402D01*
X0155944Y0258284D01*
X0155225Y0258051D01*
X0154552Y0257708D01*
X0153941Y0257264D01*
X0153406Y0256729D01*
X0152962Y0256118D01*
X0152619Y0255445D01*
X0152268Y0253773D02*
X0144639Y0253773D01*
X0144639Y0252175D02*
X0147012Y0252175D01*
X0145413Y0250576D02*
X0144639Y0250576D01*
X0140096Y0250576D02*
X0138496Y0250576D01*
X0138496Y0248978D02*
X0140096Y0248978D01*
X0140096Y0247379D02*
X0138496Y0247379D01*
X0138496Y0252175D02*
X0140096Y0252175D01*
X0140096Y0253773D02*
X0138496Y0253773D01*
X0138496Y0258569D02*
X0140096Y0258569D01*
X0140096Y0260167D02*
X0138496Y0260167D01*
X0138496Y0261766D02*
X0140096Y0261766D01*
X0144473Y0261766D02*
X0252872Y0261766D01*
X0251870Y0260167D02*
X0144639Y0260167D01*
X0144639Y0258569D02*
X0164947Y0258569D01*
X0162799Y0256970D02*
X0160488Y0256970D01*
X0161540Y0255372D02*
X0161956Y0255372D01*
X0157268Y0255372D02*
X0156868Y0255372D01*
X0156868Y0256970D02*
X0157268Y0256970D01*
X0157268Y0253773D02*
X0156868Y0253773D01*
X0156868Y0252175D02*
X0157268Y0252175D01*
X0156868Y0250576D02*
X0152187Y0250576D01*
X0152268Y0252175D02*
X0150588Y0252175D01*
X0153647Y0256970D02*
X0144639Y0256970D01*
X0133953Y0258569D02*
X0123192Y0258569D01*
X0123192Y0260167D02*
X0133953Y0260167D01*
X0134119Y0261766D02*
X0123071Y0261766D01*
X0121346Y0263364D02*
X0254471Y0263364D01*
X0256069Y0264963D02*
X0006805Y0264963D01*
X0006600Y0263364D02*
X0113151Y0263364D01*
X0111427Y0261766D02*
X0091570Y0261766D01*
X0092852Y0260642D02*
X0092852Y0260642D01*
X0093326Y0260167D02*
X0111306Y0260167D01*
X0111306Y0258569D02*
X0108624Y0258569D01*
X0098220Y0258569D02*
X0094925Y0258569D01*
X0129591Y0232992D02*
X0134907Y0232992D01*
X0133052Y0231394D02*
X0129591Y0231394D01*
X0129354Y0229795D02*
X0132038Y0229795D01*
X0131781Y0228197D02*
X0127755Y0228197D01*
X0123845Y0228197D02*
X0122636Y0228197D01*
X0124121Y0226598D02*
X0131781Y0226598D01*
X0131781Y0225000D02*
X0124192Y0225000D01*
X0124192Y0223401D02*
X0131781Y0223401D01*
X0131781Y0221803D02*
X0124192Y0221803D01*
X0124130Y0220204D02*
X0131781Y0220204D01*
X0131781Y0218606D02*
X0123592Y0218606D01*
X0123592Y0217007D02*
X0131781Y0217007D01*
X0131781Y0215409D02*
X0123592Y0215409D01*
X0123592Y0215430D02*
X0119319Y0215430D01*
X0119319Y0211550D01*
X0122029Y0211550D01*
X0122487Y0211673D01*
X0122897Y0211910D01*
X0123232Y0212245D01*
X0123469Y0212656D01*
X0123592Y0213113D01*
X0123592Y0215430D01*
X0123592Y0213810D02*
X0131781Y0213810D01*
X0131781Y0212212D02*
X0123199Y0212212D01*
X0119319Y0212212D02*
X0118360Y0212212D01*
X0118360Y0213810D02*
X0119319Y0213810D01*
X0119319Y0215409D02*
X0118360Y0215409D01*
X0117000Y0210613D02*
X0131781Y0210613D01*
X0131781Y0209015D02*
X0117000Y0209015D01*
X0117000Y0207416D02*
X0131781Y0207416D01*
X0132349Y0205818D02*
X0117000Y0205818D01*
X0117000Y0204219D02*
X0133415Y0204219D01*
X0135013Y0202621D02*
X0117000Y0202621D01*
X0128296Y0196227D02*
X0134611Y0196227D01*
X0134734Y0196350D02*
X0134399Y0196015D01*
X0134162Y0195604D01*
X0134039Y0195146D01*
X0134039Y0189410D01*
X0138583Y0189410D01*
X0138583Y0196709D01*
X0135602Y0196709D01*
X0135145Y0196587D01*
X0134734Y0196350D01*
X0134039Y0194628D02*
X0128815Y0194628D01*
X0129000Y0193030D02*
X0134039Y0193030D01*
X0134039Y0191431D02*
X0129000Y0191431D01*
X0129000Y0189833D02*
X0134039Y0189833D01*
X0134039Y0187810D02*
X0134039Y0182074D01*
X0134162Y0181616D01*
X0134399Y0181206D01*
X0134734Y0180871D01*
X0135145Y0180634D01*
X0135602Y0180511D01*
X0138583Y0180511D01*
X0138583Y0187810D01*
X0140183Y0187810D01*
X0140183Y0189410D01*
X0138583Y0189410D01*
X0138583Y0187810D01*
X0134039Y0187810D01*
X0134039Y0186636D02*
X0129000Y0186636D01*
X0129000Y0188234D02*
X0138583Y0188234D01*
X0138583Y0186636D02*
X0140183Y0186636D01*
X0140183Y0187810D02*
X0140183Y0180511D01*
X0143163Y0180511D01*
X0143621Y0180634D01*
X0144031Y0180871D01*
X0144366Y0181206D01*
X0144603Y0181616D01*
X0144726Y0182074D01*
X0144726Y0187810D01*
X0140183Y0187810D01*
X0140183Y0188234D02*
X0150600Y0188234D01*
X0150600Y0186636D02*
X0144726Y0186636D01*
X0144726Y0185037D02*
X0150600Y0185037D01*
X0150600Y0183439D02*
X0144726Y0183439D01*
X0144663Y0181840D02*
X0150600Y0181840D01*
X0150600Y0180242D02*
X0128533Y0180242D01*
X0128234Y0178643D02*
X0150600Y0178643D01*
X0150600Y0177045D02*
X0128679Y0177045D01*
X0128679Y0175446D02*
X0150600Y0175446D01*
X0150600Y0173848D02*
X0128679Y0173848D01*
X0128679Y0172249D02*
X0150600Y0172249D01*
X0150600Y0170651D02*
X0124135Y0170651D01*
X0124135Y0169052D02*
X0122535Y0169052D01*
X0122535Y0167453D02*
X0124135Y0167453D01*
X0124135Y0165855D02*
X0122535Y0165855D01*
X0122535Y0164256D02*
X0124135Y0164256D01*
X0120000Y0162658D02*
X0132638Y0162658D01*
X0132638Y0163627D02*
X0132638Y0161598D01*
X0137797Y0161598D01*
X0137797Y0166757D01*
X0135768Y0166757D01*
X0132638Y0163627D01*
X0133268Y0164256D02*
X0128582Y0164256D01*
X0128679Y0165855D02*
X0134866Y0165855D01*
X0137797Y0165855D02*
X0138165Y0165855D01*
X0138165Y0166757D02*
X0138165Y0161598D01*
X0137797Y0161598D01*
X0137797Y0161229D01*
X0138165Y0161229D01*
X0138165Y0156070D01*
X0140194Y0156070D01*
X0143324Y0159200D01*
X0143324Y0161229D01*
X0138165Y0161229D01*
X0138165Y0161598D01*
X0143324Y0161598D01*
X0143324Y0163627D01*
X0140194Y0166757D01*
X0138165Y0166757D01*
X0138165Y0164256D02*
X0137797Y0164256D01*
X0137797Y0162658D02*
X0138165Y0162658D01*
X0137797Y0161229D02*
X0132638Y0161229D01*
X0132638Y0159200D01*
X0135768Y0156070D01*
X0137797Y0156070D01*
X0137797Y0161229D01*
X0137797Y0161059D02*
X0138165Y0161059D01*
X0138165Y0159461D02*
X0137797Y0159461D01*
X0137797Y0157862D02*
X0138165Y0157862D01*
X0138165Y0156264D02*
X0137797Y0156264D01*
X0135574Y0156264D02*
X0120000Y0156264D01*
X0120000Y0157862D02*
X0133975Y0157862D01*
X0132638Y0159461D02*
X0120000Y0159461D01*
X0120000Y0161059D02*
X0132638Y0161059D01*
X0128679Y0167453D02*
X0150600Y0167453D01*
X0150600Y0165855D02*
X0141096Y0165855D01*
X0142695Y0164256D02*
X0150600Y0164256D01*
X0150600Y0162658D02*
X0143324Y0162658D01*
X0143324Y0161059D02*
X0150600Y0161059D01*
X0150600Y0159461D02*
X0143324Y0159461D01*
X0141987Y0157862D02*
X0150600Y0157862D01*
X0150600Y0156264D02*
X0140388Y0156264D01*
X0150600Y0154665D02*
X0120000Y0154665D01*
X0120000Y0153067D02*
X0150600Y0153067D01*
X0150600Y0151468D02*
X0120000Y0151468D01*
X0120000Y0149870D02*
X0150600Y0149870D01*
X0133929Y0148271D02*
X0120000Y0148271D01*
X0120000Y0146673D02*
X0132562Y0146673D01*
X0131900Y0145074D02*
X0120000Y0145074D01*
X0120000Y0143476D02*
X0131781Y0143476D01*
X0131965Y0141877D02*
X0120000Y0141877D01*
X0120000Y0140279D02*
X0132627Y0140279D01*
X0134088Y0138680D02*
X0120000Y0138680D01*
X0120000Y0137082D02*
X0151552Y0137082D01*
X0151544Y0137090D02*
X0151544Y0137090D01*
X0153151Y0135483D02*
X0120000Y0135483D01*
X0120000Y0133885D02*
X0154600Y0133885D01*
X0154600Y0132286D02*
X0120000Y0132286D01*
X0120075Y0130688D02*
X0154600Y0130688D01*
X0154600Y0129089D02*
X0120591Y0129089D01*
X0122266Y0127491D02*
X0154600Y0127491D01*
X0154600Y0125892D02*
X0122814Y0125892D01*
X0122814Y0124294D02*
X0154600Y0124294D01*
X0154600Y0122695D02*
X0122814Y0122695D01*
X0122814Y0121097D02*
X0154600Y0121097D01*
X0154600Y0119498D02*
X0122460Y0119498D01*
X0122214Y0117900D02*
X0154600Y0117900D01*
X0154600Y0116301D02*
X0117941Y0116301D01*
X0117941Y0115430D02*
X0122214Y0115430D01*
X0122214Y0113113D01*
X0122091Y0112656D01*
X0121855Y0112245D01*
X0121519Y0111910D01*
X0121109Y0111673D01*
X0120651Y0111550D01*
X0117941Y0111550D01*
X0117941Y0115430D01*
X0117941Y0114703D02*
X0116982Y0114703D01*
X0116982Y0115430D02*
X0112709Y0115430D01*
X0112709Y0115385D01*
X0112004Y0117087D01*
X0110370Y0118720D01*
X0111840Y0120190D01*
X0112176Y0120190D01*
X0112474Y0119471D01*
X0112821Y0119124D01*
X0112709Y0118705D01*
X0112709Y0116389D01*
X0116982Y0116389D01*
X0116982Y0115430D01*
X0116982Y0116301D02*
X0112329Y0116301D01*
X0112709Y0117900D02*
X0111191Y0117900D01*
X0111148Y0119498D02*
X0112463Y0119498D01*
X0116800Y0124051D02*
X0116800Y0128602D01*
X0116800Y0175602D01*
X0113820Y0173502D02*
X0113320Y0174282D01*
X0113820Y0173502D02*
X0113880Y0139542D01*
X0113040Y0138702D01*
X0095820Y0138702D02*
X0092820Y0135702D01*
X0092820Y0102462D01*
X0089160Y0098802D01*
X0089160Y0098720D01*
X0083422Y0098720D01*
X0076272Y0093922D02*
X0063624Y0093922D01*
X0062026Y0095520D02*
X0074771Y0095520D01*
X0074109Y0097119D02*
X0060427Y0097119D01*
X0058829Y0098718D02*
X0073935Y0098718D01*
X0074107Y0100316D02*
X0057220Y0100316D01*
X0054376Y0090725D02*
X0033732Y0090725D01*
X0034088Y0082732D02*
X0087432Y0082732D01*
X0095081Y0077937D02*
X0098311Y0077937D01*
X0093483Y0076338D02*
X0132638Y0076338D01*
X0132638Y0077229D02*
X0132638Y0075200D01*
X0135768Y0072070D01*
X0137797Y0072070D01*
X0137797Y0077229D01*
X0138165Y0077229D01*
X0138165Y0072070D01*
X0140194Y0072070D01*
X0143324Y0075200D01*
X0143324Y0077229D01*
X0138165Y0077229D01*
X0138165Y0077598D01*
X0137797Y0077598D01*
X0137797Y0082757D01*
X0135768Y0082757D01*
X0132638Y0079627D01*
X0132638Y0077598D01*
X0137797Y0077598D01*
X0137797Y0077229D01*
X0132638Y0077229D01*
X0132638Y0077937D02*
X0108533Y0077937D01*
X0111185Y0079535D02*
X0132638Y0079535D01*
X0134145Y0081134D02*
X0112327Y0081134D01*
X0112909Y0082732D02*
X0135744Y0082732D01*
X0137797Y0082732D02*
X0138165Y0082732D01*
X0138165Y0082757D02*
X0138165Y0077598D01*
X0143324Y0077598D01*
X0143324Y0079627D01*
X0140194Y0082757D01*
X0138165Y0082757D01*
X0138165Y0081134D02*
X0137797Y0081134D01*
X0137797Y0079535D02*
X0138165Y0079535D01*
X0138165Y0077937D02*
X0137797Y0077937D01*
X0137797Y0076338D02*
X0138165Y0076338D01*
X0138165Y0074740D02*
X0137797Y0074740D01*
X0137797Y0073141D02*
X0138165Y0073141D01*
X0141266Y0073141D02*
X0154600Y0073141D01*
X0154600Y0071543D02*
X0035224Y0071543D01*
X0028300Y0052361D02*
X0027300Y0052361D01*
X0027300Y0050762D02*
X0028300Y0050762D01*
X0028300Y0049164D02*
X0027300Y0049164D01*
X0027300Y0045967D02*
X0028300Y0045967D01*
X0028300Y0044368D02*
X0027300Y0044368D01*
X0027300Y0042770D02*
X0028300Y0042770D01*
X0090242Y0073141D02*
X0134697Y0073141D01*
X0133098Y0074740D02*
X0091884Y0074740D01*
X0112909Y0084331D02*
X0154600Y0084331D01*
X0154600Y0085929D02*
X0112483Y0085929D01*
X0111563Y0087528D02*
X0154600Y0087528D01*
X0154600Y0089126D02*
X0110776Y0089126D01*
X0112158Y0090725D02*
X0154600Y0090725D01*
X0154600Y0092323D02*
X0112820Y0092323D01*
X0112909Y0093922D02*
X0154600Y0093922D01*
X0154600Y0095520D02*
X0112653Y0095520D01*
X0111972Y0097119D02*
X0154600Y0097119D01*
X0154600Y0098718D02*
X0110373Y0098718D01*
X0111966Y0100316D02*
X0154600Y0100316D01*
X0154600Y0101915D02*
X0112650Y0101915D01*
X0112909Y0103513D02*
X0154600Y0103513D01*
X0154600Y0105112D02*
X0112822Y0105112D01*
X0112160Y0106710D02*
X0154600Y0106710D01*
X0154600Y0108309D02*
X0110782Y0108309D01*
X0111557Y0109907D02*
X0154600Y0109907D01*
X0154600Y0111506D02*
X0112481Y0111506D01*
X0116982Y0113104D02*
X0117941Y0113104D01*
X0122212Y0113104D02*
X0154600Y0113104D01*
X0154600Y0114703D02*
X0122214Y0114703D01*
X0117461Y0123390D02*
X0116800Y0124051D01*
X0117461Y0123390D02*
X0103753Y0123390D01*
X0103422Y0123720D01*
X0076297Y0122695D02*
X0074105Y0122695D01*
X0074105Y0121097D02*
X0075093Y0121097D01*
X0074592Y0119498D02*
X0073525Y0119498D01*
X0074599Y0117900D02*
X0072052Y0117900D01*
X0070454Y0116301D02*
X0075115Y0116301D01*
X0076340Y0114703D02*
X0068855Y0114703D01*
X0067160Y0113104D02*
X0075857Y0113104D01*
X0075900Y0124294D02*
X0074105Y0124294D01*
X0074105Y0125892D02*
X0074617Y0125892D01*
X0065306Y0125892D02*
X0006600Y0125892D01*
X0006600Y0124294D02*
X0065306Y0124294D01*
X0064403Y0122695D02*
X0034178Y0122695D01*
X0033642Y0130688D02*
X0065306Y0130688D01*
X0065306Y0132286D02*
X0036193Y0132286D01*
X0062840Y0133885D02*
X0065306Y0133885D01*
X0065306Y0135483D02*
X0064439Y0135483D01*
X0065306Y0129089D02*
X0006600Y0129089D01*
X0006600Y0127491D02*
X0065306Y0127491D01*
X0074769Y0101915D02*
X0035397Y0101915D01*
X0128679Y0169052D02*
X0150600Y0169052D01*
X0156800Y0182602D02*
X0156802Y0182620D01*
X0156806Y0182637D01*
X0156814Y0182653D01*
X0156824Y0182668D01*
X0156836Y0182680D01*
X0156851Y0182690D01*
X0156867Y0182698D01*
X0156884Y0182702D01*
X0156902Y0182704D01*
X0150600Y0189833D02*
X0144726Y0189833D01*
X0144726Y0191431D02*
X0150600Y0191431D01*
X0150600Y0193030D02*
X0144726Y0193030D01*
X0140183Y0193030D02*
X0138583Y0193030D01*
X0138583Y0194628D02*
X0140183Y0194628D01*
X0140183Y0196227D02*
X0138583Y0196227D01*
X0138583Y0191431D02*
X0140183Y0191431D01*
X0140183Y0189833D02*
X0138583Y0189833D01*
X0138583Y0185037D02*
X0140183Y0185037D01*
X0140183Y0183439D02*
X0138583Y0183439D01*
X0138583Y0181840D02*
X0140183Y0181840D01*
X0134102Y0181840D02*
X0129000Y0181840D01*
X0129000Y0183439D02*
X0134039Y0183439D01*
X0134039Y0185037D02*
X0129000Y0185037D01*
X0125800Y0182602D02*
X0125800Y0192602D01*
X0125798Y0192754D01*
X0125792Y0192906D01*
X0125783Y0193058D01*
X0125769Y0193209D01*
X0125752Y0193360D01*
X0125731Y0193511D01*
X0125706Y0193661D01*
X0125677Y0193810D01*
X0125645Y0193958D01*
X0125608Y0194106D01*
X0125569Y0194253D01*
X0125525Y0194398D01*
X0125477Y0194543D01*
X0125427Y0194686D01*
X0125372Y0194828D01*
X0125314Y0194968D01*
X0125252Y0195107D01*
X0125187Y0195244D01*
X0125118Y0195380D01*
X0125046Y0195514D01*
X0124971Y0195646D01*
X0124892Y0195776D01*
X0124810Y0195904D01*
X0124725Y0196030D01*
X0124636Y0196153D01*
X0124545Y0196275D01*
X0124450Y0196394D01*
X0124353Y0196510D01*
X0124252Y0196624D01*
X0124149Y0196736D01*
X0124043Y0196845D01*
X0123934Y0196951D01*
X0123822Y0197054D01*
X0123708Y0197155D01*
X0123592Y0197252D01*
X0123473Y0197347D01*
X0123351Y0197438D01*
X0123228Y0197527D01*
X0123102Y0197612D01*
X0122974Y0197694D01*
X0122844Y0197773D01*
X0122712Y0197848D01*
X0122578Y0197920D01*
X0122442Y0197989D01*
X0122305Y0198054D01*
X0122166Y0198116D01*
X0122026Y0198174D01*
X0121884Y0198229D01*
X0121741Y0198279D01*
X0121596Y0198327D01*
X0121451Y0198371D01*
X0121304Y0198410D01*
X0121156Y0198447D01*
X0121008Y0198479D01*
X0120859Y0198508D01*
X0120709Y0198533D01*
X0120558Y0198554D01*
X0120407Y0198571D01*
X0120256Y0198585D01*
X0120104Y0198594D01*
X0119952Y0198600D01*
X0119800Y0198602D01*
X0125800Y0182602D02*
X0125798Y0182495D01*
X0125792Y0182388D01*
X0125783Y0182281D01*
X0125769Y0182175D01*
X0125752Y0182069D01*
X0125731Y0181964D01*
X0125707Y0181860D01*
X0125678Y0181757D01*
X0125646Y0181655D01*
X0125611Y0181554D01*
X0125572Y0181454D01*
X0125529Y0181356D01*
X0125483Y0181259D01*
X0125433Y0181164D01*
X0125380Y0181071D01*
X0125324Y0180980D01*
X0125264Y0180891D01*
X0125202Y0180804D01*
X0125136Y0180720D01*
X0125067Y0180637D01*
X0124996Y0180558D01*
X0124921Y0180481D01*
X0124844Y0180406D01*
X0124765Y0180335D01*
X0124682Y0180266D01*
X0124598Y0180200D01*
X0124511Y0180138D01*
X0124422Y0180078D01*
X0124331Y0180022D01*
X0124238Y0179969D01*
X0124143Y0179919D01*
X0124046Y0179873D01*
X0123948Y0179830D01*
X0123848Y0179791D01*
X0123747Y0179756D01*
X0123645Y0179724D01*
X0123542Y0179695D01*
X0123438Y0179671D01*
X0123333Y0179650D01*
X0123227Y0179633D01*
X0123121Y0179619D01*
X0123014Y0179610D01*
X0122907Y0179604D01*
X0122800Y0179602D01*
X0120800Y0179602D01*
X0120674Y0179600D01*
X0120549Y0179594D01*
X0120424Y0179584D01*
X0120299Y0179570D01*
X0120174Y0179553D01*
X0120050Y0179531D01*
X0119927Y0179506D01*
X0119805Y0179476D01*
X0119684Y0179443D01*
X0119564Y0179406D01*
X0119445Y0179366D01*
X0119328Y0179321D01*
X0119211Y0179273D01*
X0119097Y0179221D01*
X0118984Y0179166D01*
X0118873Y0179107D01*
X0118764Y0179045D01*
X0118657Y0178979D01*
X0118552Y0178910D01*
X0118449Y0178838D01*
X0118348Y0178763D01*
X0118250Y0178684D01*
X0118155Y0178602D01*
X0118062Y0178518D01*
X0117972Y0178430D01*
X0117884Y0178340D01*
X0117800Y0178247D01*
X0117718Y0178152D01*
X0117639Y0178054D01*
X0117564Y0177953D01*
X0117492Y0177850D01*
X0117423Y0177745D01*
X0117357Y0177638D01*
X0117295Y0177529D01*
X0117236Y0177418D01*
X0117181Y0177305D01*
X0117129Y0177191D01*
X0117081Y0177074D01*
X0117036Y0176957D01*
X0116996Y0176838D01*
X0116959Y0176718D01*
X0116926Y0176597D01*
X0116896Y0176475D01*
X0116871Y0176352D01*
X0116849Y0176228D01*
X0116832Y0176103D01*
X0116818Y0175978D01*
X0116808Y0175853D01*
X0116802Y0175728D01*
X0116800Y0175602D01*
X0095345Y0173848D02*
X0037337Y0173848D01*
X0037999Y0175446D02*
X0052234Y0175446D01*
X0051183Y0177045D02*
X0038000Y0177045D01*
X0037715Y0178643D02*
X0050900Y0178643D01*
X0051216Y0180242D02*
X0037053Y0180242D01*
X0035472Y0181840D02*
X0052315Y0181840D01*
X0051002Y0191431D02*
X0034954Y0191431D01*
X0036737Y0193030D02*
X0052784Y0193030D01*
X0038000Y0196227D02*
X0074107Y0196227D01*
X0073935Y0197825D02*
X0038000Y0197825D01*
X0037475Y0199424D02*
X0074109Y0199424D01*
X0074771Y0201022D02*
X0038142Y0201022D01*
X0039617Y0202621D02*
X0076272Y0202621D01*
X0075077Y0204219D02*
X0040200Y0204219D01*
X0040200Y0205818D02*
X0074276Y0205818D01*
X0073935Y0207416D02*
X0041336Y0207416D01*
X0037577Y0194628D02*
X0074769Y0194628D01*
X0073939Y0209015D02*
X0058935Y0209015D01*
X0059946Y0210613D02*
X0074602Y0210613D01*
X0075863Y0212212D02*
X0060200Y0212212D01*
X0059855Y0213810D02*
X0076335Y0213810D01*
X0075112Y0215409D02*
X0074329Y0215409D01*
X0036200Y0242584D02*
X0034447Y0242584D01*
X0037084Y0260167D02*
X0039274Y0260167D01*
X0041030Y0261766D02*
X0035546Y0261766D01*
X0150157Y0226598D02*
X0217200Y0226598D01*
X0217200Y0228197D02*
X0151591Y0228197D01*
X0151605Y0229795D02*
X0217200Y0229795D01*
X0217200Y0231394D02*
X0151700Y0231394D01*
X0151700Y0232992D02*
X0217200Y0232992D01*
X0217200Y0234591D02*
X0151700Y0234591D01*
X0151700Y0236189D02*
X0217009Y0236189D01*
X0217009Y0237788D02*
X0151700Y0237788D01*
X0151700Y0239387D02*
X0196156Y0239387D01*
X0194326Y0240985D02*
X0151700Y0240985D01*
X0151700Y0242584D02*
X0165073Y0242584D01*
X0162851Y0244182D02*
X0160436Y0244182D01*
X0161523Y0245781D02*
X0161977Y0245781D01*
X0157268Y0245781D02*
X0156868Y0245781D01*
X0156868Y0247379D02*
X0157268Y0247379D01*
X0157268Y0248978D02*
X0156868Y0248978D01*
X0156868Y0244182D02*
X0157268Y0244182D01*
X0153700Y0244182D02*
X0151700Y0244182D01*
X0151700Y0245781D02*
X0152613Y0245781D01*
X0169062Y0242584D02*
X0175073Y0242584D01*
X0172851Y0244182D02*
X0171284Y0244182D01*
X0179062Y0242584D02*
X0185073Y0242584D01*
X0182851Y0244182D02*
X0181284Y0244182D01*
X0189062Y0242584D02*
X0193482Y0242584D01*
X0192851Y0244182D02*
X0191284Y0244182D01*
X0191337Y0256970D02*
X0192799Y0256970D01*
X0194947Y0258569D02*
X0189189Y0258569D01*
X0184947Y0258569D02*
X0179189Y0258569D01*
X0181337Y0256970D02*
X0182799Y0256970D01*
X0174947Y0258569D02*
X0169189Y0258569D01*
X0171337Y0256970D02*
X0172799Y0256970D01*
X0199189Y0258569D02*
X0204947Y0258569D01*
X0202799Y0256970D02*
X0201337Y0256970D01*
X0209189Y0258569D02*
X0224430Y0258569D01*
X0223068Y0256970D02*
X0211337Y0256970D01*
X0212180Y0255372D02*
X0223022Y0255372D01*
X0222990Y0253773D02*
X0223022Y0253773D01*
X0234288Y0258569D02*
X0250414Y0258569D01*
X0249052Y0256970D02*
X0235650Y0256970D01*
X0235696Y0255372D02*
X0249006Y0255372D01*
X0249006Y0253773D02*
X0235696Y0253773D01*
X0239588Y0252175D02*
X0249006Y0252175D01*
X0249006Y0250576D02*
X0240591Y0250576D01*
X0240591Y0248978D02*
X0249006Y0248978D01*
X0249006Y0247379D02*
X0239937Y0247379D01*
X0235696Y0245781D02*
X0249006Y0245781D01*
X0249006Y0244182D02*
X0235696Y0244182D01*
X0235696Y0242584D02*
X0249006Y0242584D01*
X0249006Y0240985D02*
X0235696Y0240985D01*
X0235696Y0239387D02*
X0249006Y0239387D01*
X0249006Y0237788D02*
X0235696Y0237788D01*
X0235696Y0236189D02*
X0249006Y0236189D01*
X0249192Y0234591D02*
X0235511Y0234591D01*
X0234501Y0232992D02*
X0290893Y0232992D01*
X0289714Y0231394D02*
X0286100Y0231394D01*
X0287698Y0229795D02*
X0288337Y0229795D01*
X0282200Y0225000D02*
X0280591Y0225000D01*
X0280591Y0223401D02*
X0282200Y0223401D01*
X0282200Y0221803D02*
X0280361Y0221803D01*
X0278763Y0220204D02*
X0282482Y0220204D01*
X0288341Y0234591D02*
X0274660Y0234591D01*
X0274846Y0236189D02*
X0288156Y0236189D01*
X0288156Y0237788D02*
X0274846Y0237788D01*
X0274846Y0239387D02*
X0288156Y0239387D01*
X0288156Y0240985D02*
X0274846Y0240985D01*
X0274846Y0242584D02*
X0288156Y0242584D01*
X0288156Y0244182D02*
X0274846Y0244182D01*
X0279339Y0245781D02*
X0288156Y0245781D01*
X0288156Y0247379D02*
X0280591Y0247379D01*
X0280591Y0248978D02*
X0288156Y0248978D01*
X0288156Y0250576D02*
X0280187Y0250576D01*
X0278588Y0252175D02*
X0288156Y0252175D01*
X0288156Y0253773D02*
X0274846Y0253773D01*
X0263579Y0258569D02*
X0260273Y0258569D01*
X0261634Y0256970D02*
X0262218Y0256970D01*
X0262172Y0255372D02*
X0261680Y0255372D01*
X0261680Y0253773D02*
X0262172Y0253773D01*
X0262172Y0252175D02*
X0261680Y0252175D01*
X0261680Y0250576D02*
X0262172Y0250576D01*
X0262172Y0248978D02*
X0261680Y0248978D01*
X0261680Y0247379D02*
X0262172Y0247379D01*
X0262172Y0245781D02*
X0261680Y0245781D01*
X0261680Y0244182D02*
X0262172Y0244182D01*
X0262172Y0242584D02*
X0261680Y0242584D01*
X0261680Y0240985D02*
X0262172Y0240985D01*
X0262172Y0239387D02*
X0261680Y0239387D01*
X0261680Y0237788D02*
X0262172Y0237788D01*
X0262172Y0236189D02*
X0261680Y0236189D01*
X0261495Y0234591D02*
X0262357Y0234591D01*
X0325591Y0175446D02*
X0330118Y0175446D01*
X0328852Y0173848D02*
X0324915Y0173848D01*
X0325591Y0172249D02*
X0328600Y0172249D01*
X0328600Y0170651D02*
X0325591Y0170651D01*
X0324610Y0169052D02*
X0328600Y0169052D01*
X0331800Y0167102D02*
X0331800Y0172602D01*
X0332800Y0173602D01*
X0347300Y0173602D01*
X0337474Y0164256D02*
X0333480Y0164256D01*
X0334747Y0165855D02*
X0335875Y0165855D01*
X0331800Y0167102D02*
X0330300Y0165602D01*
X0319300Y0165602D01*
X0306300Y0165602D01*
X0319300Y0165602D02*
X0319324Y0165626D01*
X0331554Y0162658D02*
X0339414Y0162658D01*
X0354900Y0154665D02*
X0279700Y0154665D01*
X0279700Y0153067D02*
X0354900Y0153067D01*
X0354900Y0151468D02*
X0279700Y0151468D01*
X0279700Y0149870D02*
X0354900Y0149870D01*
X0374609Y0159461D02*
X0375900Y0159461D01*
X0375900Y0161059D02*
X0374718Y0161059D01*
X0376701Y0166104D02*
X0376701Y0166182D01*
X0375454Y0167429D01*
X0375368Y0167635D01*
X0371700Y0171304D01*
X0371700Y0178842D01*
X0372230Y0178312D01*
X0375370Y0178312D01*
X0376300Y0179242D01*
X0377509Y0178032D01*
X0377509Y0175032D01*
X0379730Y0172812D01*
X0380009Y0172812D01*
X0380009Y0172032D01*
X0381319Y0170723D01*
X0377157Y0166561D01*
X0376701Y0166104D01*
X0375444Y0167453D02*
X0378050Y0167453D01*
X0379648Y0169052D02*
X0373952Y0169052D01*
X0372353Y0170651D02*
X0381247Y0170651D01*
X0380009Y0172249D02*
X0371700Y0172249D01*
X0371700Y0173848D02*
X0378694Y0173848D01*
X0377509Y0175446D02*
X0371700Y0175446D01*
X0371700Y0177045D02*
X0377509Y0177045D01*
X0376899Y0178643D02*
X0375701Y0178643D01*
X0371899Y0178643D02*
X0371700Y0178643D01*
X0321509Y0082732D02*
X0296518Y0082732D01*
X0298116Y0081134D02*
X0321509Y0081134D01*
X0329339Y0069502D02*
X0309261Y0069502D01*
X0310591Y0068172D01*
X0310591Y0065032D01*
X0309700Y0064142D01*
X0309700Y0042026D01*
X0309258Y0040960D01*
X0304591Y0036292D01*
X0304591Y0035032D01*
X0302370Y0032812D01*
X0299230Y0032812D01*
X0297009Y0035032D01*
X0297009Y0038172D01*
X0299230Y0040393D01*
X0300489Y0040393D01*
X0303900Y0043804D01*
X0303900Y0064142D01*
X0303415Y0064626D01*
X0302839Y0064050D01*
X0301516Y0063502D01*
X0291291Y0063502D01*
X0288900Y0061111D01*
X0288900Y0030132D01*
X0290178Y0028854D01*
X0293024Y0031700D01*
X0297332Y0031700D01*
X0300178Y0028854D01*
X0303024Y0031700D01*
X0307332Y0031700D01*
X0310178Y0028854D01*
X0313024Y0031700D01*
X0317332Y0031700D01*
X0320378Y0028654D01*
X0320378Y0024346D01*
X0317532Y0021500D01*
X0320178Y0018854D01*
X0323024Y0021700D01*
X0327332Y0021700D01*
X0330178Y0018854D01*
X0332824Y0021500D01*
X0329978Y0024346D01*
X0329978Y0028654D01*
X0332636Y0031312D01*
X0331230Y0031312D01*
X0329009Y0033532D01*
X0329009Y0036672D01*
X0329900Y0037563D01*
X0329900Y0065142D01*
X0329009Y0066032D01*
X0329009Y0069172D01*
X0329339Y0069502D01*
X0329009Y0068346D02*
X0310417Y0068346D01*
X0310591Y0066747D02*
X0329009Y0066747D01*
X0329893Y0065149D02*
X0310591Y0065149D01*
X0309700Y0063550D02*
X0329900Y0063550D01*
X0329900Y0061952D02*
X0309700Y0061952D01*
X0309700Y0060353D02*
X0329900Y0060353D01*
X0329900Y0058755D02*
X0309700Y0058755D01*
X0309700Y0057156D02*
X0329900Y0057156D01*
X0329900Y0055558D02*
X0309700Y0055558D01*
X0309700Y0053959D02*
X0329900Y0053959D01*
X0329900Y0052361D02*
X0309700Y0052361D01*
X0309700Y0050762D02*
X0329900Y0050762D01*
X0329900Y0049164D02*
X0309700Y0049164D01*
X0309700Y0047565D02*
X0329900Y0047565D01*
X0329900Y0045967D02*
X0309700Y0045967D01*
X0309700Y0044368D02*
X0329900Y0044368D01*
X0329900Y0042770D02*
X0309700Y0042770D01*
X0309346Y0041171D02*
X0329900Y0041171D01*
X0329900Y0039573D02*
X0307871Y0039573D01*
X0306273Y0037974D02*
X0329900Y0037974D01*
X0329009Y0036376D02*
X0304674Y0036376D01*
X0304335Y0034777D02*
X0329009Y0034777D01*
X0329363Y0033179D02*
X0302737Y0033179D01*
X0302904Y0031580D02*
X0297452Y0031580D01*
X0298863Y0033179D02*
X0288900Y0033179D01*
X0288900Y0034777D02*
X0297265Y0034777D01*
X0297009Y0036376D02*
X0288900Y0036376D01*
X0288900Y0037974D02*
X0297009Y0037974D01*
X0298410Y0039573D02*
X0288900Y0039573D01*
X0288900Y0041171D02*
X0301268Y0041171D01*
X0302866Y0042770D02*
X0288900Y0042770D01*
X0288900Y0044368D02*
X0303900Y0044368D01*
X0303900Y0045967D02*
X0288900Y0045967D01*
X0288900Y0047565D02*
X0303900Y0047565D01*
X0303900Y0049164D02*
X0288900Y0049164D01*
X0288900Y0050762D02*
X0303900Y0050762D01*
X0303900Y0052361D02*
X0288900Y0052361D01*
X0288900Y0053959D02*
X0303900Y0053959D01*
X0303900Y0055558D02*
X0288900Y0055558D01*
X0288900Y0057156D02*
X0303900Y0057156D01*
X0303900Y0058755D02*
X0288900Y0058755D01*
X0288900Y0060353D02*
X0303900Y0060353D01*
X0303900Y0061952D02*
X0289741Y0061952D01*
X0301632Y0063550D02*
X0303900Y0063550D01*
X0300543Y0077937D02*
X0299624Y0077937D01*
X0299624Y0079535D02*
X0302142Y0079535D01*
X0336261Y0069502D02*
X0336591Y0069172D01*
X0336591Y0066032D01*
X0335700Y0065142D01*
X0335700Y0037563D01*
X0336591Y0036672D01*
X0336591Y0033532D01*
X0334758Y0031700D01*
X0337332Y0031700D01*
X0340178Y0028854D01*
X0342278Y0030954D01*
X0342278Y0056764D01*
X0341509Y0057532D01*
X0341509Y0060672D01*
X0343730Y0062893D01*
X0346870Y0062893D01*
X0349091Y0060672D01*
X0349091Y0057532D01*
X0348078Y0056520D01*
X0348078Y0030954D01*
X0350178Y0028854D01*
X0352278Y0030954D01*
X0352278Y0052764D01*
X0351509Y0053532D01*
X0351509Y0056672D01*
X0353730Y0058893D01*
X0356870Y0058893D01*
X0359091Y0056672D01*
X0359091Y0053532D01*
X0358078Y0052520D01*
X0358078Y0030954D01*
X0360378Y0028654D01*
X0360378Y0028500D01*
X0360770Y0029446D01*
X0361578Y0030254D01*
X0361578Y0058842D01*
X0361387Y0059032D01*
X0361387Y0062172D01*
X0361578Y0062363D01*
X0361578Y0064233D01*
X0356309Y0069502D01*
X0336261Y0069502D01*
X0336591Y0068346D02*
X0357465Y0068346D01*
X0359064Y0066747D02*
X0336591Y0066747D01*
X0335707Y0065149D02*
X0360662Y0065149D01*
X0361578Y0063550D02*
X0335700Y0063550D01*
X0335700Y0061952D02*
X0342789Y0061952D01*
X0341509Y0060353D02*
X0335700Y0060353D01*
X0335700Y0058755D02*
X0341509Y0058755D01*
X0341885Y0057156D02*
X0335700Y0057156D01*
X0335700Y0055558D02*
X0342278Y0055558D01*
X0342278Y0053959D02*
X0335700Y0053959D01*
X0335700Y0052361D02*
X0342278Y0052361D01*
X0342278Y0050762D02*
X0335700Y0050762D01*
X0335700Y0049164D02*
X0342278Y0049164D01*
X0342278Y0047565D02*
X0335700Y0047565D01*
X0335700Y0045967D02*
X0342278Y0045967D01*
X0342278Y0044368D02*
X0335700Y0044368D01*
X0335700Y0042770D02*
X0342278Y0042770D01*
X0342278Y0041171D02*
X0335700Y0041171D01*
X0335700Y0039573D02*
X0342278Y0039573D01*
X0342278Y0037974D02*
X0335700Y0037974D01*
X0336591Y0036376D02*
X0342278Y0036376D01*
X0342278Y0034777D02*
X0336591Y0034777D01*
X0336237Y0033179D02*
X0342278Y0033179D01*
X0342278Y0031580D02*
X0337452Y0031580D01*
X0339050Y0029982D02*
X0341306Y0029982D01*
X0340178Y0024146D02*
X0343024Y0021300D01*
X0347332Y0021300D01*
X0350178Y0024146D01*
X0352824Y0021500D01*
X0349978Y0018654D01*
X0349978Y0014346D01*
X0351922Y0012402D01*
X0347586Y0012402D01*
X0349778Y0014595D01*
X0349778Y0016400D01*
X0345278Y0016400D01*
X0345278Y0016600D01*
X0349778Y0016600D01*
X0349778Y0018405D01*
X0347083Y0021100D01*
X0345278Y0021100D01*
X0345278Y0016600D01*
X0345078Y0016600D01*
X0345078Y0021100D01*
X0343273Y0021100D01*
X0340578Y0018405D01*
X0340578Y0016600D01*
X0345078Y0016600D01*
X0345078Y0016400D01*
X0340578Y0016400D01*
X0340578Y0014595D01*
X0342770Y0012402D01*
X0338434Y0012402D01*
X0340378Y0014346D01*
X0340378Y0018654D01*
X0337532Y0021500D01*
X0340178Y0024146D01*
X0339619Y0023587D02*
X0340737Y0023587D01*
X0342335Y0021989D02*
X0338021Y0021989D01*
X0338641Y0020390D02*
X0342563Y0020390D01*
X0340965Y0018792D02*
X0340240Y0018792D01*
X0340378Y0017193D02*
X0340578Y0017193D01*
X0340578Y0015595D02*
X0340378Y0015595D01*
X0340028Y0013996D02*
X0341176Y0013996D01*
X0345078Y0017193D02*
X0345278Y0017193D01*
X0345278Y0018792D02*
X0345078Y0018792D01*
X0345078Y0020390D02*
X0345278Y0020390D01*
X0347793Y0020390D02*
X0351715Y0020390D01*
X0352335Y0021989D02*
X0348021Y0021989D01*
X0349619Y0023587D02*
X0350737Y0023587D01*
X0350116Y0018792D02*
X0349391Y0018792D01*
X0349778Y0017193D02*
X0349978Y0017193D01*
X0349978Y0015595D02*
X0349778Y0015595D01*
X0350328Y0013996D02*
X0349180Y0013996D01*
X0331715Y0020390D02*
X0328641Y0020390D01*
X0327083Y0021900D02*
X0329778Y0024595D01*
X0329778Y0026400D01*
X0325278Y0026400D01*
X0325278Y0026600D01*
X0329778Y0026600D01*
X0329778Y0028405D01*
X0327083Y0031100D01*
X0325278Y0031100D01*
X0325278Y0026600D01*
X0325078Y0026600D01*
X0325078Y0031100D01*
X0323273Y0031100D01*
X0320578Y0028405D01*
X0320578Y0026600D01*
X0325078Y0026600D01*
X0325078Y0026400D01*
X0325278Y0026400D01*
X0325278Y0021900D01*
X0327083Y0021900D01*
X0327172Y0021989D02*
X0332335Y0021989D01*
X0330737Y0023587D02*
X0328771Y0023587D01*
X0329778Y0025186D02*
X0329978Y0025186D01*
X0329978Y0026784D02*
X0329778Y0026784D01*
X0329778Y0028383D02*
X0329978Y0028383D01*
X0331306Y0029982D02*
X0328202Y0029982D01*
X0325278Y0029982D02*
X0325078Y0029982D01*
X0325078Y0028383D02*
X0325278Y0028383D01*
X0325278Y0026784D02*
X0325078Y0026784D01*
X0325078Y0026400D02*
X0320578Y0026400D01*
X0320578Y0024595D01*
X0323273Y0021900D01*
X0325078Y0021900D01*
X0325078Y0026400D01*
X0325078Y0025186D02*
X0325278Y0025186D01*
X0325278Y0023587D02*
X0325078Y0023587D01*
X0325078Y0021989D02*
X0325278Y0021989D01*
X0323184Y0021989D02*
X0318021Y0021989D01*
X0318641Y0020390D02*
X0321715Y0020390D01*
X0321585Y0023587D02*
X0319619Y0023587D01*
X0320378Y0025186D02*
X0320578Y0025186D01*
X0320578Y0026784D02*
X0320378Y0026784D01*
X0320378Y0028383D02*
X0320578Y0028383D01*
X0319050Y0029982D02*
X0322154Y0029982D01*
X0317452Y0031580D02*
X0330962Y0031580D01*
X0348078Y0031580D02*
X0352278Y0031580D01*
X0352278Y0033179D02*
X0348078Y0033179D01*
X0348078Y0034777D02*
X0352278Y0034777D01*
X0352278Y0036376D02*
X0348078Y0036376D01*
X0348078Y0037974D02*
X0352278Y0037974D01*
X0352278Y0039573D02*
X0348078Y0039573D01*
X0348078Y0041171D02*
X0352278Y0041171D01*
X0352278Y0042770D02*
X0348078Y0042770D01*
X0348078Y0044368D02*
X0352278Y0044368D01*
X0352278Y0045967D02*
X0348078Y0045967D01*
X0348078Y0047565D02*
X0352278Y0047565D01*
X0352278Y0049164D02*
X0348078Y0049164D01*
X0348078Y0050762D02*
X0352278Y0050762D01*
X0352278Y0052361D02*
X0348078Y0052361D01*
X0348078Y0053959D02*
X0351509Y0053959D01*
X0351509Y0055558D02*
X0348078Y0055558D01*
X0348714Y0057156D02*
X0351993Y0057156D01*
X0353592Y0058755D02*
X0349091Y0058755D01*
X0349091Y0060353D02*
X0361387Y0060353D01*
X0361387Y0061952D02*
X0347811Y0061952D01*
X0357008Y0058755D02*
X0361578Y0058755D01*
X0361578Y0057156D02*
X0358607Y0057156D01*
X0359091Y0055558D02*
X0361578Y0055558D01*
X0361578Y0053959D02*
X0359091Y0053959D01*
X0358078Y0052361D02*
X0361578Y0052361D01*
X0361578Y0050762D02*
X0358078Y0050762D01*
X0358078Y0049164D02*
X0361578Y0049164D01*
X0361578Y0047565D02*
X0358078Y0047565D01*
X0358078Y0045967D02*
X0361578Y0045967D01*
X0361578Y0044368D02*
X0358078Y0044368D01*
X0358078Y0042770D02*
X0361578Y0042770D01*
X0361578Y0041171D02*
X0358078Y0041171D01*
X0358078Y0039573D02*
X0361578Y0039573D01*
X0361578Y0037974D02*
X0358078Y0037974D01*
X0358078Y0036376D02*
X0361578Y0036376D01*
X0361578Y0034777D02*
X0358078Y0034777D01*
X0358078Y0033179D02*
X0361578Y0033179D01*
X0361578Y0031580D02*
X0358078Y0031580D01*
X0359050Y0029982D02*
X0361306Y0029982D01*
X0351306Y0029982D02*
X0349050Y0029982D01*
X0312904Y0031580D02*
X0307452Y0031580D01*
X0309050Y0029982D02*
X0311306Y0029982D01*
X0310178Y0024146D02*
X0312824Y0021500D01*
X0309978Y0018654D01*
X0309978Y0014346D01*
X0311922Y0012402D01*
X0307586Y0012402D01*
X0309778Y0014595D01*
X0309778Y0016400D01*
X0305278Y0016400D01*
X0305278Y0016600D01*
X0309778Y0016600D01*
X0309778Y0018405D01*
X0307083Y0021100D01*
X0305278Y0021100D01*
X0305278Y0016600D01*
X0305078Y0016600D01*
X0305078Y0021100D01*
X0303273Y0021100D01*
X0300578Y0018405D01*
X0300578Y0016600D01*
X0305078Y0016600D01*
X0305078Y0016400D01*
X0300578Y0016400D01*
X0300578Y0014595D01*
X0302770Y0012402D01*
X0298434Y0012402D01*
X0300378Y0014346D01*
X0300378Y0018654D01*
X0297532Y0021500D01*
X0300178Y0024146D01*
X0303024Y0021300D01*
X0307332Y0021300D01*
X0310178Y0024146D01*
X0309619Y0023587D02*
X0310737Y0023587D01*
X0312335Y0021989D02*
X0308021Y0021989D01*
X0307793Y0020390D02*
X0311715Y0020390D01*
X0310116Y0018792D02*
X0309391Y0018792D01*
X0309778Y0017193D02*
X0309978Y0017193D01*
X0309978Y0015595D02*
X0309778Y0015595D01*
X0310328Y0013996D02*
X0309180Y0013996D01*
X0305278Y0017193D02*
X0305078Y0017193D01*
X0305078Y0018792D02*
X0305278Y0018792D01*
X0305278Y0020390D02*
X0305078Y0020390D01*
X0302563Y0020390D02*
X0298641Y0020390D01*
X0298021Y0021989D02*
X0302335Y0021989D01*
X0300737Y0023587D02*
X0299619Y0023587D01*
X0300240Y0018792D02*
X0300965Y0018792D01*
X0300578Y0017193D02*
X0300378Y0017193D01*
X0300378Y0015595D02*
X0300578Y0015595D01*
X0300028Y0013996D02*
X0301176Y0013996D01*
X0282824Y0021500D02*
X0279978Y0018654D01*
X0279978Y0014346D01*
X0281922Y0012402D01*
X0277586Y0012402D01*
X0279778Y0014595D01*
X0279778Y0016400D01*
X0275278Y0016400D01*
X0275278Y0016600D01*
X0279778Y0016600D01*
X0279778Y0018405D01*
X0277083Y0021100D01*
X0275278Y0021100D01*
X0275278Y0016600D01*
X0275078Y0016600D01*
X0275078Y0021100D01*
X0273273Y0021100D01*
X0270578Y0018405D01*
X0270578Y0016600D01*
X0275078Y0016600D01*
X0275078Y0016400D01*
X0270578Y0016400D01*
X0270578Y0014595D01*
X0272770Y0012402D01*
X0268434Y0012402D01*
X0270378Y0014346D01*
X0270378Y0018654D01*
X0267532Y0021500D01*
X0270178Y0024146D01*
X0273024Y0021300D01*
X0277332Y0021300D01*
X0280178Y0024146D01*
X0282824Y0021500D01*
X0282335Y0021989D02*
X0278021Y0021989D01*
X0277793Y0020390D02*
X0281715Y0020390D01*
X0280116Y0018792D02*
X0279391Y0018792D01*
X0279778Y0017193D02*
X0279978Y0017193D01*
X0279978Y0015595D02*
X0279778Y0015595D01*
X0280328Y0013996D02*
X0279180Y0013996D01*
X0275278Y0017193D02*
X0275078Y0017193D01*
X0275078Y0018792D02*
X0275278Y0018792D01*
X0275278Y0020390D02*
X0275078Y0020390D01*
X0272563Y0020390D02*
X0268641Y0020390D01*
X0268021Y0021989D02*
X0272335Y0021989D01*
X0270737Y0023587D02*
X0269619Y0023587D01*
X0270240Y0018792D02*
X0270965Y0018792D01*
X0270578Y0017193D02*
X0270378Y0017193D01*
X0270378Y0015595D02*
X0270578Y0015595D01*
X0270028Y0013996D02*
X0271176Y0013996D01*
X0279619Y0023587D02*
X0280737Y0023587D01*
X0280178Y0028854D02*
X0277332Y0031700D01*
X0273024Y0031700D01*
X0270178Y0028854D01*
X0267332Y0031700D01*
X0263024Y0031700D01*
X0260178Y0028854D01*
X0257332Y0031700D01*
X0253024Y0031700D01*
X0249978Y0028654D01*
X0249978Y0024346D01*
X0252824Y0021500D01*
X0250178Y0018854D01*
X0247332Y0021700D01*
X0243024Y0021700D01*
X0240178Y0018854D01*
X0237532Y0021500D01*
X0240378Y0024346D01*
X0240378Y0028654D01*
X0237332Y0031700D01*
X0233024Y0031700D01*
X0230178Y0028854D01*
X0227332Y0031700D01*
X0223024Y0031700D01*
X0220178Y0028854D01*
X0217332Y0031700D01*
X0213024Y0031700D01*
X0210178Y0028854D01*
X0207332Y0031700D01*
X0204091Y0031700D01*
X0204091Y0034172D01*
X0203200Y0035063D01*
X0203200Y0042179D01*
X0203248Y0042063D01*
X0205248Y0040063D01*
X0206261Y0039050D01*
X0207584Y0038502D01*
X0281700Y0038502D01*
X0281700Y0030376D01*
X0280178Y0028854D01*
X0279050Y0029982D02*
X0281306Y0029982D01*
X0281700Y0031580D02*
X0277452Y0031580D01*
X0281700Y0033179D02*
X0204091Y0033179D01*
X0203486Y0034777D02*
X0281700Y0034777D01*
X0281700Y0036376D02*
X0203200Y0036376D01*
X0203200Y0037974D02*
X0281700Y0037974D01*
X0288900Y0031580D02*
X0292904Y0031580D01*
X0291306Y0029982D02*
X0289050Y0029982D01*
X0299050Y0029982D02*
X0301306Y0029982D01*
X0272904Y0031580D02*
X0267452Y0031580D01*
X0269050Y0029982D02*
X0271306Y0029982D01*
X0262904Y0031580D02*
X0257452Y0031580D01*
X0259050Y0029982D02*
X0261306Y0029982D01*
X0252904Y0031580D02*
X0237452Y0031580D01*
X0239050Y0029982D02*
X0242154Y0029982D01*
X0243273Y0031100D02*
X0240578Y0028405D01*
X0240578Y0026600D01*
X0245078Y0026600D01*
X0245078Y0031100D01*
X0243273Y0031100D01*
X0245278Y0031100D02*
X0247083Y0031100D01*
X0249778Y0028405D01*
X0249778Y0026600D01*
X0245278Y0026600D01*
X0245278Y0026400D01*
X0249778Y0026400D01*
X0249778Y0024595D01*
X0247083Y0021900D01*
X0245278Y0021900D01*
X0245278Y0026400D01*
X0245078Y0026400D01*
X0245078Y0021900D01*
X0243273Y0021900D01*
X0240578Y0024595D01*
X0240578Y0026400D01*
X0245078Y0026400D01*
X0245078Y0026600D01*
X0245278Y0026600D01*
X0245278Y0031100D01*
X0245278Y0029982D02*
X0245078Y0029982D01*
X0245078Y0028383D02*
X0245278Y0028383D01*
X0245278Y0026784D02*
X0245078Y0026784D01*
X0245078Y0025186D02*
X0245278Y0025186D01*
X0245278Y0023587D02*
X0245078Y0023587D01*
X0245078Y0021989D02*
X0245278Y0021989D01*
X0247172Y0021989D02*
X0252335Y0021989D01*
X0251715Y0020390D02*
X0248641Y0020390D01*
X0248771Y0023587D02*
X0250737Y0023587D01*
X0249978Y0025186D02*
X0249778Y0025186D01*
X0249778Y0026784D02*
X0249978Y0026784D01*
X0249978Y0028383D02*
X0249778Y0028383D01*
X0251306Y0029982D02*
X0248202Y0029982D01*
X0240578Y0028383D02*
X0240378Y0028383D01*
X0240378Y0026784D02*
X0240578Y0026784D01*
X0240578Y0025186D02*
X0240378Y0025186D01*
X0239619Y0023587D02*
X0241585Y0023587D01*
X0243184Y0021989D02*
X0238021Y0021989D01*
X0238641Y0020390D02*
X0241715Y0020390D01*
X0232824Y0021500D02*
X0229978Y0018654D01*
X0229978Y0014346D01*
X0231922Y0012402D01*
X0227586Y0012402D01*
X0229778Y0014595D01*
X0229778Y0016400D01*
X0225278Y0016400D01*
X0225278Y0016600D01*
X0229778Y0016600D01*
X0229778Y0018405D01*
X0227083Y0021100D01*
X0225278Y0021100D01*
X0225278Y0016600D01*
X0225078Y0016600D01*
X0225078Y0021100D01*
X0223273Y0021100D01*
X0220578Y0018405D01*
X0220578Y0016600D01*
X0225078Y0016600D01*
X0225078Y0016400D01*
X0220578Y0016400D01*
X0220578Y0014595D01*
X0222770Y0012402D01*
X0218434Y0012402D01*
X0220378Y0014346D01*
X0220378Y0018654D01*
X0217532Y0021500D01*
X0220178Y0024146D01*
X0223024Y0021300D01*
X0227332Y0021300D01*
X0230178Y0024146D01*
X0232824Y0021500D01*
X0232335Y0021989D02*
X0228021Y0021989D01*
X0227793Y0020390D02*
X0231715Y0020390D01*
X0230116Y0018792D02*
X0229391Y0018792D01*
X0229778Y0017193D02*
X0229978Y0017193D01*
X0229978Y0015595D02*
X0229778Y0015595D01*
X0230328Y0013996D02*
X0229180Y0013996D01*
X0225278Y0017193D02*
X0225078Y0017193D01*
X0225078Y0018792D02*
X0225278Y0018792D01*
X0225278Y0020390D02*
X0225078Y0020390D01*
X0222563Y0020390D02*
X0218641Y0020390D01*
X0218021Y0021989D02*
X0222335Y0021989D01*
X0220737Y0023587D02*
X0219619Y0023587D01*
X0220240Y0018792D02*
X0220965Y0018792D01*
X0220578Y0017193D02*
X0220378Y0017193D01*
X0220378Y0015595D02*
X0220578Y0015595D01*
X0220028Y0013996D02*
X0221176Y0013996D01*
X0211922Y0012402D02*
X0207586Y0012402D01*
X0209778Y0014595D01*
X0209778Y0016400D01*
X0205278Y0016400D01*
X0205278Y0016600D01*
X0209778Y0016600D01*
X0209778Y0018405D01*
X0207083Y0021100D01*
X0205278Y0021100D01*
X0205278Y0016600D01*
X0205078Y0016600D01*
X0205078Y0021100D01*
X0203273Y0021100D01*
X0200578Y0018405D01*
X0200578Y0016600D01*
X0205078Y0016600D01*
X0205078Y0016400D01*
X0200578Y0016400D01*
X0200578Y0014595D01*
X0202770Y0012402D01*
X0198434Y0012402D01*
X0200378Y0014346D01*
X0200378Y0018654D01*
X0197532Y0021500D01*
X0200178Y0024146D01*
X0203024Y0021300D01*
X0207332Y0021300D01*
X0210178Y0024146D01*
X0212824Y0021500D01*
X0209978Y0018654D01*
X0209978Y0014346D01*
X0211922Y0012402D01*
X0210328Y0013996D02*
X0209180Y0013996D01*
X0209778Y0015595D02*
X0209978Y0015595D01*
X0209978Y0017193D02*
X0209778Y0017193D01*
X0210116Y0018792D02*
X0209391Y0018792D01*
X0207793Y0020390D02*
X0211715Y0020390D01*
X0212335Y0021989D02*
X0208021Y0021989D01*
X0209619Y0023587D02*
X0210737Y0023587D01*
X0205278Y0020390D02*
X0205078Y0020390D01*
X0205078Y0018792D02*
X0205278Y0018792D01*
X0205278Y0017193D02*
X0205078Y0017193D01*
X0202563Y0020390D02*
X0198641Y0020390D01*
X0198021Y0021989D02*
X0202335Y0021989D01*
X0200737Y0023587D02*
X0199619Y0023587D01*
X0200240Y0018792D02*
X0200965Y0018792D01*
X0200578Y0017193D02*
X0200378Y0017193D01*
X0200378Y0015595D02*
X0200578Y0015595D01*
X0200028Y0013996D02*
X0201176Y0013996D01*
X0209050Y0029982D02*
X0211306Y0029982D01*
X0212904Y0031580D02*
X0207452Y0031580D01*
X0217452Y0031580D02*
X0222904Y0031580D01*
X0221306Y0029982D02*
X0219050Y0029982D01*
X0227452Y0031580D02*
X0232904Y0031580D01*
X0231306Y0029982D02*
X0229050Y0029982D01*
X0229619Y0023587D02*
X0230737Y0023587D01*
X0205739Y0039573D02*
X0203200Y0039573D01*
X0203200Y0041171D02*
X0204140Y0041171D01*
X0197400Y0041171D02*
X0167000Y0041171D01*
X0167000Y0042770D02*
X0197400Y0042770D01*
X0197400Y0044368D02*
X0167000Y0044368D01*
X0167000Y0045967D02*
X0197400Y0045967D01*
X0197400Y0047565D02*
X0167000Y0047565D01*
X0167000Y0049164D02*
X0197400Y0049164D01*
X0197400Y0050762D02*
X0167000Y0050762D01*
X0167000Y0052361D02*
X0197400Y0052361D01*
X0197400Y0053959D02*
X0167000Y0053959D01*
X0167000Y0055558D02*
X0197400Y0055558D01*
X0196885Y0057156D02*
X0167000Y0057156D01*
X0167000Y0058755D02*
X0196509Y0058755D01*
X0196509Y0060353D02*
X0167000Y0060353D01*
X0154600Y0060353D02*
X0154183Y0060353D01*
X0154183Y0058755D02*
X0154600Y0058755D01*
X0154600Y0057156D02*
X0154183Y0057156D01*
X0154183Y0055558D02*
X0154600Y0055558D01*
X0150008Y0055558D02*
X0148458Y0055558D01*
X0148458Y0057156D02*
X0150008Y0057156D01*
X0150008Y0058755D02*
X0148458Y0058755D01*
X0148458Y0060353D02*
X0150008Y0060353D01*
X0150008Y0061952D02*
X0148458Y0061952D01*
X0148458Y0063550D02*
X0150008Y0063550D01*
X0153508Y0063550D02*
X0154600Y0063550D01*
X0154600Y0061952D02*
X0154183Y0061952D01*
X0150008Y0050762D02*
X0148458Y0050762D01*
X0148458Y0049164D02*
X0150008Y0049164D01*
X0150008Y0047565D02*
X0148458Y0047565D01*
X0148458Y0045967D02*
X0150008Y0045967D01*
X0162538Y0034777D02*
X0197114Y0034777D01*
X0197400Y0036376D02*
X0164137Y0036376D01*
X0165735Y0037974D02*
X0197400Y0037974D01*
X0197400Y0039573D02*
X0166585Y0039573D01*
X0160940Y0033179D02*
X0196509Y0033179D01*
X0192904Y0031580D02*
X0187452Y0031580D01*
X0189050Y0029982D02*
X0191306Y0029982D01*
X0182904Y0031580D02*
X0159341Y0031580D01*
X0157743Y0029982D02*
X0172154Y0029982D01*
X0173273Y0031100D02*
X0170578Y0028405D01*
X0170578Y0026600D01*
X0175078Y0026600D01*
X0175078Y0031100D01*
X0173273Y0031100D01*
X0175278Y0031100D02*
X0177083Y0031100D01*
X0179778Y0028405D01*
X0179778Y0026600D01*
X0175278Y0026600D01*
X0175278Y0026400D01*
X0179778Y0026400D01*
X0179778Y0024595D01*
X0177083Y0021900D01*
X0175278Y0021900D01*
X0175278Y0026400D01*
X0175078Y0026400D01*
X0175078Y0021900D01*
X0173273Y0021900D01*
X0170578Y0024595D01*
X0170578Y0026400D01*
X0175078Y0026400D01*
X0175078Y0026600D01*
X0175278Y0026600D01*
X0175278Y0031100D01*
X0175278Y0029982D02*
X0175078Y0029982D01*
X0175078Y0028383D02*
X0175278Y0028383D01*
X0175278Y0026784D02*
X0175078Y0026784D01*
X0175078Y0025186D02*
X0175278Y0025186D01*
X0175278Y0023587D02*
X0175078Y0023587D01*
X0175078Y0021989D02*
X0175278Y0021989D01*
X0177172Y0021989D02*
X0182335Y0021989D01*
X0181715Y0020390D02*
X0178641Y0020390D01*
X0178771Y0023587D02*
X0180737Y0023587D01*
X0179978Y0025186D02*
X0179778Y0025186D01*
X0179778Y0026784D02*
X0179978Y0026784D01*
X0179978Y0028383D02*
X0179778Y0028383D01*
X0181306Y0029982D02*
X0178202Y0029982D01*
X0170578Y0028383D02*
X0156144Y0028383D01*
X0154783Y0026784D02*
X0170578Y0026784D01*
X0170578Y0025186D02*
X0154783Y0025186D01*
X0154783Y0023587D02*
X0171585Y0023587D01*
X0173184Y0021989D02*
X0154783Y0021989D01*
X0153801Y0020390D02*
X0171715Y0020390D01*
X0210091Y0045967D02*
X0245009Y0045967D01*
X0245152Y0047565D02*
X0209198Y0047565D01*
X0203402Y0047565D02*
X0203200Y0047565D01*
X0154600Y0074740D02*
X0142864Y0074740D01*
X0143324Y0076338D02*
X0154600Y0076338D01*
X0154600Y0077937D02*
X0143324Y0077937D01*
X0143324Y0079535D02*
X0154600Y0079535D01*
X0154600Y0081134D02*
X0141817Y0081134D01*
X0140219Y0082732D02*
X0154600Y0082732D01*
X0153288Y0135346D02*
X0153288Y0135346D01*
X0072086Y0172249D02*
X0036156Y0172249D01*
D29*
X0073800Y0168602D02*
X0088800Y0168602D01*
X0094800Y0162602D01*
X0088800Y0197823D02*
X0083422Y0197823D01*
X0088800Y0197823D02*
X0093800Y0202823D01*
X0093800Y0254602D01*
X0089800Y0258602D01*
X0042800Y0258602D01*
X0039800Y0255602D01*
X0039800Y0239102D01*
X0037800Y0237102D01*
X0029800Y0237102D01*
X0035300Y0231602D01*
X0035300Y0224102D01*
X0029800Y0237102D02*
X0028000Y0237102D01*
X0027800Y0236902D01*
X0197068Y0243335D02*
X0197800Y0242602D01*
X0226013Y0242602D01*
X0229359Y0245949D01*
X0233013Y0249602D01*
X0236800Y0249602D01*
X0229359Y0245949D02*
X0228800Y0245390D01*
X0228800Y0241602D01*
X0227800Y0240602D01*
X0228800Y0241602D02*
X0228800Y0233602D01*
X0233800Y0228602D01*
X0283800Y0228602D01*
X0285800Y0226602D01*
X0285800Y0221602D01*
X0287800Y0219602D01*
X0300800Y0219602D01*
X0302800Y0221602D01*
X0302800Y0242602D01*
X0305241Y0245043D01*
X0356225Y0245043D01*
X0356225Y0255043D02*
X0348359Y0255043D01*
X0344800Y0258602D01*
X0271800Y0258602D01*
X0268800Y0255602D01*
X0268800Y0248602D01*
X0276800Y0248602D01*
X0268800Y0248602D02*
X0268800Y0247240D01*
X0268509Y0245949D01*
X0255343Y0245949D02*
X0255343Y0259146D01*
X0258800Y0262602D01*
X0371800Y0262602D01*
X0373800Y0260602D01*
X0373800Y0255083D01*
X0373824Y0255059D01*
X0294493Y0245949D02*
X0294493Y0227768D01*
X0294280Y0227555D01*
X0276800Y0223602D02*
X0222800Y0223602D01*
X0220800Y0225602D01*
X0220800Y0237602D01*
X0220800Y0250602D02*
X0207068Y0250602D01*
X0197068Y0250602D02*
X0197068Y0243335D01*
X0241800Y0087602D02*
X0242532Y0086870D01*
X0242532Y0074370D01*
X0246300Y0070602D01*
X0298300Y0070602D01*
X0304800Y0077102D01*
X0359800Y0077102D01*
X0373300Y0063602D01*
X0373300Y0019102D01*
X0370800Y0016602D01*
X0365280Y0016602D01*
X0365178Y0016500D01*
X0365178Y0026500D02*
X0365178Y0060602D01*
X0365178Y0065724D01*
X0357800Y0073102D01*
X0306800Y0073102D01*
X0300800Y0067102D01*
X0289800Y0067102D01*
X0285300Y0062602D01*
X0285300Y0041602D01*
X0284800Y0042102D01*
X0208300Y0042102D01*
X0206300Y0044102D01*
X0206300Y0045102D01*
X0285300Y0041602D02*
X0285300Y0026622D01*
X0285178Y0026500D01*
X0313800Y0054102D02*
X0325300Y0042602D01*
X0325300Y0026622D01*
X0325178Y0026500D01*
X0313800Y0054102D02*
X0313800Y0063602D01*
M02*
