G75*
%MOIN*%
%OFA0B0*%
%FSLAX25Y25*%
%IPPOS*%
%LPD*%
%AMOC8*
5,1,8,0,0,1.08239X$1,22.5*
%
%ADD10C,0.12611*%
%ADD11C,0.06400*%
%ADD12OC8,0.06400*%
%ADD13OC8,0.07887*%
%ADD14R,0.08674X0.21666*%
%ADD15C,0.07887*%
%ADD16R,0.07887X0.13398*%
%ADD17R,0.06706X0.05918*%
%ADD18C,0.08600*%
%ADD19C,0.06800*%
%ADD20R,0.07099X0.16548*%
%ADD21OC8,0.04762*%
%ADD22OC8,0.03581*%
D10*
X0158761Y0214295D03*
D11*
X0365178Y0026500D03*
D12*
X0355178Y0026500D03*
X0345178Y0026500D03*
X0335178Y0026500D03*
X0325178Y0026500D03*
X0315178Y0026500D03*
X0305178Y0026500D03*
X0295178Y0026500D03*
X0285178Y0026500D03*
X0275178Y0026500D03*
X0265178Y0026500D03*
X0255178Y0026500D03*
X0245178Y0026500D03*
X0235178Y0026500D03*
X0225178Y0026500D03*
X0215178Y0026500D03*
X0205178Y0026500D03*
X0195178Y0026500D03*
X0185178Y0026500D03*
X0175178Y0026500D03*
X0175178Y0016500D03*
X0185178Y0016500D03*
X0195178Y0016500D03*
X0205178Y0016500D03*
X0215178Y0016500D03*
X0225178Y0016500D03*
X0235178Y0016500D03*
X0245178Y0016500D03*
X0255178Y0016500D03*
X0265178Y0016500D03*
X0275178Y0016500D03*
X0285178Y0016500D03*
X0295178Y0016500D03*
X0305178Y0016500D03*
X0315178Y0016500D03*
X0325178Y0016500D03*
X0335178Y0016500D03*
X0345178Y0016500D03*
X0355178Y0016500D03*
X0365178Y0016500D03*
D13*
X0294280Y0077413D03*
X0294280Y0143555D03*
X0294280Y0161413D03*
X0294280Y0227555D03*
X0137981Y0227555D03*
X0137981Y0161413D03*
X0137981Y0143555D03*
X0137981Y0077413D03*
D14*
X0229359Y0245949D03*
X0255343Y0245949D03*
X0268509Y0245949D03*
X0294493Y0245949D03*
D15*
X0352682Y0245043D02*
X0359769Y0245043D01*
X0370280Y0245059D02*
X0377367Y0245059D01*
X0377367Y0255059D02*
X0370280Y0255059D01*
X0359769Y0255043D02*
X0352682Y0255043D01*
X0106965Y0252823D02*
X0099879Y0252823D01*
X0099879Y0242823D02*
X0106965Y0242823D01*
X0106965Y0232823D02*
X0099879Y0232823D01*
X0099879Y0222823D02*
X0106965Y0222823D01*
X0106965Y0212823D02*
X0099879Y0212823D01*
X0099879Y0202823D02*
X0106965Y0202823D01*
X0106965Y0192823D02*
X0099879Y0192823D01*
X0099879Y0182823D02*
X0106965Y0182823D01*
X0086965Y0187823D02*
X0079879Y0187823D01*
X0079879Y0197823D02*
X0086965Y0197823D01*
X0086965Y0207823D02*
X0079879Y0207823D01*
X0079879Y0217823D02*
X0086965Y0217823D01*
X0086965Y0227823D02*
X0079879Y0227823D01*
X0079879Y0237823D02*
X0086965Y0237823D01*
X0086965Y0247823D02*
X0079879Y0247823D01*
X0099879Y0153720D02*
X0106965Y0153720D01*
X0106965Y0143720D02*
X0099879Y0143720D01*
X0099879Y0133720D02*
X0106965Y0133720D01*
X0106965Y0123720D02*
X0099879Y0123720D01*
X0099879Y0113720D02*
X0106965Y0113720D01*
X0106965Y0103720D02*
X0099879Y0103720D01*
X0099879Y0093720D02*
X0106965Y0093720D01*
X0106965Y0083720D02*
X0099879Y0083720D01*
X0086965Y0088720D02*
X0079879Y0088720D01*
X0079879Y0098720D02*
X0086965Y0098720D01*
X0086965Y0108720D02*
X0079879Y0108720D01*
X0079879Y0118720D02*
X0086965Y0118720D01*
X0086965Y0128720D02*
X0079879Y0128720D01*
X0079879Y0138720D02*
X0086965Y0138720D01*
X0086965Y0148720D02*
X0079879Y0148720D01*
X0062843Y0055602D02*
X0055757Y0055602D01*
X0055757Y0045602D02*
X0062843Y0045602D01*
D16*
X0101288Y0171154D03*
X0123335Y0171154D03*
X0117335Y0188610D03*
X0139383Y0188610D03*
X0139296Y0254697D03*
X0117249Y0254697D03*
D17*
X0118839Y0223390D03*
X0118839Y0215909D03*
X0117461Y0123390D03*
X0117461Y0115909D03*
D18*
X0031700Y0027302D02*
X0023900Y0027302D01*
X0023900Y0047102D02*
X0031700Y0047102D01*
X0031700Y0076902D02*
X0023900Y0076902D01*
X0023900Y0096702D02*
X0031700Y0096702D01*
X0031700Y0116902D02*
X0023900Y0116902D01*
X0023900Y0136702D02*
X0031700Y0136702D01*
X0031700Y0156902D02*
X0023900Y0156902D01*
X0023900Y0176702D02*
X0031700Y0176702D01*
X0031700Y0196902D02*
X0023900Y0196902D01*
X0023900Y0216702D02*
X0031700Y0216702D01*
X0031700Y0236902D02*
X0023900Y0236902D01*
X0023900Y0256702D02*
X0031700Y0256702D01*
D19*
X0157068Y0253602D02*
X0157068Y0247602D01*
X0167068Y0247602D02*
X0167068Y0253602D01*
X0177068Y0253602D02*
X0177068Y0247602D01*
X0187068Y0247602D02*
X0187068Y0253602D01*
X0197068Y0253602D02*
X0197068Y0247602D01*
X0207068Y0247602D02*
X0207068Y0253602D01*
D20*
X0149233Y0054256D03*
X0149233Y0030240D03*
D21*
X0081800Y0054256D03*
X0227800Y0087602D03*
X0241800Y0087602D03*
D22*
X0248800Y0063102D03*
X0248800Y0045852D03*
X0206300Y0045102D03*
X0200300Y0032602D03*
X0200300Y0059102D03*
X0167800Y0082602D03*
X0117300Y0048522D03*
X0111780Y0048582D03*
X0111800Y0043602D03*
X0111780Y0038862D03*
X0117240Y0038742D03*
X0117300Y0043542D03*
X0055800Y0085102D03*
X0055300Y0108602D03*
X0017300Y0108602D03*
X0017300Y0084602D03*
X0116800Y0128602D03*
X0094800Y0162602D03*
X0109800Y0167602D03*
X0113320Y0174282D03*
X0130800Y0187602D03*
X0156902Y0182705D03*
X0183800Y0158602D03*
X0187800Y0158602D03*
X0213800Y0161602D03*
X0217800Y0160602D03*
X0234800Y0164602D03*
X0252800Y0171602D03*
X0252800Y0176602D03*
X0252800Y0180602D03*
X0261800Y0191602D03*
X0266800Y0191602D03*
X0272800Y0205602D03*
X0266800Y0207602D03*
X0261800Y0207602D03*
X0257800Y0207602D03*
X0253800Y0207602D03*
X0276800Y0223602D03*
X0288800Y0212602D03*
X0298300Y0213102D03*
X0309800Y0198102D03*
X0292300Y0196602D03*
X0294300Y0183602D03*
X0288800Y0183602D03*
X0282800Y0168602D03*
X0306300Y0165602D03*
X0319324Y0165626D03*
X0321800Y0171602D03*
X0321800Y0176602D03*
X0321800Y0180602D03*
X0316800Y0180602D03*
X0310461Y0180702D03*
X0335565Y0170267D03*
X0350290Y0165362D03*
X0354300Y0171602D03*
X0372800Y0174602D03*
X0373800Y0182102D03*
X0376800Y0184602D03*
X0379800Y0181102D03*
X0381300Y0176602D03*
X0383800Y0173602D03*
X0372910Y0164612D03*
X0370910Y0161122D03*
X0361300Y0185602D03*
X0363800Y0189102D03*
X0376800Y0202102D03*
X0379800Y0199102D03*
X0382800Y0196102D03*
X0384800Y0203602D03*
X0370800Y0209602D03*
X0366800Y0209602D03*
X0360800Y0207602D03*
X0353800Y0211102D03*
X0368300Y0220602D03*
X0377300Y0213602D03*
X0353800Y0224602D03*
X0327800Y0240602D03*
X0319800Y0224602D03*
X0321800Y0214602D03*
X0307300Y0236602D03*
X0282800Y0255102D03*
X0276800Y0248602D03*
X0236800Y0249602D03*
X0220800Y0250602D03*
X0220800Y0237602D03*
X0173139Y0220264D03*
X0147800Y0229602D03*
X0143800Y0229602D03*
X0125800Y0231602D03*
X0143800Y0245602D03*
X0148800Y0248602D03*
X0130800Y0250602D03*
X0071300Y0218602D03*
X0055800Y0212102D03*
X0055800Y0201102D03*
X0054800Y0189102D03*
X0055300Y0178602D03*
X0055300Y0171102D03*
X0073800Y0168602D03*
X0035300Y0224102D03*
X0055300Y0224602D03*
X0167800Y0128602D03*
X0191800Y0135602D03*
X0207800Y0136602D03*
X0276800Y0111602D03*
X0276800Y0097602D03*
X0313800Y0091602D03*
X0325300Y0082102D03*
X0329800Y0083602D03*
X0332800Y0086602D03*
X0332800Y0067602D03*
X0345300Y0059102D03*
X0355300Y0055102D03*
X0365178Y0060602D03*
X0360800Y0063602D03*
X0332800Y0035102D03*
X0300800Y0036602D03*
X0313800Y0063602D03*
X0306800Y0066602D03*
X0360800Y0091602D03*
X0360800Y0119602D03*
X0313800Y0119602D03*
X0385800Y0266602D03*
M02*
